G04 #@! TF.GenerationSoftware,KiCad,Pcbnew,(5.0.0-3-g5ebb6b6)*
G04 #@! TF.CreationDate,2018-09-28T14:58:41+02:00*
G04 #@! TF.ProjectId,VESC-5,564553432D352E6B696361645F706362,A*
G04 #@! TF.SameCoordinates,Original*
G04 #@! TF.FileFunction,Copper,L3,Inr,Signal*
G04 #@! TF.FilePolarity,Positive*
%FSLAX46Y46*%
G04 Gerber Fmt 4.6, Leading zero omitted, Abs format (unit mm)*
G04 Created by KiCad (PCBNEW (5.0.0-3-g5ebb6b6)) date 2018 September 28, Friday 14:58:41*
%MOMM*%
%LPD*%
G01*
G04 APERTURE LIST*
G04 #@! TA.AperFunction,ViaPad*
%ADD10C,4.064000*%
G04 #@! TD*
G04 #@! TA.AperFunction,ViaPad*
%ADD11R,2.400000X2.400000*%
G04 #@! TD*
G04 #@! TA.AperFunction,ViaPad*
%ADD12C,2.400000*%
G04 #@! TD*
G04 #@! TA.AperFunction,ViaPad*
%ADD13C,1.300480*%
G04 #@! TD*
G04 #@! TA.AperFunction,ViaPad*
%ADD14R,1.198880X1.699260*%
G04 #@! TD*
G04 #@! TA.AperFunction,ViaPad*
%ADD15O,1.198880X1.699260*%
G04 #@! TD*
G04 #@! TA.AperFunction,ViaPad*
%ADD16O,3.048000X1.524000*%
G04 #@! TD*
G04 #@! TA.AperFunction,ViaPad*
%ADD17R,1.300000X1.300000*%
G04 #@! TD*
G04 #@! TA.AperFunction,ViaPad*
%ADD18C,1.300000*%
G04 #@! TD*
G04 #@! TA.AperFunction,ViaPad*
%ADD19C,0.800000*%
G04 #@! TD*
G04 #@! TA.AperFunction,Conductor*
%ADD20C,1.270000*%
G04 #@! TD*
G04 #@! TA.AperFunction,Conductor*
%ADD21C,1.016000*%
G04 #@! TD*
G04 #@! TA.AperFunction,Conductor*
%ADD22C,0.304800*%
G04 #@! TD*
G04 #@! TA.AperFunction,Conductor*
%ADD23C,0.635000*%
G04 #@! TD*
G04 #@! TA.AperFunction,Conductor*
%ADD24C,0.254000*%
G04 #@! TD*
G04 #@! TA.AperFunction,Conductor*
%ADD25C,0.508000*%
G04 #@! TD*
G04 APERTURE END LIST*
D10*
G04 #@! TO.N,N/C*
G04 #@! TO.C,1PIN*
X205994000Y-87630000D03*
G04 #@! TD*
G04 #@! TO.N,N/C*
G04 #@! TO.C,1PIN*
X221234000Y-87630000D03*
G04 #@! TD*
D11*
G04 #@! TO.N,GND*
G04 #@! TO.C,C46*
X225044000Y-114300000D03*
D12*
G04 #@! TO.N,V_SUPPLY*
X232544000Y-114300000D03*
G04 #@! TD*
G04 #@! TO.N,V_SUPPLY*
G04 #@! TO.C,C45*
X217304000Y-114300000D03*
D11*
G04 #@! TO.N,GND*
X209804000Y-114300000D03*
G04 #@! TD*
D12*
G04 #@! TO.N,V_SUPPLY*
G04 #@! TO.C,C42*
X202064000Y-114300000D03*
D11*
G04 #@! TO.N,GND*
X194564000Y-114300000D03*
G04 #@! TD*
D13*
G04 #@! TO.N,/Filters/HALL1_IN*
G04 #@! TO.C,P1*
X154392000Y-92322240D03*
G04 #@! TO.N,/Filters/HALL2_IN*
X154392000Y-94323760D03*
G04 #@! TO.N,/Filters/HALL3_IN*
X154392000Y-96322740D03*
G04 #@! TO.N,GND*
X154392000Y-98324260D03*
G04 #@! TO.N,/Filters/TEMP_IN*
X154392000Y-90323260D03*
G04 #@! TO.N,+5V*
X154392000Y-88321740D03*
G04 #@! TD*
D14*
G04 #@! TO.N,GND*
G04 #@! TO.C,P101*
X171863720Y-86673000D03*
D15*
G04 #@! TO.N,/CAN bus transceiver/CANH*
X175866760Y-86673000D03*
G04 #@! TO.N,/CAN bus transceiver/CANL*
X173865240Y-86673000D03*
G04 #@! TO.N,+5V*
X177865740Y-86673000D03*
G04 #@! TD*
D13*
G04 #@! TO.N,GND*
G04 #@! TO.C,P2*
X165338760Y-120523000D03*
G04 #@! TO.N,SWDIO*
X163337240Y-120523000D03*
G04 #@! TO.N,NRST*
X161338260Y-120523000D03*
G04 #@! TO.N,Net-(P2-Pad6)*
X159336740Y-120523000D03*
G04 #@! TO.N,SWCLK*
X167337740Y-120523000D03*
G04 #@! TO.N,VCC*
X169339260Y-120523000D03*
G04 #@! TD*
D16*
G04 #@! TO.N,Net-(K1-Pad1)*
G04 #@! TO.C,K1*
X155194000Y-114935000D03*
G04 #@! TO.N,+5V*
X155194000Y-117475000D03*
G04 #@! TO.N,GND*
X155194000Y-120015000D03*
G04 #@! TD*
D10*
G04 #@! TO.N,N/C*
G04 #@! TO.C,1PIN*
X149592000Y-120223000D03*
G04 #@! TD*
G04 #@! TO.N,N/C*
G04 #@! TO.C,1PIN*
X149592000Y-87723000D03*
G04 #@! TD*
D17*
G04 #@! TO.N,+5V*
G04 #@! TO.C,P3*
X173573440Y-120523000D03*
D18*
G04 #@! TO.N,GND*
X177576480Y-120523000D03*
G04 #@! TO.N,VCC*
X175574960Y-120523000D03*
G04 #@! TO.N,/SCK_ADC_EXT*
X179575460Y-120523000D03*
G04 #@! TO.N,/TX_SDA*
X181576980Y-120523000D03*
G04 #@! TO.N,/RX_SCL_MOSI*
X183578500Y-120523000D03*
G04 #@! TO.N,/MISO_RX_SCL*
X185577480Y-120523000D03*
G04 #@! TD*
D19*
G04 #@! TO.N,V_SUPPLY*
X207772000Y-109728000D03*
X206756000Y-109728000D03*
X205740000Y-109728000D03*
X204724000Y-109728000D03*
X203708000Y-109728000D03*
X203708000Y-108712000D03*
X204724000Y-108712000D03*
X205740000Y-108712000D03*
X206756000Y-108712000D03*
X207772000Y-108712000D03*
X207772000Y-107696000D03*
X206756000Y-107696000D03*
X205740000Y-107696000D03*
X204724000Y-107696000D03*
X203708000Y-107696000D03*
X203708000Y-106680000D03*
X204724000Y-106680000D03*
X205740000Y-106680000D03*
X206756000Y-106680000D03*
X207772000Y-106680000D03*
G04 #@! TO.N,GND*
X219456000Y-109728000D03*
X220472000Y-109728000D03*
X221488000Y-109728000D03*
X222504000Y-109728000D03*
X223520000Y-109728000D03*
X221488000Y-108712000D03*
X220472000Y-108712000D03*
X219456000Y-108712000D03*
X219456000Y-107696000D03*
X220472000Y-107696000D03*
X221488000Y-107696000D03*
X222504000Y-107696000D03*
X222504000Y-108712000D03*
X223520000Y-108712000D03*
X223520000Y-107696000D03*
X223520000Y-106680000D03*
X222504000Y-106680000D03*
X221488000Y-106680000D03*
X220472000Y-106680000D03*
X219456000Y-106680000D03*
X218186000Y-94996000D03*
X218186000Y-96266000D03*
X218186000Y-93726000D03*
G04 #@! TO.N,/Mosfet driver/H1_LOW*
X233172000Y-96266000D03*
X233172000Y-94996000D03*
X233172000Y-93726000D03*
G04 #@! TO.N,/Mosfet driver/H3_LOW*
X202438000Y-96266000D03*
X202438000Y-93726000D03*
X202438000Y-94996000D03*
G04 #@! TO.N,+5V*
X173863000Y-95123000D03*
X172792000Y-95123000D03*
X163792000Y-85623000D03*
X176657000Y-92202000D03*
G04 #@! TO.N,GND*
X173355000Y-107696000D03*
X158750000Y-109093000D03*
X166974994Y-114040006D03*
X176403000Y-109982000D03*
X178370416Y-109932331D03*
X156005482Y-104735630D03*
X169136032Y-116005385D03*
X168907782Y-98046218D03*
X172212000Y-117094000D03*
X173228000Y-117094000D03*
X174752000Y-104775000D03*
X168529000Y-103251000D03*
X174117000Y-105537000D03*
X163038706Y-99544003D03*
X165392000Y-92523000D03*
X159920655Y-96478293D03*
X159893000Y-94361000D03*
X160487501Y-91151238D03*
X181864000Y-96774000D03*
G04 #@! TO.N,NRST*
X158860515Y-105410000D03*
X154051000Y-99695000D03*
G04 #@! TO.N,Net-(C15-Pad1)*
X158242000Y-103251000D03*
G04 #@! TO.N,Net-(C16-Pad1)*
X163261565Y-114509870D03*
G04 #@! TO.N,Net-(C17-Pad1)*
X164992000Y-103573000D03*
G04 #@! TO.N,Net-(C18-Pad1)*
X169037000Y-107054698D03*
G04 #@! TO.N,Net-(C20-Pad2)*
X168257747Y-106355231D03*
X170053000Y-111760000D03*
G04 #@! TO.N,Net-(C27-Pad1)*
X176657000Y-98171000D03*
X176657000Y-97028000D03*
G04 #@! TO.N,Net-(C38-Pad1)*
X157400094Y-105597925D03*
G04 #@! TO.N,Net-(Q1-PadG)*
X194183000Y-97917000D03*
X226187000Y-98171000D03*
G04 #@! TO.N,Net-(Q2-PadG)*
X233172000Y-92329000D03*
G04 #@! TO.N,Net-(Q4-PadG)*
X218186000Y-92329000D03*
G04 #@! TO.N,Net-(Q6-PadG)*
X202438000Y-92329000D03*
G04 #@! TO.N,Net-(R21-Pad2)*
X171069000Y-100838000D03*
G04 #@! TO.N,Net-(R6-Pad1)*
X161492000Y-90123000D03*
G04 #@! TO.N,SWCLK*
X163957000Y-103124000D03*
G04 #@! TO.N,SWDIO*
X163449000Y-104394000D03*
G04 #@! TO.N,VCC*
X160274000Y-118617988D03*
X164106883Y-115358117D03*
X165159107Y-112267996D03*
X172192000Y-97423000D03*
X161992000Y-99073000D03*
X154432000Y-101854000D03*
X169291000Y-104775000D03*
X165192000Y-102073000D03*
X155829751Y-113423501D03*
G04 #@! TO.N,V_SUPPLY*
X180899589Y-117272589D03*
X166497000Y-90123000D03*
X178181000Y-117348000D03*
X178181000Y-100203000D03*
X177546000Y-102870000D03*
X181483000Y-95377000D03*
G04 #@! TO.N,/MCU/AN_IN*
X153506180Y-107823000D03*
X163292000Y-88823000D03*
G04 #@! TO.N,/MCU/SERVO*
X160948262Y-110533799D03*
G04 #@! TO.N,/Mosfet driver/H1_VS*
X229870000Y-86106000D03*
X228854000Y-89154000D03*
X230886000Y-87122000D03*
X228854000Y-88138000D03*
X230886000Y-89154000D03*
X226822000Y-88138000D03*
X228854000Y-87122000D03*
X230886000Y-88138000D03*
X227838000Y-89154000D03*
X226822000Y-86106000D03*
X230886000Y-86106000D03*
X227838000Y-88138000D03*
X229870000Y-89154000D03*
X226822000Y-87122000D03*
X226822000Y-89154000D03*
X227838000Y-86106000D03*
X227838000Y-87122000D03*
X229870000Y-87122000D03*
X229870000Y-88138000D03*
X228854000Y-86106000D03*
X181101988Y-106426000D03*
X166497000Y-92964000D03*
X226314000Y-93218000D03*
X229362000Y-94234000D03*
X227330000Y-92202000D03*
X228346000Y-94234000D03*
X228346000Y-96266000D03*
X227330000Y-94234000D03*
X228346000Y-92202000D03*
X229362000Y-95250000D03*
X226314000Y-96266000D03*
X226314000Y-92202000D03*
X228346000Y-95250000D03*
X229362000Y-93218000D03*
X227330000Y-96266000D03*
X229362000Y-96266000D03*
X226314000Y-95250000D03*
X227330000Y-95250000D03*
X227330000Y-93218000D03*
X228346000Y-93218000D03*
X226314000Y-94234000D03*
G04 #@! TO.N,/Mosfet driver/H2_VS*
X213614000Y-87122000D03*
X211582000Y-88138000D03*
X212598000Y-87122000D03*
X213614000Y-88138000D03*
X213614000Y-89154000D03*
X211582000Y-87122000D03*
X215646000Y-88138000D03*
X214630000Y-87122000D03*
X213614000Y-86106000D03*
X212598000Y-88138000D03*
X214630000Y-89154000D03*
X215646000Y-89154000D03*
X212598000Y-89154000D03*
X215646000Y-87122000D03*
X215646000Y-86106000D03*
X211582000Y-89154000D03*
X214630000Y-88138000D03*
X214630000Y-86106000D03*
X212598000Y-86106000D03*
X211582000Y-86106000D03*
X167992000Y-97423000D03*
X212598000Y-94234000D03*
X213614000Y-96266000D03*
X212598000Y-95250000D03*
X213614000Y-94234000D03*
X214630000Y-94234000D03*
X212598000Y-96266000D03*
X213614000Y-92202000D03*
X212598000Y-93218000D03*
X211582000Y-94234000D03*
X213614000Y-95250000D03*
X214630000Y-93218000D03*
X214630000Y-92202000D03*
X214630000Y-95250000D03*
X212598000Y-92202000D03*
X211582000Y-92202000D03*
X214630000Y-96266000D03*
X213614000Y-93218000D03*
X211582000Y-93218000D03*
X211582000Y-95250000D03*
X211582000Y-96266000D03*
X182499000Y-108712000D03*
G04 #@! TO.N,/Mosfet driver/H3_VS*
X198374000Y-87122000D03*
X199390000Y-87122000D03*
X196342000Y-88138000D03*
X197866000Y-95504000D03*
X198882000Y-92456000D03*
X198882000Y-95504000D03*
X195834000Y-92456000D03*
X196850000Y-92456000D03*
X198882000Y-93472000D03*
X200406000Y-89154000D03*
X200406000Y-86106000D03*
X196342000Y-87122000D03*
X196850000Y-95504000D03*
X196342000Y-86106000D03*
X196850000Y-93472000D03*
X197866000Y-96520000D03*
X199390000Y-88138000D03*
X197358000Y-87122000D03*
X198374000Y-86106000D03*
X198374000Y-89154000D03*
X199390000Y-89154000D03*
X200406000Y-87122000D03*
X197358000Y-86106000D03*
X199390000Y-86106000D03*
X197866000Y-94488000D03*
X198374000Y-88138000D03*
X200406000Y-88138000D03*
X197358000Y-89154000D03*
X196342000Y-89154000D03*
X197358000Y-88138000D03*
X198882000Y-94488000D03*
X196850000Y-96520000D03*
X197866000Y-92456000D03*
X195834000Y-94488000D03*
X195834000Y-93472000D03*
X198882000Y-96520000D03*
X197866000Y-93472000D03*
X195834000Y-95504000D03*
X196850000Y-94488000D03*
X195834000Y-96520000D03*
X163324522Y-92723000D03*
X184804198Y-110001198D03*
G04 #@! TO.N,/Mosfet driver/H1_LOW*
X178308000Y-107696000D03*
X218440000Y-101161800D03*
G04 #@! TO.N,/Mosfet driver/H3_LOW*
X184745657Y-111514353D03*
G04 #@! TO.N,/MCU/SENS1*
X163342000Y-97523000D03*
X154305000Y-113284000D03*
G04 #@! TO.N,/MCU/SENS2*
X165100000Y-97155000D03*
X155449150Y-112015150D03*
G04 #@! TO.N,/Mosfet driver/M_H1*
X178308000Y-105537000D03*
X190373000Y-97536000D03*
G04 #@! TO.N,/Mosfet driver/M_L1*
X178356639Y-106664730D03*
X229108000Y-90678000D03*
G04 #@! TO.N,/MCU/SENS3*
X167005000Y-97663000D03*
X153506180Y-109855000D03*
G04 #@! TO.N,/Mosfet driver/M_H2*
X192532000Y-103124000D03*
X192532000Y-107950000D03*
G04 #@! TO.N,/Mosfet driver/M_L2*
X178346799Y-108819601D03*
X225028698Y-92202000D03*
G04 #@! TO.N,/Mosfet driver/M_H3*
X178298383Y-113274383D03*
X189484000Y-99060000D03*
G04 #@! TO.N,/Mosfet driver/M_L3*
X182022780Y-111606273D03*
X208661000Y-92202000D03*
G04 #@! TO.N,/Mosfet driver/SH1_A*
X185723096Y-111487351D03*
G04 #@! TO.N,/Mosfet driver/SH1_B*
X186817000Y-114046000D03*
G04 #@! TO.N,/Mosfet driver/SH2_A*
X222685128Y-100653802D03*
X186817000Y-116078000D03*
G04 #@! TO.N,/Mosfet driver/SH2_B*
X222758000Y-102038198D03*
X186817000Y-117602000D03*
G04 #@! TO.N,/MCU/DC_CAL*
X173216717Y-106728015D03*
X166333489Y-111404969D03*
G04 #@! TO.N,/MCU/L3*
X164944639Y-111313994D03*
X173355000Y-113284000D03*
G04 #@! TO.N,/MCU/L2*
X164075242Y-110866484D03*
X173228000Y-111125000D03*
G04 #@! TO.N,/MCU/L1*
X173228000Y-110108996D03*
X163703000Y-109855000D03*
G04 #@! TO.N,/MCU/EN_GATE*
X163957000Y-106426000D03*
X173228000Y-108712000D03*
G04 #@! TO.N,/MCU/FAULT*
X173542000Y-102673000D03*
X162179000Y-102743000D03*
G04 #@! TO.N,/MCU/H1*
X164973000Y-106807000D03*
X170180000Y-109601000D03*
G04 #@! TO.N,/MCU/USB_DP*
X164292000Y-96423000D03*
X164942000Y-105073000D03*
G04 #@! TO.N,/Filters/HALL3_OUT*
X162222467Y-100082398D03*
G04 #@! TO.N,/Filters/HALL2_OUT*
X158892000Y-99828312D03*
G04 #@! TO.N,/Filters/HALL1_OUT*
X158914574Y-95676446D03*
G04 #@! TO.N,/CAN bus transceiver/CANH*
X167692000Y-94323000D03*
X161939710Y-94515526D03*
G04 #@! TO.N,/MCU/LED_GREEN*
X161036000Y-115697000D03*
G04 #@! TO.N,/MCU/LED_RED*
X162204133Y-116072234D03*
G04 #@! TO.N,Net-(R402-Pad1)*
X158992000Y-91123000D03*
G04 #@! TO.N,/SCK_ADC_EXT*
X159004000Y-110998000D03*
G04 #@! TO.N,/TX_SDA*
X159385000Y-109855000D03*
X163435780Y-108712000D03*
G04 #@! TO.N,/RX_SCL_MOSI*
X163013418Y-107696000D03*
G04 #@! TO.N,/MISO_RX_SCL*
X160655000Y-109600992D03*
G04 #@! TD*
D20*
G04 #@! TO.N,+5V*
X155956000Y-117475000D02*
X155194000Y-117475000D01*
X157556189Y-115874811D02*
X155956000Y-117475000D01*
X157556189Y-110947189D02*
X157556189Y-115874811D01*
X154792680Y-108183680D02*
X157556189Y-110947189D01*
X154792680Y-104136557D02*
X154792680Y-108183680D01*
X155311578Y-88321740D02*
X156894874Y-89905036D01*
X156894874Y-102034363D02*
X154792680Y-104136557D01*
X156894874Y-89905036D02*
X156894874Y-102034363D01*
X154392000Y-88321740D02*
X155311578Y-88321740D01*
D21*
X156210000Y-117475000D02*
X155194000Y-117475000D01*
X155194000Y-117475000D02*
X154644000Y-117475000D01*
D22*
G04 #@! TO.N,GND*
X158130295Y-108473295D02*
X158750000Y-109093000D01*
X158130295Y-104632705D02*
X158130295Y-108473295D01*
X159920655Y-96478293D02*
X159920655Y-102842345D01*
X159920655Y-102842345D02*
X158130295Y-104632705D01*
X163038706Y-98978318D02*
X160538681Y-96478293D01*
X163038706Y-99544003D02*
X163038706Y-98978318D01*
X160538681Y-96478293D02*
X159920655Y-96478293D01*
D23*
X171863720Y-88297720D02*
X172720000Y-89154000D01*
X172720000Y-89154000D02*
X177661000Y-89154000D01*
X177661000Y-89154000D02*
X178792000Y-88023000D01*
X171863720Y-86673000D02*
X171863720Y-88297720D01*
D24*
G04 #@! TO.N,NRST*
X161338260Y-118512154D02*
X161338260Y-120523000D01*
X158860515Y-105410000D02*
X158860515Y-106409515D01*
X161671000Y-109220000D02*
X161671000Y-111300656D01*
X161671000Y-111300656D02*
X159054811Y-113916845D01*
X158860515Y-106409515D02*
X161671000Y-109220000D01*
X159054811Y-113916845D02*
X159054811Y-116228705D01*
X159054811Y-116228705D02*
X161338260Y-118512154D01*
G04 #@! TO.N,SWCLK*
X163322000Y-119253000D02*
X166067740Y-119253000D01*
X159918433Y-115849433D02*
X163322000Y-119253000D01*
X162687000Y-108966000D02*
X162687000Y-111506000D01*
X162941000Y-105283000D02*
X161798000Y-106426000D01*
X166067740Y-119253000D02*
X167337740Y-120523000D01*
X163703000Y-105283000D02*
X162941000Y-105283000D01*
X164338000Y-104648000D02*
X163703000Y-105283000D01*
X163957000Y-103759000D02*
X164338000Y-104140000D01*
X163957000Y-103124000D02*
X163957000Y-103759000D01*
X164338000Y-104140000D02*
X164338000Y-104648000D01*
X161798000Y-106426000D02*
X161798000Y-108077000D01*
X162687000Y-111506000D02*
X159918433Y-114274567D01*
X161798000Y-108077000D02*
X162687000Y-108966000D01*
X159918433Y-114274567D02*
X159918433Y-115849433D01*
G04 #@! TO.N,SWDIO*
X162179000Y-109068672D02*
X162179000Y-111403328D01*
X162687001Y-119250223D02*
X162687001Y-119872761D01*
X163449000Y-104394000D02*
X162883315Y-104394000D01*
X162179000Y-111403328D02*
X159486622Y-114095706D01*
X161366189Y-108255861D02*
X162179000Y-109068672D01*
X162687001Y-119872761D02*
X163337240Y-120523000D01*
X161366189Y-105911126D02*
X161366189Y-108255861D01*
X162883315Y-104394000D02*
X161366189Y-105911126D01*
X159486622Y-116049844D02*
X162687001Y-119250223D01*
X159486622Y-114095706D02*
X159486622Y-116049844D01*
D21*
G04 #@! TO.N,V_SUPPLY*
X180975000Y-117348000D02*
X179650008Y-117348000D01*
X179650008Y-117348000D02*
X178181000Y-117348000D01*
X180899589Y-117272589D02*
X180333904Y-117272589D01*
X180333904Y-117272589D02*
X180258493Y-117348000D01*
X180258493Y-117348000D02*
X179650008Y-117348000D01*
D24*
X173938496Y-100203000D02*
X168396801Y-94661305D01*
X168396801Y-94661305D02*
X168396801Y-92227801D01*
X178181000Y-100203000D02*
X173938496Y-100203000D01*
X168396801Y-92227801D02*
X166292000Y-90123000D01*
D25*
G04 #@! TO.N,/Mosfet driver/H3_VS*
X163324522Y-90120556D02*
X163324522Y-92723000D01*
X165499079Y-87945999D02*
X163324522Y-90120556D01*
X166414921Y-87945999D02*
X165499079Y-87945999D01*
X168372231Y-89903309D02*
X166414921Y-87945999D01*
X195592691Y-89903309D02*
X168372231Y-89903309D01*
X196342000Y-89154000D02*
X195592691Y-89903309D01*
D23*
G04 #@! TO.N,/Mosfet driver/H1_LOW*
X178308000Y-107696000D02*
X176657000Y-107696000D01*
X176657000Y-107696000D02*
X175260000Y-109093000D01*
D25*
X218440000Y-101161800D02*
X197279713Y-101161800D01*
X186138926Y-112302587D02*
X186138926Y-112438074D01*
X197279713Y-101161800D02*
X186138926Y-112302587D01*
X175260000Y-110070066D02*
X175260000Y-109093000D01*
X177628008Y-112438074D02*
X175260000Y-110070066D01*
X186138926Y-112438074D02*
X177628008Y-112438074D01*
G04 #@! TO.N,/Mosfet driver/M_L1*
X178922324Y-106664730D02*
X178356639Y-106664730D01*
X184277000Y-101310054D02*
X178922324Y-106664730D01*
X184277000Y-92456000D02*
X184277000Y-101310054D01*
X186055000Y-90678000D02*
X184277000Y-92456000D01*
X229108000Y-90678000D02*
X186055000Y-90678000D01*
G04 #@! TO.N,/Mosfet driver/M_L2*
X224190508Y-91363810D02*
X186385190Y-91363810D01*
X225028698Y-92202000D02*
X224190508Y-91363810D01*
X186385190Y-91363810D02*
X185420000Y-92329000D01*
X179939453Y-108819601D02*
X178346799Y-108819601D01*
X185420000Y-103339054D02*
X179939453Y-108819601D01*
X185420000Y-92329000D02*
X185420000Y-103339054D01*
G04 #@! TO.N,/Mosfet driver/M_L3*
X194880252Y-98748801D02*
X182022780Y-111606273D01*
X202114199Y-98748801D02*
X194880252Y-98748801D01*
X208661000Y-92202000D02*
X202114199Y-98748801D01*
D24*
G04 #@! TO.N,/MCU/FAULT*
X166604000Y-102235000D02*
X173104000Y-102235000D01*
X173104000Y-102235000D02*
X173542000Y-102673000D01*
X162179000Y-102743000D02*
X163599000Y-101323000D01*
X165692000Y-101323000D02*
X166604000Y-102235000D01*
X163599000Y-101323000D02*
X165692000Y-101323000D01*
G04 #@! TD*
G04 #@! TO.N,GND*
G36*
X190373000Y-89268309D02*
X168635256Y-89268309D01*
X166885995Y-87519049D01*
X166866106Y-87494814D01*
X166769415Y-87415462D01*
X166659101Y-87356497D01*
X166539403Y-87320187D01*
X166446113Y-87310999D01*
X166446102Y-87310999D01*
X166414921Y-87307928D01*
X166383740Y-87310999D01*
X165530259Y-87310999D01*
X165499078Y-87307928D01*
X165467897Y-87310999D01*
X165467887Y-87310999D01*
X165374597Y-87320187D01*
X165254899Y-87356497D01*
X165144585Y-87415462D01*
X165047894Y-87494814D01*
X165028009Y-87519044D01*
X164016297Y-88530756D01*
X163984113Y-88453058D01*
X163898642Y-88325141D01*
X163789859Y-88216358D01*
X163661942Y-88130887D01*
X163519809Y-88072013D01*
X163368922Y-88042000D01*
X163215078Y-88042000D01*
X163064191Y-88072013D01*
X162922058Y-88130887D01*
X162794141Y-88216358D01*
X162685358Y-88325141D01*
X162658910Y-88364723D01*
X162641318Y-88338395D01*
X162518605Y-88215682D01*
X162374310Y-88119268D01*
X162213978Y-88052856D01*
X162043771Y-88019000D01*
X161870229Y-88019000D01*
X161700022Y-88052856D01*
X161539690Y-88119268D01*
X161395395Y-88215682D01*
X161272682Y-88338395D01*
X161176268Y-88482690D01*
X161109856Y-88643022D01*
X161076000Y-88813229D01*
X161076000Y-88986771D01*
X161109856Y-89156978D01*
X161176268Y-89317310D01*
X161223955Y-89388679D01*
X161122058Y-89430887D01*
X160994141Y-89516358D01*
X160885358Y-89625141D01*
X160799887Y-89753058D01*
X160741013Y-89895191D01*
X160711000Y-90046078D01*
X160711000Y-90199922D01*
X160741013Y-90350809D01*
X160799887Y-90492942D01*
X160885358Y-90620859D01*
X160994141Y-90729642D01*
X161122058Y-90815113D01*
X161264191Y-90873987D01*
X161415078Y-90904000D01*
X161568922Y-90904000D01*
X161719809Y-90873987D01*
X161861942Y-90815113D01*
X161989859Y-90729642D01*
X162098642Y-90620859D01*
X162184113Y-90492942D01*
X162242987Y-90350809D01*
X162273000Y-90199922D01*
X162273000Y-90046078D01*
X162242987Y-89895191D01*
X162184123Y-89753082D01*
X162213978Y-89747144D01*
X162374310Y-89680732D01*
X162518605Y-89584318D01*
X162641318Y-89461605D01*
X162715333Y-89350834D01*
X162794141Y-89429642D01*
X162922058Y-89515113D01*
X162999757Y-89547297D01*
X162897572Y-89649482D01*
X162873337Y-89669371D01*
X162793985Y-89766063D01*
X162735020Y-89876377D01*
X162698710Y-89996075D01*
X162689522Y-90089365D01*
X162689522Y-90089375D01*
X162686451Y-90120556D01*
X162689522Y-90151737D01*
X162689523Y-92267581D01*
X162632409Y-92353058D01*
X162573535Y-92495191D01*
X162543522Y-92646078D01*
X162543522Y-92799922D01*
X162573535Y-92950809D01*
X162632409Y-93092942D01*
X162717880Y-93220859D01*
X162826663Y-93329642D01*
X162954580Y-93415113D01*
X163096713Y-93473987D01*
X163247600Y-93504000D01*
X163401444Y-93504000D01*
X163552331Y-93473987D01*
X163694464Y-93415113D01*
X163822381Y-93329642D01*
X163931164Y-93220859D01*
X164016635Y-93092942D01*
X164075509Y-92950809D01*
X164088185Y-92887078D01*
X165716000Y-92887078D01*
X165716000Y-93040922D01*
X165746013Y-93191809D01*
X165804887Y-93333942D01*
X165890358Y-93461859D01*
X165999141Y-93570642D01*
X166127058Y-93656113D01*
X166269191Y-93714987D01*
X166420078Y-93745000D01*
X166573922Y-93745000D01*
X166724809Y-93714987D01*
X166866942Y-93656113D01*
X166994859Y-93570642D01*
X167103642Y-93461859D01*
X167189113Y-93333942D01*
X167247987Y-93191809D01*
X167278000Y-93040922D01*
X167278000Y-92887078D01*
X167247987Y-92736191D01*
X167189113Y-92594058D01*
X167103642Y-92466141D01*
X166994859Y-92357358D01*
X166866942Y-92271887D01*
X166724809Y-92213013D01*
X166573922Y-92183000D01*
X166420078Y-92183000D01*
X166269191Y-92213013D01*
X166127058Y-92271887D01*
X165999141Y-92357358D01*
X165890358Y-92466141D01*
X165804887Y-92594058D01*
X165746013Y-92736191D01*
X165716000Y-92887078D01*
X164088185Y-92887078D01*
X164105522Y-92799922D01*
X164105522Y-92646078D01*
X164075509Y-92495191D01*
X164016635Y-92353058D01*
X163959522Y-92267582D01*
X163959522Y-90383580D01*
X165132195Y-89210908D01*
X165176268Y-89317310D01*
X165272682Y-89461605D01*
X165395395Y-89584318D01*
X165539690Y-89680732D01*
X165700022Y-89747144D01*
X165799168Y-89766865D01*
X165746013Y-89895191D01*
X165716000Y-90046078D01*
X165716000Y-90199922D01*
X165746013Y-90350809D01*
X165804887Y-90492942D01*
X165890358Y-90620859D01*
X165999141Y-90729642D01*
X166127058Y-90815113D01*
X166269191Y-90873987D01*
X166338317Y-90887737D01*
X167888802Y-92438223D01*
X167888801Y-93565845D01*
X167768922Y-93542000D01*
X167615078Y-93542000D01*
X167464191Y-93572013D01*
X167322058Y-93630887D01*
X167194141Y-93716358D01*
X167085358Y-93825141D01*
X166999887Y-93953058D01*
X166941013Y-94095191D01*
X166911000Y-94246078D01*
X166911000Y-94399922D01*
X166941013Y-94550809D01*
X166999887Y-94692942D01*
X167085358Y-94820859D01*
X167194141Y-94929642D01*
X167322058Y-95015113D01*
X167464191Y-95073987D01*
X167615078Y-95104000D01*
X167768922Y-95104000D01*
X167919809Y-95073987D01*
X168038822Y-95024690D01*
X168055236Y-95038160D01*
X173561646Y-100544571D01*
X173577548Y-100563948D01*
X173596925Y-100579850D01*
X173654900Y-100627429D01*
X173738255Y-100671983D01*
X173743153Y-100674601D01*
X173838911Y-100703649D01*
X173913549Y-100711000D01*
X173913551Y-100711000D01*
X173938495Y-100713457D01*
X173963439Y-100711000D01*
X177584499Y-100711000D01*
X177683141Y-100809642D01*
X177811058Y-100895113D01*
X177953191Y-100953987D01*
X178104078Y-100984000D01*
X178257922Y-100984000D01*
X178408809Y-100953987D01*
X178550942Y-100895113D01*
X178678859Y-100809642D01*
X178787642Y-100700859D01*
X178873113Y-100572942D01*
X178931987Y-100430809D01*
X178962000Y-100279922D01*
X178962000Y-100126078D01*
X178931987Y-99975191D01*
X178873113Y-99833058D01*
X178787642Y-99705141D01*
X178678859Y-99596358D01*
X178550942Y-99510887D01*
X178408809Y-99452013D01*
X178257922Y-99422000D01*
X178104078Y-99422000D01*
X177953191Y-99452013D01*
X177811058Y-99510887D01*
X177683141Y-99596358D01*
X177584499Y-99695000D01*
X174148917Y-99695000D01*
X172566191Y-98112274D01*
X172689859Y-98029642D01*
X172798642Y-97920859D01*
X172884113Y-97792942D01*
X172942987Y-97650809D01*
X172973000Y-97499922D01*
X172973000Y-97346078D01*
X172942987Y-97195191D01*
X172884113Y-97053058D01*
X172815973Y-96951078D01*
X175876000Y-96951078D01*
X175876000Y-97104922D01*
X175906013Y-97255809D01*
X175964887Y-97397942D01*
X176050358Y-97525859D01*
X176123999Y-97599500D01*
X176050358Y-97673141D01*
X175964887Y-97801058D01*
X175906013Y-97943191D01*
X175876000Y-98094078D01*
X175876000Y-98247922D01*
X175906013Y-98398809D01*
X175964887Y-98540942D01*
X176050358Y-98668859D01*
X176159141Y-98777642D01*
X176287058Y-98863113D01*
X176429191Y-98921987D01*
X176580078Y-98952000D01*
X176733922Y-98952000D01*
X176884809Y-98921987D01*
X177026942Y-98863113D01*
X177154859Y-98777642D01*
X177263642Y-98668859D01*
X177349113Y-98540942D01*
X177407987Y-98398809D01*
X177438000Y-98247922D01*
X177438000Y-98094078D01*
X177407987Y-97943191D01*
X177349113Y-97801058D01*
X177263642Y-97673141D01*
X177190001Y-97599500D01*
X177263642Y-97525859D01*
X177349113Y-97397942D01*
X177407987Y-97255809D01*
X177438000Y-97104922D01*
X177438000Y-96951078D01*
X177407987Y-96800191D01*
X177349113Y-96658058D01*
X177263642Y-96530141D01*
X177154859Y-96421358D01*
X177026942Y-96335887D01*
X176884809Y-96277013D01*
X176733922Y-96247000D01*
X176580078Y-96247000D01*
X176429191Y-96277013D01*
X176287058Y-96335887D01*
X176159141Y-96421358D01*
X176050358Y-96530141D01*
X175964887Y-96658058D01*
X175906013Y-96800191D01*
X175876000Y-96951078D01*
X172815973Y-96951078D01*
X172798642Y-96925141D01*
X172689859Y-96816358D01*
X172561942Y-96730887D01*
X172419809Y-96672013D01*
X172268922Y-96642000D01*
X172115078Y-96642000D01*
X171964191Y-96672013D01*
X171822058Y-96730887D01*
X171694141Y-96816358D01*
X171585358Y-96925141D01*
X171502726Y-97048809D01*
X169499995Y-95046078D01*
X172011000Y-95046078D01*
X172011000Y-95199922D01*
X172041013Y-95350809D01*
X172099887Y-95492942D01*
X172185358Y-95620859D01*
X172294141Y-95729642D01*
X172422058Y-95815113D01*
X172564191Y-95873987D01*
X172715078Y-95904000D01*
X172868922Y-95904000D01*
X173019809Y-95873987D01*
X173161942Y-95815113D01*
X173289859Y-95729642D01*
X173327500Y-95692001D01*
X173365141Y-95729642D01*
X173493058Y-95815113D01*
X173635191Y-95873987D01*
X173786078Y-95904000D01*
X173939922Y-95904000D01*
X174090809Y-95873987D01*
X174232942Y-95815113D01*
X174360859Y-95729642D01*
X174469642Y-95620859D01*
X174555113Y-95492942D01*
X174613987Y-95350809D01*
X174624077Y-95300078D01*
X180702000Y-95300078D01*
X180702000Y-95453922D01*
X180732013Y-95604809D01*
X180790887Y-95746942D01*
X180876358Y-95874859D01*
X180985141Y-95983642D01*
X181113058Y-96069113D01*
X181255191Y-96127987D01*
X181406078Y-96158000D01*
X181559922Y-96158000D01*
X181710809Y-96127987D01*
X181852942Y-96069113D01*
X181980859Y-95983642D01*
X182089642Y-95874859D01*
X182175113Y-95746942D01*
X182233987Y-95604809D01*
X182264000Y-95453922D01*
X182264000Y-95300078D01*
X182233987Y-95149191D01*
X182175113Y-95007058D01*
X182089642Y-94879141D01*
X181980859Y-94770358D01*
X181852942Y-94684887D01*
X181710809Y-94626013D01*
X181559922Y-94596000D01*
X181406078Y-94596000D01*
X181255191Y-94626013D01*
X181113058Y-94684887D01*
X180985141Y-94770358D01*
X180876358Y-94879141D01*
X180790887Y-95007058D01*
X180732013Y-95149191D01*
X180702000Y-95300078D01*
X174624077Y-95300078D01*
X174644000Y-95199922D01*
X174644000Y-95046078D01*
X174613987Y-94895191D01*
X174555113Y-94753058D01*
X174469642Y-94625141D01*
X174360859Y-94516358D01*
X174232942Y-94430887D01*
X174090809Y-94372013D01*
X173939922Y-94342000D01*
X173786078Y-94342000D01*
X173635191Y-94372013D01*
X173493058Y-94430887D01*
X173365141Y-94516358D01*
X173327500Y-94553999D01*
X173289859Y-94516358D01*
X173161942Y-94430887D01*
X173019809Y-94372013D01*
X172868922Y-94342000D01*
X172715078Y-94342000D01*
X172564191Y-94372013D01*
X172422058Y-94430887D01*
X172294141Y-94516358D01*
X172185358Y-94625141D01*
X172099887Y-94753058D01*
X172041013Y-94895191D01*
X172011000Y-95046078D01*
X169499995Y-95046078D01*
X168904801Y-94450885D01*
X168904801Y-92252744D01*
X168907258Y-92227800D01*
X168904801Y-92202854D01*
X168897450Y-92128216D01*
X168896499Y-92125078D01*
X175876000Y-92125078D01*
X175876000Y-92278922D01*
X175906013Y-92429809D01*
X175964887Y-92571942D01*
X176050358Y-92699859D01*
X176159141Y-92808642D01*
X176287058Y-92894113D01*
X176429191Y-92952987D01*
X176580078Y-92983000D01*
X176733922Y-92983000D01*
X176884809Y-92952987D01*
X177026942Y-92894113D01*
X177154859Y-92808642D01*
X177263642Y-92699859D01*
X177349113Y-92571942D01*
X177407987Y-92429809D01*
X177438000Y-92278922D01*
X177438000Y-92125078D01*
X177407987Y-91974191D01*
X177349113Y-91832058D01*
X177263642Y-91704141D01*
X177154859Y-91595358D01*
X177026942Y-91509887D01*
X176884809Y-91451013D01*
X176733922Y-91421000D01*
X176580078Y-91421000D01*
X176429191Y-91451013D01*
X176287058Y-91509887D01*
X176159141Y-91595358D01*
X176050358Y-91704141D01*
X175964887Y-91832058D01*
X175906013Y-91974191D01*
X175876000Y-92125078D01*
X168896499Y-92125078D01*
X168868402Y-92032458D01*
X168845506Y-91989622D01*
X168821230Y-91944205D01*
X168773651Y-91886230D01*
X168757749Y-91866853D01*
X168738372Y-91850951D01*
X167245129Y-90357709D01*
X167247987Y-90350809D01*
X167278000Y-90199922D01*
X167278000Y-90046078D01*
X167247987Y-89895191D01*
X167189113Y-89753058D01*
X167103642Y-89625141D01*
X166994859Y-89516358D01*
X166866942Y-89430887D01*
X166724809Y-89372013D01*
X166703953Y-89367864D01*
X166737732Y-89317310D01*
X166781805Y-89210908D01*
X167901161Y-90330264D01*
X167921046Y-90354494D01*
X167945274Y-90374377D01*
X168017736Y-90433846D01*
X168056162Y-90454385D01*
X168128051Y-90492811D01*
X168247749Y-90529121D01*
X168341039Y-90538309D01*
X168341049Y-90538309D01*
X168372230Y-90541380D01*
X168403411Y-90538309D01*
X185296665Y-90538309D01*
X183850050Y-91984926D01*
X183825815Y-92004815D01*
X183746463Y-92101507D01*
X183687498Y-92211821D01*
X183651188Y-92331519D01*
X183642000Y-92424809D01*
X183642000Y-92424819D01*
X183638929Y-92456000D01*
X183642000Y-92487181D01*
X183642001Y-101047027D01*
X179089000Y-105600030D01*
X179089000Y-105460078D01*
X179058987Y-105309191D01*
X179000113Y-105167058D01*
X178914642Y-105039141D01*
X178805859Y-104930358D01*
X178677942Y-104844887D01*
X178535809Y-104786013D01*
X178384922Y-104756000D01*
X178231078Y-104756000D01*
X178080191Y-104786013D01*
X177938058Y-104844887D01*
X177810141Y-104930358D01*
X177701358Y-105039141D01*
X177615887Y-105167058D01*
X177557013Y-105309191D01*
X177527000Y-105460078D01*
X177527000Y-105613922D01*
X177557013Y-105764809D01*
X177615887Y-105906942D01*
X177701358Y-106034859D01*
X177791684Y-106125185D01*
X177749997Y-106166871D01*
X177664526Y-106294788D01*
X177605652Y-106436921D01*
X177575639Y-106587808D01*
X177575639Y-106741652D01*
X177605652Y-106892539D01*
X177649129Y-106997500D01*
X176691297Y-106997500D01*
X176656999Y-106994122D01*
X176622701Y-106997500D01*
X176622691Y-106997500D01*
X176520070Y-107007607D01*
X176388403Y-107047548D01*
X176388401Y-107047549D01*
X176267056Y-107112409D01*
X176188369Y-107176987D01*
X176160697Y-107199697D01*
X176138829Y-107226343D01*
X174741826Y-108623347D01*
X174676409Y-108703057D01*
X174611549Y-108824402D01*
X174571608Y-108956071D01*
X174558122Y-109093000D01*
X174571608Y-109229929D01*
X174611549Y-109361598D01*
X174625001Y-109386764D01*
X174625000Y-110038884D01*
X174621929Y-110070066D01*
X174625000Y-110101247D01*
X174625000Y-110101257D01*
X174634188Y-110194547D01*
X174670498Y-110314245D01*
X174729463Y-110424559D01*
X174808815Y-110521251D01*
X174833050Y-110541140D01*
X177156938Y-112865029D01*
X177176823Y-112889259D01*
X177273514Y-112968611D01*
X177383828Y-113027576D01*
X177503526Y-113063886D01*
X177543176Y-113067791D01*
X177517383Y-113197461D01*
X177517383Y-113351305D01*
X177547396Y-113502192D01*
X177606270Y-113644325D01*
X177691741Y-113772242D01*
X177800524Y-113881025D01*
X177928441Y-113966496D01*
X178070574Y-114025370D01*
X178221461Y-114055383D01*
X178375305Y-114055383D01*
X178526192Y-114025370D01*
X178662091Y-113969078D01*
X186036000Y-113969078D01*
X186036000Y-114122922D01*
X186066013Y-114273809D01*
X186124887Y-114415942D01*
X186210358Y-114543859D01*
X186319141Y-114652642D01*
X186447058Y-114738113D01*
X186589191Y-114796987D01*
X186740078Y-114827000D01*
X186893922Y-114827000D01*
X187044809Y-114796987D01*
X187186942Y-114738113D01*
X187314859Y-114652642D01*
X187423642Y-114543859D01*
X187509113Y-114415942D01*
X187567987Y-114273809D01*
X187598000Y-114122922D01*
X187598000Y-113969078D01*
X187567987Y-113818191D01*
X187509113Y-113676058D01*
X187423642Y-113548141D01*
X187314859Y-113439358D01*
X187186942Y-113353887D01*
X187044809Y-113295013D01*
X186893922Y-113265000D01*
X186740078Y-113265000D01*
X186589191Y-113295013D01*
X186447058Y-113353887D01*
X186319141Y-113439358D01*
X186210358Y-113548141D01*
X186124887Y-113676058D01*
X186066013Y-113818191D01*
X186036000Y-113969078D01*
X178662091Y-113969078D01*
X178668325Y-113966496D01*
X178796242Y-113881025D01*
X178905025Y-113772242D01*
X178990496Y-113644325D01*
X179049370Y-113502192D01*
X179079383Y-113351305D01*
X179079383Y-113197461D01*
X179054641Y-113073074D01*
X186107735Y-113073074D01*
X186138926Y-113076146D01*
X186263408Y-113063886D01*
X186383106Y-113027576D01*
X186493420Y-112968611D01*
X186590111Y-112889259D01*
X186602110Y-112874638D01*
X186669463Y-112792568D01*
X186728428Y-112682254D01*
X186759407Y-112580130D01*
X190373000Y-108966537D01*
X190373000Y-115530045D01*
X190352128Y-115555478D01*
X190307464Y-115639039D01*
X190279960Y-115729708D01*
X190270673Y-115824000D01*
X190273001Y-115847636D01*
X190273000Y-123063197D01*
X152719000Y-123095889D01*
X152719000Y-120217145D01*
X153358670Y-120217145D01*
X153410787Y-120403633D01*
X153506228Y-120595394D01*
X153637246Y-120764851D01*
X153798806Y-120905492D01*
X153984699Y-121011911D01*
X154187782Y-121080020D01*
X154400250Y-121107200D01*
X155162250Y-121107200D01*
X155162250Y-120046750D01*
X155225750Y-120046750D01*
X155225750Y-121107200D01*
X155987750Y-121107200D01*
X156200218Y-121080020D01*
X156403301Y-121011911D01*
X156589194Y-120905492D01*
X156750754Y-120764851D01*
X156881772Y-120595394D01*
X156977213Y-120403633D01*
X157029330Y-120217145D01*
X156965151Y-120046750D01*
X155225750Y-120046750D01*
X155162250Y-120046750D01*
X153422849Y-120046750D01*
X153358670Y-120217145D01*
X152719000Y-120217145D01*
X152719000Y-119812855D01*
X153358670Y-119812855D01*
X153422849Y-119983250D01*
X155162250Y-119983250D01*
X155162250Y-118922800D01*
X155225750Y-118922800D01*
X155225750Y-119983250D01*
X156965151Y-119983250D01*
X157029330Y-119812855D01*
X156977213Y-119626367D01*
X156881772Y-119434606D01*
X156750754Y-119265149D01*
X156589194Y-119124508D01*
X156403301Y-119018089D01*
X156200218Y-118949980D01*
X155987750Y-118922800D01*
X155225750Y-118922800D01*
X155162250Y-118922800D01*
X154400250Y-118922800D01*
X154187782Y-118949980D01*
X153984699Y-119018089D01*
X153798806Y-119124508D01*
X153637246Y-119265149D01*
X153506228Y-119434606D01*
X153410787Y-119626367D01*
X153358670Y-119812855D01*
X152719000Y-119812855D01*
X152719000Y-109778078D01*
X152725180Y-109778078D01*
X152725180Y-109931922D01*
X152755193Y-110082809D01*
X152814067Y-110224942D01*
X152899538Y-110352859D01*
X153008321Y-110461642D01*
X153136238Y-110547113D01*
X153278371Y-110605987D01*
X153429258Y-110636000D01*
X153583102Y-110636000D01*
X153733989Y-110605987D01*
X153876122Y-110547113D01*
X154004039Y-110461642D01*
X154112822Y-110352859D01*
X154198293Y-110224942D01*
X154257167Y-110082809D01*
X154287180Y-109931922D01*
X154287180Y-109778078D01*
X154257167Y-109627191D01*
X154198293Y-109485058D01*
X154112822Y-109357141D01*
X154004039Y-109248358D01*
X153876122Y-109162887D01*
X153733989Y-109104013D01*
X153583102Y-109074000D01*
X153429258Y-109074000D01*
X153278371Y-109104013D01*
X153136238Y-109162887D01*
X153008321Y-109248358D01*
X152899538Y-109357141D01*
X152814067Y-109485058D01*
X152755193Y-109627191D01*
X152725180Y-109778078D01*
X152719000Y-109778078D01*
X152719000Y-107746078D01*
X152725180Y-107746078D01*
X152725180Y-107899922D01*
X152755193Y-108050809D01*
X152814067Y-108192942D01*
X152899538Y-108320859D01*
X153008321Y-108429642D01*
X153136238Y-108515113D01*
X153278371Y-108573987D01*
X153429258Y-108604000D01*
X153583102Y-108604000D01*
X153733989Y-108573987D01*
X153836485Y-108531531D01*
X153849479Y-108574367D01*
X153943821Y-108750870D01*
X154070785Y-108905576D01*
X154109548Y-108937388D01*
X156540189Y-111368030D01*
X156540189Y-113097800D01*
X156521864Y-113053559D01*
X156436393Y-112925642D01*
X156327610Y-112816859D01*
X156199693Y-112731388D01*
X156057560Y-112672514D01*
X155913872Y-112643933D01*
X155947009Y-112621792D01*
X156055792Y-112513009D01*
X156141263Y-112385092D01*
X156200137Y-112242959D01*
X156230150Y-112092072D01*
X156230150Y-111938228D01*
X156200137Y-111787341D01*
X156141263Y-111645208D01*
X156055792Y-111517291D01*
X155947009Y-111408508D01*
X155819092Y-111323037D01*
X155676959Y-111264163D01*
X155526072Y-111234150D01*
X155372228Y-111234150D01*
X155221341Y-111264163D01*
X155079208Y-111323037D01*
X154951291Y-111408508D01*
X154842508Y-111517291D01*
X154757037Y-111645208D01*
X154698163Y-111787341D01*
X154668150Y-111938228D01*
X154668150Y-112092072D01*
X154698163Y-112242959D01*
X154757037Y-112385092D01*
X154842508Y-112513009D01*
X154951291Y-112621792D01*
X155079208Y-112707263D01*
X155221341Y-112766137D01*
X155365029Y-112794718D01*
X155331892Y-112816859D01*
X155223109Y-112925642D01*
X155137638Y-113053559D01*
X155082122Y-113187584D01*
X155055987Y-113056191D01*
X154997113Y-112914058D01*
X154911642Y-112786141D01*
X154802859Y-112677358D01*
X154674942Y-112591887D01*
X154532809Y-112533013D01*
X154381922Y-112503000D01*
X154228078Y-112503000D01*
X154077191Y-112533013D01*
X153935058Y-112591887D01*
X153807141Y-112677358D01*
X153698358Y-112786141D01*
X153612887Y-112914058D01*
X153554013Y-113056191D01*
X153524000Y-113207078D01*
X153524000Y-113360922D01*
X153554013Y-113511809D01*
X153612887Y-113653942D01*
X153698358Y-113781859D01*
X153807141Y-113890642D01*
X153875587Y-113936376D01*
X153793911Y-113980032D01*
X153619867Y-114122867D01*
X153477032Y-114296911D01*
X153370897Y-114495477D01*
X153305539Y-114710933D01*
X153283470Y-114935000D01*
X153305539Y-115159067D01*
X153370897Y-115374523D01*
X153477032Y-115573089D01*
X153619867Y-115747133D01*
X153793911Y-115889968D01*
X153992477Y-115996103D01*
X154207933Y-116061461D01*
X154375854Y-116078000D01*
X155916160Y-116078000D01*
X155662160Y-116332000D01*
X154375854Y-116332000D01*
X154207933Y-116348539D01*
X153992477Y-116413897D01*
X153793911Y-116520032D01*
X153619867Y-116662867D01*
X153477032Y-116836911D01*
X153370897Y-117035477D01*
X153305539Y-117250933D01*
X153283470Y-117475000D01*
X153305539Y-117699067D01*
X153370897Y-117914523D01*
X153477032Y-118113089D01*
X153619867Y-118287133D01*
X153793911Y-118429968D01*
X153992477Y-118536103D01*
X154207933Y-118601461D01*
X154375854Y-118618000D01*
X156012146Y-118618000D01*
X156180067Y-118601461D01*
X156395523Y-118536103D01*
X156594089Y-118429968D01*
X156768133Y-118287133D01*
X156910968Y-118113089D01*
X157017103Y-117914523D01*
X157044878Y-117822963D01*
X158239322Y-116628519D01*
X158278085Y-116596707D01*
X158405049Y-116442001D01*
X158499391Y-116265498D01*
X158546812Y-116109173D01*
X158546812Y-116203751D01*
X158544354Y-116228705D01*
X158551244Y-116298650D01*
X158554163Y-116328290D01*
X158570938Y-116383589D01*
X158583211Y-116424048D01*
X158630382Y-116512300D01*
X158667843Y-116557946D01*
X158693864Y-116589653D01*
X158713241Y-116605555D01*
X159995630Y-117887944D01*
X159904058Y-117925875D01*
X159776141Y-118011346D01*
X159667358Y-118120129D01*
X159581887Y-118248046D01*
X159523013Y-118390179D01*
X159493000Y-118541066D01*
X159493000Y-118694910D01*
X159523013Y-118845797D01*
X159581887Y-118987930D01*
X159667358Y-119115847D01*
X159776141Y-119224630D01*
X159904058Y-119310101D01*
X160046191Y-119368975D01*
X160197078Y-119398988D01*
X160350922Y-119398988D01*
X160501809Y-119368975D01*
X160643942Y-119310101D01*
X160771859Y-119224630D01*
X160830260Y-119166229D01*
X160830261Y-119622173D01*
X160680883Y-119721983D01*
X160537243Y-119865623D01*
X160424387Y-120034525D01*
X160346650Y-120222198D01*
X160337500Y-120268198D01*
X160328350Y-120222198D01*
X160250613Y-120034525D01*
X160137757Y-119865623D01*
X159994117Y-119721983D01*
X159825215Y-119609127D01*
X159637542Y-119531390D01*
X159438308Y-119491760D01*
X159235172Y-119491760D01*
X159035938Y-119531390D01*
X158848265Y-119609127D01*
X158679363Y-119721983D01*
X158535723Y-119865623D01*
X158422867Y-120034525D01*
X158345130Y-120222198D01*
X158305500Y-120421432D01*
X158305500Y-120624568D01*
X158345130Y-120823802D01*
X158422867Y-121011475D01*
X158535723Y-121180377D01*
X158679363Y-121324017D01*
X158848265Y-121436873D01*
X159035938Y-121514610D01*
X159235172Y-121554240D01*
X159438308Y-121554240D01*
X159637542Y-121514610D01*
X159825215Y-121436873D01*
X159994117Y-121324017D01*
X160137757Y-121180377D01*
X160250613Y-121011475D01*
X160328350Y-120823802D01*
X160337500Y-120777802D01*
X160346650Y-120823802D01*
X160424387Y-121011475D01*
X160537243Y-121180377D01*
X160680883Y-121324017D01*
X160849785Y-121436873D01*
X161037458Y-121514610D01*
X161236692Y-121554240D01*
X161439828Y-121554240D01*
X161639062Y-121514610D01*
X161826735Y-121436873D01*
X161995637Y-121324017D01*
X162139277Y-121180377D01*
X162252133Y-121011475D01*
X162329870Y-120823802D01*
X162337750Y-120784186D01*
X162345630Y-120823802D01*
X162423367Y-121011475D01*
X162536223Y-121180377D01*
X162679863Y-121324017D01*
X162848765Y-121436873D01*
X163036438Y-121514610D01*
X163235672Y-121554240D01*
X163438808Y-121554240D01*
X163638042Y-121514610D01*
X163825715Y-121436873D01*
X163994617Y-121324017D01*
X164135320Y-121183314D01*
X164723347Y-121183314D01*
X164785671Y-121338279D01*
X164955352Y-121430516D01*
X165139767Y-121487878D01*
X165331829Y-121508160D01*
X165524158Y-121490582D01*
X165709362Y-121435821D01*
X165880323Y-121345980D01*
X165891849Y-121338279D01*
X165954173Y-121183314D01*
X165338760Y-120567901D01*
X164723347Y-121183314D01*
X164135320Y-121183314D01*
X164138257Y-121180377D01*
X164251113Y-121011475D01*
X164328850Y-120823802D01*
X164365079Y-120641666D01*
X164371178Y-120708398D01*
X164425939Y-120893602D01*
X164515780Y-121064563D01*
X164523481Y-121076089D01*
X164678446Y-121138413D01*
X165293859Y-120523000D01*
X164678446Y-119907587D01*
X164523481Y-119969911D01*
X164431244Y-120139592D01*
X164373882Y-120324007D01*
X164365288Y-120405386D01*
X164328850Y-120222198D01*
X164251113Y-120034525D01*
X164138257Y-119865623D01*
X164033634Y-119761000D01*
X164764243Y-119761000D01*
X164723347Y-119862686D01*
X165338760Y-120478099D01*
X165352903Y-120463957D01*
X165397804Y-120508858D01*
X165383661Y-120523000D01*
X165999074Y-121138413D01*
X166154039Y-121076089D01*
X166246276Y-120906408D01*
X166303638Y-120721993D01*
X166311351Y-120648955D01*
X166346130Y-120823802D01*
X166423867Y-121011475D01*
X166536723Y-121180377D01*
X166680363Y-121324017D01*
X166849265Y-121436873D01*
X167036938Y-121514610D01*
X167236172Y-121554240D01*
X167439308Y-121554240D01*
X167638542Y-121514610D01*
X167826215Y-121436873D01*
X167995117Y-121324017D01*
X168138757Y-121180377D01*
X168251613Y-121011475D01*
X168329350Y-120823802D01*
X168338500Y-120777802D01*
X168347650Y-120823802D01*
X168425387Y-121011475D01*
X168538243Y-121180377D01*
X168681883Y-121324017D01*
X168850785Y-121436873D01*
X169038458Y-121514610D01*
X169237692Y-121554240D01*
X169440828Y-121554240D01*
X169640062Y-121514610D01*
X169827735Y-121436873D01*
X169996637Y-121324017D01*
X170140277Y-121180377D01*
X170253133Y-121011475D01*
X170330870Y-120823802D01*
X170370500Y-120624568D01*
X170370500Y-120421432D01*
X170330870Y-120222198D01*
X170253133Y-120034525D01*
X170145207Y-119873000D01*
X172540597Y-119873000D01*
X172540597Y-121173000D01*
X172547953Y-121247689D01*
X172569739Y-121319508D01*
X172605118Y-121385696D01*
X172652729Y-121443711D01*
X172710744Y-121491322D01*
X172776932Y-121526701D01*
X172848751Y-121548487D01*
X172923440Y-121555843D01*
X174223440Y-121555843D01*
X174298129Y-121548487D01*
X174369948Y-121526701D01*
X174436136Y-121491322D01*
X174494151Y-121443711D01*
X174541762Y-121385696D01*
X174577141Y-121319508D01*
X174598927Y-121247689D01*
X174606283Y-121173000D01*
X174606283Y-120878542D01*
X174661299Y-121011362D01*
X174774130Y-121180224D01*
X174917736Y-121323830D01*
X175086598Y-121436661D01*
X175274228Y-121514380D01*
X175473415Y-121554000D01*
X175676505Y-121554000D01*
X175875692Y-121514380D01*
X176063322Y-121436661D01*
X176232184Y-121323830D01*
X176372870Y-121183144D01*
X176961238Y-121183144D01*
X177023532Y-121338083D01*
X177193172Y-121430296D01*
X177377542Y-121487643D01*
X177569557Y-121507918D01*
X177761837Y-121490344D01*
X177946995Y-121435595D01*
X178117914Y-121345775D01*
X178129428Y-121338083D01*
X178191722Y-121183144D01*
X177576480Y-120567901D01*
X176961238Y-121183144D01*
X176372870Y-121183144D01*
X176375790Y-121180224D01*
X176488621Y-121011362D01*
X176566340Y-120823732D01*
X176602888Y-120639992D01*
X176609136Y-120708357D01*
X176663885Y-120893515D01*
X176753705Y-121064434D01*
X176761397Y-121075948D01*
X176916336Y-121138242D01*
X177531579Y-120523000D01*
X177621381Y-120523000D01*
X178236624Y-121138242D01*
X178391563Y-121075948D01*
X178483776Y-120906308D01*
X178541123Y-120721938D01*
X178548998Y-120647359D01*
X178584080Y-120823732D01*
X178661799Y-121011362D01*
X178774630Y-121180224D01*
X178918236Y-121323830D01*
X179087098Y-121436661D01*
X179274728Y-121514380D01*
X179473915Y-121554000D01*
X179677005Y-121554000D01*
X179876192Y-121514380D01*
X180063822Y-121436661D01*
X180232684Y-121323830D01*
X180376290Y-121180224D01*
X180489121Y-121011362D01*
X180566840Y-120823732D01*
X180576220Y-120776575D01*
X180585600Y-120823732D01*
X180663319Y-121011362D01*
X180776150Y-121180224D01*
X180919756Y-121323830D01*
X181088618Y-121436661D01*
X181276248Y-121514380D01*
X181475435Y-121554000D01*
X181678525Y-121554000D01*
X181877712Y-121514380D01*
X182065342Y-121436661D01*
X182234204Y-121323830D01*
X182377810Y-121180224D01*
X182490641Y-121011362D01*
X182568360Y-120823732D01*
X182577740Y-120776575D01*
X182587120Y-120823732D01*
X182664839Y-121011362D01*
X182777670Y-121180224D01*
X182921276Y-121323830D01*
X183090138Y-121436661D01*
X183277768Y-121514380D01*
X183476955Y-121554000D01*
X183680045Y-121554000D01*
X183879232Y-121514380D01*
X184066862Y-121436661D01*
X184235724Y-121323830D01*
X184379330Y-121180224D01*
X184492161Y-121011362D01*
X184569880Y-120823732D01*
X184577990Y-120782959D01*
X184586100Y-120823732D01*
X184663819Y-121011362D01*
X184776650Y-121180224D01*
X184920256Y-121323830D01*
X185089118Y-121436661D01*
X185276748Y-121514380D01*
X185475935Y-121554000D01*
X185679025Y-121554000D01*
X185878212Y-121514380D01*
X186065842Y-121436661D01*
X186234704Y-121323830D01*
X186378310Y-121180224D01*
X186491141Y-121011362D01*
X186568860Y-120823732D01*
X186608480Y-120624545D01*
X186608480Y-120421455D01*
X186568860Y-120222268D01*
X186491141Y-120034638D01*
X186378310Y-119865776D01*
X186234704Y-119722170D01*
X186065842Y-119609339D01*
X185878212Y-119531620D01*
X185679025Y-119492000D01*
X185475935Y-119492000D01*
X185276748Y-119531620D01*
X185089118Y-119609339D01*
X184920256Y-119722170D01*
X184776650Y-119865776D01*
X184663819Y-120034638D01*
X184586100Y-120222268D01*
X184577990Y-120263041D01*
X184569880Y-120222268D01*
X184492161Y-120034638D01*
X184379330Y-119865776D01*
X184235724Y-119722170D01*
X184066862Y-119609339D01*
X183879232Y-119531620D01*
X183680045Y-119492000D01*
X183476955Y-119492000D01*
X183277768Y-119531620D01*
X183090138Y-119609339D01*
X182921276Y-119722170D01*
X182777670Y-119865776D01*
X182664839Y-120034638D01*
X182587120Y-120222268D01*
X182577740Y-120269425D01*
X182568360Y-120222268D01*
X182490641Y-120034638D01*
X182377810Y-119865776D01*
X182234204Y-119722170D01*
X182065342Y-119609339D01*
X181877712Y-119531620D01*
X181678525Y-119492000D01*
X181475435Y-119492000D01*
X181276248Y-119531620D01*
X181088618Y-119609339D01*
X180919756Y-119722170D01*
X180776150Y-119865776D01*
X180663319Y-120034638D01*
X180585600Y-120222268D01*
X180576220Y-120269425D01*
X180566840Y-120222268D01*
X180489121Y-120034638D01*
X180376290Y-119865776D01*
X180232684Y-119722170D01*
X180063822Y-119609339D01*
X179876192Y-119531620D01*
X179677005Y-119492000D01*
X179473915Y-119492000D01*
X179274728Y-119531620D01*
X179087098Y-119609339D01*
X178918236Y-119722170D01*
X178774630Y-119865776D01*
X178661799Y-120034638D01*
X178584080Y-120222268D01*
X178549273Y-120397259D01*
X178543824Y-120337643D01*
X178489075Y-120152485D01*
X178399255Y-119981566D01*
X178391563Y-119970052D01*
X178236624Y-119907758D01*
X177621381Y-120523000D01*
X177531579Y-120523000D01*
X176916336Y-119907758D01*
X176761397Y-119970052D01*
X176669184Y-120139692D01*
X176611837Y-120324062D01*
X176603081Y-120406983D01*
X176566340Y-120222268D01*
X176488621Y-120034638D01*
X176375790Y-119865776D01*
X176372870Y-119862856D01*
X176961238Y-119862856D01*
X177576480Y-120478099D01*
X178191722Y-119862856D01*
X178129428Y-119707917D01*
X177959788Y-119615704D01*
X177775418Y-119558357D01*
X177583403Y-119538082D01*
X177391123Y-119555656D01*
X177205965Y-119610405D01*
X177035046Y-119700225D01*
X177023532Y-119707917D01*
X176961238Y-119862856D01*
X176372870Y-119862856D01*
X176232184Y-119722170D01*
X176063322Y-119609339D01*
X175875692Y-119531620D01*
X175676505Y-119492000D01*
X175473415Y-119492000D01*
X175274228Y-119531620D01*
X175086598Y-119609339D01*
X174917736Y-119722170D01*
X174774130Y-119865776D01*
X174661299Y-120034638D01*
X174606283Y-120167458D01*
X174606283Y-119873000D01*
X174598927Y-119798311D01*
X174577141Y-119726492D01*
X174541762Y-119660304D01*
X174494151Y-119602289D01*
X174436136Y-119554678D01*
X174369948Y-119519299D01*
X174298129Y-119497513D01*
X174223440Y-119490157D01*
X172923440Y-119490157D01*
X172848751Y-119497513D01*
X172776932Y-119519299D01*
X172710744Y-119554678D01*
X172652729Y-119602289D01*
X172605118Y-119660304D01*
X172569739Y-119726492D01*
X172547953Y-119798311D01*
X172540597Y-119873000D01*
X170145207Y-119873000D01*
X170140277Y-119865623D01*
X169996637Y-119721983D01*
X169827735Y-119609127D01*
X169640062Y-119531390D01*
X169440828Y-119491760D01*
X169237692Y-119491760D01*
X169038458Y-119531390D01*
X168850785Y-119609127D01*
X168681883Y-119721983D01*
X168538243Y-119865623D01*
X168425387Y-120034525D01*
X168347650Y-120222198D01*
X168338500Y-120268198D01*
X168329350Y-120222198D01*
X168251613Y-120034525D01*
X168138757Y-119865623D01*
X167995117Y-119721983D01*
X167826215Y-119609127D01*
X167638542Y-119531390D01*
X167439308Y-119491760D01*
X167236172Y-119491760D01*
X167059969Y-119526809D01*
X166444595Y-118911435D01*
X166428688Y-118892052D01*
X166351335Y-118828571D01*
X166263083Y-118781399D01*
X166167325Y-118752351D01*
X166092687Y-118745000D01*
X166092684Y-118745000D01*
X166067740Y-118742543D01*
X166042796Y-118745000D01*
X163532420Y-118745000D01*
X162135420Y-117348000D01*
X177287699Y-117348000D01*
X177304864Y-117522274D01*
X177355697Y-117689851D01*
X177438247Y-117844291D01*
X177549341Y-117979659D01*
X177684709Y-118090753D01*
X177839149Y-118173303D01*
X178006726Y-118224136D01*
X178137333Y-118237000D01*
X180214833Y-118237000D01*
X180258493Y-118241300D01*
X180302153Y-118237000D01*
X181018667Y-118237000D01*
X181149274Y-118224136D01*
X181316851Y-118173303D01*
X181471291Y-118090753D01*
X181606659Y-117979659D01*
X181717753Y-117844291D01*
X181800303Y-117689851D01*
X181851136Y-117522274D01*
X181868301Y-117348000D01*
X181851136Y-117173726D01*
X181800303Y-117006149D01*
X181717753Y-116851709D01*
X181606659Y-116716341D01*
X181565240Y-116682349D01*
X181531248Y-116640930D01*
X181395880Y-116529836D01*
X181241440Y-116447286D01*
X181073863Y-116396453D01*
X180943256Y-116383589D01*
X180377563Y-116383589D01*
X180333903Y-116379289D01*
X180290243Y-116383589D01*
X180290237Y-116383589D01*
X180177977Y-116394646D01*
X180159629Y-116396453D01*
X180112360Y-116410792D01*
X179992053Y-116447286D01*
X179970138Y-116459000D01*
X178137333Y-116459000D01*
X178006726Y-116471864D01*
X177839149Y-116522697D01*
X177684709Y-116605247D01*
X177549341Y-116716341D01*
X177438247Y-116851709D01*
X177355697Y-117006149D01*
X177304864Y-117173726D01*
X177287699Y-117348000D01*
X162135420Y-117348000D01*
X161240119Y-116452699D01*
X161263809Y-116447987D01*
X161405942Y-116389113D01*
X161471810Y-116345102D01*
X161512020Y-116442176D01*
X161597491Y-116570093D01*
X161706274Y-116678876D01*
X161834191Y-116764347D01*
X161976324Y-116823221D01*
X162127211Y-116853234D01*
X162281055Y-116853234D01*
X162431942Y-116823221D01*
X162574075Y-116764347D01*
X162701992Y-116678876D01*
X162810775Y-116570093D01*
X162896246Y-116442176D01*
X162955120Y-116300043D01*
X162985133Y-116149156D01*
X162985133Y-115995312D01*
X162955120Y-115844425D01*
X162896246Y-115702292D01*
X162810775Y-115574375D01*
X162701992Y-115465592D01*
X162574075Y-115380121D01*
X162431942Y-115321247D01*
X162281055Y-115291234D01*
X162127211Y-115291234D01*
X161976324Y-115321247D01*
X161834191Y-115380121D01*
X161768323Y-115424132D01*
X161728113Y-115327058D01*
X161642642Y-115199141D01*
X161533859Y-115090358D01*
X161405942Y-115004887D01*
X161263809Y-114946013D01*
X161112922Y-114916000D01*
X160959078Y-114916000D01*
X160808191Y-114946013D01*
X160666058Y-115004887D01*
X160538141Y-115090358D01*
X160429358Y-115199141D01*
X160426433Y-115203519D01*
X160426433Y-114484987D01*
X160478472Y-114432948D01*
X162480565Y-114432948D01*
X162480565Y-114586792D01*
X162510578Y-114737679D01*
X162569452Y-114879812D01*
X162654923Y-115007729D01*
X162763706Y-115116512D01*
X162891623Y-115201983D01*
X163033756Y-115260857D01*
X163184643Y-115290870D01*
X163325883Y-115290870D01*
X163325883Y-115435039D01*
X163355896Y-115585926D01*
X163414770Y-115728059D01*
X163500241Y-115855976D01*
X163609024Y-115964759D01*
X163736941Y-116050230D01*
X163879074Y-116109104D01*
X164029961Y-116139117D01*
X164183805Y-116139117D01*
X164334692Y-116109104D01*
X164476825Y-116050230D01*
X164550386Y-116001078D01*
X186036000Y-116001078D01*
X186036000Y-116154922D01*
X186066013Y-116305809D01*
X186124887Y-116447942D01*
X186210358Y-116575859D01*
X186319141Y-116684642D01*
X186447058Y-116770113D01*
X186589191Y-116828987D01*
X186644558Y-116840000D01*
X186589191Y-116851013D01*
X186447058Y-116909887D01*
X186319141Y-116995358D01*
X186210358Y-117104141D01*
X186124887Y-117232058D01*
X186066013Y-117374191D01*
X186036000Y-117525078D01*
X186036000Y-117678922D01*
X186066013Y-117829809D01*
X186124887Y-117971942D01*
X186210358Y-118099859D01*
X186319141Y-118208642D01*
X186447058Y-118294113D01*
X186589191Y-118352987D01*
X186740078Y-118383000D01*
X186893922Y-118383000D01*
X187044809Y-118352987D01*
X187186942Y-118294113D01*
X187314859Y-118208642D01*
X187423642Y-118099859D01*
X187509113Y-117971942D01*
X187567987Y-117829809D01*
X187598000Y-117678922D01*
X187598000Y-117525078D01*
X187567987Y-117374191D01*
X187509113Y-117232058D01*
X187423642Y-117104141D01*
X187314859Y-116995358D01*
X187186942Y-116909887D01*
X187044809Y-116851013D01*
X186989442Y-116840000D01*
X187044809Y-116828987D01*
X187186942Y-116770113D01*
X187314859Y-116684642D01*
X187423642Y-116575859D01*
X187509113Y-116447942D01*
X187567987Y-116305809D01*
X187598000Y-116154922D01*
X187598000Y-116001078D01*
X187567987Y-115850191D01*
X187509113Y-115708058D01*
X187423642Y-115580141D01*
X187314859Y-115471358D01*
X187186942Y-115385887D01*
X187044809Y-115327013D01*
X186893922Y-115297000D01*
X186740078Y-115297000D01*
X186589191Y-115327013D01*
X186447058Y-115385887D01*
X186319141Y-115471358D01*
X186210358Y-115580141D01*
X186124887Y-115708058D01*
X186066013Y-115850191D01*
X186036000Y-116001078D01*
X164550386Y-116001078D01*
X164604742Y-115964759D01*
X164713525Y-115855976D01*
X164798996Y-115728059D01*
X164857870Y-115585926D01*
X164887883Y-115435039D01*
X164887883Y-115281195D01*
X164857870Y-115130308D01*
X164798996Y-114988175D01*
X164713525Y-114860258D01*
X164604742Y-114751475D01*
X164476825Y-114666004D01*
X164334692Y-114607130D01*
X164183805Y-114577117D01*
X164042565Y-114577117D01*
X164042565Y-114432948D01*
X164012552Y-114282061D01*
X163953678Y-114139928D01*
X163868207Y-114012011D01*
X163759424Y-113903228D01*
X163631507Y-113817757D01*
X163489374Y-113758883D01*
X163338487Y-113728870D01*
X163184643Y-113728870D01*
X163033756Y-113758883D01*
X162891623Y-113817757D01*
X162763706Y-113903228D01*
X162654923Y-114012011D01*
X162569452Y-114139928D01*
X162510578Y-114282061D01*
X162480565Y-114432948D01*
X160478472Y-114432948D01*
X161704342Y-113207078D01*
X172574000Y-113207078D01*
X172574000Y-113360922D01*
X172604013Y-113511809D01*
X172662887Y-113653942D01*
X172748358Y-113781859D01*
X172857141Y-113890642D01*
X172985058Y-113976113D01*
X173127191Y-114034987D01*
X173278078Y-114065000D01*
X173431922Y-114065000D01*
X173582809Y-114034987D01*
X173724942Y-113976113D01*
X173852859Y-113890642D01*
X173961642Y-113781859D01*
X174047113Y-113653942D01*
X174105987Y-113511809D01*
X174136000Y-113360922D01*
X174136000Y-113207078D01*
X174105987Y-113056191D01*
X174047113Y-112914058D01*
X173961642Y-112786141D01*
X173852859Y-112677358D01*
X173724942Y-112591887D01*
X173582809Y-112533013D01*
X173431922Y-112503000D01*
X173278078Y-112503000D01*
X173127191Y-112533013D01*
X172985058Y-112591887D01*
X172857141Y-112677358D01*
X172748358Y-112786141D01*
X172662887Y-112914058D01*
X172604013Y-113056191D01*
X172574000Y-113207078D01*
X161704342Y-113207078D01*
X163028571Y-111882850D01*
X163047948Y-111866948D01*
X163093770Y-111811113D01*
X163111429Y-111789596D01*
X163142880Y-111730754D01*
X163158601Y-111701343D01*
X163187649Y-111605585D01*
X163195000Y-111530947D01*
X163195000Y-111530944D01*
X163197457Y-111506000D01*
X163195000Y-111481056D01*
X163195000Y-110451501D01*
X163205141Y-110461642D01*
X163333058Y-110547113D01*
X163357916Y-110557410D01*
X163324255Y-110638675D01*
X163294242Y-110789562D01*
X163294242Y-110943406D01*
X163324255Y-111094293D01*
X163383129Y-111236426D01*
X163468600Y-111364343D01*
X163577383Y-111473126D01*
X163705300Y-111558597D01*
X163847433Y-111617471D01*
X163998320Y-111647484D01*
X164152164Y-111647484D01*
X164230937Y-111631815D01*
X164252526Y-111683936D01*
X164337997Y-111811853D01*
X164446780Y-111920636D01*
X164455286Y-111926319D01*
X164408120Y-112040187D01*
X164378107Y-112191074D01*
X164378107Y-112344918D01*
X164408120Y-112495805D01*
X164466994Y-112637938D01*
X164552465Y-112765855D01*
X164661248Y-112874638D01*
X164789165Y-112960109D01*
X164931298Y-113018983D01*
X165082185Y-113048996D01*
X165236029Y-113048996D01*
X165386916Y-113018983D01*
X165529049Y-112960109D01*
X165656966Y-112874638D01*
X165765749Y-112765855D01*
X165851220Y-112637938D01*
X165910094Y-112495805D01*
X165940107Y-112344918D01*
X165940107Y-112191074D01*
X165914952Y-112064612D01*
X165963547Y-112097082D01*
X166105680Y-112155956D01*
X166256567Y-112185969D01*
X166410411Y-112185969D01*
X166561298Y-112155956D01*
X166703431Y-112097082D01*
X166831348Y-112011611D01*
X166940131Y-111902828D01*
X167025602Y-111774911D01*
X167063640Y-111683078D01*
X169272000Y-111683078D01*
X169272000Y-111836922D01*
X169302013Y-111987809D01*
X169360887Y-112129942D01*
X169446358Y-112257859D01*
X169555141Y-112366642D01*
X169683058Y-112452113D01*
X169825191Y-112510987D01*
X169976078Y-112541000D01*
X170129922Y-112541000D01*
X170280809Y-112510987D01*
X170422942Y-112452113D01*
X170550859Y-112366642D01*
X170659642Y-112257859D01*
X170745113Y-112129942D01*
X170803987Y-111987809D01*
X170834000Y-111836922D01*
X170834000Y-111683078D01*
X170803987Y-111532191D01*
X170745113Y-111390058D01*
X170659642Y-111262141D01*
X170550859Y-111153358D01*
X170422942Y-111067887D01*
X170280809Y-111009013D01*
X170129922Y-110979000D01*
X169976078Y-110979000D01*
X169825191Y-111009013D01*
X169683058Y-111067887D01*
X169555141Y-111153358D01*
X169446358Y-111262141D01*
X169360887Y-111390058D01*
X169302013Y-111532191D01*
X169272000Y-111683078D01*
X167063640Y-111683078D01*
X167084476Y-111632778D01*
X167114489Y-111481891D01*
X167114489Y-111328047D01*
X167084476Y-111177160D01*
X167025602Y-111035027D01*
X166940131Y-110907110D01*
X166831348Y-110798327D01*
X166703431Y-110712856D01*
X166561298Y-110653982D01*
X166410411Y-110623969D01*
X166256567Y-110623969D01*
X166105680Y-110653982D01*
X165963547Y-110712856D01*
X165835630Y-110798327D01*
X165726847Y-110907110D01*
X165661784Y-111004484D01*
X165636752Y-110944052D01*
X165551281Y-110816135D01*
X165442498Y-110707352D01*
X165314581Y-110621881D01*
X165172448Y-110563007D01*
X165021561Y-110532994D01*
X164867717Y-110532994D01*
X164788944Y-110548663D01*
X164767355Y-110496542D01*
X164681884Y-110368625D01*
X164573101Y-110259842D01*
X164445184Y-110174371D01*
X164420326Y-110164074D01*
X164453987Y-110082809D01*
X164484000Y-109931922D01*
X164484000Y-109778078D01*
X164453987Y-109627191D01*
X164411276Y-109524078D01*
X169399000Y-109524078D01*
X169399000Y-109677922D01*
X169429013Y-109828809D01*
X169487887Y-109970942D01*
X169573358Y-110098859D01*
X169682141Y-110207642D01*
X169810058Y-110293113D01*
X169952191Y-110351987D01*
X170103078Y-110382000D01*
X170256922Y-110382000D01*
X170407809Y-110351987D01*
X170549942Y-110293113D01*
X170677859Y-110207642D01*
X170786642Y-110098859D01*
X170872113Y-109970942D01*
X170930987Y-109828809D01*
X170961000Y-109677922D01*
X170961000Y-109524078D01*
X170930987Y-109373191D01*
X170872113Y-109231058D01*
X170786642Y-109103141D01*
X170677859Y-108994358D01*
X170549942Y-108908887D01*
X170407809Y-108850013D01*
X170256922Y-108820000D01*
X170103078Y-108820000D01*
X169952191Y-108850013D01*
X169810058Y-108908887D01*
X169682141Y-108994358D01*
X169573358Y-109103141D01*
X169487887Y-109231058D01*
X169429013Y-109373191D01*
X169399000Y-109524078D01*
X164411276Y-109524078D01*
X164395113Y-109485058D01*
X164309642Y-109357141D01*
X164200859Y-109248358D01*
X164073540Y-109163287D01*
X164127893Y-109081942D01*
X164186767Y-108939809D01*
X164216780Y-108788922D01*
X164216780Y-108635078D01*
X172447000Y-108635078D01*
X172447000Y-108788922D01*
X172477013Y-108939809D01*
X172535887Y-109081942D01*
X172621358Y-109209859D01*
X172730141Y-109318642D01*
X172858058Y-109404113D01*
X172873473Y-109410498D01*
X172858058Y-109416883D01*
X172730141Y-109502354D01*
X172621358Y-109611137D01*
X172535887Y-109739054D01*
X172477013Y-109881187D01*
X172447000Y-110032074D01*
X172447000Y-110185918D01*
X172477013Y-110336805D01*
X172535887Y-110478938D01*
X172621358Y-110606855D01*
X172631501Y-110616998D01*
X172621358Y-110627141D01*
X172535887Y-110755058D01*
X172477013Y-110897191D01*
X172447000Y-111048078D01*
X172447000Y-111201922D01*
X172477013Y-111352809D01*
X172535887Y-111494942D01*
X172621358Y-111622859D01*
X172730141Y-111731642D01*
X172858058Y-111817113D01*
X173000191Y-111875987D01*
X173151078Y-111906000D01*
X173304922Y-111906000D01*
X173455809Y-111875987D01*
X173597942Y-111817113D01*
X173725859Y-111731642D01*
X173834642Y-111622859D01*
X173920113Y-111494942D01*
X173978987Y-111352809D01*
X174009000Y-111201922D01*
X174009000Y-111048078D01*
X173978987Y-110897191D01*
X173920113Y-110755058D01*
X173834642Y-110627141D01*
X173824499Y-110616998D01*
X173834642Y-110606855D01*
X173920113Y-110478938D01*
X173978987Y-110336805D01*
X174009000Y-110185918D01*
X174009000Y-110032074D01*
X173978987Y-109881187D01*
X173920113Y-109739054D01*
X173834642Y-109611137D01*
X173725859Y-109502354D01*
X173597942Y-109416883D01*
X173582527Y-109410498D01*
X173597942Y-109404113D01*
X173725859Y-109318642D01*
X173834642Y-109209859D01*
X173920113Y-109081942D01*
X173978987Y-108939809D01*
X174009000Y-108788922D01*
X174009000Y-108635078D01*
X173978987Y-108484191D01*
X173920113Y-108342058D01*
X173834642Y-108214141D01*
X173725859Y-108105358D01*
X173597942Y-108019887D01*
X173455809Y-107961013D01*
X173304922Y-107931000D01*
X173151078Y-107931000D01*
X173000191Y-107961013D01*
X172858058Y-108019887D01*
X172730141Y-108105358D01*
X172621358Y-108214141D01*
X172535887Y-108342058D01*
X172477013Y-108484191D01*
X172447000Y-108635078D01*
X164216780Y-108635078D01*
X164186767Y-108484191D01*
X164127893Y-108342058D01*
X164042422Y-108214141D01*
X163933639Y-108105358D01*
X163805722Y-108019887D01*
X163736487Y-107991209D01*
X163764405Y-107923809D01*
X163794418Y-107772922D01*
X163794418Y-107619078D01*
X163764405Y-107468191D01*
X163705531Y-107326058D01*
X163620060Y-107198141D01*
X163511277Y-107089358D01*
X163383360Y-107003887D01*
X163241227Y-106945013D01*
X163090340Y-106915000D01*
X162936496Y-106915000D01*
X162785609Y-106945013D01*
X162643476Y-107003887D01*
X162515559Y-107089358D01*
X162406776Y-107198141D01*
X162321305Y-107326058D01*
X162306000Y-107363007D01*
X162306000Y-106636420D01*
X163151421Y-105791000D01*
X163501582Y-105791000D01*
X163459141Y-105819358D01*
X163350358Y-105928141D01*
X163264887Y-106056058D01*
X163206013Y-106198191D01*
X163176000Y-106349078D01*
X163176000Y-106502922D01*
X163206013Y-106653809D01*
X163264887Y-106795942D01*
X163350358Y-106923859D01*
X163459141Y-107032642D01*
X163587058Y-107118113D01*
X163729191Y-107176987D01*
X163880078Y-107207000D01*
X164033922Y-107207000D01*
X164184809Y-107176987D01*
X164266832Y-107143011D01*
X164280887Y-107176942D01*
X164366358Y-107304859D01*
X164475141Y-107413642D01*
X164603058Y-107499113D01*
X164745191Y-107557987D01*
X164896078Y-107588000D01*
X165049922Y-107588000D01*
X165200809Y-107557987D01*
X165342942Y-107499113D01*
X165470859Y-107413642D01*
X165579642Y-107304859D01*
X165665113Y-107176942D01*
X165723987Y-107034809D01*
X165754000Y-106883922D01*
X165754000Y-106730078D01*
X165723987Y-106579191D01*
X165665113Y-106437058D01*
X165579642Y-106309141D01*
X165548810Y-106278309D01*
X167476747Y-106278309D01*
X167476747Y-106432153D01*
X167506760Y-106583040D01*
X167565634Y-106725173D01*
X167651105Y-106853090D01*
X167759888Y-106961873D01*
X167887805Y-107047344D01*
X168029938Y-107106218D01*
X168180825Y-107136231D01*
X168256917Y-107136231D01*
X168286013Y-107282507D01*
X168344887Y-107424640D01*
X168430358Y-107552557D01*
X168539141Y-107661340D01*
X168667058Y-107746811D01*
X168809191Y-107805685D01*
X168960078Y-107835698D01*
X169113922Y-107835698D01*
X169264809Y-107805685D01*
X169406942Y-107746811D01*
X169534859Y-107661340D01*
X169643642Y-107552557D01*
X169729113Y-107424640D01*
X169787987Y-107282507D01*
X169818000Y-107131620D01*
X169818000Y-106977776D01*
X169787987Y-106826889D01*
X169729113Y-106684756D01*
X169706621Y-106651093D01*
X172435717Y-106651093D01*
X172435717Y-106804937D01*
X172465730Y-106955824D01*
X172524604Y-107097957D01*
X172610075Y-107225874D01*
X172718858Y-107334657D01*
X172846775Y-107420128D01*
X172988908Y-107479002D01*
X173139795Y-107509015D01*
X173293639Y-107509015D01*
X173444526Y-107479002D01*
X173586659Y-107420128D01*
X173714576Y-107334657D01*
X173823359Y-107225874D01*
X173908830Y-107097957D01*
X173967704Y-106955824D01*
X173997717Y-106804937D01*
X173997717Y-106651093D01*
X173967704Y-106500206D01*
X173908830Y-106358073D01*
X173823359Y-106230156D01*
X173714576Y-106121373D01*
X173586659Y-106035902D01*
X173444526Y-105977028D01*
X173293639Y-105947015D01*
X173139795Y-105947015D01*
X172988908Y-105977028D01*
X172846775Y-106035902D01*
X172718858Y-106121373D01*
X172610075Y-106230156D01*
X172524604Y-106358073D01*
X172465730Y-106500206D01*
X172435717Y-106651093D01*
X169706621Y-106651093D01*
X169643642Y-106556839D01*
X169534859Y-106448056D01*
X169406942Y-106362585D01*
X169264809Y-106303711D01*
X169113922Y-106273698D01*
X169037830Y-106273698D01*
X169008734Y-106127422D01*
X168949860Y-105985289D01*
X168864389Y-105857372D01*
X168755606Y-105748589D01*
X168627689Y-105663118D01*
X168485556Y-105604244D01*
X168334669Y-105574231D01*
X168180825Y-105574231D01*
X168029938Y-105604244D01*
X167887805Y-105663118D01*
X167759888Y-105748589D01*
X167651105Y-105857372D01*
X167565634Y-105985289D01*
X167506760Y-106127422D01*
X167476747Y-106278309D01*
X165548810Y-106278309D01*
X165470859Y-106200358D01*
X165342942Y-106114887D01*
X165200809Y-106056013D01*
X165049922Y-106026000D01*
X164896078Y-106026000D01*
X164745191Y-106056013D01*
X164663168Y-106089989D01*
X164649113Y-106056058D01*
X164563642Y-105928141D01*
X164454859Y-105819358D01*
X164326942Y-105733887D01*
X164184809Y-105675013D01*
X164057058Y-105649602D01*
X164063948Y-105643948D01*
X164079855Y-105624565D01*
X164254530Y-105449890D01*
X164335358Y-105570859D01*
X164444141Y-105679642D01*
X164572058Y-105765113D01*
X164714191Y-105823987D01*
X164865078Y-105854000D01*
X165018922Y-105854000D01*
X165169809Y-105823987D01*
X165311942Y-105765113D01*
X165439859Y-105679642D01*
X165548642Y-105570859D01*
X165634113Y-105442942D01*
X165692987Y-105300809D01*
X165723000Y-105149922D01*
X165723000Y-104996078D01*
X165692987Y-104845191D01*
X165634113Y-104703058D01*
X165630786Y-104698078D01*
X168510000Y-104698078D01*
X168510000Y-104851922D01*
X168540013Y-105002809D01*
X168598887Y-105144942D01*
X168684358Y-105272859D01*
X168793141Y-105381642D01*
X168921058Y-105467113D01*
X169063191Y-105525987D01*
X169214078Y-105556000D01*
X169367922Y-105556000D01*
X169518809Y-105525987D01*
X169660942Y-105467113D01*
X169788859Y-105381642D01*
X169897642Y-105272859D01*
X169983113Y-105144942D01*
X170041987Y-105002809D01*
X170072000Y-104851922D01*
X170072000Y-104698078D01*
X170041987Y-104547191D01*
X169983113Y-104405058D01*
X169897642Y-104277141D01*
X169788859Y-104168358D01*
X169660942Y-104082887D01*
X169518809Y-104024013D01*
X169367922Y-103994000D01*
X169214078Y-103994000D01*
X169063191Y-104024013D01*
X168921058Y-104082887D01*
X168793141Y-104168358D01*
X168684358Y-104277141D01*
X168598887Y-104405058D01*
X168540013Y-104547191D01*
X168510000Y-104698078D01*
X165630786Y-104698078D01*
X165548642Y-104575141D01*
X165439859Y-104466358D01*
X165311942Y-104380887D01*
X165189250Y-104330066D01*
X165219809Y-104323987D01*
X165361942Y-104265113D01*
X165489859Y-104179642D01*
X165598642Y-104070859D01*
X165684113Y-103942942D01*
X165742987Y-103800809D01*
X165773000Y-103649922D01*
X165773000Y-103496078D01*
X165742987Y-103345191D01*
X165684113Y-103203058D01*
X165598642Y-103075141D01*
X165489859Y-102966358D01*
X165361942Y-102880887D01*
X165287912Y-102850223D01*
X165419809Y-102823987D01*
X165561942Y-102765113D01*
X165689859Y-102679642D01*
X165798642Y-102570859D01*
X165884113Y-102442942D01*
X165942987Y-102300809D01*
X165944381Y-102293801D01*
X166227145Y-102576565D01*
X166243052Y-102595948D01*
X166320405Y-102659429D01*
X166408657Y-102706601D01*
X166504415Y-102735649D01*
X166579053Y-102743000D01*
X166579056Y-102743000D01*
X166604000Y-102745457D01*
X166628944Y-102743000D01*
X172761000Y-102743000D01*
X172761000Y-102749922D01*
X172791013Y-102900809D01*
X172849887Y-103042942D01*
X172935358Y-103170859D01*
X173044141Y-103279642D01*
X173172058Y-103365113D01*
X173314191Y-103423987D01*
X173465078Y-103454000D01*
X173618922Y-103454000D01*
X173769809Y-103423987D01*
X173911942Y-103365113D01*
X174039859Y-103279642D01*
X174148642Y-103170859D01*
X174234113Y-103042942D01*
X174292987Y-102900809D01*
X174314415Y-102793078D01*
X176765000Y-102793078D01*
X176765000Y-102946922D01*
X176795013Y-103097809D01*
X176853887Y-103239942D01*
X176939358Y-103367859D01*
X177048141Y-103476642D01*
X177176058Y-103562113D01*
X177318191Y-103620987D01*
X177469078Y-103651000D01*
X177622922Y-103651000D01*
X177773809Y-103620987D01*
X177915942Y-103562113D01*
X178043859Y-103476642D01*
X178152642Y-103367859D01*
X178238113Y-103239942D01*
X178296987Y-103097809D01*
X178327000Y-102946922D01*
X178327000Y-102793078D01*
X178296987Y-102642191D01*
X178238113Y-102500058D01*
X178152642Y-102372141D01*
X178043859Y-102263358D01*
X177915942Y-102177887D01*
X177773809Y-102119013D01*
X177622922Y-102089000D01*
X177469078Y-102089000D01*
X177318191Y-102119013D01*
X177176058Y-102177887D01*
X177048141Y-102263358D01*
X176939358Y-102372141D01*
X176853887Y-102500058D01*
X176795013Y-102642191D01*
X176765000Y-102793078D01*
X174314415Y-102793078D01*
X174323000Y-102749922D01*
X174323000Y-102596078D01*
X174292987Y-102445191D01*
X174234113Y-102303058D01*
X174148642Y-102175141D01*
X174039859Y-102066358D01*
X173911942Y-101980887D01*
X173769809Y-101922013D01*
X173618922Y-101892000D01*
X173479677Y-101892000D01*
X173464948Y-101874052D01*
X173387595Y-101810571D01*
X173299343Y-101763399D01*
X173203585Y-101734351D01*
X173128947Y-101727000D01*
X173128944Y-101727000D01*
X173104000Y-101724543D01*
X173079056Y-101727000D01*
X166814420Y-101727000D01*
X166068855Y-100981435D01*
X166052948Y-100962052D01*
X165975595Y-100898571D01*
X165887343Y-100851399D01*
X165791585Y-100822351D01*
X165716947Y-100815000D01*
X165716944Y-100815000D01*
X165692000Y-100812543D01*
X165667056Y-100815000D01*
X163623943Y-100815000D01*
X163598999Y-100812543D01*
X163574055Y-100815000D01*
X163574053Y-100815000D01*
X163499415Y-100822351D01*
X163403657Y-100851399D01*
X163403655Y-100851400D01*
X163315404Y-100898571D01*
X163292192Y-100917621D01*
X163238052Y-100962052D01*
X163222150Y-100981429D01*
X162241580Y-101962000D01*
X162102078Y-101962000D01*
X161951191Y-101992013D01*
X161809058Y-102050887D01*
X161681141Y-102136358D01*
X161572358Y-102245141D01*
X161486887Y-102373058D01*
X161428013Y-102515191D01*
X161398000Y-102666078D01*
X161398000Y-102819922D01*
X161428013Y-102970809D01*
X161486887Y-103112942D01*
X161572358Y-103240859D01*
X161681141Y-103349642D01*
X161809058Y-103435113D01*
X161951191Y-103493987D01*
X162102078Y-103524000D01*
X162255922Y-103524000D01*
X162406809Y-103493987D01*
X162548942Y-103435113D01*
X162676859Y-103349642D01*
X162785642Y-103240859D01*
X162871113Y-103112942D01*
X162929987Y-102970809D01*
X162960000Y-102819922D01*
X162960000Y-102680420D01*
X163809421Y-101831000D01*
X164446891Y-101831000D01*
X164441013Y-101845191D01*
X164411000Y-101996078D01*
X164411000Y-102149922D01*
X164441013Y-102300809D01*
X164499887Y-102442942D01*
X164585358Y-102570859D01*
X164694141Y-102679642D01*
X164822058Y-102765113D01*
X164896088Y-102795777D01*
X164764191Y-102822013D01*
X164689992Y-102852748D01*
X164649113Y-102754058D01*
X164563642Y-102626141D01*
X164454859Y-102517358D01*
X164326942Y-102431887D01*
X164184809Y-102373013D01*
X164033922Y-102343000D01*
X163880078Y-102343000D01*
X163729191Y-102373013D01*
X163587058Y-102431887D01*
X163459141Y-102517358D01*
X163350358Y-102626141D01*
X163264887Y-102754058D01*
X163206013Y-102896191D01*
X163176000Y-103047078D01*
X163176000Y-103200922D01*
X163206013Y-103351809D01*
X163264887Y-103493942D01*
X163347681Y-103617853D01*
X163221191Y-103643013D01*
X163079058Y-103701887D01*
X162951141Y-103787358D01*
X162851858Y-103886641D01*
X162783730Y-103893351D01*
X162687972Y-103922399D01*
X162687970Y-103922400D01*
X162599719Y-103969571D01*
X162560220Y-104001987D01*
X162522367Y-104033052D01*
X162506465Y-104052429D01*
X161024624Y-105534271D01*
X161005241Y-105550178D01*
X160941760Y-105627531D01*
X160894588Y-105715784D01*
X160865540Y-105811542D01*
X160858430Y-105883730D01*
X160855732Y-105911126D01*
X160858189Y-105936070D01*
X160858190Y-107688769D01*
X159368515Y-106199095D01*
X159368515Y-106006501D01*
X159467157Y-105907859D01*
X159552628Y-105779942D01*
X159611502Y-105637809D01*
X159641515Y-105486922D01*
X159641515Y-105333078D01*
X159611502Y-105182191D01*
X159552628Y-105040058D01*
X159467157Y-104912141D01*
X159358374Y-104803358D01*
X159230457Y-104717887D01*
X159088324Y-104659013D01*
X158937437Y-104629000D01*
X158783593Y-104629000D01*
X158632706Y-104659013D01*
X158490573Y-104717887D01*
X158362656Y-104803358D01*
X158253873Y-104912141D01*
X158168402Y-105040058D01*
X158109528Y-105182191D01*
X158097755Y-105241377D01*
X158092207Y-105227983D01*
X158006736Y-105100066D01*
X157897953Y-104991283D01*
X157770036Y-104905812D01*
X157627903Y-104846938D01*
X157477016Y-104816925D01*
X157323172Y-104816925D01*
X157172285Y-104846938D01*
X157030152Y-104905812D01*
X156902235Y-104991283D01*
X156793452Y-105100066D01*
X156707981Y-105227983D01*
X156649107Y-105370116D01*
X156619094Y-105521003D01*
X156619094Y-105674847D01*
X156649107Y-105825734D01*
X156707981Y-105967867D01*
X156793452Y-106095784D01*
X156902235Y-106204567D01*
X157030152Y-106290038D01*
X157172285Y-106348912D01*
X157323172Y-106378925D01*
X157477016Y-106378925D01*
X157627903Y-106348912D01*
X157770036Y-106290038D01*
X157897953Y-106204567D01*
X158006736Y-106095784D01*
X158092207Y-105967867D01*
X158151081Y-105825734D01*
X158162854Y-105766548D01*
X158168402Y-105779942D01*
X158253873Y-105907859D01*
X158352516Y-106006502D01*
X158352516Y-106384561D01*
X158350058Y-106409515D01*
X158358989Y-106500189D01*
X158359867Y-106509100D01*
X158369316Y-106540248D01*
X158388915Y-106604858D01*
X158436086Y-106693110D01*
X158462400Y-106725173D01*
X158499568Y-106770463D01*
X158518945Y-106786365D01*
X160556803Y-108824224D01*
X160427191Y-108850005D01*
X160285058Y-108908879D01*
X160157141Y-108994350D01*
X160048358Y-109103133D01*
X159962887Y-109231050D01*
X159934378Y-109299877D01*
X159882859Y-109248358D01*
X159754942Y-109162887D01*
X159612809Y-109104013D01*
X159461922Y-109074000D01*
X159308078Y-109074000D01*
X159157191Y-109104013D01*
X159015058Y-109162887D01*
X158887141Y-109248358D01*
X158778358Y-109357141D01*
X158692887Y-109485058D01*
X158634013Y-109627191D01*
X158604000Y-109778078D01*
X158604000Y-109931922D01*
X158634013Y-110082809D01*
X158692887Y-110224942D01*
X158722496Y-110269255D01*
X158634058Y-110305887D01*
X158506141Y-110391358D01*
X158444218Y-110453281D01*
X158405049Y-110379999D01*
X158278085Y-110225293D01*
X158239322Y-110193481D01*
X155808680Y-107762840D01*
X155808680Y-104557397D01*
X157191999Y-103174078D01*
X157461000Y-103174078D01*
X157461000Y-103327922D01*
X157491013Y-103478809D01*
X157549887Y-103620942D01*
X157635358Y-103748859D01*
X157744141Y-103857642D01*
X157872058Y-103943113D01*
X158014191Y-104001987D01*
X158165078Y-104032000D01*
X158318922Y-104032000D01*
X158469809Y-104001987D01*
X158611942Y-103943113D01*
X158739859Y-103857642D01*
X158848642Y-103748859D01*
X158934113Y-103620942D01*
X158992987Y-103478809D01*
X159023000Y-103327922D01*
X159023000Y-103174078D01*
X158992987Y-103023191D01*
X158934113Y-102881058D01*
X158848642Y-102753141D01*
X158739859Y-102644358D01*
X158611942Y-102558887D01*
X158469809Y-102500013D01*
X158318922Y-102470000D01*
X158165078Y-102470000D01*
X158014191Y-102500013D01*
X157872058Y-102558887D01*
X157744141Y-102644358D01*
X157635358Y-102753141D01*
X157549887Y-102881058D01*
X157491013Y-103023191D01*
X157461000Y-103174078D01*
X157191999Y-103174078D01*
X157578007Y-102788071D01*
X157616770Y-102756259D01*
X157743734Y-102601553D01*
X157838076Y-102425050D01*
X157896172Y-102233534D01*
X157910874Y-102084265D01*
X157910874Y-102084258D01*
X157915788Y-102034364D01*
X157910874Y-101984470D01*
X157910874Y-99751390D01*
X158111000Y-99751390D01*
X158111000Y-99905234D01*
X158141013Y-100056121D01*
X158199887Y-100198254D01*
X158285358Y-100326171D01*
X158394141Y-100434954D01*
X158522058Y-100520425D01*
X158664191Y-100579299D01*
X158815078Y-100609312D01*
X158968922Y-100609312D01*
X159119809Y-100579299D01*
X159261942Y-100520425D01*
X159389859Y-100434954D01*
X159498642Y-100326171D01*
X159584113Y-100198254D01*
X159642987Y-100056121D01*
X159673000Y-99905234D01*
X159673000Y-99751390D01*
X159642987Y-99600503D01*
X159584113Y-99458370D01*
X159498642Y-99330453D01*
X159389859Y-99221670D01*
X159261942Y-99136199D01*
X159119809Y-99077325D01*
X158968922Y-99047312D01*
X158815078Y-99047312D01*
X158664191Y-99077325D01*
X158522058Y-99136199D01*
X158394141Y-99221670D01*
X158285358Y-99330453D01*
X158199887Y-99458370D01*
X158141013Y-99600503D01*
X158111000Y-99751390D01*
X157910874Y-99751390D01*
X157910874Y-98996078D01*
X161211000Y-98996078D01*
X161211000Y-99149922D01*
X161241013Y-99300809D01*
X161299887Y-99442942D01*
X161385358Y-99570859D01*
X161494141Y-99679642D01*
X161534335Y-99706498D01*
X161530354Y-99712456D01*
X161471480Y-99854589D01*
X161441467Y-100005476D01*
X161441467Y-100159320D01*
X161471480Y-100310207D01*
X161530354Y-100452340D01*
X161615825Y-100580257D01*
X161724608Y-100689040D01*
X161852525Y-100774511D01*
X161994658Y-100833385D01*
X162145545Y-100863398D01*
X162299389Y-100863398D01*
X162450276Y-100833385D01*
X162592409Y-100774511D01*
X162612513Y-100761078D01*
X170288000Y-100761078D01*
X170288000Y-100914922D01*
X170318013Y-101065809D01*
X170376887Y-101207942D01*
X170462358Y-101335859D01*
X170571141Y-101444642D01*
X170699058Y-101530113D01*
X170841191Y-101588987D01*
X170992078Y-101619000D01*
X171145922Y-101619000D01*
X171296809Y-101588987D01*
X171438942Y-101530113D01*
X171566859Y-101444642D01*
X171675642Y-101335859D01*
X171761113Y-101207942D01*
X171819987Y-101065809D01*
X171850000Y-100914922D01*
X171850000Y-100761078D01*
X171819987Y-100610191D01*
X171761113Y-100468058D01*
X171675642Y-100340141D01*
X171566859Y-100231358D01*
X171438942Y-100145887D01*
X171296809Y-100087013D01*
X171145922Y-100057000D01*
X170992078Y-100057000D01*
X170841191Y-100087013D01*
X170699058Y-100145887D01*
X170571141Y-100231358D01*
X170462358Y-100340141D01*
X170376887Y-100468058D01*
X170318013Y-100610191D01*
X170288000Y-100761078D01*
X162612513Y-100761078D01*
X162720326Y-100689040D01*
X162829109Y-100580257D01*
X162914580Y-100452340D01*
X162973454Y-100310207D01*
X163003467Y-100159320D01*
X163003467Y-100005476D01*
X162973454Y-99854589D01*
X162914580Y-99712456D01*
X162829109Y-99584539D01*
X162720326Y-99475756D01*
X162680132Y-99448900D01*
X162684113Y-99442942D01*
X162742987Y-99300809D01*
X162773000Y-99149922D01*
X162773000Y-98996078D01*
X162742987Y-98845191D01*
X162684113Y-98703058D01*
X162598642Y-98575141D01*
X162489859Y-98466358D01*
X162361942Y-98380887D01*
X162219809Y-98322013D01*
X162068922Y-98292000D01*
X161915078Y-98292000D01*
X161764191Y-98322013D01*
X161622058Y-98380887D01*
X161494141Y-98466358D01*
X161385358Y-98575141D01*
X161299887Y-98703058D01*
X161241013Y-98845191D01*
X161211000Y-98996078D01*
X157910874Y-98996078D01*
X157910874Y-97446078D01*
X162561000Y-97446078D01*
X162561000Y-97599922D01*
X162591013Y-97750809D01*
X162649887Y-97892942D01*
X162735358Y-98020859D01*
X162844141Y-98129642D01*
X162972058Y-98215113D01*
X163114191Y-98273987D01*
X163265078Y-98304000D01*
X163418922Y-98304000D01*
X163569809Y-98273987D01*
X163711942Y-98215113D01*
X163839859Y-98129642D01*
X163948642Y-98020859D01*
X164034113Y-97892942D01*
X164092987Y-97750809D01*
X164123000Y-97599922D01*
X164123000Y-97446078D01*
X164092987Y-97295191D01*
X164038348Y-97163282D01*
X164064191Y-97173987D01*
X164215078Y-97204000D01*
X164319000Y-97204000D01*
X164319000Y-97231922D01*
X164349013Y-97382809D01*
X164407887Y-97524942D01*
X164493358Y-97652859D01*
X164602141Y-97761642D01*
X164730058Y-97847113D01*
X164872191Y-97905987D01*
X165023078Y-97936000D01*
X165176922Y-97936000D01*
X165327809Y-97905987D01*
X165469942Y-97847113D01*
X165597859Y-97761642D01*
X165706642Y-97652859D01*
X165751263Y-97586078D01*
X166224000Y-97586078D01*
X166224000Y-97739922D01*
X166254013Y-97890809D01*
X166312887Y-98032942D01*
X166398358Y-98160859D01*
X166507141Y-98269642D01*
X166635058Y-98355113D01*
X166777191Y-98413987D01*
X166928078Y-98444000D01*
X167081922Y-98444000D01*
X167232809Y-98413987D01*
X167374942Y-98355113D01*
X167502859Y-98269642D01*
X167611642Y-98160859D01*
X167637840Y-98121650D01*
X167764191Y-98173987D01*
X167915078Y-98204000D01*
X168068922Y-98204000D01*
X168219809Y-98173987D01*
X168361942Y-98115113D01*
X168489859Y-98029642D01*
X168598642Y-97920859D01*
X168684113Y-97792942D01*
X168742987Y-97650809D01*
X168773000Y-97499922D01*
X168773000Y-97346078D01*
X168742987Y-97195191D01*
X168684113Y-97053058D01*
X168598642Y-96925141D01*
X168489859Y-96816358D01*
X168361942Y-96730887D01*
X168219809Y-96672013D01*
X168068922Y-96642000D01*
X167915078Y-96642000D01*
X167764191Y-96672013D01*
X167622058Y-96730887D01*
X167494141Y-96816358D01*
X167385358Y-96925141D01*
X167359160Y-96964350D01*
X167232809Y-96912013D01*
X167081922Y-96882000D01*
X166928078Y-96882000D01*
X166777191Y-96912013D01*
X166635058Y-96970887D01*
X166507141Y-97056358D01*
X166398358Y-97165141D01*
X166312887Y-97293058D01*
X166254013Y-97435191D01*
X166224000Y-97586078D01*
X165751263Y-97586078D01*
X165792113Y-97524942D01*
X165850987Y-97382809D01*
X165881000Y-97231922D01*
X165881000Y-97078078D01*
X165850987Y-96927191D01*
X165792113Y-96785058D01*
X165706642Y-96657141D01*
X165597859Y-96548358D01*
X165469942Y-96462887D01*
X165327809Y-96404013D01*
X165176922Y-96374000D01*
X165073000Y-96374000D01*
X165073000Y-96346078D01*
X165042987Y-96195191D01*
X164984113Y-96053058D01*
X164898642Y-95925141D01*
X164789859Y-95816358D01*
X164661942Y-95730887D01*
X164519809Y-95672013D01*
X164368922Y-95642000D01*
X164215078Y-95642000D01*
X164064191Y-95672013D01*
X163922058Y-95730887D01*
X163794141Y-95816358D01*
X163685358Y-95925141D01*
X163599887Y-96053058D01*
X163541013Y-96195191D01*
X163511000Y-96346078D01*
X163511000Y-96499922D01*
X163541013Y-96650809D01*
X163595652Y-96782718D01*
X163569809Y-96772013D01*
X163418922Y-96742000D01*
X163265078Y-96742000D01*
X163114191Y-96772013D01*
X162972058Y-96830887D01*
X162844141Y-96916358D01*
X162735358Y-97025141D01*
X162649887Y-97153058D01*
X162591013Y-97295191D01*
X162561000Y-97446078D01*
X157910874Y-97446078D01*
X157910874Y-95599524D01*
X158133574Y-95599524D01*
X158133574Y-95753368D01*
X158163587Y-95904255D01*
X158222461Y-96046388D01*
X158307932Y-96174305D01*
X158416715Y-96283088D01*
X158544632Y-96368559D01*
X158686765Y-96427433D01*
X158837652Y-96457446D01*
X158991496Y-96457446D01*
X159142383Y-96427433D01*
X159284516Y-96368559D01*
X159412433Y-96283088D01*
X159521216Y-96174305D01*
X159606687Y-96046388D01*
X159665561Y-95904255D01*
X159695574Y-95753368D01*
X159695574Y-95599524D01*
X159665561Y-95448637D01*
X159606687Y-95306504D01*
X159521216Y-95178587D01*
X159412433Y-95069804D01*
X159284516Y-94984333D01*
X159142383Y-94925459D01*
X158991496Y-94895446D01*
X158837652Y-94895446D01*
X158686765Y-94925459D01*
X158544632Y-94984333D01*
X158416715Y-95069804D01*
X158307932Y-95178587D01*
X158222461Y-95306504D01*
X158163587Y-95448637D01*
X158133574Y-95599524D01*
X157910874Y-95599524D01*
X157910874Y-94438604D01*
X161158710Y-94438604D01*
X161158710Y-94592448D01*
X161188723Y-94743335D01*
X161247597Y-94885468D01*
X161333068Y-95013385D01*
X161441851Y-95122168D01*
X161569768Y-95207639D01*
X161711901Y-95266513D01*
X161862788Y-95296526D01*
X162016632Y-95296526D01*
X162167519Y-95266513D01*
X162309652Y-95207639D01*
X162437569Y-95122168D01*
X162546352Y-95013385D01*
X162631823Y-94885468D01*
X162690697Y-94743335D01*
X162720710Y-94592448D01*
X162720710Y-94438604D01*
X162690697Y-94287717D01*
X162631823Y-94145584D01*
X162546352Y-94017667D01*
X162437569Y-93908884D01*
X162309652Y-93823413D01*
X162167519Y-93764539D01*
X162016632Y-93734526D01*
X161862788Y-93734526D01*
X161711901Y-93764539D01*
X161569768Y-93823413D01*
X161441851Y-93908884D01*
X161333068Y-94017667D01*
X161247597Y-94145584D01*
X161188723Y-94287717D01*
X161158710Y-94438604D01*
X157910874Y-94438604D01*
X157910874Y-91046078D01*
X158211000Y-91046078D01*
X158211000Y-91199922D01*
X158241013Y-91350809D01*
X158299887Y-91492942D01*
X158385358Y-91620859D01*
X158494141Y-91729642D01*
X158622058Y-91815113D01*
X158764191Y-91873987D01*
X158915078Y-91904000D01*
X159068922Y-91904000D01*
X159219809Y-91873987D01*
X159361942Y-91815113D01*
X159489859Y-91729642D01*
X159598642Y-91620859D01*
X159684113Y-91492942D01*
X159742987Y-91350809D01*
X159773000Y-91199922D01*
X159773000Y-91046078D01*
X159742987Y-90895191D01*
X159684113Y-90753058D01*
X159598642Y-90625141D01*
X159489859Y-90516358D01*
X159361942Y-90430887D01*
X159219809Y-90372013D01*
X159068922Y-90342000D01*
X158915078Y-90342000D01*
X158764191Y-90372013D01*
X158622058Y-90430887D01*
X158494141Y-90516358D01*
X158385358Y-90625141D01*
X158299887Y-90753058D01*
X158241013Y-90895191D01*
X158211000Y-91046078D01*
X157910874Y-91046078D01*
X157910874Y-89954938D01*
X157915789Y-89905036D01*
X157896172Y-89705865D01*
X157838076Y-89514349D01*
X157793465Y-89430887D01*
X157743734Y-89337846D01*
X157616770Y-89183140D01*
X157578007Y-89151328D01*
X156065290Y-87638612D01*
X156033474Y-87599844D01*
X155878768Y-87472880D01*
X155702265Y-87378538D01*
X155510749Y-87320442D01*
X155361480Y-87305740D01*
X155311578Y-87300825D01*
X155261676Y-87305740D01*
X154570185Y-87305740D01*
X154493568Y-87290500D01*
X154290432Y-87290500D01*
X154091198Y-87330130D01*
X153903525Y-87407867D01*
X153734623Y-87520723D01*
X153590983Y-87664363D01*
X153478127Y-87833265D01*
X153400390Y-88020938D01*
X153360760Y-88220172D01*
X153360760Y-88423308D01*
X153400390Y-88622542D01*
X153478127Y-88810215D01*
X153590983Y-88979117D01*
X153734623Y-89122757D01*
X153903525Y-89235613D01*
X154091198Y-89313350D01*
X154137198Y-89322500D01*
X154091198Y-89331650D01*
X153903525Y-89409387D01*
X153734623Y-89522243D01*
X153590983Y-89665883D01*
X153478127Y-89834785D01*
X153400390Y-90022458D01*
X153360760Y-90221692D01*
X153360760Y-90424828D01*
X153400390Y-90624062D01*
X153478127Y-90811735D01*
X153590983Y-90980637D01*
X153734623Y-91124277D01*
X153903525Y-91237133D01*
X154091198Y-91314870D01*
X154130814Y-91322750D01*
X154091198Y-91330630D01*
X153903525Y-91408367D01*
X153734623Y-91521223D01*
X153590983Y-91664863D01*
X153478127Y-91833765D01*
X153400390Y-92021438D01*
X153360760Y-92220672D01*
X153360760Y-92423808D01*
X153400390Y-92623042D01*
X153478127Y-92810715D01*
X153590983Y-92979617D01*
X153734623Y-93123257D01*
X153903525Y-93236113D01*
X154091198Y-93313850D01*
X154137198Y-93323000D01*
X154091198Y-93332150D01*
X153903525Y-93409887D01*
X153734623Y-93522743D01*
X153590983Y-93666383D01*
X153478127Y-93835285D01*
X153400390Y-94022958D01*
X153360760Y-94222192D01*
X153360760Y-94425328D01*
X153400390Y-94624562D01*
X153478127Y-94812235D01*
X153590983Y-94981137D01*
X153734623Y-95124777D01*
X153903525Y-95237633D01*
X154091198Y-95315370D01*
X154130814Y-95323250D01*
X154091198Y-95331130D01*
X153903525Y-95408867D01*
X153734623Y-95521723D01*
X153590983Y-95665363D01*
X153478127Y-95834265D01*
X153400390Y-96021938D01*
X153360760Y-96221172D01*
X153360760Y-96424308D01*
X153400390Y-96623542D01*
X153478127Y-96811215D01*
X153590983Y-96980117D01*
X153734623Y-97123757D01*
X153903525Y-97236613D01*
X154091198Y-97314350D01*
X154273334Y-97350579D01*
X154206602Y-97356678D01*
X154021398Y-97411439D01*
X153850437Y-97501280D01*
X153838911Y-97508981D01*
X153776587Y-97663946D01*
X154392000Y-98279359D01*
X155007413Y-97663946D01*
X154945089Y-97508981D01*
X154775408Y-97416744D01*
X154590993Y-97359382D01*
X154509614Y-97350788D01*
X154692802Y-97314350D01*
X154880475Y-97236613D01*
X155049377Y-97123757D01*
X155193017Y-96980117D01*
X155305873Y-96811215D01*
X155383610Y-96623542D01*
X155423240Y-96424308D01*
X155423240Y-96221172D01*
X155383610Y-96021938D01*
X155305873Y-95834265D01*
X155193017Y-95665363D01*
X155049377Y-95521723D01*
X154880475Y-95408867D01*
X154692802Y-95331130D01*
X154653186Y-95323250D01*
X154692802Y-95315370D01*
X154880475Y-95237633D01*
X155049377Y-95124777D01*
X155193017Y-94981137D01*
X155305873Y-94812235D01*
X155383610Y-94624562D01*
X155423240Y-94425328D01*
X155423240Y-94222192D01*
X155383610Y-94022958D01*
X155305873Y-93835285D01*
X155193017Y-93666383D01*
X155049377Y-93522743D01*
X154880475Y-93409887D01*
X154692802Y-93332150D01*
X154646802Y-93323000D01*
X154692802Y-93313850D01*
X154880475Y-93236113D01*
X155049377Y-93123257D01*
X155193017Y-92979617D01*
X155305873Y-92810715D01*
X155383610Y-92623042D01*
X155423240Y-92423808D01*
X155423240Y-92220672D01*
X155383610Y-92021438D01*
X155305873Y-91833765D01*
X155193017Y-91664863D01*
X155049377Y-91521223D01*
X154880475Y-91408367D01*
X154692802Y-91330630D01*
X154653186Y-91322750D01*
X154692802Y-91314870D01*
X154880475Y-91237133D01*
X155049377Y-91124277D01*
X155193017Y-90980637D01*
X155305873Y-90811735D01*
X155383610Y-90624062D01*
X155423240Y-90424828D01*
X155423240Y-90221692D01*
X155383610Y-90022458D01*
X155305873Y-89834785D01*
X155193017Y-89665883D01*
X155049377Y-89522243D01*
X154880475Y-89409387D01*
X154707505Y-89337740D01*
X154890738Y-89337740D01*
X155878874Y-90325877D01*
X155878875Y-101613521D01*
X154109552Y-103382845D01*
X154070784Y-103414661D01*
X153943820Y-103569367D01*
X153849478Y-103745871D01*
X153806970Y-103886000D01*
X153791382Y-103937387D01*
X153771765Y-104136557D01*
X153776680Y-104186459D01*
X153776681Y-107089697D01*
X153733989Y-107072013D01*
X153583102Y-107042000D01*
X153429258Y-107042000D01*
X153278371Y-107072013D01*
X153136238Y-107130887D01*
X153008321Y-107216358D01*
X152899538Y-107325141D01*
X152814067Y-107453058D01*
X152755193Y-107595191D01*
X152725180Y-107746078D01*
X152719000Y-107746078D01*
X152719000Y-101777078D01*
X153651000Y-101777078D01*
X153651000Y-101930922D01*
X153681013Y-102081809D01*
X153739887Y-102223942D01*
X153825358Y-102351859D01*
X153934141Y-102460642D01*
X154062058Y-102546113D01*
X154204191Y-102604987D01*
X154355078Y-102635000D01*
X154508922Y-102635000D01*
X154659809Y-102604987D01*
X154801942Y-102546113D01*
X154929859Y-102460642D01*
X155038642Y-102351859D01*
X155124113Y-102223942D01*
X155182987Y-102081809D01*
X155213000Y-101930922D01*
X155213000Y-101777078D01*
X155182987Y-101626191D01*
X155124113Y-101484058D01*
X155038642Y-101356141D01*
X154929859Y-101247358D01*
X154801942Y-101161887D01*
X154659809Y-101103013D01*
X154508922Y-101073000D01*
X154355078Y-101073000D01*
X154204191Y-101103013D01*
X154062058Y-101161887D01*
X153934141Y-101247358D01*
X153825358Y-101356141D01*
X153739887Y-101484058D01*
X153681013Y-101626191D01*
X153651000Y-101777078D01*
X152719000Y-101777078D01*
X152719000Y-99618078D01*
X153270000Y-99618078D01*
X153270000Y-99771922D01*
X153300013Y-99922809D01*
X153358887Y-100064942D01*
X153444358Y-100192859D01*
X153553141Y-100301642D01*
X153681058Y-100387113D01*
X153823191Y-100445987D01*
X153974078Y-100476000D01*
X154127922Y-100476000D01*
X154278809Y-100445987D01*
X154420942Y-100387113D01*
X154548859Y-100301642D01*
X154657642Y-100192859D01*
X154743113Y-100064942D01*
X154801987Y-99922809D01*
X154832000Y-99771922D01*
X154832000Y-99618078D01*
X154801987Y-99467191D01*
X154743113Y-99325058D01*
X154697242Y-99256407D01*
X154762602Y-99237081D01*
X154933563Y-99147240D01*
X154945089Y-99139539D01*
X155007413Y-98984574D01*
X154392000Y-98369161D01*
X154377858Y-98383304D01*
X154332957Y-98338403D01*
X154347099Y-98324260D01*
X154436901Y-98324260D01*
X155052314Y-98939673D01*
X155207279Y-98877349D01*
X155299516Y-98707668D01*
X155356878Y-98523253D01*
X155377160Y-98331191D01*
X155359582Y-98138862D01*
X155304821Y-97953658D01*
X155214980Y-97782697D01*
X155207279Y-97771171D01*
X155052314Y-97708847D01*
X154436901Y-98324260D01*
X154347099Y-98324260D01*
X153731686Y-97708847D01*
X153576721Y-97771171D01*
X153484484Y-97940852D01*
X153427122Y-98125267D01*
X153406840Y-98317329D01*
X153424418Y-98509658D01*
X153479179Y-98694862D01*
X153569020Y-98865823D01*
X153576721Y-98877349D01*
X153731684Y-98939672D01*
X153673353Y-98998003D01*
X153679367Y-99004017D01*
X153553141Y-99088358D01*
X153444358Y-99197141D01*
X153358887Y-99325058D01*
X153300013Y-99467191D01*
X153270000Y-99618078D01*
X152719000Y-99618078D01*
X152719000Y-86787300D01*
X170934080Y-86787300D01*
X170934080Y-87555152D01*
X170946769Y-87618946D01*
X170971660Y-87679038D01*
X171007797Y-87733120D01*
X171053790Y-87779113D01*
X171107872Y-87815249D01*
X171167964Y-87840141D01*
X171231758Y-87852830D01*
X171749420Y-87852830D01*
X171831970Y-87770280D01*
X171831970Y-86704750D01*
X171895470Y-86704750D01*
X171895470Y-87770280D01*
X171978020Y-87852830D01*
X172495682Y-87852830D01*
X172559476Y-87840141D01*
X172619568Y-87815249D01*
X172673650Y-87779113D01*
X172719643Y-87733120D01*
X172755780Y-87679038D01*
X172780671Y-87618946D01*
X172793360Y-87555152D01*
X172793360Y-86787300D01*
X172710810Y-86704750D01*
X171895470Y-86704750D01*
X171831970Y-86704750D01*
X171016630Y-86704750D01*
X170934080Y-86787300D01*
X152719000Y-86787300D01*
X152719000Y-84849953D01*
X163695475Y-84845899D01*
X163564191Y-84872013D01*
X163422058Y-84930887D01*
X163294141Y-85016358D01*
X163185358Y-85125141D01*
X163099887Y-85253058D01*
X163041013Y-85395191D01*
X163011000Y-85546078D01*
X163011000Y-85699922D01*
X163041013Y-85850809D01*
X163099887Y-85992942D01*
X163185358Y-86120859D01*
X163294141Y-86229642D01*
X163422058Y-86315113D01*
X163564191Y-86373987D01*
X163715078Y-86404000D01*
X163868922Y-86404000D01*
X164019809Y-86373987D01*
X164161942Y-86315113D01*
X164289859Y-86229642D01*
X164398642Y-86120859D01*
X164484113Y-85992942D01*
X164542987Y-85850809D01*
X164554913Y-85790848D01*
X170934080Y-85790848D01*
X170934080Y-86558700D01*
X171016630Y-86641250D01*
X171831970Y-86641250D01*
X171831970Y-85575720D01*
X171895470Y-85575720D01*
X171895470Y-86641250D01*
X172710810Y-86641250D01*
X172793360Y-86558700D01*
X172793360Y-86374654D01*
X172884800Y-86374654D01*
X172884800Y-86971347D01*
X172898987Y-87115390D01*
X172955050Y-87300203D01*
X173046091Y-87470528D01*
X173168611Y-87619820D01*
X173317903Y-87742340D01*
X173488228Y-87833380D01*
X173673041Y-87889443D01*
X173865240Y-87908373D01*
X174057440Y-87889443D01*
X174242253Y-87833380D01*
X174412578Y-87742340D01*
X174561870Y-87619820D01*
X174684390Y-87470528D01*
X174775430Y-87300203D01*
X174831493Y-87115389D01*
X174845680Y-86971346D01*
X174845680Y-86374654D01*
X174886320Y-86374654D01*
X174886320Y-86971347D01*
X174900507Y-87115390D01*
X174956570Y-87300203D01*
X175047611Y-87470528D01*
X175170131Y-87619820D01*
X175319423Y-87742340D01*
X175489748Y-87833380D01*
X175674561Y-87889443D01*
X175866760Y-87908373D01*
X176058960Y-87889443D01*
X176243773Y-87833380D01*
X176414098Y-87742340D01*
X176563390Y-87619820D01*
X176685910Y-87470528D01*
X176776950Y-87300203D01*
X176833013Y-87115389D01*
X176847200Y-86971346D01*
X176847200Y-86374654D01*
X176885300Y-86374654D01*
X176885300Y-86971347D01*
X176899487Y-87115390D01*
X176955550Y-87300203D01*
X177046591Y-87470528D01*
X177169111Y-87619820D01*
X177318403Y-87742340D01*
X177488728Y-87833380D01*
X177673541Y-87889443D01*
X177865740Y-87908373D01*
X178057940Y-87889443D01*
X178242753Y-87833380D01*
X178413078Y-87742340D01*
X178562370Y-87619820D01*
X178684890Y-87470528D01*
X178775930Y-87300203D01*
X178831993Y-87115389D01*
X178846180Y-86971346D01*
X178846180Y-86374653D01*
X178831993Y-86230610D01*
X178775930Y-86045797D01*
X178684890Y-85875472D01*
X178562370Y-85726180D01*
X178413078Y-85603660D01*
X178242752Y-85512620D01*
X178057939Y-85456557D01*
X177865740Y-85437627D01*
X177673540Y-85456557D01*
X177488727Y-85512620D01*
X177318402Y-85603660D01*
X177169110Y-85726180D01*
X177046590Y-85875472D01*
X176955550Y-86045798D01*
X176899487Y-86230611D01*
X176885300Y-86374654D01*
X176847200Y-86374654D01*
X176847200Y-86374653D01*
X176833013Y-86230610D01*
X176776950Y-86045797D01*
X176685910Y-85875472D01*
X176563390Y-85726180D01*
X176414098Y-85603660D01*
X176243772Y-85512620D01*
X176058959Y-85456557D01*
X175866760Y-85437627D01*
X175674560Y-85456557D01*
X175489747Y-85512620D01*
X175319422Y-85603660D01*
X175170130Y-85726180D01*
X175047610Y-85875472D01*
X174956570Y-86045798D01*
X174900507Y-86230611D01*
X174886320Y-86374654D01*
X174845680Y-86374654D01*
X174845680Y-86374653D01*
X174831493Y-86230610D01*
X174775430Y-86045797D01*
X174684390Y-85875472D01*
X174561870Y-85726180D01*
X174412578Y-85603660D01*
X174242252Y-85512620D01*
X174057439Y-85456557D01*
X173865240Y-85437627D01*
X173673040Y-85456557D01*
X173488227Y-85512620D01*
X173317902Y-85603660D01*
X173168610Y-85726180D01*
X173046090Y-85875472D01*
X172955050Y-86045798D01*
X172898987Y-86230611D01*
X172884800Y-86374654D01*
X172793360Y-86374654D01*
X172793360Y-85790848D01*
X172780671Y-85727054D01*
X172755780Y-85666962D01*
X172719643Y-85612880D01*
X172673650Y-85566887D01*
X172619568Y-85530751D01*
X172559476Y-85505859D01*
X172495682Y-85493170D01*
X171978020Y-85493170D01*
X171895470Y-85575720D01*
X171831970Y-85575720D01*
X171749420Y-85493170D01*
X171231758Y-85493170D01*
X171167964Y-85505859D01*
X171107872Y-85530751D01*
X171053790Y-85566887D01*
X171007797Y-85612880D01*
X170971660Y-85666962D01*
X170946769Y-85727054D01*
X170934080Y-85790848D01*
X164554913Y-85790848D01*
X164573000Y-85699922D01*
X164573000Y-85546078D01*
X164542987Y-85395191D01*
X164484113Y-85253058D01*
X164398642Y-85125141D01*
X164289859Y-85016358D01*
X164161942Y-84930887D01*
X164019809Y-84872013D01*
X163888167Y-84845828D01*
X190373000Y-84836047D01*
X190373000Y-89268309D01*
X190373000Y-89268309D01*
G37*
X190373000Y-89268309D02*
X168635256Y-89268309D01*
X166885995Y-87519049D01*
X166866106Y-87494814D01*
X166769415Y-87415462D01*
X166659101Y-87356497D01*
X166539403Y-87320187D01*
X166446113Y-87310999D01*
X166446102Y-87310999D01*
X166414921Y-87307928D01*
X166383740Y-87310999D01*
X165530259Y-87310999D01*
X165499078Y-87307928D01*
X165467897Y-87310999D01*
X165467887Y-87310999D01*
X165374597Y-87320187D01*
X165254899Y-87356497D01*
X165144585Y-87415462D01*
X165047894Y-87494814D01*
X165028009Y-87519044D01*
X164016297Y-88530756D01*
X163984113Y-88453058D01*
X163898642Y-88325141D01*
X163789859Y-88216358D01*
X163661942Y-88130887D01*
X163519809Y-88072013D01*
X163368922Y-88042000D01*
X163215078Y-88042000D01*
X163064191Y-88072013D01*
X162922058Y-88130887D01*
X162794141Y-88216358D01*
X162685358Y-88325141D01*
X162658910Y-88364723D01*
X162641318Y-88338395D01*
X162518605Y-88215682D01*
X162374310Y-88119268D01*
X162213978Y-88052856D01*
X162043771Y-88019000D01*
X161870229Y-88019000D01*
X161700022Y-88052856D01*
X161539690Y-88119268D01*
X161395395Y-88215682D01*
X161272682Y-88338395D01*
X161176268Y-88482690D01*
X161109856Y-88643022D01*
X161076000Y-88813229D01*
X161076000Y-88986771D01*
X161109856Y-89156978D01*
X161176268Y-89317310D01*
X161223955Y-89388679D01*
X161122058Y-89430887D01*
X160994141Y-89516358D01*
X160885358Y-89625141D01*
X160799887Y-89753058D01*
X160741013Y-89895191D01*
X160711000Y-90046078D01*
X160711000Y-90199922D01*
X160741013Y-90350809D01*
X160799887Y-90492942D01*
X160885358Y-90620859D01*
X160994141Y-90729642D01*
X161122058Y-90815113D01*
X161264191Y-90873987D01*
X161415078Y-90904000D01*
X161568922Y-90904000D01*
X161719809Y-90873987D01*
X161861942Y-90815113D01*
X161989859Y-90729642D01*
X162098642Y-90620859D01*
X162184113Y-90492942D01*
X162242987Y-90350809D01*
X162273000Y-90199922D01*
X162273000Y-90046078D01*
X162242987Y-89895191D01*
X162184123Y-89753082D01*
X162213978Y-89747144D01*
X162374310Y-89680732D01*
X162518605Y-89584318D01*
X162641318Y-89461605D01*
X162715333Y-89350834D01*
X162794141Y-89429642D01*
X162922058Y-89515113D01*
X162999757Y-89547297D01*
X162897572Y-89649482D01*
X162873337Y-89669371D01*
X162793985Y-89766063D01*
X162735020Y-89876377D01*
X162698710Y-89996075D01*
X162689522Y-90089365D01*
X162689522Y-90089375D01*
X162686451Y-90120556D01*
X162689522Y-90151737D01*
X162689523Y-92267581D01*
X162632409Y-92353058D01*
X162573535Y-92495191D01*
X162543522Y-92646078D01*
X162543522Y-92799922D01*
X162573535Y-92950809D01*
X162632409Y-93092942D01*
X162717880Y-93220859D01*
X162826663Y-93329642D01*
X162954580Y-93415113D01*
X163096713Y-93473987D01*
X163247600Y-93504000D01*
X163401444Y-93504000D01*
X163552331Y-93473987D01*
X163694464Y-93415113D01*
X163822381Y-93329642D01*
X163931164Y-93220859D01*
X164016635Y-93092942D01*
X164075509Y-92950809D01*
X164088185Y-92887078D01*
X165716000Y-92887078D01*
X165716000Y-93040922D01*
X165746013Y-93191809D01*
X165804887Y-93333942D01*
X165890358Y-93461859D01*
X165999141Y-93570642D01*
X166127058Y-93656113D01*
X166269191Y-93714987D01*
X166420078Y-93745000D01*
X166573922Y-93745000D01*
X166724809Y-93714987D01*
X166866942Y-93656113D01*
X166994859Y-93570642D01*
X167103642Y-93461859D01*
X167189113Y-93333942D01*
X167247987Y-93191809D01*
X167278000Y-93040922D01*
X167278000Y-92887078D01*
X167247987Y-92736191D01*
X167189113Y-92594058D01*
X167103642Y-92466141D01*
X166994859Y-92357358D01*
X166866942Y-92271887D01*
X166724809Y-92213013D01*
X166573922Y-92183000D01*
X166420078Y-92183000D01*
X166269191Y-92213013D01*
X166127058Y-92271887D01*
X165999141Y-92357358D01*
X165890358Y-92466141D01*
X165804887Y-92594058D01*
X165746013Y-92736191D01*
X165716000Y-92887078D01*
X164088185Y-92887078D01*
X164105522Y-92799922D01*
X164105522Y-92646078D01*
X164075509Y-92495191D01*
X164016635Y-92353058D01*
X163959522Y-92267582D01*
X163959522Y-90383580D01*
X165132195Y-89210908D01*
X165176268Y-89317310D01*
X165272682Y-89461605D01*
X165395395Y-89584318D01*
X165539690Y-89680732D01*
X165700022Y-89747144D01*
X165799168Y-89766865D01*
X165746013Y-89895191D01*
X165716000Y-90046078D01*
X165716000Y-90199922D01*
X165746013Y-90350809D01*
X165804887Y-90492942D01*
X165890358Y-90620859D01*
X165999141Y-90729642D01*
X166127058Y-90815113D01*
X166269191Y-90873987D01*
X166338317Y-90887737D01*
X167888802Y-92438223D01*
X167888801Y-93565845D01*
X167768922Y-93542000D01*
X167615078Y-93542000D01*
X167464191Y-93572013D01*
X167322058Y-93630887D01*
X167194141Y-93716358D01*
X167085358Y-93825141D01*
X166999887Y-93953058D01*
X166941013Y-94095191D01*
X166911000Y-94246078D01*
X166911000Y-94399922D01*
X166941013Y-94550809D01*
X166999887Y-94692942D01*
X167085358Y-94820859D01*
X167194141Y-94929642D01*
X167322058Y-95015113D01*
X167464191Y-95073987D01*
X167615078Y-95104000D01*
X167768922Y-95104000D01*
X167919809Y-95073987D01*
X168038822Y-95024690D01*
X168055236Y-95038160D01*
X173561646Y-100544571D01*
X173577548Y-100563948D01*
X173596925Y-100579850D01*
X173654900Y-100627429D01*
X173738255Y-100671983D01*
X173743153Y-100674601D01*
X173838911Y-100703649D01*
X173913549Y-100711000D01*
X173913551Y-100711000D01*
X173938495Y-100713457D01*
X173963439Y-100711000D01*
X177584499Y-100711000D01*
X177683141Y-100809642D01*
X177811058Y-100895113D01*
X177953191Y-100953987D01*
X178104078Y-100984000D01*
X178257922Y-100984000D01*
X178408809Y-100953987D01*
X178550942Y-100895113D01*
X178678859Y-100809642D01*
X178787642Y-100700859D01*
X178873113Y-100572942D01*
X178931987Y-100430809D01*
X178962000Y-100279922D01*
X178962000Y-100126078D01*
X178931987Y-99975191D01*
X178873113Y-99833058D01*
X178787642Y-99705141D01*
X178678859Y-99596358D01*
X178550942Y-99510887D01*
X178408809Y-99452013D01*
X178257922Y-99422000D01*
X178104078Y-99422000D01*
X177953191Y-99452013D01*
X177811058Y-99510887D01*
X177683141Y-99596358D01*
X177584499Y-99695000D01*
X174148917Y-99695000D01*
X172566191Y-98112274D01*
X172689859Y-98029642D01*
X172798642Y-97920859D01*
X172884113Y-97792942D01*
X172942987Y-97650809D01*
X172973000Y-97499922D01*
X172973000Y-97346078D01*
X172942987Y-97195191D01*
X172884113Y-97053058D01*
X172815973Y-96951078D01*
X175876000Y-96951078D01*
X175876000Y-97104922D01*
X175906013Y-97255809D01*
X175964887Y-97397942D01*
X176050358Y-97525859D01*
X176123999Y-97599500D01*
X176050358Y-97673141D01*
X175964887Y-97801058D01*
X175906013Y-97943191D01*
X175876000Y-98094078D01*
X175876000Y-98247922D01*
X175906013Y-98398809D01*
X175964887Y-98540942D01*
X176050358Y-98668859D01*
X176159141Y-98777642D01*
X176287058Y-98863113D01*
X176429191Y-98921987D01*
X176580078Y-98952000D01*
X176733922Y-98952000D01*
X176884809Y-98921987D01*
X177026942Y-98863113D01*
X177154859Y-98777642D01*
X177263642Y-98668859D01*
X177349113Y-98540942D01*
X177407987Y-98398809D01*
X177438000Y-98247922D01*
X177438000Y-98094078D01*
X177407987Y-97943191D01*
X177349113Y-97801058D01*
X177263642Y-97673141D01*
X177190001Y-97599500D01*
X177263642Y-97525859D01*
X177349113Y-97397942D01*
X177407987Y-97255809D01*
X177438000Y-97104922D01*
X177438000Y-96951078D01*
X177407987Y-96800191D01*
X177349113Y-96658058D01*
X177263642Y-96530141D01*
X177154859Y-96421358D01*
X177026942Y-96335887D01*
X176884809Y-96277013D01*
X176733922Y-96247000D01*
X176580078Y-96247000D01*
X176429191Y-96277013D01*
X176287058Y-96335887D01*
X176159141Y-96421358D01*
X176050358Y-96530141D01*
X175964887Y-96658058D01*
X175906013Y-96800191D01*
X175876000Y-96951078D01*
X172815973Y-96951078D01*
X172798642Y-96925141D01*
X172689859Y-96816358D01*
X172561942Y-96730887D01*
X172419809Y-96672013D01*
X172268922Y-96642000D01*
X172115078Y-96642000D01*
X171964191Y-96672013D01*
X171822058Y-96730887D01*
X171694141Y-96816358D01*
X171585358Y-96925141D01*
X171502726Y-97048809D01*
X169499995Y-95046078D01*
X172011000Y-95046078D01*
X172011000Y-95199922D01*
X172041013Y-95350809D01*
X172099887Y-95492942D01*
X172185358Y-95620859D01*
X172294141Y-95729642D01*
X172422058Y-95815113D01*
X172564191Y-95873987D01*
X172715078Y-95904000D01*
X172868922Y-95904000D01*
X173019809Y-95873987D01*
X173161942Y-95815113D01*
X173289859Y-95729642D01*
X173327500Y-95692001D01*
X173365141Y-95729642D01*
X173493058Y-95815113D01*
X173635191Y-95873987D01*
X173786078Y-95904000D01*
X173939922Y-95904000D01*
X174090809Y-95873987D01*
X174232942Y-95815113D01*
X174360859Y-95729642D01*
X174469642Y-95620859D01*
X174555113Y-95492942D01*
X174613987Y-95350809D01*
X174624077Y-95300078D01*
X180702000Y-95300078D01*
X180702000Y-95453922D01*
X180732013Y-95604809D01*
X180790887Y-95746942D01*
X180876358Y-95874859D01*
X180985141Y-95983642D01*
X181113058Y-96069113D01*
X181255191Y-96127987D01*
X181406078Y-96158000D01*
X181559922Y-96158000D01*
X181710809Y-96127987D01*
X181852942Y-96069113D01*
X181980859Y-95983642D01*
X182089642Y-95874859D01*
X182175113Y-95746942D01*
X182233987Y-95604809D01*
X182264000Y-95453922D01*
X182264000Y-95300078D01*
X182233987Y-95149191D01*
X182175113Y-95007058D01*
X182089642Y-94879141D01*
X181980859Y-94770358D01*
X181852942Y-94684887D01*
X181710809Y-94626013D01*
X181559922Y-94596000D01*
X181406078Y-94596000D01*
X181255191Y-94626013D01*
X181113058Y-94684887D01*
X180985141Y-94770358D01*
X180876358Y-94879141D01*
X180790887Y-95007058D01*
X180732013Y-95149191D01*
X180702000Y-95300078D01*
X174624077Y-95300078D01*
X174644000Y-95199922D01*
X174644000Y-95046078D01*
X174613987Y-94895191D01*
X174555113Y-94753058D01*
X174469642Y-94625141D01*
X174360859Y-94516358D01*
X174232942Y-94430887D01*
X174090809Y-94372013D01*
X173939922Y-94342000D01*
X173786078Y-94342000D01*
X173635191Y-94372013D01*
X173493058Y-94430887D01*
X173365141Y-94516358D01*
X173327500Y-94553999D01*
X173289859Y-94516358D01*
X173161942Y-94430887D01*
X173019809Y-94372013D01*
X172868922Y-94342000D01*
X172715078Y-94342000D01*
X172564191Y-94372013D01*
X172422058Y-94430887D01*
X172294141Y-94516358D01*
X172185358Y-94625141D01*
X172099887Y-94753058D01*
X172041013Y-94895191D01*
X172011000Y-95046078D01*
X169499995Y-95046078D01*
X168904801Y-94450885D01*
X168904801Y-92252744D01*
X168907258Y-92227800D01*
X168904801Y-92202854D01*
X168897450Y-92128216D01*
X168896499Y-92125078D01*
X175876000Y-92125078D01*
X175876000Y-92278922D01*
X175906013Y-92429809D01*
X175964887Y-92571942D01*
X176050358Y-92699859D01*
X176159141Y-92808642D01*
X176287058Y-92894113D01*
X176429191Y-92952987D01*
X176580078Y-92983000D01*
X176733922Y-92983000D01*
X176884809Y-92952987D01*
X177026942Y-92894113D01*
X177154859Y-92808642D01*
X177263642Y-92699859D01*
X177349113Y-92571942D01*
X177407987Y-92429809D01*
X177438000Y-92278922D01*
X177438000Y-92125078D01*
X177407987Y-91974191D01*
X177349113Y-91832058D01*
X177263642Y-91704141D01*
X177154859Y-91595358D01*
X177026942Y-91509887D01*
X176884809Y-91451013D01*
X176733922Y-91421000D01*
X176580078Y-91421000D01*
X176429191Y-91451013D01*
X176287058Y-91509887D01*
X176159141Y-91595358D01*
X176050358Y-91704141D01*
X175964887Y-91832058D01*
X175906013Y-91974191D01*
X175876000Y-92125078D01*
X168896499Y-92125078D01*
X168868402Y-92032458D01*
X168845506Y-91989622D01*
X168821230Y-91944205D01*
X168773651Y-91886230D01*
X168757749Y-91866853D01*
X168738372Y-91850951D01*
X167245129Y-90357709D01*
X167247987Y-90350809D01*
X167278000Y-90199922D01*
X167278000Y-90046078D01*
X167247987Y-89895191D01*
X167189113Y-89753058D01*
X167103642Y-89625141D01*
X166994859Y-89516358D01*
X166866942Y-89430887D01*
X166724809Y-89372013D01*
X166703953Y-89367864D01*
X166737732Y-89317310D01*
X166781805Y-89210908D01*
X167901161Y-90330264D01*
X167921046Y-90354494D01*
X167945274Y-90374377D01*
X168017736Y-90433846D01*
X168056162Y-90454385D01*
X168128051Y-90492811D01*
X168247749Y-90529121D01*
X168341039Y-90538309D01*
X168341049Y-90538309D01*
X168372230Y-90541380D01*
X168403411Y-90538309D01*
X185296665Y-90538309D01*
X183850050Y-91984926D01*
X183825815Y-92004815D01*
X183746463Y-92101507D01*
X183687498Y-92211821D01*
X183651188Y-92331519D01*
X183642000Y-92424809D01*
X183642000Y-92424819D01*
X183638929Y-92456000D01*
X183642000Y-92487181D01*
X183642001Y-101047027D01*
X179089000Y-105600030D01*
X179089000Y-105460078D01*
X179058987Y-105309191D01*
X179000113Y-105167058D01*
X178914642Y-105039141D01*
X178805859Y-104930358D01*
X178677942Y-104844887D01*
X178535809Y-104786013D01*
X178384922Y-104756000D01*
X178231078Y-104756000D01*
X178080191Y-104786013D01*
X177938058Y-104844887D01*
X177810141Y-104930358D01*
X177701358Y-105039141D01*
X177615887Y-105167058D01*
X177557013Y-105309191D01*
X177527000Y-105460078D01*
X177527000Y-105613922D01*
X177557013Y-105764809D01*
X177615887Y-105906942D01*
X177701358Y-106034859D01*
X177791684Y-106125185D01*
X177749997Y-106166871D01*
X177664526Y-106294788D01*
X177605652Y-106436921D01*
X177575639Y-106587808D01*
X177575639Y-106741652D01*
X177605652Y-106892539D01*
X177649129Y-106997500D01*
X176691297Y-106997500D01*
X176656999Y-106994122D01*
X176622701Y-106997500D01*
X176622691Y-106997500D01*
X176520070Y-107007607D01*
X176388403Y-107047548D01*
X176388401Y-107047549D01*
X176267056Y-107112409D01*
X176188369Y-107176987D01*
X176160697Y-107199697D01*
X176138829Y-107226343D01*
X174741826Y-108623347D01*
X174676409Y-108703057D01*
X174611549Y-108824402D01*
X174571608Y-108956071D01*
X174558122Y-109093000D01*
X174571608Y-109229929D01*
X174611549Y-109361598D01*
X174625001Y-109386764D01*
X174625000Y-110038884D01*
X174621929Y-110070066D01*
X174625000Y-110101247D01*
X174625000Y-110101257D01*
X174634188Y-110194547D01*
X174670498Y-110314245D01*
X174729463Y-110424559D01*
X174808815Y-110521251D01*
X174833050Y-110541140D01*
X177156938Y-112865029D01*
X177176823Y-112889259D01*
X177273514Y-112968611D01*
X177383828Y-113027576D01*
X177503526Y-113063886D01*
X177543176Y-113067791D01*
X177517383Y-113197461D01*
X177517383Y-113351305D01*
X177547396Y-113502192D01*
X177606270Y-113644325D01*
X177691741Y-113772242D01*
X177800524Y-113881025D01*
X177928441Y-113966496D01*
X178070574Y-114025370D01*
X178221461Y-114055383D01*
X178375305Y-114055383D01*
X178526192Y-114025370D01*
X178662091Y-113969078D01*
X186036000Y-113969078D01*
X186036000Y-114122922D01*
X186066013Y-114273809D01*
X186124887Y-114415942D01*
X186210358Y-114543859D01*
X186319141Y-114652642D01*
X186447058Y-114738113D01*
X186589191Y-114796987D01*
X186740078Y-114827000D01*
X186893922Y-114827000D01*
X187044809Y-114796987D01*
X187186942Y-114738113D01*
X187314859Y-114652642D01*
X187423642Y-114543859D01*
X187509113Y-114415942D01*
X187567987Y-114273809D01*
X187598000Y-114122922D01*
X187598000Y-113969078D01*
X187567987Y-113818191D01*
X187509113Y-113676058D01*
X187423642Y-113548141D01*
X187314859Y-113439358D01*
X187186942Y-113353887D01*
X187044809Y-113295013D01*
X186893922Y-113265000D01*
X186740078Y-113265000D01*
X186589191Y-113295013D01*
X186447058Y-113353887D01*
X186319141Y-113439358D01*
X186210358Y-113548141D01*
X186124887Y-113676058D01*
X186066013Y-113818191D01*
X186036000Y-113969078D01*
X178662091Y-113969078D01*
X178668325Y-113966496D01*
X178796242Y-113881025D01*
X178905025Y-113772242D01*
X178990496Y-113644325D01*
X179049370Y-113502192D01*
X179079383Y-113351305D01*
X179079383Y-113197461D01*
X179054641Y-113073074D01*
X186107735Y-113073074D01*
X186138926Y-113076146D01*
X186263408Y-113063886D01*
X186383106Y-113027576D01*
X186493420Y-112968611D01*
X186590111Y-112889259D01*
X186602110Y-112874638D01*
X186669463Y-112792568D01*
X186728428Y-112682254D01*
X186759407Y-112580130D01*
X190373000Y-108966537D01*
X190373000Y-115530045D01*
X190352128Y-115555478D01*
X190307464Y-115639039D01*
X190279960Y-115729708D01*
X190270673Y-115824000D01*
X190273001Y-115847636D01*
X190273000Y-123063197D01*
X152719000Y-123095889D01*
X152719000Y-120217145D01*
X153358670Y-120217145D01*
X153410787Y-120403633D01*
X153506228Y-120595394D01*
X153637246Y-120764851D01*
X153798806Y-120905492D01*
X153984699Y-121011911D01*
X154187782Y-121080020D01*
X154400250Y-121107200D01*
X155162250Y-121107200D01*
X155162250Y-120046750D01*
X155225750Y-120046750D01*
X155225750Y-121107200D01*
X155987750Y-121107200D01*
X156200218Y-121080020D01*
X156403301Y-121011911D01*
X156589194Y-120905492D01*
X156750754Y-120764851D01*
X156881772Y-120595394D01*
X156977213Y-120403633D01*
X157029330Y-120217145D01*
X156965151Y-120046750D01*
X155225750Y-120046750D01*
X155162250Y-120046750D01*
X153422849Y-120046750D01*
X153358670Y-120217145D01*
X152719000Y-120217145D01*
X152719000Y-119812855D01*
X153358670Y-119812855D01*
X153422849Y-119983250D01*
X155162250Y-119983250D01*
X155162250Y-118922800D01*
X155225750Y-118922800D01*
X155225750Y-119983250D01*
X156965151Y-119983250D01*
X157029330Y-119812855D01*
X156977213Y-119626367D01*
X156881772Y-119434606D01*
X156750754Y-119265149D01*
X156589194Y-119124508D01*
X156403301Y-119018089D01*
X156200218Y-118949980D01*
X155987750Y-118922800D01*
X155225750Y-118922800D01*
X155162250Y-118922800D01*
X154400250Y-118922800D01*
X154187782Y-118949980D01*
X153984699Y-119018089D01*
X153798806Y-119124508D01*
X153637246Y-119265149D01*
X153506228Y-119434606D01*
X153410787Y-119626367D01*
X153358670Y-119812855D01*
X152719000Y-119812855D01*
X152719000Y-109778078D01*
X152725180Y-109778078D01*
X152725180Y-109931922D01*
X152755193Y-110082809D01*
X152814067Y-110224942D01*
X152899538Y-110352859D01*
X153008321Y-110461642D01*
X153136238Y-110547113D01*
X153278371Y-110605987D01*
X153429258Y-110636000D01*
X153583102Y-110636000D01*
X153733989Y-110605987D01*
X153876122Y-110547113D01*
X154004039Y-110461642D01*
X154112822Y-110352859D01*
X154198293Y-110224942D01*
X154257167Y-110082809D01*
X154287180Y-109931922D01*
X154287180Y-109778078D01*
X154257167Y-109627191D01*
X154198293Y-109485058D01*
X154112822Y-109357141D01*
X154004039Y-109248358D01*
X153876122Y-109162887D01*
X153733989Y-109104013D01*
X153583102Y-109074000D01*
X153429258Y-109074000D01*
X153278371Y-109104013D01*
X153136238Y-109162887D01*
X153008321Y-109248358D01*
X152899538Y-109357141D01*
X152814067Y-109485058D01*
X152755193Y-109627191D01*
X152725180Y-109778078D01*
X152719000Y-109778078D01*
X152719000Y-107746078D01*
X152725180Y-107746078D01*
X152725180Y-107899922D01*
X152755193Y-108050809D01*
X152814067Y-108192942D01*
X152899538Y-108320859D01*
X153008321Y-108429642D01*
X153136238Y-108515113D01*
X153278371Y-108573987D01*
X153429258Y-108604000D01*
X153583102Y-108604000D01*
X153733989Y-108573987D01*
X153836485Y-108531531D01*
X153849479Y-108574367D01*
X153943821Y-108750870D01*
X154070785Y-108905576D01*
X154109548Y-108937388D01*
X156540189Y-111368030D01*
X156540189Y-113097800D01*
X156521864Y-113053559D01*
X156436393Y-112925642D01*
X156327610Y-112816859D01*
X156199693Y-112731388D01*
X156057560Y-112672514D01*
X155913872Y-112643933D01*
X155947009Y-112621792D01*
X156055792Y-112513009D01*
X156141263Y-112385092D01*
X156200137Y-112242959D01*
X156230150Y-112092072D01*
X156230150Y-111938228D01*
X156200137Y-111787341D01*
X156141263Y-111645208D01*
X156055792Y-111517291D01*
X155947009Y-111408508D01*
X155819092Y-111323037D01*
X155676959Y-111264163D01*
X155526072Y-111234150D01*
X155372228Y-111234150D01*
X155221341Y-111264163D01*
X155079208Y-111323037D01*
X154951291Y-111408508D01*
X154842508Y-111517291D01*
X154757037Y-111645208D01*
X154698163Y-111787341D01*
X154668150Y-111938228D01*
X154668150Y-112092072D01*
X154698163Y-112242959D01*
X154757037Y-112385092D01*
X154842508Y-112513009D01*
X154951291Y-112621792D01*
X155079208Y-112707263D01*
X155221341Y-112766137D01*
X155365029Y-112794718D01*
X155331892Y-112816859D01*
X155223109Y-112925642D01*
X155137638Y-113053559D01*
X155082122Y-113187584D01*
X155055987Y-113056191D01*
X154997113Y-112914058D01*
X154911642Y-112786141D01*
X154802859Y-112677358D01*
X154674942Y-112591887D01*
X154532809Y-112533013D01*
X154381922Y-112503000D01*
X154228078Y-112503000D01*
X154077191Y-112533013D01*
X153935058Y-112591887D01*
X153807141Y-112677358D01*
X153698358Y-112786141D01*
X153612887Y-112914058D01*
X153554013Y-113056191D01*
X153524000Y-113207078D01*
X153524000Y-113360922D01*
X153554013Y-113511809D01*
X153612887Y-113653942D01*
X153698358Y-113781859D01*
X153807141Y-113890642D01*
X153875587Y-113936376D01*
X153793911Y-113980032D01*
X153619867Y-114122867D01*
X153477032Y-114296911D01*
X153370897Y-114495477D01*
X153305539Y-114710933D01*
X153283470Y-114935000D01*
X153305539Y-115159067D01*
X153370897Y-115374523D01*
X153477032Y-115573089D01*
X153619867Y-115747133D01*
X153793911Y-115889968D01*
X153992477Y-115996103D01*
X154207933Y-116061461D01*
X154375854Y-116078000D01*
X155916160Y-116078000D01*
X155662160Y-116332000D01*
X154375854Y-116332000D01*
X154207933Y-116348539D01*
X153992477Y-116413897D01*
X153793911Y-116520032D01*
X153619867Y-116662867D01*
X153477032Y-116836911D01*
X153370897Y-117035477D01*
X153305539Y-117250933D01*
X153283470Y-117475000D01*
X153305539Y-117699067D01*
X153370897Y-117914523D01*
X153477032Y-118113089D01*
X153619867Y-118287133D01*
X153793911Y-118429968D01*
X153992477Y-118536103D01*
X154207933Y-118601461D01*
X154375854Y-118618000D01*
X156012146Y-118618000D01*
X156180067Y-118601461D01*
X156395523Y-118536103D01*
X156594089Y-118429968D01*
X156768133Y-118287133D01*
X156910968Y-118113089D01*
X157017103Y-117914523D01*
X157044878Y-117822963D01*
X158239322Y-116628519D01*
X158278085Y-116596707D01*
X158405049Y-116442001D01*
X158499391Y-116265498D01*
X158546812Y-116109173D01*
X158546812Y-116203751D01*
X158544354Y-116228705D01*
X158551244Y-116298650D01*
X158554163Y-116328290D01*
X158570938Y-116383589D01*
X158583211Y-116424048D01*
X158630382Y-116512300D01*
X158667843Y-116557946D01*
X158693864Y-116589653D01*
X158713241Y-116605555D01*
X159995630Y-117887944D01*
X159904058Y-117925875D01*
X159776141Y-118011346D01*
X159667358Y-118120129D01*
X159581887Y-118248046D01*
X159523013Y-118390179D01*
X159493000Y-118541066D01*
X159493000Y-118694910D01*
X159523013Y-118845797D01*
X159581887Y-118987930D01*
X159667358Y-119115847D01*
X159776141Y-119224630D01*
X159904058Y-119310101D01*
X160046191Y-119368975D01*
X160197078Y-119398988D01*
X160350922Y-119398988D01*
X160501809Y-119368975D01*
X160643942Y-119310101D01*
X160771859Y-119224630D01*
X160830260Y-119166229D01*
X160830261Y-119622173D01*
X160680883Y-119721983D01*
X160537243Y-119865623D01*
X160424387Y-120034525D01*
X160346650Y-120222198D01*
X160337500Y-120268198D01*
X160328350Y-120222198D01*
X160250613Y-120034525D01*
X160137757Y-119865623D01*
X159994117Y-119721983D01*
X159825215Y-119609127D01*
X159637542Y-119531390D01*
X159438308Y-119491760D01*
X159235172Y-119491760D01*
X159035938Y-119531390D01*
X158848265Y-119609127D01*
X158679363Y-119721983D01*
X158535723Y-119865623D01*
X158422867Y-120034525D01*
X158345130Y-120222198D01*
X158305500Y-120421432D01*
X158305500Y-120624568D01*
X158345130Y-120823802D01*
X158422867Y-121011475D01*
X158535723Y-121180377D01*
X158679363Y-121324017D01*
X158848265Y-121436873D01*
X159035938Y-121514610D01*
X159235172Y-121554240D01*
X159438308Y-121554240D01*
X159637542Y-121514610D01*
X159825215Y-121436873D01*
X159994117Y-121324017D01*
X160137757Y-121180377D01*
X160250613Y-121011475D01*
X160328350Y-120823802D01*
X160337500Y-120777802D01*
X160346650Y-120823802D01*
X160424387Y-121011475D01*
X160537243Y-121180377D01*
X160680883Y-121324017D01*
X160849785Y-121436873D01*
X161037458Y-121514610D01*
X161236692Y-121554240D01*
X161439828Y-121554240D01*
X161639062Y-121514610D01*
X161826735Y-121436873D01*
X161995637Y-121324017D01*
X162139277Y-121180377D01*
X162252133Y-121011475D01*
X162329870Y-120823802D01*
X162337750Y-120784186D01*
X162345630Y-120823802D01*
X162423367Y-121011475D01*
X162536223Y-121180377D01*
X162679863Y-121324017D01*
X162848765Y-121436873D01*
X163036438Y-121514610D01*
X163235672Y-121554240D01*
X163438808Y-121554240D01*
X163638042Y-121514610D01*
X163825715Y-121436873D01*
X163994617Y-121324017D01*
X164135320Y-121183314D01*
X164723347Y-121183314D01*
X164785671Y-121338279D01*
X164955352Y-121430516D01*
X165139767Y-121487878D01*
X165331829Y-121508160D01*
X165524158Y-121490582D01*
X165709362Y-121435821D01*
X165880323Y-121345980D01*
X165891849Y-121338279D01*
X165954173Y-121183314D01*
X165338760Y-120567901D01*
X164723347Y-121183314D01*
X164135320Y-121183314D01*
X164138257Y-121180377D01*
X164251113Y-121011475D01*
X164328850Y-120823802D01*
X164365079Y-120641666D01*
X164371178Y-120708398D01*
X164425939Y-120893602D01*
X164515780Y-121064563D01*
X164523481Y-121076089D01*
X164678446Y-121138413D01*
X165293859Y-120523000D01*
X164678446Y-119907587D01*
X164523481Y-119969911D01*
X164431244Y-120139592D01*
X164373882Y-120324007D01*
X164365288Y-120405386D01*
X164328850Y-120222198D01*
X164251113Y-120034525D01*
X164138257Y-119865623D01*
X164033634Y-119761000D01*
X164764243Y-119761000D01*
X164723347Y-119862686D01*
X165338760Y-120478099D01*
X165352903Y-120463957D01*
X165397804Y-120508858D01*
X165383661Y-120523000D01*
X165999074Y-121138413D01*
X166154039Y-121076089D01*
X166246276Y-120906408D01*
X166303638Y-120721993D01*
X166311351Y-120648955D01*
X166346130Y-120823802D01*
X166423867Y-121011475D01*
X166536723Y-121180377D01*
X166680363Y-121324017D01*
X166849265Y-121436873D01*
X167036938Y-121514610D01*
X167236172Y-121554240D01*
X167439308Y-121554240D01*
X167638542Y-121514610D01*
X167826215Y-121436873D01*
X167995117Y-121324017D01*
X168138757Y-121180377D01*
X168251613Y-121011475D01*
X168329350Y-120823802D01*
X168338500Y-120777802D01*
X168347650Y-120823802D01*
X168425387Y-121011475D01*
X168538243Y-121180377D01*
X168681883Y-121324017D01*
X168850785Y-121436873D01*
X169038458Y-121514610D01*
X169237692Y-121554240D01*
X169440828Y-121554240D01*
X169640062Y-121514610D01*
X169827735Y-121436873D01*
X169996637Y-121324017D01*
X170140277Y-121180377D01*
X170253133Y-121011475D01*
X170330870Y-120823802D01*
X170370500Y-120624568D01*
X170370500Y-120421432D01*
X170330870Y-120222198D01*
X170253133Y-120034525D01*
X170145207Y-119873000D01*
X172540597Y-119873000D01*
X172540597Y-121173000D01*
X172547953Y-121247689D01*
X172569739Y-121319508D01*
X172605118Y-121385696D01*
X172652729Y-121443711D01*
X172710744Y-121491322D01*
X172776932Y-121526701D01*
X172848751Y-121548487D01*
X172923440Y-121555843D01*
X174223440Y-121555843D01*
X174298129Y-121548487D01*
X174369948Y-121526701D01*
X174436136Y-121491322D01*
X174494151Y-121443711D01*
X174541762Y-121385696D01*
X174577141Y-121319508D01*
X174598927Y-121247689D01*
X174606283Y-121173000D01*
X174606283Y-120878542D01*
X174661299Y-121011362D01*
X174774130Y-121180224D01*
X174917736Y-121323830D01*
X175086598Y-121436661D01*
X175274228Y-121514380D01*
X175473415Y-121554000D01*
X175676505Y-121554000D01*
X175875692Y-121514380D01*
X176063322Y-121436661D01*
X176232184Y-121323830D01*
X176372870Y-121183144D01*
X176961238Y-121183144D01*
X177023532Y-121338083D01*
X177193172Y-121430296D01*
X177377542Y-121487643D01*
X177569557Y-121507918D01*
X177761837Y-121490344D01*
X177946995Y-121435595D01*
X178117914Y-121345775D01*
X178129428Y-121338083D01*
X178191722Y-121183144D01*
X177576480Y-120567901D01*
X176961238Y-121183144D01*
X176372870Y-121183144D01*
X176375790Y-121180224D01*
X176488621Y-121011362D01*
X176566340Y-120823732D01*
X176602888Y-120639992D01*
X176609136Y-120708357D01*
X176663885Y-120893515D01*
X176753705Y-121064434D01*
X176761397Y-121075948D01*
X176916336Y-121138242D01*
X177531579Y-120523000D01*
X177621381Y-120523000D01*
X178236624Y-121138242D01*
X178391563Y-121075948D01*
X178483776Y-120906308D01*
X178541123Y-120721938D01*
X178548998Y-120647359D01*
X178584080Y-120823732D01*
X178661799Y-121011362D01*
X178774630Y-121180224D01*
X178918236Y-121323830D01*
X179087098Y-121436661D01*
X179274728Y-121514380D01*
X179473915Y-121554000D01*
X179677005Y-121554000D01*
X179876192Y-121514380D01*
X180063822Y-121436661D01*
X180232684Y-121323830D01*
X180376290Y-121180224D01*
X180489121Y-121011362D01*
X180566840Y-120823732D01*
X180576220Y-120776575D01*
X180585600Y-120823732D01*
X180663319Y-121011362D01*
X180776150Y-121180224D01*
X180919756Y-121323830D01*
X181088618Y-121436661D01*
X181276248Y-121514380D01*
X181475435Y-121554000D01*
X181678525Y-121554000D01*
X181877712Y-121514380D01*
X182065342Y-121436661D01*
X182234204Y-121323830D01*
X182377810Y-121180224D01*
X182490641Y-121011362D01*
X182568360Y-120823732D01*
X182577740Y-120776575D01*
X182587120Y-120823732D01*
X182664839Y-121011362D01*
X182777670Y-121180224D01*
X182921276Y-121323830D01*
X183090138Y-121436661D01*
X183277768Y-121514380D01*
X183476955Y-121554000D01*
X183680045Y-121554000D01*
X183879232Y-121514380D01*
X184066862Y-121436661D01*
X184235724Y-121323830D01*
X184379330Y-121180224D01*
X184492161Y-121011362D01*
X184569880Y-120823732D01*
X184577990Y-120782959D01*
X184586100Y-120823732D01*
X184663819Y-121011362D01*
X184776650Y-121180224D01*
X184920256Y-121323830D01*
X185089118Y-121436661D01*
X185276748Y-121514380D01*
X185475935Y-121554000D01*
X185679025Y-121554000D01*
X185878212Y-121514380D01*
X186065842Y-121436661D01*
X186234704Y-121323830D01*
X186378310Y-121180224D01*
X186491141Y-121011362D01*
X186568860Y-120823732D01*
X186608480Y-120624545D01*
X186608480Y-120421455D01*
X186568860Y-120222268D01*
X186491141Y-120034638D01*
X186378310Y-119865776D01*
X186234704Y-119722170D01*
X186065842Y-119609339D01*
X185878212Y-119531620D01*
X185679025Y-119492000D01*
X185475935Y-119492000D01*
X185276748Y-119531620D01*
X185089118Y-119609339D01*
X184920256Y-119722170D01*
X184776650Y-119865776D01*
X184663819Y-120034638D01*
X184586100Y-120222268D01*
X184577990Y-120263041D01*
X184569880Y-120222268D01*
X184492161Y-120034638D01*
X184379330Y-119865776D01*
X184235724Y-119722170D01*
X184066862Y-119609339D01*
X183879232Y-119531620D01*
X183680045Y-119492000D01*
X183476955Y-119492000D01*
X183277768Y-119531620D01*
X183090138Y-119609339D01*
X182921276Y-119722170D01*
X182777670Y-119865776D01*
X182664839Y-120034638D01*
X182587120Y-120222268D01*
X182577740Y-120269425D01*
X182568360Y-120222268D01*
X182490641Y-120034638D01*
X182377810Y-119865776D01*
X182234204Y-119722170D01*
X182065342Y-119609339D01*
X181877712Y-119531620D01*
X181678525Y-119492000D01*
X181475435Y-119492000D01*
X181276248Y-119531620D01*
X181088618Y-119609339D01*
X180919756Y-119722170D01*
X180776150Y-119865776D01*
X180663319Y-120034638D01*
X180585600Y-120222268D01*
X180576220Y-120269425D01*
X180566840Y-120222268D01*
X180489121Y-120034638D01*
X180376290Y-119865776D01*
X180232684Y-119722170D01*
X180063822Y-119609339D01*
X179876192Y-119531620D01*
X179677005Y-119492000D01*
X179473915Y-119492000D01*
X179274728Y-119531620D01*
X179087098Y-119609339D01*
X178918236Y-119722170D01*
X178774630Y-119865776D01*
X178661799Y-120034638D01*
X178584080Y-120222268D01*
X178549273Y-120397259D01*
X178543824Y-120337643D01*
X178489075Y-120152485D01*
X178399255Y-119981566D01*
X178391563Y-119970052D01*
X178236624Y-119907758D01*
X177621381Y-120523000D01*
X177531579Y-120523000D01*
X176916336Y-119907758D01*
X176761397Y-119970052D01*
X176669184Y-120139692D01*
X176611837Y-120324062D01*
X176603081Y-120406983D01*
X176566340Y-120222268D01*
X176488621Y-120034638D01*
X176375790Y-119865776D01*
X176372870Y-119862856D01*
X176961238Y-119862856D01*
X177576480Y-120478099D01*
X178191722Y-119862856D01*
X178129428Y-119707917D01*
X177959788Y-119615704D01*
X177775418Y-119558357D01*
X177583403Y-119538082D01*
X177391123Y-119555656D01*
X177205965Y-119610405D01*
X177035046Y-119700225D01*
X177023532Y-119707917D01*
X176961238Y-119862856D01*
X176372870Y-119862856D01*
X176232184Y-119722170D01*
X176063322Y-119609339D01*
X175875692Y-119531620D01*
X175676505Y-119492000D01*
X175473415Y-119492000D01*
X175274228Y-119531620D01*
X175086598Y-119609339D01*
X174917736Y-119722170D01*
X174774130Y-119865776D01*
X174661299Y-120034638D01*
X174606283Y-120167458D01*
X174606283Y-119873000D01*
X174598927Y-119798311D01*
X174577141Y-119726492D01*
X174541762Y-119660304D01*
X174494151Y-119602289D01*
X174436136Y-119554678D01*
X174369948Y-119519299D01*
X174298129Y-119497513D01*
X174223440Y-119490157D01*
X172923440Y-119490157D01*
X172848751Y-119497513D01*
X172776932Y-119519299D01*
X172710744Y-119554678D01*
X172652729Y-119602289D01*
X172605118Y-119660304D01*
X172569739Y-119726492D01*
X172547953Y-119798311D01*
X172540597Y-119873000D01*
X170145207Y-119873000D01*
X170140277Y-119865623D01*
X169996637Y-119721983D01*
X169827735Y-119609127D01*
X169640062Y-119531390D01*
X169440828Y-119491760D01*
X169237692Y-119491760D01*
X169038458Y-119531390D01*
X168850785Y-119609127D01*
X168681883Y-119721983D01*
X168538243Y-119865623D01*
X168425387Y-120034525D01*
X168347650Y-120222198D01*
X168338500Y-120268198D01*
X168329350Y-120222198D01*
X168251613Y-120034525D01*
X168138757Y-119865623D01*
X167995117Y-119721983D01*
X167826215Y-119609127D01*
X167638542Y-119531390D01*
X167439308Y-119491760D01*
X167236172Y-119491760D01*
X167059969Y-119526809D01*
X166444595Y-118911435D01*
X166428688Y-118892052D01*
X166351335Y-118828571D01*
X166263083Y-118781399D01*
X166167325Y-118752351D01*
X166092687Y-118745000D01*
X166092684Y-118745000D01*
X166067740Y-118742543D01*
X166042796Y-118745000D01*
X163532420Y-118745000D01*
X162135420Y-117348000D01*
X177287699Y-117348000D01*
X177304864Y-117522274D01*
X177355697Y-117689851D01*
X177438247Y-117844291D01*
X177549341Y-117979659D01*
X177684709Y-118090753D01*
X177839149Y-118173303D01*
X178006726Y-118224136D01*
X178137333Y-118237000D01*
X180214833Y-118237000D01*
X180258493Y-118241300D01*
X180302153Y-118237000D01*
X181018667Y-118237000D01*
X181149274Y-118224136D01*
X181316851Y-118173303D01*
X181471291Y-118090753D01*
X181606659Y-117979659D01*
X181717753Y-117844291D01*
X181800303Y-117689851D01*
X181851136Y-117522274D01*
X181868301Y-117348000D01*
X181851136Y-117173726D01*
X181800303Y-117006149D01*
X181717753Y-116851709D01*
X181606659Y-116716341D01*
X181565240Y-116682349D01*
X181531248Y-116640930D01*
X181395880Y-116529836D01*
X181241440Y-116447286D01*
X181073863Y-116396453D01*
X180943256Y-116383589D01*
X180377563Y-116383589D01*
X180333903Y-116379289D01*
X180290243Y-116383589D01*
X180290237Y-116383589D01*
X180177977Y-116394646D01*
X180159629Y-116396453D01*
X180112360Y-116410792D01*
X179992053Y-116447286D01*
X179970138Y-116459000D01*
X178137333Y-116459000D01*
X178006726Y-116471864D01*
X177839149Y-116522697D01*
X177684709Y-116605247D01*
X177549341Y-116716341D01*
X177438247Y-116851709D01*
X177355697Y-117006149D01*
X177304864Y-117173726D01*
X177287699Y-117348000D01*
X162135420Y-117348000D01*
X161240119Y-116452699D01*
X161263809Y-116447987D01*
X161405942Y-116389113D01*
X161471810Y-116345102D01*
X161512020Y-116442176D01*
X161597491Y-116570093D01*
X161706274Y-116678876D01*
X161834191Y-116764347D01*
X161976324Y-116823221D01*
X162127211Y-116853234D01*
X162281055Y-116853234D01*
X162431942Y-116823221D01*
X162574075Y-116764347D01*
X162701992Y-116678876D01*
X162810775Y-116570093D01*
X162896246Y-116442176D01*
X162955120Y-116300043D01*
X162985133Y-116149156D01*
X162985133Y-115995312D01*
X162955120Y-115844425D01*
X162896246Y-115702292D01*
X162810775Y-115574375D01*
X162701992Y-115465592D01*
X162574075Y-115380121D01*
X162431942Y-115321247D01*
X162281055Y-115291234D01*
X162127211Y-115291234D01*
X161976324Y-115321247D01*
X161834191Y-115380121D01*
X161768323Y-115424132D01*
X161728113Y-115327058D01*
X161642642Y-115199141D01*
X161533859Y-115090358D01*
X161405942Y-115004887D01*
X161263809Y-114946013D01*
X161112922Y-114916000D01*
X160959078Y-114916000D01*
X160808191Y-114946013D01*
X160666058Y-115004887D01*
X160538141Y-115090358D01*
X160429358Y-115199141D01*
X160426433Y-115203519D01*
X160426433Y-114484987D01*
X160478472Y-114432948D01*
X162480565Y-114432948D01*
X162480565Y-114586792D01*
X162510578Y-114737679D01*
X162569452Y-114879812D01*
X162654923Y-115007729D01*
X162763706Y-115116512D01*
X162891623Y-115201983D01*
X163033756Y-115260857D01*
X163184643Y-115290870D01*
X163325883Y-115290870D01*
X163325883Y-115435039D01*
X163355896Y-115585926D01*
X163414770Y-115728059D01*
X163500241Y-115855976D01*
X163609024Y-115964759D01*
X163736941Y-116050230D01*
X163879074Y-116109104D01*
X164029961Y-116139117D01*
X164183805Y-116139117D01*
X164334692Y-116109104D01*
X164476825Y-116050230D01*
X164550386Y-116001078D01*
X186036000Y-116001078D01*
X186036000Y-116154922D01*
X186066013Y-116305809D01*
X186124887Y-116447942D01*
X186210358Y-116575859D01*
X186319141Y-116684642D01*
X186447058Y-116770113D01*
X186589191Y-116828987D01*
X186644558Y-116840000D01*
X186589191Y-116851013D01*
X186447058Y-116909887D01*
X186319141Y-116995358D01*
X186210358Y-117104141D01*
X186124887Y-117232058D01*
X186066013Y-117374191D01*
X186036000Y-117525078D01*
X186036000Y-117678922D01*
X186066013Y-117829809D01*
X186124887Y-117971942D01*
X186210358Y-118099859D01*
X186319141Y-118208642D01*
X186447058Y-118294113D01*
X186589191Y-118352987D01*
X186740078Y-118383000D01*
X186893922Y-118383000D01*
X187044809Y-118352987D01*
X187186942Y-118294113D01*
X187314859Y-118208642D01*
X187423642Y-118099859D01*
X187509113Y-117971942D01*
X187567987Y-117829809D01*
X187598000Y-117678922D01*
X187598000Y-117525078D01*
X187567987Y-117374191D01*
X187509113Y-117232058D01*
X187423642Y-117104141D01*
X187314859Y-116995358D01*
X187186942Y-116909887D01*
X187044809Y-116851013D01*
X186989442Y-116840000D01*
X187044809Y-116828987D01*
X187186942Y-116770113D01*
X187314859Y-116684642D01*
X187423642Y-116575859D01*
X187509113Y-116447942D01*
X187567987Y-116305809D01*
X187598000Y-116154922D01*
X187598000Y-116001078D01*
X187567987Y-115850191D01*
X187509113Y-115708058D01*
X187423642Y-115580141D01*
X187314859Y-115471358D01*
X187186942Y-115385887D01*
X187044809Y-115327013D01*
X186893922Y-115297000D01*
X186740078Y-115297000D01*
X186589191Y-115327013D01*
X186447058Y-115385887D01*
X186319141Y-115471358D01*
X186210358Y-115580141D01*
X186124887Y-115708058D01*
X186066013Y-115850191D01*
X186036000Y-116001078D01*
X164550386Y-116001078D01*
X164604742Y-115964759D01*
X164713525Y-115855976D01*
X164798996Y-115728059D01*
X164857870Y-115585926D01*
X164887883Y-115435039D01*
X164887883Y-115281195D01*
X164857870Y-115130308D01*
X164798996Y-114988175D01*
X164713525Y-114860258D01*
X164604742Y-114751475D01*
X164476825Y-114666004D01*
X164334692Y-114607130D01*
X164183805Y-114577117D01*
X164042565Y-114577117D01*
X164042565Y-114432948D01*
X164012552Y-114282061D01*
X163953678Y-114139928D01*
X163868207Y-114012011D01*
X163759424Y-113903228D01*
X163631507Y-113817757D01*
X163489374Y-113758883D01*
X163338487Y-113728870D01*
X163184643Y-113728870D01*
X163033756Y-113758883D01*
X162891623Y-113817757D01*
X162763706Y-113903228D01*
X162654923Y-114012011D01*
X162569452Y-114139928D01*
X162510578Y-114282061D01*
X162480565Y-114432948D01*
X160478472Y-114432948D01*
X161704342Y-113207078D01*
X172574000Y-113207078D01*
X172574000Y-113360922D01*
X172604013Y-113511809D01*
X172662887Y-113653942D01*
X172748358Y-113781859D01*
X172857141Y-113890642D01*
X172985058Y-113976113D01*
X173127191Y-114034987D01*
X173278078Y-114065000D01*
X173431922Y-114065000D01*
X173582809Y-114034987D01*
X173724942Y-113976113D01*
X173852859Y-113890642D01*
X173961642Y-113781859D01*
X174047113Y-113653942D01*
X174105987Y-113511809D01*
X174136000Y-113360922D01*
X174136000Y-113207078D01*
X174105987Y-113056191D01*
X174047113Y-112914058D01*
X173961642Y-112786141D01*
X173852859Y-112677358D01*
X173724942Y-112591887D01*
X173582809Y-112533013D01*
X173431922Y-112503000D01*
X173278078Y-112503000D01*
X173127191Y-112533013D01*
X172985058Y-112591887D01*
X172857141Y-112677358D01*
X172748358Y-112786141D01*
X172662887Y-112914058D01*
X172604013Y-113056191D01*
X172574000Y-113207078D01*
X161704342Y-113207078D01*
X163028571Y-111882850D01*
X163047948Y-111866948D01*
X163093770Y-111811113D01*
X163111429Y-111789596D01*
X163142880Y-111730754D01*
X163158601Y-111701343D01*
X163187649Y-111605585D01*
X163195000Y-111530947D01*
X163195000Y-111530944D01*
X163197457Y-111506000D01*
X163195000Y-111481056D01*
X163195000Y-110451501D01*
X163205141Y-110461642D01*
X163333058Y-110547113D01*
X163357916Y-110557410D01*
X163324255Y-110638675D01*
X163294242Y-110789562D01*
X163294242Y-110943406D01*
X163324255Y-111094293D01*
X163383129Y-111236426D01*
X163468600Y-111364343D01*
X163577383Y-111473126D01*
X163705300Y-111558597D01*
X163847433Y-111617471D01*
X163998320Y-111647484D01*
X164152164Y-111647484D01*
X164230937Y-111631815D01*
X164252526Y-111683936D01*
X164337997Y-111811853D01*
X164446780Y-111920636D01*
X164455286Y-111926319D01*
X164408120Y-112040187D01*
X164378107Y-112191074D01*
X164378107Y-112344918D01*
X164408120Y-112495805D01*
X164466994Y-112637938D01*
X164552465Y-112765855D01*
X164661248Y-112874638D01*
X164789165Y-112960109D01*
X164931298Y-113018983D01*
X165082185Y-113048996D01*
X165236029Y-113048996D01*
X165386916Y-113018983D01*
X165529049Y-112960109D01*
X165656966Y-112874638D01*
X165765749Y-112765855D01*
X165851220Y-112637938D01*
X165910094Y-112495805D01*
X165940107Y-112344918D01*
X165940107Y-112191074D01*
X165914952Y-112064612D01*
X165963547Y-112097082D01*
X166105680Y-112155956D01*
X166256567Y-112185969D01*
X166410411Y-112185969D01*
X166561298Y-112155956D01*
X166703431Y-112097082D01*
X166831348Y-112011611D01*
X166940131Y-111902828D01*
X167025602Y-111774911D01*
X167063640Y-111683078D01*
X169272000Y-111683078D01*
X169272000Y-111836922D01*
X169302013Y-111987809D01*
X169360887Y-112129942D01*
X169446358Y-112257859D01*
X169555141Y-112366642D01*
X169683058Y-112452113D01*
X169825191Y-112510987D01*
X169976078Y-112541000D01*
X170129922Y-112541000D01*
X170280809Y-112510987D01*
X170422942Y-112452113D01*
X170550859Y-112366642D01*
X170659642Y-112257859D01*
X170745113Y-112129942D01*
X170803987Y-111987809D01*
X170834000Y-111836922D01*
X170834000Y-111683078D01*
X170803987Y-111532191D01*
X170745113Y-111390058D01*
X170659642Y-111262141D01*
X170550859Y-111153358D01*
X170422942Y-111067887D01*
X170280809Y-111009013D01*
X170129922Y-110979000D01*
X169976078Y-110979000D01*
X169825191Y-111009013D01*
X169683058Y-111067887D01*
X169555141Y-111153358D01*
X169446358Y-111262141D01*
X169360887Y-111390058D01*
X169302013Y-111532191D01*
X169272000Y-111683078D01*
X167063640Y-111683078D01*
X167084476Y-111632778D01*
X167114489Y-111481891D01*
X167114489Y-111328047D01*
X167084476Y-111177160D01*
X167025602Y-111035027D01*
X166940131Y-110907110D01*
X166831348Y-110798327D01*
X166703431Y-110712856D01*
X166561298Y-110653982D01*
X166410411Y-110623969D01*
X166256567Y-110623969D01*
X166105680Y-110653982D01*
X165963547Y-110712856D01*
X165835630Y-110798327D01*
X165726847Y-110907110D01*
X165661784Y-111004484D01*
X165636752Y-110944052D01*
X165551281Y-110816135D01*
X165442498Y-110707352D01*
X165314581Y-110621881D01*
X165172448Y-110563007D01*
X165021561Y-110532994D01*
X164867717Y-110532994D01*
X164788944Y-110548663D01*
X164767355Y-110496542D01*
X164681884Y-110368625D01*
X164573101Y-110259842D01*
X164445184Y-110174371D01*
X164420326Y-110164074D01*
X164453987Y-110082809D01*
X164484000Y-109931922D01*
X164484000Y-109778078D01*
X164453987Y-109627191D01*
X164411276Y-109524078D01*
X169399000Y-109524078D01*
X169399000Y-109677922D01*
X169429013Y-109828809D01*
X169487887Y-109970942D01*
X169573358Y-110098859D01*
X169682141Y-110207642D01*
X169810058Y-110293113D01*
X169952191Y-110351987D01*
X170103078Y-110382000D01*
X170256922Y-110382000D01*
X170407809Y-110351987D01*
X170549942Y-110293113D01*
X170677859Y-110207642D01*
X170786642Y-110098859D01*
X170872113Y-109970942D01*
X170930987Y-109828809D01*
X170961000Y-109677922D01*
X170961000Y-109524078D01*
X170930987Y-109373191D01*
X170872113Y-109231058D01*
X170786642Y-109103141D01*
X170677859Y-108994358D01*
X170549942Y-108908887D01*
X170407809Y-108850013D01*
X170256922Y-108820000D01*
X170103078Y-108820000D01*
X169952191Y-108850013D01*
X169810058Y-108908887D01*
X169682141Y-108994358D01*
X169573358Y-109103141D01*
X169487887Y-109231058D01*
X169429013Y-109373191D01*
X169399000Y-109524078D01*
X164411276Y-109524078D01*
X164395113Y-109485058D01*
X164309642Y-109357141D01*
X164200859Y-109248358D01*
X164073540Y-109163287D01*
X164127893Y-109081942D01*
X164186767Y-108939809D01*
X164216780Y-108788922D01*
X164216780Y-108635078D01*
X172447000Y-108635078D01*
X172447000Y-108788922D01*
X172477013Y-108939809D01*
X172535887Y-109081942D01*
X172621358Y-109209859D01*
X172730141Y-109318642D01*
X172858058Y-109404113D01*
X172873473Y-109410498D01*
X172858058Y-109416883D01*
X172730141Y-109502354D01*
X172621358Y-109611137D01*
X172535887Y-109739054D01*
X172477013Y-109881187D01*
X172447000Y-110032074D01*
X172447000Y-110185918D01*
X172477013Y-110336805D01*
X172535887Y-110478938D01*
X172621358Y-110606855D01*
X172631501Y-110616998D01*
X172621358Y-110627141D01*
X172535887Y-110755058D01*
X172477013Y-110897191D01*
X172447000Y-111048078D01*
X172447000Y-111201922D01*
X172477013Y-111352809D01*
X172535887Y-111494942D01*
X172621358Y-111622859D01*
X172730141Y-111731642D01*
X172858058Y-111817113D01*
X173000191Y-111875987D01*
X173151078Y-111906000D01*
X173304922Y-111906000D01*
X173455809Y-111875987D01*
X173597942Y-111817113D01*
X173725859Y-111731642D01*
X173834642Y-111622859D01*
X173920113Y-111494942D01*
X173978987Y-111352809D01*
X174009000Y-111201922D01*
X174009000Y-111048078D01*
X173978987Y-110897191D01*
X173920113Y-110755058D01*
X173834642Y-110627141D01*
X173824499Y-110616998D01*
X173834642Y-110606855D01*
X173920113Y-110478938D01*
X173978987Y-110336805D01*
X174009000Y-110185918D01*
X174009000Y-110032074D01*
X173978987Y-109881187D01*
X173920113Y-109739054D01*
X173834642Y-109611137D01*
X173725859Y-109502354D01*
X173597942Y-109416883D01*
X173582527Y-109410498D01*
X173597942Y-109404113D01*
X173725859Y-109318642D01*
X173834642Y-109209859D01*
X173920113Y-109081942D01*
X173978987Y-108939809D01*
X174009000Y-108788922D01*
X174009000Y-108635078D01*
X173978987Y-108484191D01*
X173920113Y-108342058D01*
X173834642Y-108214141D01*
X173725859Y-108105358D01*
X173597942Y-108019887D01*
X173455809Y-107961013D01*
X173304922Y-107931000D01*
X173151078Y-107931000D01*
X173000191Y-107961013D01*
X172858058Y-108019887D01*
X172730141Y-108105358D01*
X172621358Y-108214141D01*
X172535887Y-108342058D01*
X172477013Y-108484191D01*
X172447000Y-108635078D01*
X164216780Y-108635078D01*
X164186767Y-108484191D01*
X164127893Y-108342058D01*
X164042422Y-108214141D01*
X163933639Y-108105358D01*
X163805722Y-108019887D01*
X163736487Y-107991209D01*
X163764405Y-107923809D01*
X163794418Y-107772922D01*
X163794418Y-107619078D01*
X163764405Y-107468191D01*
X163705531Y-107326058D01*
X163620060Y-107198141D01*
X163511277Y-107089358D01*
X163383360Y-107003887D01*
X163241227Y-106945013D01*
X163090340Y-106915000D01*
X162936496Y-106915000D01*
X162785609Y-106945013D01*
X162643476Y-107003887D01*
X162515559Y-107089358D01*
X162406776Y-107198141D01*
X162321305Y-107326058D01*
X162306000Y-107363007D01*
X162306000Y-106636420D01*
X163151421Y-105791000D01*
X163501582Y-105791000D01*
X163459141Y-105819358D01*
X163350358Y-105928141D01*
X163264887Y-106056058D01*
X163206013Y-106198191D01*
X163176000Y-106349078D01*
X163176000Y-106502922D01*
X163206013Y-106653809D01*
X163264887Y-106795942D01*
X163350358Y-106923859D01*
X163459141Y-107032642D01*
X163587058Y-107118113D01*
X163729191Y-107176987D01*
X163880078Y-107207000D01*
X164033922Y-107207000D01*
X164184809Y-107176987D01*
X164266832Y-107143011D01*
X164280887Y-107176942D01*
X164366358Y-107304859D01*
X164475141Y-107413642D01*
X164603058Y-107499113D01*
X164745191Y-107557987D01*
X164896078Y-107588000D01*
X165049922Y-107588000D01*
X165200809Y-107557987D01*
X165342942Y-107499113D01*
X165470859Y-107413642D01*
X165579642Y-107304859D01*
X165665113Y-107176942D01*
X165723987Y-107034809D01*
X165754000Y-106883922D01*
X165754000Y-106730078D01*
X165723987Y-106579191D01*
X165665113Y-106437058D01*
X165579642Y-106309141D01*
X165548810Y-106278309D01*
X167476747Y-106278309D01*
X167476747Y-106432153D01*
X167506760Y-106583040D01*
X167565634Y-106725173D01*
X167651105Y-106853090D01*
X167759888Y-106961873D01*
X167887805Y-107047344D01*
X168029938Y-107106218D01*
X168180825Y-107136231D01*
X168256917Y-107136231D01*
X168286013Y-107282507D01*
X168344887Y-107424640D01*
X168430358Y-107552557D01*
X168539141Y-107661340D01*
X168667058Y-107746811D01*
X168809191Y-107805685D01*
X168960078Y-107835698D01*
X169113922Y-107835698D01*
X169264809Y-107805685D01*
X169406942Y-107746811D01*
X169534859Y-107661340D01*
X169643642Y-107552557D01*
X169729113Y-107424640D01*
X169787987Y-107282507D01*
X169818000Y-107131620D01*
X169818000Y-106977776D01*
X169787987Y-106826889D01*
X169729113Y-106684756D01*
X169706621Y-106651093D01*
X172435717Y-106651093D01*
X172435717Y-106804937D01*
X172465730Y-106955824D01*
X172524604Y-107097957D01*
X172610075Y-107225874D01*
X172718858Y-107334657D01*
X172846775Y-107420128D01*
X172988908Y-107479002D01*
X173139795Y-107509015D01*
X173293639Y-107509015D01*
X173444526Y-107479002D01*
X173586659Y-107420128D01*
X173714576Y-107334657D01*
X173823359Y-107225874D01*
X173908830Y-107097957D01*
X173967704Y-106955824D01*
X173997717Y-106804937D01*
X173997717Y-106651093D01*
X173967704Y-106500206D01*
X173908830Y-106358073D01*
X173823359Y-106230156D01*
X173714576Y-106121373D01*
X173586659Y-106035902D01*
X173444526Y-105977028D01*
X173293639Y-105947015D01*
X173139795Y-105947015D01*
X172988908Y-105977028D01*
X172846775Y-106035902D01*
X172718858Y-106121373D01*
X172610075Y-106230156D01*
X172524604Y-106358073D01*
X172465730Y-106500206D01*
X172435717Y-106651093D01*
X169706621Y-106651093D01*
X169643642Y-106556839D01*
X169534859Y-106448056D01*
X169406942Y-106362585D01*
X169264809Y-106303711D01*
X169113922Y-106273698D01*
X169037830Y-106273698D01*
X169008734Y-106127422D01*
X168949860Y-105985289D01*
X168864389Y-105857372D01*
X168755606Y-105748589D01*
X168627689Y-105663118D01*
X168485556Y-105604244D01*
X168334669Y-105574231D01*
X168180825Y-105574231D01*
X168029938Y-105604244D01*
X167887805Y-105663118D01*
X167759888Y-105748589D01*
X167651105Y-105857372D01*
X167565634Y-105985289D01*
X167506760Y-106127422D01*
X167476747Y-106278309D01*
X165548810Y-106278309D01*
X165470859Y-106200358D01*
X165342942Y-106114887D01*
X165200809Y-106056013D01*
X165049922Y-106026000D01*
X164896078Y-106026000D01*
X164745191Y-106056013D01*
X164663168Y-106089989D01*
X164649113Y-106056058D01*
X164563642Y-105928141D01*
X164454859Y-105819358D01*
X164326942Y-105733887D01*
X164184809Y-105675013D01*
X164057058Y-105649602D01*
X164063948Y-105643948D01*
X164079855Y-105624565D01*
X164254530Y-105449890D01*
X164335358Y-105570859D01*
X164444141Y-105679642D01*
X164572058Y-105765113D01*
X164714191Y-105823987D01*
X164865078Y-105854000D01*
X165018922Y-105854000D01*
X165169809Y-105823987D01*
X165311942Y-105765113D01*
X165439859Y-105679642D01*
X165548642Y-105570859D01*
X165634113Y-105442942D01*
X165692987Y-105300809D01*
X165723000Y-105149922D01*
X165723000Y-104996078D01*
X165692987Y-104845191D01*
X165634113Y-104703058D01*
X165630786Y-104698078D01*
X168510000Y-104698078D01*
X168510000Y-104851922D01*
X168540013Y-105002809D01*
X168598887Y-105144942D01*
X168684358Y-105272859D01*
X168793141Y-105381642D01*
X168921058Y-105467113D01*
X169063191Y-105525987D01*
X169214078Y-105556000D01*
X169367922Y-105556000D01*
X169518809Y-105525987D01*
X169660942Y-105467113D01*
X169788859Y-105381642D01*
X169897642Y-105272859D01*
X169983113Y-105144942D01*
X170041987Y-105002809D01*
X170072000Y-104851922D01*
X170072000Y-104698078D01*
X170041987Y-104547191D01*
X169983113Y-104405058D01*
X169897642Y-104277141D01*
X169788859Y-104168358D01*
X169660942Y-104082887D01*
X169518809Y-104024013D01*
X169367922Y-103994000D01*
X169214078Y-103994000D01*
X169063191Y-104024013D01*
X168921058Y-104082887D01*
X168793141Y-104168358D01*
X168684358Y-104277141D01*
X168598887Y-104405058D01*
X168540013Y-104547191D01*
X168510000Y-104698078D01*
X165630786Y-104698078D01*
X165548642Y-104575141D01*
X165439859Y-104466358D01*
X165311942Y-104380887D01*
X165189250Y-104330066D01*
X165219809Y-104323987D01*
X165361942Y-104265113D01*
X165489859Y-104179642D01*
X165598642Y-104070859D01*
X165684113Y-103942942D01*
X165742987Y-103800809D01*
X165773000Y-103649922D01*
X165773000Y-103496078D01*
X165742987Y-103345191D01*
X165684113Y-103203058D01*
X165598642Y-103075141D01*
X165489859Y-102966358D01*
X165361942Y-102880887D01*
X165287912Y-102850223D01*
X165419809Y-102823987D01*
X165561942Y-102765113D01*
X165689859Y-102679642D01*
X165798642Y-102570859D01*
X165884113Y-102442942D01*
X165942987Y-102300809D01*
X165944381Y-102293801D01*
X166227145Y-102576565D01*
X166243052Y-102595948D01*
X166320405Y-102659429D01*
X166408657Y-102706601D01*
X166504415Y-102735649D01*
X166579053Y-102743000D01*
X166579056Y-102743000D01*
X166604000Y-102745457D01*
X166628944Y-102743000D01*
X172761000Y-102743000D01*
X172761000Y-102749922D01*
X172791013Y-102900809D01*
X172849887Y-103042942D01*
X172935358Y-103170859D01*
X173044141Y-103279642D01*
X173172058Y-103365113D01*
X173314191Y-103423987D01*
X173465078Y-103454000D01*
X173618922Y-103454000D01*
X173769809Y-103423987D01*
X173911942Y-103365113D01*
X174039859Y-103279642D01*
X174148642Y-103170859D01*
X174234113Y-103042942D01*
X174292987Y-102900809D01*
X174314415Y-102793078D01*
X176765000Y-102793078D01*
X176765000Y-102946922D01*
X176795013Y-103097809D01*
X176853887Y-103239942D01*
X176939358Y-103367859D01*
X177048141Y-103476642D01*
X177176058Y-103562113D01*
X177318191Y-103620987D01*
X177469078Y-103651000D01*
X177622922Y-103651000D01*
X177773809Y-103620987D01*
X177915942Y-103562113D01*
X178043859Y-103476642D01*
X178152642Y-103367859D01*
X178238113Y-103239942D01*
X178296987Y-103097809D01*
X178327000Y-102946922D01*
X178327000Y-102793078D01*
X178296987Y-102642191D01*
X178238113Y-102500058D01*
X178152642Y-102372141D01*
X178043859Y-102263358D01*
X177915942Y-102177887D01*
X177773809Y-102119013D01*
X177622922Y-102089000D01*
X177469078Y-102089000D01*
X177318191Y-102119013D01*
X177176058Y-102177887D01*
X177048141Y-102263358D01*
X176939358Y-102372141D01*
X176853887Y-102500058D01*
X176795013Y-102642191D01*
X176765000Y-102793078D01*
X174314415Y-102793078D01*
X174323000Y-102749922D01*
X174323000Y-102596078D01*
X174292987Y-102445191D01*
X174234113Y-102303058D01*
X174148642Y-102175141D01*
X174039859Y-102066358D01*
X173911942Y-101980887D01*
X173769809Y-101922013D01*
X173618922Y-101892000D01*
X173479677Y-101892000D01*
X173464948Y-101874052D01*
X173387595Y-101810571D01*
X173299343Y-101763399D01*
X173203585Y-101734351D01*
X173128947Y-101727000D01*
X173128944Y-101727000D01*
X173104000Y-101724543D01*
X173079056Y-101727000D01*
X166814420Y-101727000D01*
X166068855Y-100981435D01*
X166052948Y-100962052D01*
X165975595Y-100898571D01*
X165887343Y-100851399D01*
X165791585Y-100822351D01*
X165716947Y-100815000D01*
X165716944Y-100815000D01*
X165692000Y-100812543D01*
X165667056Y-100815000D01*
X163623943Y-100815000D01*
X163598999Y-100812543D01*
X163574055Y-100815000D01*
X163574053Y-100815000D01*
X163499415Y-100822351D01*
X163403657Y-100851399D01*
X163403655Y-100851400D01*
X163315404Y-100898571D01*
X163292192Y-100917621D01*
X163238052Y-100962052D01*
X163222150Y-100981429D01*
X162241580Y-101962000D01*
X162102078Y-101962000D01*
X161951191Y-101992013D01*
X161809058Y-102050887D01*
X161681141Y-102136358D01*
X161572358Y-102245141D01*
X161486887Y-102373058D01*
X161428013Y-102515191D01*
X161398000Y-102666078D01*
X161398000Y-102819922D01*
X161428013Y-102970809D01*
X161486887Y-103112942D01*
X161572358Y-103240859D01*
X161681141Y-103349642D01*
X161809058Y-103435113D01*
X161951191Y-103493987D01*
X162102078Y-103524000D01*
X162255922Y-103524000D01*
X162406809Y-103493987D01*
X162548942Y-103435113D01*
X162676859Y-103349642D01*
X162785642Y-103240859D01*
X162871113Y-103112942D01*
X162929987Y-102970809D01*
X162960000Y-102819922D01*
X162960000Y-102680420D01*
X163809421Y-101831000D01*
X164446891Y-101831000D01*
X164441013Y-101845191D01*
X164411000Y-101996078D01*
X164411000Y-102149922D01*
X164441013Y-102300809D01*
X164499887Y-102442942D01*
X164585358Y-102570859D01*
X164694141Y-102679642D01*
X164822058Y-102765113D01*
X164896088Y-102795777D01*
X164764191Y-102822013D01*
X164689992Y-102852748D01*
X164649113Y-102754058D01*
X164563642Y-102626141D01*
X164454859Y-102517358D01*
X164326942Y-102431887D01*
X164184809Y-102373013D01*
X164033922Y-102343000D01*
X163880078Y-102343000D01*
X163729191Y-102373013D01*
X163587058Y-102431887D01*
X163459141Y-102517358D01*
X163350358Y-102626141D01*
X163264887Y-102754058D01*
X163206013Y-102896191D01*
X163176000Y-103047078D01*
X163176000Y-103200922D01*
X163206013Y-103351809D01*
X163264887Y-103493942D01*
X163347681Y-103617853D01*
X163221191Y-103643013D01*
X163079058Y-103701887D01*
X162951141Y-103787358D01*
X162851858Y-103886641D01*
X162783730Y-103893351D01*
X162687972Y-103922399D01*
X162687970Y-103922400D01*
X162599719Y-103969571D01*
X162560220Y-104001987D01*
X162522367Y-104033052D01*
X162506465Y-104052429D01*
X161024624Y-105534271D01*
X161005241Y-105550178D01*
X160941760Y-105627531D01*
X160894588Y-105715784D01*
X160865540Y-105811542D01*
X160858430Y-105883730D01*
X160855732Y-105911126D01*
X160858189Y-105936070D01*
X160858190Y-107688769D01*
X159368515Y-106199095D01*
X159368515Y-106006501D01*
X159467157Y-105907859D01*
X159552628Y-105779942D01*
X159611502Y-105637809D01*
X159641515Y-105486922D01*
X159641515Y-105333078D01*
X159611502Y-105182191D01*
X159552628Y-105040058D01*
X159467157Y-104912141D01*
X159358374Y-104803358D01*
X159230457Y-104717887D01*
X159088324Y-104659013D01*
X158937437Y-104629000D01*
X158783593Y-104629000D01*
X158632706Y-104659013D01*
X158490573Y-104717887D01*
X158362656Y-104803358D01*
X158253873Y-104912141D01*
X158168402Y-105040058D01*
X158109528Y-105182191D01*
X158097755Y-105241377D01*
X158092207Y-105227983D01*
X158006736Y-105100066D01*
X157897953Y-104991283D01*
X157770036Y-104905812D01*
X157627903Y-104846938D01*
X157477016Y-104816925D01*
X157323172Y-104816925D01*
X157172285Y-104846938D01*
X157030152Y-104905812D01*
X156902235Y-104991283D01*
X156793452Y-105100066D01*
X156707981Y-105227983D01*
X156649107Y-105370116D01*
X156619094Y-105521003D01*
X156619094Y-105674847D01*
X156649107Y-105825734D01*
X156707981Y-105967867D01*
X156793452Y-106095784D01*
X156902235Y-106204567D01*
X157030152Y-106290038D01*
X157172285Y-106348912D01*
X157323172Y-106378925D01*
X157477016Y-106378925D01*
X157627903Y-106348912D01*
X157770036Y-106290038D01*
X157897953Y-106204567D01*
X158006736Y-106095784D01*
X158092207Y-105967867D01*
X158151081Y-105825734D01*
X158162854Y-105766548D01*
X158168402Y-105779942D01*
X158253873Y-105907859D01*
X158352516Y-106006502D01*
X158352516Y-106384561D01*
X158350058Y-106409515D01*
X158358989Y-106500189D01*
X158359867Y-106509100D01*
X158369316Y-106540248D01*
X158388915Y-106604858D01*
X158436086Y-106693110D01*
X158462400Y-106725173D01*
X158499568Y-106770463D01*
X158518945Y-106786365D01*
X160556803Y-108824224D01*
X160427191Y-108850005D01*
X160285058Y-108908879D01*
X160157141Y-108994350D01*
X160048358Y-109103133D01*
X159962887Y-109231050D01*
X159934378Y-109299877D01*
X159882859Y-109248358D01*
X159754942Y-109162887D01*
X159612809Y-109104013D01*
X159461922Y-109074000D01*
X159308078Y-109074000D01*
X159157191Y-109104013D01*
X159015058Y-109162887D01*
X158887141Y-109248358D01*
X158778358Y-109357141D01*
X158692887Y-109485058D01*
X158634013Y-109627191D01*
X158604000Y-109778078D01*
X158604000Y-109931922D01*
X158634013Y-110082809D01*
X158692887Y-110224942D01*
X158722496Y-110269255D01*
X158634058Y-110305887D01*
X158506141Y-110391358D01*
X158444218Y-110453281D01*
X158405049Y-110379999D01*
X158278085Y-110225293D01*
X158239322Y-110193481D01*
X155808680Y-107762840D01*
X155808680Y-104557397D01*
X157191999Y-103174078D01*
X157461000Y-103174078D01*
X157461000Y-103327922D01*
X157491013Y-103478809D01*
X157549887Y-103620942D01*
X157635358Y-103748859D01*
X157744141Y-103857642D01*
X157872058Y-103943113D01*
X158014191Y-104001987D01*
X158165078Y-104032000D01*
X158318922Y-104032000D01*
X158469809Y-104001987D01*
X158611942Y-103943113D01*
X158739859Y-103857642D01*
X158848642Y-103748859D01*
X158934113Y-103620942D01*
X158992987Y-103478809D01*
X159023000Y-103327922D01*
X159023000Y-103174078D01*
X158992987Y-103023191D01*
X158934113Y-102881058D01*
X158848642Y-102753141D01*
X158739859Y-102644358D01*
X158611942Y-102558887D01*
X158469809Y-102500013D01*
X158318922Y-102470000D01*
X158165078Y-102470000D01*
X158014191Y-102500013D01*
X157872058Y-102558887D01*
X157744141Y-102644358D01*
X157635358Y-102753141D01*
X157549887Y-102881058D01*
X157491013Y-103023191D01*
X157461000Y-103174078D01*
X157191999Y-103174078D01*
X157578007Y-102788071D01*
X157616770Y-102756259D01*
X157743734Y-102601553D01*
X157838076Y-102425050D01*
X157896172Y-102233534D01*
X157910874Y-102084265D01*
X157910874Y-102084258D01*
X157915788Y-102034364D01*
X157910874Y-101984470D01*
X157910874Y-99751390D01*
X158111000Y-99751390D01*
X158111000Y-99905234D01*
X158141013Y-100056121D01*
X158199887Y-100198254D01*
X158285358Y-100326171D01*
X158394141Y-100434954D01*
X158522058Y-100520425D01*
X158664191Y-100579299D01*
X158815078Y-100609312D01*
X158968922Y-100609312D01*
X159119809Y-100579299D01*
X159261942Y-100520425D01*
X159389859Y-100434954D01*
X159498642Y-100326171D01*
X159584113Y-100198254D01*
X159642987Y-100056121D01*
X159673000Y-99905234D01*
X159673000Y-99751390D01*
X159642987Y-99600503D01*
X159584113Y-99458370D01*
X159498642Y-99330453D01*
X159389859Y-99221670D01*
X159261942Y-99136199D01*
X159119809Y-99077325D01*
X158968922Y-99047312D01*
X158815078Y-99047312D01*
X158664191Y-99077325D01*
X158522058Y-99136199D01*
X158394141Y-99221670D01*
X158285358Y-99330453D01*
X158199887Y-99458370D01*
X158141013Y-99600503D01*
X158111000Y-99751390D01*
X157910874Y-99751390D01*
X157910874Y-98996078D01*
X161211000Y-98996078D01*
X161211000Y-99149922D01*
X161241013Y-99300809D01*
X161299887Y-99442942D01*
X161385358Y-99570859D01*
X161494141Y-99679642D01*
X161534335Y-99706498D01*
X161530354Y-99712456D01*
X161471480Y-99854589D01*
X161441467Y-100005476D01*
X161441467Y-100159320D01*
X161471480Y-100310207D01*
X161530354Y-100452340D01*
X161615825Y-100580257D01*
X161724608Y-100689040D01*
X161852525Y-100774511D01*
X161994658Y-100833385D01*
X162145545Y-100863398D01*
X162299389Y-100863398D01*
X162450276Y-100833385D01*
X162592409Y-100774511D01*
X162612513Y-100761078D01*
X170288000Y-100761078D01*
X170288000Y-100914922D01*
X170318013Y-101065809D01*
X170376887Y-101207942D01*
X170462358Y-101335859D01*
X170571141Y-101444642D01*
X170699058Y-101530113D01*
X170841191Y-101588987D01*
X170992078Y-101619000D01*
X171145922Y-101619000D01*
X171296809Y-101588987D01*
X171438942Y-101530113D01*
X171566859Y-101444642D01*
X171675642Y-101335859D01*
X171761113Y-101207942D01*
X171819987Y-101065809D01*
X171850000Y-100914922D01*
X171850000Y-100761078D01*
X171819987Y-100610191D01*
X171761113Y-100468058D01*
X171675642Y-100340141D01*
X171566859Y-100231358D01*
X171438942Y-100145887D01*
X171296809Y-100087013D01*
X171145922Y-100057000D01*
X170992078Y-100057000D01*
X170841191Y-100087013D01*
X170699058Y-100145887D01*
X170571141Y-100231358D01*
X170462358Y-100340141D01*
X170376887Y-100468058D01*
X170318013Y-100610191D01*
X170288000Y-100761078D01*
X162612513Y-100761078D01*
X162720326Y-100689040D01*
X162829109Y-100580257D01*
X162914580Y-100452340D01*
X162973454Y-100310207D01*
X163003467Y-100159320D01*
X163003467Y-100005476D01*
X162973454Y-99854589D01*
X162914580Y-99712456D01*
X162829109Y-99584539D01*
X162720326Y-99475756D01*
X162680132Y-99448900D01*
X162684113Y-99442942D01*
X162742987Y-99300809D01*
X162773000Y-99149922D01*
X162773000Y-98996078D01*
X162742987Y-98845191D01*
X162684113Y-98703058D01*
X162598642Y-98575141D01*
X162489859Y-98466358D01*
X162361942Y-98380887D01*
X162219809Y-98322013D01*
X162068922Y-98292000D01*
X161915078Y-98292000D01*
X161764191Y-98322013D01*
X161622058Y-98380887D01*
X161494141Y-98466358D01*
X161385358Y-98575141D01*
X161299887Y-98703058D01*
X161241013Y-98845191D01*
X161211000Y-98996078D01*
X157910874Y-98996078D01*
X157910874Y-97446078D01*
X162561000Y-97446078D01*
X162561000Y-97599922D01*
X162591013Y-97750809D01*
X162649887Y-97892942D01*
X162735358Y-98020859D01*
X162844141Y-98129642D01*
X162972058Y-98215113D01*
X163114191Y-98273987D01*
X163265078Y-98304000D01*
X163418922Y-98304000D01*
X163569809Y-98273987D01*
X163711942Y-98215113D01*
X163839859Y-98129642D01*
X163948642Y-98020859D01*
X164034113Y-97892942D01*
X164092987Y-97750809D01*
X164123000Y-97599922D01*
X164123000Y-97446078D01*
X164092987Y-97295191D01*
X164038348Y-97163282D01*
X164064191Y-97173987D01*
X164215078Y-97204000D01*
X164319000Y-97204000D01*
X164319000Y-97231922D01*
X164349013Y-97382809D01*
X164407887Y-97524942D01*
X164493358Y-97652859D01*
X164602141Y-97761642D01*
X164730058Y-97847113D01*
X164872191Y-97905987D01*
X165023078Y-97936000D01*
X165176922Y-97936000D01*
X165327809Y-97905987D01*
X165469942Y-97847113D01*
X165597859Y-97761642D01*
X165706642Y-97652859D01*
X165751263Y-97586078D01*
X166224000Y-97586078D01*
X166224000Y-97739922D01*
X166254013Y-97890809D01*
X166312887Y-98032942D01*
X166398358Y-98160859D01*
X166507141Y-98269642D01*
X166635058Y-98355113D01*
X166777191Y-98413987D01*
X166928078Y-98444000D01*
X167081922Y-98444000D01*
X167232809Y-98413987D01*
X167374942Y-98355113D01*
X167502859Y-98269642D01*
X167611642Y-98160859D01*
X167637840Y-98121650D01*
X167764191Y-98173987D01*
X167915078Y-98204000D01*
X168068922Y-98204000D01*
X168219809Y-98173987D01*
X168361942Y-98115113D01*
X168489859Y-98029642D01*
X168598642Y-97920859D01*
X168684113Y-97792942D01*
X168742987Y-97650809D01*
X168773000Y-97499922D01*
X168773000Y-97346078D01*
X168742987Y-97195191D01*
X168684113Y-97053058D01*
X168598642Y-96925141D01*
X168489859Y-96816358D01*
X168361942Y-96730887D01*
X168219809Y-96672013D01*
X168068922Y-96642000D01*
X167915078Y-96642000D01*
X167764191Y-96672013D01*
X167622058Y-96730887D01*
X167494141Y-96816358D01*
X167385358Y-96925141D01*
X167359160Y-96964350D01*
X167232809Y-96912013D01*
X167081922Y-96882000D01*
X166928078Y-96882000D01*
X166777191Y-96912013D01*
X166635058Y-96970887D01*
X166507141Y-97056358D01*
X166398358Y-97165141D01*
X166312887Y-97293058D01*
X166254013Y-97435191D01*
X166224000Y-97586078D01*
X165751263Y-97586078D01*
X165792113Y-97524942D01*
X165850987Y-97382809D01*
X165881000Y-97231922D01*
X165881000Y-97078078D01*
X165850987Y-96927191D01*
X165792113Y-96785058D01*
X165706642Y-96657141D01*
X165597859Y-96548358D01*
X165469942Y-96462887D01*
X165327809Y-96404013D01*
X165176922Y-96374000D01*
X165073000Y-96374000D01*
X165073000Y-96346078D01*
X165042987Y-96195191D01*
X164984113Y-96053058D01*
X164898642Y-95925141D01*
X164789859Y-95816358D01*
X164661942Y-95730887D01*
X164519809Y-95672013D01*
X164368922Y-95642000D01*
X164215078Y-95642000D01*
X164064191Y-95672013D01*
X163922058Y-95730887D01*
X163794141Y-95816358D01*
X163685358Y-95925141D01*
X163599887Y-96053058D01*
X163541013Y-96195191D01*
X163511000Y-96346078D01*
X163511000Y-96499922D01*
X163541013Y-96650809D01*
X163595652Y-96782718D01*
X163569809Y-96772013D01*
X163418922Y-96742000D01*
X163265078Y-96742000D01*
X163114191Y-96772013D01*
X162972058Y-96830887D01*
X162844141Y-96916358D01*
X162735358Y-97025141D01*
X162649887Y-97153058D01*
X162591013Y-97295191D01*
X162561000Y-97446078D01*
X157910874Y-97446078D01*
X157910874Y-95599524D01*
X158133574Y-95599524D01*
X158133574Y-95753368D01*
X158163587Y-95904255D01*
X158222461Y-96046388D01*
X158307932Y-96174305D01*
X158416715Y-96283088D01*
X158544632Y-96368559D01*
X158686765Y-96427433D01*
X158837652Y-96457446D01*
X158991496Y-96457446D01*
X159142383Y-96427433D01*
X159284516Y-96368559D01*
X159412433Y-96283088D01*
X159521216Y-96174305D01*
X159606687Y-96046388D01*
X159665561Y-95904255D01*
X159695574Y-95753368D01*
X159695574Y-95599524D01*
X159665561Y-95448637D01*
X159606687Y-95306504D01*
X159521216Y-95178587D01*
X159412433Y-95069804D01*
X159284516Y-94984333D01*
X159142383Y-94925459D01*
X158991496Y-94895446D01*
X158837652Y-94895446D01*
X158686765Y-94925459D01*
X158544632Y-94984333D01*
X158416715Y-95069804D01*
X158307932Y-95178587D01*
X158222461Y-95306504D01*
X158163587Y-95448637D01*
X158133574Y-95599524D01*
X157910874Y-95599524D01*
X157910874Y-94438604D01*
X161158710Y-94438604D01*
X161158710Y-94592448D01*
X161188723Y-94743335D01*
X161247597Y-94885468D01*
X161333068Y-95013385D01*
X161441851Y-95122168D01*
X161569768Y-95207639D01*
X161711901Y-95266513D01*
X161862788Y-95296526D01*
X162016632Y-95296526D01*
X162167519Y-95266513D01*
X162309652Y-95207639D01*
X162437569Y-95122168D01*
X162546352Y-95013385D01*
X162631823Y-94885468D01*
X162690697Y-94743335D01*
X162720710Y-94592448D01*
X162720710Y-94438604D01*
X162690697Y-94287717D01*
X162631823Y-94145584D01*
X162546352Y-94017667D01*
X162437569Y-93908884D01*
X162309652Y-93823413D01*
X162167519Y-93764539D01*
X162016632Y-93734526D01*
X161862788Y-93734526D01*
X161711901Y-93764539D01*
X161569768Y-93823413D01*
X161441851Y-93908884D01*
X161333068Y-94017667D01*
X161247597Y-94145584D01*
X161188723Y-94287717D01*
X161158710Y-94438604D01*
X157910874Y-94438604D01*
X157910874Y-91046078D01*
X158211000Y-91046078D01*
X158211000Y-91199922D01*
X158241013Y-91350809D01*
X158299887Y-91492942D01*
X158385358Y-91620859D01*
X158494141Y-91729642D01*
X158622058Y-91815113D01*
X158764191Y-91873987D01*
X158915078Y-91904000D01*
X159068922Y-91904000D01*
X159219809Y-91873987D01*
X159361942Y-91815113D01*
X159489859Y-91729642D01*
X159598642Y-91620859D01*
X159684113Y-91492942D01*
X159742987Y-91350809D01*
X159773000Y-91199922D01*
X159773000Y-91046078D01*
X159742987Y-90895191D01*
X159684113Y-90753058D01*
X159598642Y-90625141D01*
X159489859Y-90516358D01*
X159361942Y-90430887D01*
X159219809Y-90372013D01*
X159068922Y-90342000D01*
X158915078Y-90342000D01*
X158764191Y-90372013D01*
X158622058Y-90430887D01*
X158494141Y-90516358D01*
X158385358Y-90625141D01*
X158299887Y-90753058D01*
X158241013Y-90895191D01*
X158211000Y-91046078D01*
X157910874Y-91046078D01*
X157910874Y-89954938D01*
X157915789Y-89905036D01*
X157896172Y-89705865D01*
X157838076Y-89514349D01*
X157793465Y-89430887D01*
X157743734Y-89337846D01*
X157616770Y-89183140D01*
X157578007Y-89151328D01*
X156065290Y-87638612D01*
X156033474Y-87599844D01*
X155878768Y-87472880D01*
X155702265Y-87378538D01*
X155510749Y-87320442D01*
X155361480Y-87305740D01*
X155311578Y-87300825D01*
X155261676Y-87305740D01*
X154570185Y-87305740D01*
X154493568Y-87290500D01*
X154290432Y-87290500D01*
X154091198Y-87330130D01*
X153903525Y-87407867D01*
X153734623Y-87520723D01*
X153590983Y-87664363D01*
X153478127Y-87833265D01*
X153400390Y-88020938D01*
X153360760Y-88220172D01*
X153360760Y-88423308D01*
X153400390Y-88622542D01*
X153478127Y-88810215D01*
X153590983Y-88979117D01*
X153734623Y-89122757D01*
X153903525Y-89235613D01*
X154091198Y-89313350D01*
X154137198Y-89322500D01*
X154091198Y-89331650D01*
X153903525Y-89409387D01*
X153734623Y-89522243D01*
X153590983Y-89665883D01*
X153478127Y-89834785D01*
X153400390Y-90022458D01*
X153360760Y-90221692D01*
X153360760Y-90424828D01*
X153400390Y-90624062D01*
X153478127Y-90811735D01*
X153590983Y-90980637D01*
X153734623Y-91124277D01*
X153903525Y-91237133D01*
X154091198Y-91314870D01*
X154130814Y-91322750D01*
X154091198Y-91330630D01*
X153903525Y-91408367D01*
X153734623Y-91521223D01*
X153590983Y-91664863D01*
X153478127Y-91833765D01*
X153400390Y-92021438D01*
X153360760Y-92220672D01*
X153360760Y-92423808D01*
X153400390Y-92623042D01*
X153478127Y-92810715D01*
X153590983Y-92979617D01*
X153734623Y-93123257D01*
X153903525Y-93236113D01*
X154091198Y-93313850D01*
X154137198Y-93323000D01*
X154091198Y-93332150D01*
X153903525Y-93409887D01*
X153734623Y-93522743D01*
X153590983Y-93666383D01*
X153478127Y-93835285D01*
X153400390Y-94022958D01*
X153360760Y-94222192D01*
X153360760Y-94425328D01*
X153400390Y-94624562D01*
X153478127Y-94812235D01*
X153590983Y-94981137D01*
X153734623Y-95124777D01*
X153903525Y-95237633D01*
X154091198Y-95315370D01*
X154130814Y-95323250D01*
X154091198Y-95331130D01*
X153903525Y-95408867D01*
X153734623Y-95521723D01*
X153590983Y-95665363D01*
X153478127Y-95834265D01*
X153400390Y-96021938D01*
X153360760Y-96221172D01*
X153360760Y-96424308D01*
X153400390Y-96623542D01*
X153478127Y-96811215D01*
X153590983Y-96980117D01*
X153734623Y-97123757D01*
X153903525Y-97236613D01*
X154091198Y-97314350D01*
X154273334Y-97350579D01*
X154206602Y-97356678D01*
X154021398Y-97411439D01*
X153850437Y-97501280D01*
X153838911Y-97508981D01*
X153776587Y-97663946D01*
X154392000Y-98279359D01*
X155007413Y-97663946D01*
X154945089Y-97508981D01*
X154775408Y-97416744D01*
X154590993Y-97359382D01*
X154509614Y-97350788D01*
X154692802Y-97314350D01*
X154880475Y-97236613D01*
X155049377Y-97123757D01*
X155193017Y-96980117D01*
X155305873Y-96811215D01*
X155383610Y-96623542D01*
X155423240Y-96424308D01*
X155423240Y-96221172D01*
X155383610Y-96021938D01*
X155305873Y-95834265D01*
X155193017Y-95665363D01*
X155049377Y-95521723D01*
X154880475Y-95408867D01*
X154692802Y-95331130D01*
X154653186Y-95323250D01*
X154692802Y-95315370D01*
X154880475Y-95237633D01*
X155049377Y-95124777D01*
X155193017Y-94981137D01*
X155305873Y-94812235D01*
X155383610Y-94624562D01*
X155423240Y-94425328D01*
X155423240Y-94222192D01*
X155383610Y-94022958D01*
X155305873Y-93835285D01*
X155193017Y-93666383D01*
X155049377Y-93522743D01*
X154880475Y-93409887D01*
X154692802Y-93332150D01*
X154646802Y-93323000D01*
X154692802Y-93313850D01*
X154880475Y-93236113D01*
X155049377Y-93123257D01*
X155193017Y-92979617D01*
X155305873Y-92810715D01*
X155383610Y-92623042D01*
X155423240Y-92423808D01*
X155423240Y-92220672D01*
X155383610Y-92021438D01*
X155305873Y-91833765D01*
X155193017Y-91664863D01*
X155049377Y-91521223D01*
X154880475Y-91408367D01*
X154692802Y-91330630D01*
X154653186Y-91322750D01*
X154692802Y-91314870D01*
X154880475Y-91237133D01*
X155049377Y-91124277D01*
X155193017Y-90980637D01*
X155305873Y-90811735D01*
X155383610Y-90624062D01*
X155423240Y-90424828D01*
X155423240Y-90221692D01*
X155383610Y-90022458D01*
X155305873Y-89834785D01*
X155193017Y-89665883D01*
X155049377Y-89522243D01*
X154880475Y-89409387D01*
X154707505Y-89337740D01*
X154890738Y-89337740D01*
X155878874Y-90325877D01*
X155878875Y-101613521D01*
X154109552Y-103382845D01*
X154070784Y-103414661D01*
X153943820Y-103569367D01*
X153849478Y-103745871D01*
X153806970Y-103886000D01*
X153791382Y-103937387D01*
X153771765Y-104136557D01*
X153776680Y-104186459D01*
X153776681Y-107089697D01*
X153733989Y-107072013D01*
X153583102Y-107042000D01*
X153429258Y-107042000D01*
X153278371Y-107072013D01*
X153136238Y-107130887D01*
X153008321Y-107216358D01*
X152899538Y-107325141D01*
X152814067Y-107453058D01*
X152755193Y-107595191D01*
X152725180Y-107746078D01*
X152719000Y-107746078D01*
X152719000Y-101777078D01*
X153651000Y-101777078D01*
X153651000Y-101930922D01*
X153681013Y-102081809D01*
X153739887Y-102223942D01*
X153825358Y-102351859D01*
X153934141Y-102460642D01*
X154062058Y-102546113D01*
X154204191Y-102604987D01*
X154355078Y-102635000D01*
X154508922Y-102635000D01*
X154659809Y-102604987D01*
X154801942Y-102546113D01*
X154929859Y-102460642D01*
X155038642Y-102351859D01*
X155124113Y-102223942D01*
X155182987Y-102081809D01*
X155213000Y-101930922D01*
X155213000Y-101777078D01*
X155182987Y-101626191D01*
X155124113Y-101484058D01*
X155038642Y-101356141D01*
X154929859Y-101247358D01*
X154801942Y-101161887D01*
X154659809Y-101103013D01*
X154508922Y-101073000D01*
X154355078Y-101073000D01*
X154204191Y-101103013D01*
X154062058Y-101161887D01*
X153934141Y-101247358D01*
X153825358Y-101356141D01*
X153739887Y-101484058D01*
X153681013Y-101626191D01*
X153651000Y-101777078D01*
X152719000Y-101777078D01*
X152719000Y-99618078D01*
X153270000Y-99618078D01*
X153270000Y-99771922D01*
X153300013Y-99922809D01*
X153358887Y-100064942D01*
X153444358Y-100192859D01*
X153553141Y-100301642D01*
X153681058Y-100387113D01*
X153823191Y-100445987D01*
X153974078Y-100476000D01*
X154127922Y-100476000D01*
X154278809Y-100445987D01*
X154420942Y-100387113D01*
X154548859Y-100301642D01*
X154657642Y-100192859D01*
X154743113Y-100064942D01*
X154801987Y-99922809D01*
X154832000Y-99771922D01*
X154832000Y-99618078D01*
X154801987Y-99467191D01*
X154743113Y-99325058D01*
X154697242Y-99256407D01*
X154762602Y-99237081D01*
X154933563Y-99147240D01*
X154945089Y-99139539D01*
X155007413Y-98984574D01*
X154392000Y-98369161D01*
X154377858Y-98383304D01*
X154332957Y-98338403D01*
X154347099Y-98324260D01*
X154436901Y-98324260D01*
X155052314Y-98939673D01*
X155207279Y-98877349D01*
X155299516Y-98707668D01*
X155356878Y-98523253D01*
X155377160Y-98331191D01*
X155359582Y-98138862D01*
X155304821Y-97953658D01*
X155214980Y-97782697D01*
X155207279Y-97771171D01*
X155052314Y-97708847D01*
X154436901Y-98324260D01*
X154347099Y-98324260D01*
X153731686Y-97708847D01*
X153576721Y-97771171D01*
X153484484Y-97940852D01*
X153427122Y-98125267D01*
X153406840Y-98317329D01*
X153424418Y-98509658D01*
X153479179Y-98694862D01*
X153569020Y-98865823D01*
X153576721Y-98877349D01*
X153731684Y-98939672D01*
X153673353Y-98998003D01*
X153679367Y-99004017D01*
X153553141Y-99088358D01*
X153444358Y-99197141D01*
X153358887Y-99325058D01*
X153300013Y-99467191D01*
X153270000Y-99618078D01*
X152719000Y-99618078D01*
X152719000Y-86787300D01*
X170934080Y-86787300D01*
X170934080Y-87555152D01*
X170946769Y-87618946D01*
X170971660Y-87679038D01*
X171007797Y-87733120D01*
X171053790Y-87779113D01*
X171107872Y-87815249D01*
X171167964Y-87840141D01*
X171231758Y-87852830D01*
X171749420Y-87852830D01*
X171831970Y-87770280D01*
X171831970Y-86704750D01*
X171895470Y-86704750D01*
X171895470Y-87770280D01*
X171978020Y-87852830D01*
X172495682Y-87852830D01*
X172559476Y-87840141D01*
X172619568Y-87815249D01*
X172673650Y-87779113D01*
X172719643Y-87733120D01*
X172755780Y-87679038D01*
X172780671Y-87618946D01*
X172793360Y-87555152D01*
X172793360Y-86787300D01*
X172710810Y-86704750D01*
X171895470Y-86704750D01*
X171831970Y-86704750D01*
X171016630Y-86704750D01*
X170934080Y-86787300D01*
X152719000Y-86787300D01*
X152719000Y-84849953D01*
X163695475Y-84845899D01*
X163564191Y-84872013D01*
X163422058Y-84930887D01*
X163294141Y-85016358D01*
X163185358Y-85125141D01*
X163099887Y-85253058D01*
X163041013Y-85395191D01*
X163011000Y-85546078D01*
X163011000Y-85699922D01*
X163041013Y-85850809D01*
X163099887Y-85992942D01*
X163185358Y-86120859D01*
X163294141Y-86229642D01*
X163422058Y-86315113D01*
X163564191Y-86373987D01*
X163715078Y-86404000D01*
X163868922Y-86404000D01*
X164019809Y-86373987D01*
X164161942Y-86315113D01*
X164289859Y-86229642D01*
X164398642Y-86120859D01*
X164484113Y-85992942D01*
X164542987Y-85850809D01*
X164554913Y-85790848D01*
X170934080Y-85790848D01*
X170934080Y-86558700D01*
X171016630Y-86641250D01*
X171831970Y-86641250D01*
X171831970Y-85575720D01*
X171895470Y-85575720D01*
X171895470Y-86641250D01*
X172710810Y-86641250D01*
X172793360Y-86558700D01*
X172793360Y-86374654D01*
X172884800Y-86374654D01*
X172884800Y-86971347D01*
X172898987Y-87115390D01*
X172955050Y-87300203D01*
X173046091Y-87470528D01*
X173168611Y-87619820D01*
X173317903Y-87742340D01*
X173488228Y-87833380D01*
X173673041Y-87889443D01*
X173865240Y-87908373D01*
X174057440Y-87889443D01*
X174242253Y-87833380D01*
X174412578Y-87742340D01*
X174561870Y-87619820D01*
X174684390Y-87470528D01*
X174775430Y-87300203D01*
X174831493Y-87115389D01*
X174845680Y-86971346D01*
X174845680Y-86374654D01*
X174886320Y-86374654D01*
X174886320Y-86971347D01*
X174900507Y-87115390D01*
X174956570Y-87300203D01*
X175047611Y-87470528D01*
X175170131Y-87619820D01*
X175319423Y-87742340D01*
X175489748Y-87833380D01*
X175674561Y-87889443D01*
X175866760Y-87908373D01*
X176058960Y-87889443D01*
X176243773Y-87833380D01*
X176414098Y-87742340D01*
X176563390Y-87619820D01*
X176685910Y-87470528D01*
X176776950Y-87300203D01*
X176833013Y-87115389D01*
X176847200Y-86971346D01*
X176847200Y-86374654D01*
X176885300Y-86374654D01*
X176885300Y-86971347D01*
X176899487Y-87115390D01*
X176955550Y-87300203D01*
X177046591Y-87470528D01*
X177169111Y-87619820D01*
X177318403Y-87742340D01*
X177488728Y-87833380D01*
X177673541Y-87889443D01*
X177865740Y-87908373D01*
X178057940Y-87889443D01*
X178242753Y-87833380D01*
X178413078Y-87742340D01*
X178562370Y-87619820D01*
X178684890Y-87470528D01*
X178775930Y-87300203D01*
X178831993Y-87115389D01*
X178846180Y-86971346D01*
X178846180Y-86374653D01*
X178831993Y-86230610D01*
X178775930Y-86045797D01*
X178684890Y-85875472D01*
X178562370Y-85726180D01*
X178413078Y-85603660D01*
X178242752Y-85512620D01*
X178057939Y-85456557D01*
X177865740Y-85437627D01*
X177673540Y-85456557D01*
X177488727Y-85512620D01*
X177318402Y-85603660D01*
X177169110Y-85726180D01*
X177046590Y-85875472D01*
X176955550Y-86045798D01*
X176899487Y-86230611D01*
X176885300Y-86374654D01*
X176847200Y-86374654D01*
X176847200Y-86374653D01*
X176833013Y-86230610D01*
X176776950Y-86045797D01*
X176685910Y-85875472D01*
X176563390Y-85726180D01*
X176414098Y-85603660D01*
X176243772Y-85512620D01*
X176058959Y-85456557D01*
X175866760Y-85437627D01*
X175674560Y-85456557D01*
X175489747Y-85512620D01*
X175319422Y-85603660D01*
X175170130Y-85726180D01*
X175047610Y-85875472D01*
X174956570Y-86045798D01*
X174900507Y-86230611D01*
X174886320Y-86374654D01*
X174845680Y-86374654D01*
X174845680Y-86374653D01*
X174831493Y-86230610D01*
X174775430Y-86045797D01*
X174684390Y-85875472D01*
X174561870Y-85726180D01*
X174412578Y-85603660D01*
X174242252Y-85512620D01*
X174057439Y-85456557D01*
X173865240Y-85437627D01*
X173673040Y-85456557D01*
X173488227Y-85512620D01*
X173317902Y-85603660D01*
X173168610Y-85726180D01*
X173046090Y-85875472D01*
X172955050Y-86045798D01*
X172898987Y-86230611D01*
X172884800Y-86374654D01*
X172793360Y-86374654D01*
X172793360Y-85790848D01*
X172780671Y-85727054D01*
X172755780Y-85666962D01*
X172719643Y-85612880D01*
X172673650Y-85566887D01*
X172619568Y-85530751D01*
X172559476Y-85505859D01*
X172495682Y-85493170D01*
X171978020Y-85493170D01*
X171895470Y-85575720D01*
X171831970Y-85575720D01*
X171749420Y-85493170D01*
X171231758Y-85493170D01*
X171167964Y-85505859D01*
X171107872Y-85530751D01*
X171053790Y-85566887D01*
X171007797Y-85612880D01*
X170971660Y-85666962D01*
X170946769Y-85727054D01*
X170934080Y-85790848D01*
X164554913Y-85790848D01*
X164573000Y-85699922D01*
X164573000Y-85546078D01*
X164542987Y-85395191D01*
X164484113Y-85253058D01*
X164398642Y-85125141D01*
X164289859Y-85016358D01*
X164161942Y-84930887D01*
X164019809Y-84872013D01*
X163888167Y-84845828D01*
X190373000Y-84836047D01*
X190373000Y-89268309D01*
G36*
X190373000Y-96755000D02*
X190296078Y-96755000D01*
X190145191Y-96785013D01*
X190003058Y-96843887D01*
X189875141Y-96929358D01*
X189766358Y-97038141D01*
X189680887Y-97166058D01*
X189622013Y-97308191D01*
X189592000Y-97459078D01*
X189592000Y-97612922D01*
X189622013Y-97763809D01*
X189680887Y-97905942D01*
X189766358Y-98033859D01*
X189875141Y-98142642D01*
X190003058Y-98228113D01*
X190145191Y-98286987D01*
X190296078Y-98317000D01*
X190373000Y-98317000D01*
X190373000Y-102358028D01*
X181895799Y-110835230D01*
X181794971Y-110855286D01*
X181652838Y-110914160D01*
X181524921Y-110999631D01*
X181416138Y-111108414D01*
X181330667Y-111236331D01*
X181271793Y-111378464D01*
X181241780Y-111529351D01*
X181241780Y-111683195D01*
X181265625Y-111803074D01*
X177891033Y-111803074D01*
X175895000Y-109807042D01*
X175895000Y-109445827D01*
X176946328Y-108394500D01*
X177691542Y-108394500D01*
X177654686Y-108449659D01*
X177595812Y-108591792D01*
X177565799Y-108742679D01*
X177565799Y-108896523D01*
X177595812Y-109047410D01*
X177654686Y-109189543D01*
X177740157Y-109317460D01*
X177848940Y-109426243D01*
X177976857Y-109511714D01*
X178118990Y-109570588D01*
X178269877Y-109600601D01*
X178423721Y-109600601D01*
X178574608Y-109570588D01*
X178716741Y-109511714D01*
X178802217Y-109454601D01*
X179908272Y-109454601D01*
X179939453Y-109457672D01*
X179970634Y-109454601D01*
X179970645Y-109454601D01*
X180063935Y-109445413D01*
X180183633Y-109409103D01*
X180293947Y-109350138D01*
X180390638Y-109270786D01*
X180410527Y-109246551D01*
X181022000Y-108635078D01*
X181718000Y-108635078D01*
X181718000Y-108788922D01*
X181748013Y-108939809D01*
X181806887Y-109081942D01*
X181892358Y-109209859D01*
X182001141Y-109318642D01*
X182129058Y-109404113D01*
X182271191Y-109462987D01*
X182422078Y-109493000D01*
X182575922Y-109493000D01*
X182726809Y-109462987D01*
X182868942Y-109404113D01*
X182996859Y-109318642D01*
X183105642Y-109209859D01*
X183191113Y-109081942D01*
X183249987Y-108939809D01*
X183280000Y-108788922D01*
X183280000Y-108635078D01*
X183249987Y-108484191D01*
X183191113Y-108342058D01*
X183105642Y-108214141D01*
X182996859Y-108105358D01*
X182868942Y-108019887D01*
X182726809Y-107961013D01*
X182575922Y-107931000D01*
X182422078Y-107931000D01*
X182271191Y-107961013D01*
X182129058Y-108019887D01*
X182001141Y-108105358D01*
X181892358Y-108214141D01*
X181806887Y-108342058D01*
X181748013Y-108484191D01*
X181718000Y-108635078D01*
X181022000Y-108635078D01*
X185846955Y-103810124D01*
X185871185Y-103790239D01*
X185920095Y-103730642D01*
X185950538Y-103693548D01*
X186009502Y-103583234D01*
X186013708Y-103569368D01*
X186045812Y-103463536D01*
X186055000Y-103370246D01*
X186055000Y-103370243D01*
X186058072Y-103339054D01*
X186055000Y-103307865D01*
X186055000Y-98983078D01*
X188703000Y-98983078D01*
X188703000Y-99136922D01*
X188733013Y-99287809D01*
X188791887Y-99429942D01*
X188877358Y-99557859D01*
X188986141Y-99666642D01*
X189114058Y-99752113D01*
X189256191Y-99810987D01*
X189407078Y-99841000D01*
X189560922Y-99841000D01*
X189711809Y-99810987D01*
X189853942Y-99752113D01*
X189981859Y-99666642D01*
X190090642Y-99557859D01*
X190176113Y-99429942D01*
X190234987Y-99287809D01*
X190265000Y-99136922D01*
X190265000Y-98983078D01*
X190234987Y-98832191D01*
X190176113Y-98690058D01*
X190090642Y-98562141D01*
X189981859Y-98453358D01*
X189853942Y-98367887D01*
X189711809Y-98309013D01*
X189560922Y-98279000D01*
X189407078Y-98279000D01*
X189256191Y-98309013D01*
X189114058Y-98367887D01*
X188986141Y-98453358D01*
X188877358Y-98562141D01*
X188791887Y-98690058D01*
X188733013Y-98832191D01*
X188703000Y-98983078D01*
X186055000Y-98983078D01*
X186055000Y-92592024D01*
X186648216Y-91998810D01*
X190373000Y-91998810D01*
X190373000Y-96755000D01*
X190373000Y-96755000D01*
G37*
X190373000Y-96755000D02*
X190296078Y-96755000D01*
X190145191Y-96785013D01*
X190003058Y-96843887D01*
X189875141Y-96929358D01*
X189766358Y-97038141D01*
X189680887Y-97166058D01*
X189622013Y-97308191D01*
X189592000Y-97459078D01*
X189592000Y-97612922D01*
X189622013Y-97763809D01*
X189680887Y-97905942D01*
X189766358Y-98033859D01*
X189875141Y-98142642D01*
X190003058Y-98228113D01*
X190145191Y-98286987D01*
X190296078Y-98317000D01*
X190373000Y-98317000D01*
X190373000Y-102358028D01*
X181895799Y-110835230D01*
X181794971Y-110855286D01*
X181652838Y-110914160D01*
X181524921Y-110999631D01*
X181416138Y-111108414D01*
X181330667Y-111236331D01*
X181271793Y-111378464D01*
X181241780Y-111529351D01*
X181241780Y-111683195D01*
X181265625Y-111803074D01*
X177891033Y-111803074D01*
X175895000Y-109807042D01*
X175895000Y-109445827D01*
X176946328Y-108394500D01*
X177691542Y-108394500D01*
X177654686Y-108449659D01*
X177595812Y-108591792D01*
X177565799Y-108742679D01*
X177565799Y-108896523D01*
X177595812Y-109047410D01*
X177654686Y-109189543D01*
X177740157Y-109317460D01*
X177848940Y-109426243D01*
X177976857Y-109511714D01*
X178118990Y-109570588D01*
X178269877Y-109600601D01*
X178423721Y-109600601D01*
X178574608Y-109570588D01*
X178716741Y-109511714D01*
X178802217Y-109454601D01*
X179908272Y-109454601D01*
X179939453Y-109457672D01*
X179970634Y-109454601D01*
X179970645Y-109454601D01*
X180063935Y-109445413D01*
X180183633Y-109409103D01*
X180293947Y-109350138D01*
X180390638Y-109270786D01*
X180410527Y-109246551D01*
X181022000Y-108635078D01*
X181718000Y-108635078D01*
X181718000Y-108788922D01*
X181748013Y-108939809D01*
X181806887Y-109081942D01*
X181892358Y-109209859D01*
X182001141Y-109318642D01*
X182129058Y-109404113D01*
X182271191Y-109462987D01*
X182422078Y-109493000D01*
X182575922Y-109493000D01*
X182726809Y-109462987D01*
X182868942Y-109404113D01*
X182996859Y-109318642D01*
X183105642Y-109209859D01*
X183191113Y-109081942D01*
X183249987Y-108939809D01*
X183280000Y-108788922D01*
X183280000Y-108635078D01*
X183249987Y-108484191D01*
X183191113Y-108342058D01*
X183105642Y-108214141D01*
X182996859Y-108105358D01*
X182868942Y-108019887D01*
X182726809Y-107961013D01*
X182575922Y-107931000D01*
X182422078Y-107931000D01*
X182271191Y-107961013D01*
X182129058Y-108019887D01*
X182001141Y-108105358D01*
X181892358Y-108214141D01*
X181806887Y-108342058D01*
X181748013Y-108484191D01*
X181718000Y-108635078D01*
X181022000Y-108635078D01*
X185846955Y-103810124D01*
X185871185Y-103790239D01*
X185920095Y-103730642D01*
X185950538Y-103693548D01*
X186009502Y-103583234D01*
X186013708Y-103569368D01*
X186045812Y-103463536D01*
X186055000Y-103370246D01*
X186055000Y-103370243D01*
X186058072Y-103339054D01*
X186055000Y-103307865D01*
X186055000Y-98983078D01*
X188703000Y-98983078D01*
X188703000Y-99136922D01*
X188733013Y-99287809D01*
X188791887Y-99429942D01*
X188877358Y-99557859D01*
X188986141Y-99666642D01*
X189114058Y-99752113D01*
X189256191Y-99810987D01*
X189407078Y-99841000D01*
X189560922Y-99841000D01*
X189711809Y-99810987D01*
X189853942Y-99752113D01*
X189981859Y-99666642D01*
X190090642Y-99557859D01*
X190176113Y-99429942D01*
X190234987Y-99287809D01*
X190265000Y-99136922D01*
X190265000Y-98983078D01*
X190234987Y-98832191D01*
X190176113Y-98690058D01*
X190090642Y-98562141D01*
X189981859Y-98453358D01*
X189853942Y-98367887D01*
X189711809Y-98309013D01*
X189560922Y-98279000D01*
X189407078Y-98279000D01*
X189256191Y-98309013D01*
X189114058Y-98367887D01*
X188986141Y-98453358D01*
X188877358Y-98562141D01*
X188791887Y-98690058D01*
X188733013Y-98832191D01*
X188703000Y-98983078D01*
X186055000Y-98983078D01*
X186055000Y-92592024D01*
X186648216Y-91998810D01*
X190373000Y-91998810D01*
X190373000Y-96755000D01*
G04 #@! TO.N,V_SUPPLY*
G36*
X221904128Y-100498451D02*
X221904128Y-100809153D01*
X222023028Y-101096203D01*
X222242727Y-101315902D01*
X222351826Y-101361092D01*
X222315599Y-101376098D01*
X222095900Y-101595797D01*
X221977000Y-101882847D01*
X221977000Y-102193549D01*
X222095900Y-102480599D01*
X222315599Y-102700298D01*
X222602649Y-102819198D01*
X222913351Y-102819198D01*
X223200401Y-102700298D01*
X223420100Y-102480599D01*
X223539000Y-102193549D01*
X223539000Y-101882847D01*
X223420100Y-101595797D01*
X223200401Y-101376098D01*
X223091302Y-101330908D01*
X223127529Y-101315902D01*
X223347228Y-101096203D01*
X223466128Y-100809153D01*
X223466128Y-100498451D01*
X223448958Y-100457000D01*
X233544000Y-100457000D01*
X233544000Y-115092391D01*
X226632464Y-115137862D01*
X226632464Y-113100000D01*
X226602894Y-112951341D01*
X226518686Y-112825314D01*
X226392659Y-112741106D01*
X226244000Y-112711536D01*
X223844000Y-112711536D01*
X223695341Y-112741106D01*
X223569314Y-112825314D01*
X223485106Y-112951341D01*
X223455536Y-113100000D01*
X223455536Y-115158763D01*
X211392464Y-115238125D01*
X211392464Y-113100000D01*
X211362894Y-112951341D01*
X211278686Y-112825314D01*
X211152659Y-112741106D01*
X211004000Y-112711536D01*
X208604000Y-112711536D01*
X208455341Y-112741106D01*
X208329314Y-112825314D01*
X208245106Y-112951341D01*
X208215536Y-113100000D01*
X208215536Y-115259026D01*
X196152464Y-115338389D01*
X196152464Y-113100000D01*
X196122894Y-112951341D01*
X196038686Y-112825314D01*
X195912659Y-112741106D01*
X195764000Y-112711536D01*
X193421000Y-112711536D01*
X193421000Y-106524649D01*
X218675000Y-106524649D01*
X218675000Y-106835351D01*
X218793900Y-107122401D01*
X218859499Y-107188000D01*
X218793900Y-107253599D01*
X218675000Y-107540649D01*
X218675000Y-107851351D01*
X218793900Y-108138401D01*
X218859499Y-108204000D01*
X218793900Y-108269599D01*
X218675000Y-108556649D01*
X218675000Y-108867351D01*
X218793900Y-109154401D01*
X218859499Y-109220000D01*
X218793900Y-109285599D01*
X218675000Y-109572649D01*
X218675000Y-109883351D01*
X218793900Y-110170401D01*
X219013599Y-110390100D01*
X219300649Y-110509000D01*
X219611351Y-110509000D01*
X219898401Y-110390100D01*
X219964000Y-110324501D01*
X220029599Y-110390100D01*
X220316649Y-110509000D01*
X220627351Y-110509000D01*
X220914401Y-110390100D01*
X220980000Y-110324501D01*
X221045599Y-110390100D01*
X221332649Y-110509000D01*
X221643351Y-110509000D01*
X221930401Y-110390100D01*
X221996000Y-110324501D01*
X222061599Y-110390100D01*
X222348649Y-110509000D01*
X222659351Y-110509000D01*
X222946401Y-110390100D01*
X223012000Y-110324501D01*
X223077599Y-110390100D01*
X223364649Y-110509000D01*
X223675351Y-110509000D01*
X223962401Y-110390100D01*
X224182100Y-110170401D01*
X224301000Y-109883351D01*
X224301000Y-109572649D01*
X224182100Y-109285599D01*
X224116501Y-109220000D01*
X224182100Y-109154401D01*
X224301000Y-108867351D01*
X224301000Y-108556649D01*
X224182100Y-108269599D01*
X224116501Y-108204000D01*
X224182100Y-108138401D01*
X224301000Y-107851351D01*
X224301000Y-107540649D01*
X224182100Y-107253599D01*
X224116501Y-107188000D01*
X224182100Y-107122401D01*
X224301000Y-106835351D01*
X224301000Y-106524649D01*
X224182100Y-106237599D01*
X223962401Y-106017900D01*
X223675351Y-105899000D01*
X223364649Y-105899000D01*
X223077599Y-106017900D01*
X223012000Y-106083499D01*
X222946401Y-106017900D01*
X222659351Y-105899000D01*
X222348649Y-105899000D01*
X222061599Y-106017900D01*
X221996000Y-106083499D01*
X221930401Y-106017900D01*
X221643351Y-105899000D01*
X221332649Y-105899000D01*
X221045599Y-106017900D01*
X220980000Y-106083499D01*
X220914401Y-106017900D01*
X220627351Y-105899000D01*
X220316649Y-105899000D01*
X220029599Y-106017900D01*
X219964000Y-106083499D01*
X219898401Y-106017900D01*
X219611351Y-105899000D01*
X219300649Y-105899000D01*
X219013599Y-106017900D01*
X218793900Y-106237599D01*
X218675000Y-106524649D01*
X193421000Y-106524649D01*
X193421000Y-105918538D01*
X197542738Y-101796800D01*
X217970499Y-101796800D01*
X217997599Y-101823900D01*
X218284649Y-101942800D01*
X218595351Y-101942800D01*
X218882401Y-101823900D01*
X219102100Y-101604201D01*
X219221000Y-101317151D01*
X219221000Y-101006449D01*
X219102100Y-100719399D01*
X218882401Y-100499700D01*
X218779314Y-100457000D01*
X221921298Y-100457000D01*
X221904128Y-100498451D01*
X221904128Y-100498451D01*
G37*
X221904128Y-100498451D02*
X221904128Y-100809153D01*
X222023028Y-101096203D01*
X222242727Y-101315902D01*
X222351826Y-101361092D01*
X222315599Y-101376098D01*
X222095900Y-101595797D01*
X221977000Y-101882847D01*
X221977000Y-102193549D01*
X222095900Y-102480599D01*
X222315599Y-102700298D01*
X222602649Y-102819198D01*
X222913351Y-102819198D01*
X223200401Y-102700298D01*
X223420100Y-102480599D01*
X223539000Y-102193549D01*
X223539000Y-101882847D01*
X223420100Y-101595797D01*
X223200401Y-101376098D01*
X223091302Y-101330908D01*
X223127529Y-101315902D01*
X223347228Y-101096203D01*
X223466128Y-100809153D01*
X223466128Y-100498451D01*
X223448958Y-100457000D01*
X233544000Y-100457000D01*
X233544000Y-115092391D01*
X226632464Y-115137862D01*
X226632464Y-113100000D01*
X226602894Y-112951341D01*
X226518686Y-112825314D01*
X226392659Y-112741106D01*
X226244000Y-112711536D01*
X223844000Y-112711536D01*
X223695341Y-112741106D01*
X223569314Y-112825314D01*
X223485106Y-112951341D01*
X223455536Y-113100000D01*
X223455536Y-115158763D01*
X211392464Y-115238125D01*
X211392464Y-113100000D01*
X211362894Y-112951341D01*
X211278686Y-112825314D01*
X211152659Y-112741106D01*
X211004000Y-112711536D01*
X208604000Y-112711536D01*
X208455341Y-112741106D01*
X208329314Y-112825314D01*
X208245106Y-112951341D01*
X208215536Y-113100000D01*
X208215536Y-115259026D01*
X196152464Y-115338389D01*
X196152464Y-113100000D01*
X196122894Y-112951341D01*
X196038686Y-112825314D01*
X195912659Y-112741106D01*
X195764000Y-112711536D01*
X193421000Y-112711536D01*
X193421000Y-106524649D01*
X218675000Y-106524649D01*
X218675000Y-106835351D01*
X218793900Y-107122401D01*
X218859499Y-107188000D01*
X218793900Y-107253599D01*
X218675000Y-107540649D01*
X218675000Y-107851351D01*
X218793900Y-108138401D01*
X218859499Y-108204000D01*
X218793900Y-108269599D01*
X218675000Y-108556649D01*
X218675000Y-108867351D01*
X218793900Y-109154401D01*
X218859499Y-109220000D01*
X218793900Y-109285599D01*
X218675000Y-109572649D01*
X218675000Y-109883351D01*
X218793900Y-110170401D01*
X219013599Y-110390100D01*
X219300649Y-110509000D01*
X219611351Y-110509000D01*
X219898401Y-110390100D01*
X219964000Y-110324501D01*
X220029599Y-110390100D01*
X220316649Y-110509000D01*
X220627351Y-110509000D01*
X220914401Y-110390100D01*
X220980000Y-110324501D01*
X221045599Y-110390100D01*
X221332649Y-110509000D01*
X221643351Y-110509000D01*
X221930401Y-110390100D01*
X221996000Y-110324501D01*
X222061599Y-110390100D01*
X222348649Y-110509000D01*
X222659351Y-110509000D01*
X222946401Y-110390100D01*
X223012000Y-110324501D01*
X223077599Y-110390100D01*
X223364649Y-110509000D01*
X223675351Y-110509000D01*
X223962401Y-110390100D01*
X224182100Y-110170401D01*
X224301000Y-109883351D01*
X224301000Y-109572649D01*
X224182100Y-109285599D01*
X224116501Y-109220000D01*
X224182100Y-109154401D01*
X224301000Y-108867351D01*
X224301000Y-108556649D01*
X224182100Y-108269599D01*
X224116501Y-108204000D01*
X224182100Y-108138401D01*
X224301000Y-107851351D01*
X224301000Y-107540649D01*
X224182100Y-107253599D01*
X224116501Y-107188000D01*
X224182100Y-107122401D01*
X224301000Y-106835351D01*
X224301000Y-106524649D01*
X224182100Y-106237599D01*
X223962401Y-106017900D01*
X223675351Y-105899000D01*
X223364649Y-105899000D01*
X223077599Y-106017900D01*
X223012000Y-106083499D01*
X222946401Y-106017900D01*
X222659351Y-105899000D01*
X222348649Y-105899000D01*
X222061599Y-106017900D01*
X221996000Y-106083499D01*
X221930401Y-106017900D01*
X221643351Y-105899000D01*
X221332649Y-105899000D01*
X221045599Y-106017900D01*
X220980000Y-106083499D01*
X220914401Y-106017900D01*
X220627351Y-105899000D01*
X220316649Y-105899000D01*
X220029599Y-106017900D01*
X219964000Y-106083499D01*
X219898401Y-106017900D01*
X219611351Y-105899000D01*
X219300649Y-105899000D01*
X219013599Y-106017900D01*
X218793900Y-106237599D01*
X218675000Y-106524649D01*
X193421000Y-106524649D01*
X193421000Y-105918538D01*
X197542738Y-101796800D01*
X217970499Y-101796800D01*
X217997599Y-101823900D01*
X218284649Y-101942800D01*
X218595351Y-101942800D01*
X218882401Y-101823900D01*
X219102100Y-101604201D01*
X219221000Y-101317151D01*
X219221000Y-101006449D01*
X219102100Y-100719399D01*
X218882401Y-100499700D01*
X218779314Y-100457000D01*
X221921298Y-100457000D01*
X221904128Y-100498451D01*
G04 #@! TD*
M02*
