G04 #@! TF.GenerationSoftware,KiCad,Pcbnew,(5.0.0-3-g5ebb6b6)*
G04 #@! TF.CreationDate,2018-09-28T14:58:41+02:00*
G04 #@! TF.ProjectId,VESC-5,564553432D352E6B696361645F706362,A*
G04 #@! TF.SameCoordinates,Original*
G04 #@! TF.FileFunction,Soldermask,Bot*
G04 #@! TF.FilePolarity,Negative*
%FSLAX46Y46*%
G04 Gerber Fmt 4.6, Leading zero omitted, Abs format (unit mm)*
G04 Created by KiCad (PCBNEW (5.0.0-3-g5ebb6b6)) date 2018 September 28, Friday 14:58:41*
%MOMM*%
%LPD*%
G01*
G04 APERTURE LIST*
%ADD10R,1.143000X0.635000*%
%ADD11C,4.064000*%
%ADD12R,2.400000X2.400000*%
%ADD13C,2.400000*%
%ADD14R,0.635000X1.143000*%
%ADD15R,0.889000X2.540000*%
%ADD16R,5.588000X2.540000*%
%ADD17R,1.800860X3.500120*%
%ADD18C,1.300480*%
%ADD19R,1.198880X1.699260*%
%ADD20O,1.198880X1.699260*%
%ADD21R,1.699260X2.540000*%
%ADD22R,1.198880X1.800860*%
%ADD23O,3.048000X1.524000*%
%ADD24R,2.499360X1.950720*%
%ADD25R,1.950720X2.499360*%
%ADD26R,1.849120X5.499100*%
%ADD27R,0.797560X0.797560*%
%ADD28R,2.032000X1.524000*%
%ADD29R,3.657600X2.032000*%
%ADD30R,1.016000X2.032000*%
%ADD31R,1.300000X1.300000*%
%ADD32C,1.300000*%
%ADD33C,0.635000*%
%ADD34C,0.100000*%
%ADD35C,1.000000*%
G04 APERTURE END LIST*
D10*
G04 #@! TO.C,R30*
X231902000Y-92202000D03*
X231902000Y-93726000D03*
G04 #@! TD*
D11*
G04 #@! TO.C,1PIN*
X205994000Y-87630000D03*
G04 #@! TD*
G04 #@! TO.C,1PIN*
X221234000Y-87630000D03*
G04 #@! TD*
D10*
G04 #@! TO.C,R46*
X204343000Y-92202000D03*
X204343000Y-93726000D03*
G04 #@! TD*
D12*
G04 #@! TO.C,C46*
X225044000Y-114300000D03*
D13*
X232544000Y-114300000D03*
G04 #@! TD*
D14*
G04 #@! TO.C,R43*
X207518000Y-92202000D03*
X205994000Y-92202000D03*
G04 #@! TD*
D13*
G04 #@! TO.C,C45*
X217304000Y-114300000D03*
D12*
X209804000Y-114300000D03*
G04 #@! TD*
D10*
G04 #@! TO.C,R29*
X230378000Y-90678000D03*
X230378000Y-92202000D03*
G04 #@! TD*
D14*
G04 #@! TO.C,R35*
X223901000Y-92202000D03*
X222377000Y-92202000D03*
G04 #@! TD*
D13*
G04 #@! TO.C,C42*
X202064000Y-114300000D03*
D12*
X194564000Y-114300000D03*
G04 #@! TD*
D15*
G04 #@! TO.C,R54*
X202374500Y-103886000D03*
X202374500Y-98806000D03*
D16*
X206502000Y-103886000D03*
X206502000Y-98806000D03*
G04 #@! TD*
D15*
G04 #@! TO.C,R53*
X224853500Y-98806000D03*
X224853500Y-103886000D03*
D16*
X220726000Y-98806000D03*
X220726000Y-103886000D03*
G04 #@! TD*
D10*
G04 #@! TO.C,R36*
X220726000Y-92202000D03*
X220726000Y-93726000D03*
G04 #@! TD*
D17*
G04 #@! TO.C,D4*
X178562000Y-95717360D03*
X178562000Y-90718640D03*
G04 #@! TD*
D18*
G04 #@! TO.C,P1*
X154392000Y-92322240D03*
X154392000Y-94323760D03*
X154392000Y-96322740D03*
X154392000Y-98324260D03*
X154392000Y-90323260D03*
X154392000Y-88321740D03*
G04 #@! TD*
D19*
G04 #@! TO.C,P101*
X171863720Y-86673000D03*
D20*
X175866760Y-86673000D03*
X173865240Y-86673000D03*
X177865740Y-86673000D03*
G04 #@! TD*
D18*
G04 #@! TO.C,P2*
X165338760Y-120523000D03*
X163337240Y-120523000D03*
X161338260Y-120523000D03*
X159336740Y-120523000D03*
X167337740Y-120523000D03*
X169339260Y-120523000D03*
G04 #@! TD*
D21*
G04 #@! TO.C,D5*
X158496000Y-114856260D03*
X158496000Y-118315740D03*
G04 #@! TD*
D22*
G04 #@! TO.C,X2*
X156738320Y-103256080D03*
X159237680Y-103256080D03*
X159237680Y-107055920D03*
X156738320Y-107055920D03*
G04 #@! TD*
D23*
G04 #@! TO.C,K1*
X155194000Y-114935000D03*
X155194000Y-117475000D03*
X155194000Y-120015000D03*
G04 #@! TD*
D24*
G04 #@! TO.C,C25*
X169164000Y-89408000D03*
X169164000Y-86360000D03*
G04 #@! TD*
D25*
G04 #@! TO.C,C33*
X174816000Y-89223000D03*
X171768000Y-89223000D03*
G04 #@! TD*
D26*
G04 #@! TO.C,C51*
X171160440Y-116713000D03*
X176311560Y-116713000D03*
G04 #@! TD*
D27*
G04 #@! TO.C,D1*
X167652700Y-118110000D03*
X169151300Y-118110000D03*
G04 #@! TD*
G04 #@! TO.C,D2*
X167642700Y-116673000D03*
X169141300Y-116673000D03*
G04 #@! TD*
G04 #@! TO.C,D3*
X167642700Y-115273000D03*
X169141300Y-115273000D03*
G04 #@! TD*
D11*
G04 #@! TO.C,1PIN*
X149592000Y-120223000D03*
G04 #@! TD*
G04 #@! TO.C,1PIN*
X149592000Y-87723000D03*
G04 #@! TD*
D28*
G04 #@! TO.C,C9*
X175292000Y-108772000D03*
X175292000Y-112074000D03*
G04 #@! TD*
G04 #@! TO.C,C40*
X179832000Y-111760000D03*
X179832000Y-115062000D03*
G04 #@! TD*
G04 #@! TO.C,C43*
X179324000Y-98552000D03*
X179324000Y-101854000D03*
G04 #@! TD*
G04 #@! TO.C,C44*
X175387000Y-100711000D03*
X175387000Y-104013000D03*
G04 #@! TD*
G04 #@! TO.C,C49*
X172974000Y-100711000D03*
X172974000Y-104013000D03*
G04 #@! TD*
D14*
G04 #@! TO.C,R3*
X166254000Y-91423000D03*
X164730000Y-91423000D03*
G04 #@! TD*
G04 #@! TO.C,R4*
X161830000Y-91423000D03*
X163354000Y-91423000D03*
G04 #@! TD*
G04 #@! TO.C,R5*
X160020000Y-112649000D03*
X158496000Y-112649000D03*
G04 #@! TD*
D10*
G04 #@! TO.C,R6*
X162292000Y-87235000D03*
X162292000Y-85711000D03*
G04 #@! TD*
D14*
G04 #@! TO.C,R7*
X156464000Y-89535000D03*
X157988000Y-89535000D03*
G04 #@! TD*
G04 #@! TO.C,R8*
X156464000Y-92583000D03*
X157988000Y-92583000D03*
G04 #@! TD*
G04 #@! TO.C,R9*
X156464000Y-95631000D03*
X157988000Y-95631000D03*
G04 #@! TD*
G04 #@! TO.C,R10*
X156464000Y-98679000D03*
X157988000Y-98679000D03*
G04 #@! TD*
G04 #@! TO.C,R11*
X156464000Y-97155000D03*
X157988000Y-97155000D03*
G04 #@! TD*
G04 #@! TO.C,R12*
X156464000Y-94107000D03*
X157988000Y-94107000D03*
G04 #@! TD*
G04 #@! TO.C,R13*
X156464000Y-91059000D03*
X157988000Y-91059000D03*
G04 #@! TD*
D10*
G04 #@! TO.C,R21*
X169926000Y-99695000D03*
X169926000Y-101219000D03*
G04 #@! TD*
D14*
G04 #@! TO.C,R22*
X166354000Y-115323000D03*
X164830000Y-115323000D03*
G04 #@! TD*
D10*
G04 #@! TO.C,R23*
X163068000Y-93726000D03*
X163068000Y-95250000D03*
G04 #@! TD*
G04 #@! TO.C,R24*
X163542000Y-99685000D03*
X163542000Y-98161000D03*
G04 #@! TD*
G04 #@! TO.C,R26*
X164592000Y-93726000D03*
X164592000Y-95250000D03*
G04 #@! TD*
G04 #@! TO.C,R27*
X165042000Y-99685000D03*
X165042000Y-98161000D03*
G04 #@! TD*
G04 #@! TO.C,R32*
X166142000Y-93711000D03*
X166142000Y-95235000D03*
G04 #@! TD*
G04 #@! TO.C,R33*
X166542000Y-99685000D03*
X166542000Y-98161000D03*
G04 #@! TD*
D14*
G04 #@! TO.C,R37*
X166354000Y-118323000D03*
X164830000Y-118323000D03*
G04 #@! TD*
G04 #@! TO.C,R38*
X166354000Y-116823000D03*
X164830000Y-116823000D03*
G04 #@! TD*
D10*
G04 #@! TO.C,R402*
X159258000Y-89535000D03*
X159258000Y-88011000D03*
G04 #@! TD*
D29*
G04 #@! TO.C,U2*
X173228000Y-98425000D03*
D30*
X173228000Y-91821000D03*
X175514000Y-91821000D03*
X170942000Y-91821000D03*
G04 #@! TD*
D31*
G04 #@! TO.C,P3*
X173573440Y-120523000D03*
D32*
X177576480Y-120523000D03*
X175574960Y-120523000D03*
X179575460Y-120523000D03*
X181576980Y-120523000D03*
X183578500Y-120523000D03*
X185577480Y-120523000D03*
G04 #@! TD*
D10*
G04 #@! TO.C,C26*
X171704000Y-106426000D03*
X171704000Y-107950000D03*
G04 #@! TD*
D14*
G04 #@! TO.C,C52*
X168021000Y-113665000D03*
X169545000Y-113665000D03*
G04 #@! TD*
D10*
G04 #@! TO.C,C38*
X160782000Y-107315000D03*
X160782000Y-105791000D03*
G04 #@! TD*
G04 #@! TO.C,C32*
X155829000Y-101473000D03*
X155829000Y-99949000D03*
G04 #@! TD*
G04 #@! TO.C,C31*
X157734000Y-109474000D03*
X157734000Y-110998000D03*
G04 #@! TD*
D14*
G04 #@! TO.C,C24*
X167894000Y-91313000D03*
X169418000Y-91313000D03*
G04 #@! TD*
G04 #@! TO.C,C20*
X168021000Y-112141000D03*
X169545000Y-112141000D03*
G04 #@! TD*
D10*
G04 #@! TO.C,C18*
X170307000Y-106426000D03*
X170307000Y-107950000D03*
G04 #@! TD*
D14*
G04 #@! TO.C,C17*
X165989000Y-103886000D03*
X167513000Y-103886000D03*
G04 #@! TD*
G04 #@! TO.C,C16*
X164830000Y-113823000D03*
X166354000Y-113823000D03*
G04 #@! TD*
D10*
G04 #@! TO.C,C15*
X160782000Y-102997000D03*
X160782000Y-104521000D03*
G04 #@! TD*
D14*
G04 #@! TO.C,C14*
X167513000Y-102235000D03*
X165989000Y-102235000D03*
G04 #@! TD*
G04 #@! TO.C,C7*
X159030000Y-92573000D03*
X160554000Y-92573000D03*
G04 #@! TD*
G04 #@! TO.C,C6*
X159030000Y-97123000D03*
X160554000Y-97123000D03*
G04 #@! TD*
G04 #@! TO.C,C5*
X159004000Y-98679000D03*
X160528000Y-98679000D03*
G04 #@! TD*
G04 #@! TO.C,C4*
X157988000Y-88011000D03*
X156464000Y-88011000D03*
G04 #@! TD*
D33*
G04 #@! TO.C,C3*
X162844815Y-118775815D03*
D34*
G36*
X163473433Y-118596210D02*
X162665210Y-119404433D01*
X162216197Y-118955420D01*
X163024420Y-118147197D01*
X163473433Y-118596210D01*
X163473433Y-118596210D01*
G37*
D33*
X161767185Y-117698185D03*
D34*
G36*
X162395803Y-117518580D02*
X161587580Y-118326803D01*
X161138567Y-117877790D01*
X161946790Y-117069567D01*
X162395803Y-117518580D01*
X162395803Y-117518580D01*
G37*
G04 #@! TD*
D14*
G04 #@! TO.C,C2*
X164592000Y-89916000D03*
X163068000Y-89916000D03*
G04 #@! TD*
D35*
G04 #@! TO.C,X1*
X165957000Y-88900000D03*
X161957000Y-88900000D03*
G04 #@! TD*
M02*
