G04 #@! TF.GenerationSoftware,KiCad,Pcbnew,(5.0.0-3-g5ebb6b6)*
G04 #@! TF.CreationDate,2018-09-28T14:58:41+02:00*
G04 #@! TF.ProjectId,VESC-5,564553432D352E6B696361645F706362,A*
G04 #@! TF.SameCoordinates,Original*
G04 #@! TF.FileFunction,Legend,Bot*
G04 #@! TF.FilePolarity,Positive*
%FSLAX46Y46*%
G04 Gerber Fmt 4.6, Leading zero omitted, Abs format (unit mm)*
G04 Created by KiCad (PCBNEW (5.0.0-3-g5ebb6b6)) date 2018 September 28, Friday 14:58:41*
%MOMM*%
%LPD*%
G01*
G04 APERTURE LIST*
%ADD10C,0.127000*%
%ADD11C,0.381000*%
%ADD12C,0.150000*%
%ADD13C,0.200660*%
%ADD14C,0.066040*%
%ADD15C,0.101600*%
%ADD16C,0.203200*%
%ADD17C,0.119380*%
%ADD18C,0.114300*%
%ADD19C,0.304800*%
%ADD20C,0.190500*%
%ADD21R,1.143000X0.635000*%
%ADD22C,4.064000*%
%ADD23R,2.400000X2.400000*%
%ADD24C,2.400000*%
%ADD25R,0.635000X1.143000*%
%ADD26R,0.889000X2.540000*%
%ADD27R,5.588000X2.540000*%
%ADD28R,1.800860X3.500120*%
%ADD29C,1.300480*%
%ADD30R,1.198880X1.699260*%
%ADD31O,1.198880X1.699260*%
%ADD32R,1.699260X2.540000*%
%ADD33R,1.198880X1.800860*%
%ADD34O,3.048000X1.524000*%
%ADD35R,2.499360X1.950720*%
%ADD36R,1.950720X2.499360*%
%ADD37R,1.849120X5.499100*%
%ADD38R,0.797560X0.797560*%
%ADD39R,2.032000X1.524000*%
%ADD40R,3.657600X2.032000*%
%ADD41R,1.016000X2.032000*%
%ADD42R,1.300000X1.300000*%
%ADD43C,1.300000*%
%ADD44C,0.635000*%
%ADD45C,0.100000*%
%ADD46C,1.000000*%
G04 APERTURE END LIST*
D10*
G04 #@! TO.C,R30*
X231203500Y-91757500D02*
X231203500Y-92463620D01*
X232600500Y-91757500D02*
X231203500Y-91757500D01*
X232600500Y-91757500D02*
X232600500Y-92463620D01*
X231203500Y-94170500D02*
X231203500Y-93464380D01*
X232600500Y-94170500D02*
X231203500Y-94170500D01*
X232600500Y-93464380D02*
X232600500Y-94170500D01*
G04 #@! TO.C,R46*
X203644500Y-91757500D02*
X203644500Y-92463620D01*
X205041500Y-91757500D02*
X203644500Y-91757500D01*
X205041500Y-91757500D02*
X205041500Y-92463620D01*
X203644500Y-94170500D02*
X203644500Y-93464380D01*
X205041500Y-94170500D02*
X203644500Y-94170500D01*
X205041500Y-93464380D02*
X205041500Y-94170500D01*
G04 #@! TO.C,R43*
X207962500Y-91503500D02*
X207256380Y-91503500D01*
X207962500Y-92900500D02*
X207962500Y-91503500D01*
X207962500Y-92900500D02*
X207256380Y-92900500D01*
X205549500Y-91503500D02*
X206255620Y-91503500D01*
X205549500Y-92900500D02*
X205549500Y-91503500D01*
X206255620Y-92900500D02*
X205549500Y-92900500D01*
G04 #@! TO.C,R29*
X229679500Y-90233500D02*
X229679500Y-90939620D01*
X231076500Y-90233500D02*
X229679500Y-90233500D01*
X231076500Y-90233500D02*
X231076500Y-90939620D01*
X229679500Y-92646500D02*
X229679500Y-91940380D01*
X231076500Y-92646500D02*
X229679500Y-92646500D01*
X231076500Y-91940380D02*
X231076500Y-92646500D01*
G04 #@! TO.C,R35*
X224345500Y-91503500D02*
X223639380Y-91503500D01*
X224345500Y-92900500D02*
X224345500Y-91503500D01*
X224345500Y-92900500D02*
X223639380Y-92900500D01*
X221932500Y-91503500D02*
X222638620Y-91503500D01*
X221932500Y-92900500D02*
X221932500Y-91503500D01*
X222638620Y-92900500D02*
X221932500Y-92900500D01*
D11*
G04 #@! TO.C,R54*
X202057000Y-104775000D02*
X202057000Y-97917000D01*
X208661000Y-104775000D02*
X202057000Y-104775000D01*
X208661000Y-97917000D02*
X208661000Y-104775000D01*
X202057000Y-97917000D02*
X208661000Y-97917000D01*
G04 #@! TO.C,R53*
X225171000Y-97917000D02*
X225171000Y-104775000D01*
X218567000Y-97917000D02*
X225171000Y-97917000D01*
X218567000Y-104775000D02*
X218567000Y-97917000D01*
X225171000Y-104775000D02*
X218567000Y-104775000D01*
D10*
G04 #@! TO.C,R36*
X220027500Y-91757500D02*
X220027500Y-92463620D01*
X221424500Y-91757500D02*
X220027500Y-91757500D01*
X221424500Y-91757500D02*
X221424500Y-92463620D01*
X220027500Y-94170500D02*
X220027500Y-93464380D01*
X221424500Y-94170500D02*
X220027500Y-94170500D01*
X221424500Y-93464380D02*
X221424500Y-94170500D01*
D12*
G04 #@! TO.C,D4*
X178562000Y-93468000D02*
X179012000Y-92918000D01*
X179012000Y-92918000D02*
X178112000Y-92918000D01*
X178112000Y-92918000D02*
X178562000Y-93468000D01*
X179112000Y-93468000D02*
X178012000Y-93468000D01*
X176811940Y-95017140D02*
X177162460Y-95017140D01*
X180312060Y-95017140D02*
X179961540Y-95017140D01*
X176811940Y-90967560D02*
X177162460Y-90967560D01*
X176811940Y-95468440D02*
X177162460Y-95468440D01*
X180312060Y-95468440D02*
X179961540Y-95468440D01*
X180312060Y-90967560D02*
X179961540Y-90967560D01*
X176811940Y-95468440D02*
X176811940Y-90967560D01*
X180312060Y-95468440D02*
X180312060Y-90967560D01*
D10*
G04 #@! TO.C,D5*
X157096460Y-114485420D02*
X159895540Y-114485420D01*
X159895540Y-114587020D02*
X157096460Y-114587020D01*
X157096460Y-114686080D02*
X159895540Y-114686080D01*
X159895540Y-114785140D02*
X157096460Y-114785140D01*
X159895540Y-114886740D02*
X157096460Y-114886740D01*
X159895540Y-114386360D02*
X159895540Y-118785640D01*
X159895540Y-118785640D02*
X157096460Y-118785640D01*
X157096460Y-118785640D02*
X157096460Y-114386360D01*
X157096460Y-114386360D02*
X159895540Y-114386360D01*
D13*
G04 #@! TO.C,X2*
X156387800Y-102656640D02*
X156387800Y-107655360D01*
X156387800Y-107655360D02*
X159588200Y-107655360D01*
X159588200Y-107655360D02*
X159588200Y-102656640D01*
X159588200Y-102656640D02*
X156387800Y-102656640D01*
D10*
G04 #@! TO.C,C25*
X167767000Y-89090500D02*
X170561000Y-89090500D01*
X167767000Y-89662000D02*
X167767000Y-86106000D01*
X167767000Y-86106000D02*
X170561000Y-86106000D01*
X170561000Y-86106000D02*
X170561000Y-89662000D01*
X170561000Y-89662000D02*
X167767000Y-89662000D01*
G04 #@! TO.C,C33*
X174498500Y-90620000D02*
X174498500Y-87826000D01*
X175070000Y-90620000D02*
X171514000Y-90620000D01*
X171514000Y-90620000D02*
X171514000Y-87826000D01*
X171514000Y-87826000D02*
X175070000Y-87826000D01*
X175070000Y-87826000D02*
X175070000Y-90620000D01*
G04 #@! TO.C,C51*
X171577000Y-114173000D02*
X171577000Y-119253000D01*
X175895000Y-114173000D02*
X175895000Y-119253000D01*
X176530000Y-114173000D02*
X170942000Y-114173000D01*
X170942000Y-114173000D02*
X170942000Y-119253000D01*
X170942000Y-119253000D02*
X176530000Y-119253000D01*
X176530000Y-119253000D02*
X176530000Y-114173000D01*
D14*
G04 #@! TO.C,D1*
X168851580Y-118559580D02*
X168851580Y-117660420D01*
X168851580Y-117660420D02*
X169250360Y-117660420D01*
X169250360Y-118559580D02*
X169250360Y-117660420D01*
X168851580Y-118559580D02*
X169250360Y-118559580D01*
X167553640Y-118559580D02*
X167553640Y-117660420D01*
X167553640Y-117660420D02*
X167952420Y-117660420D01*
X167952420Y-118559580D02*
X167952420Y-117660420D01*
X167553640Y-118559580D02*
X167952420Y-118559580D01*
X168402000Y-118559580D02*
X168402000Y-118409720D01*
X168402000Y-118409720D02*
X168701720Y-118409720D01*
X168701720Y-118559580D02*
X168701720Y-118409720D01*
X168402000Y-118559580D02*
X168701720Y-118559580D01*
X168402000Y-117810280D02*
X168402000Y-117660420D01*
X168402000Y-117660420D02*
X168701720Y-117660420D01*
X168701720Y-117810280D02*
X168701720Y-117660420D01*
X168402000Y-117810280D02*
X168701720Y-117810280D01*
X168402000Y-118259860D02*
X168402000Y-117960140D01*
X168402000Y-117960140D02*
X168701720Y-117960140D01*
X168701720Y-118259860D02*
X168701720Y-117960140D01*
X168402000Y-118259860D02*
X168701720Y-118259860D01*
D15*
X168851580Y-118508780D02*
X167952420Y-118508780D01*
X168851580Y-117711220D02*
X167952420Y-117711220D01*
D14*
G04 #@! TO.C,D2*
X168841580Y-117122580D02*
X168841580Y-116223420D01*
X168841580Y-116223420D02*
X169240360Y-116223420D01*
X169240360Y-117122580D02*
X169240360Y-116223420D01*
X168841580Y-117122580D02*
X169240360Y-117122580D01*
X167543640Y-117122580D02*
X167543640Y-116223420D01*
X167543640Y-116223420D02*
X167942420Y-116223420D01*
X167942420Y-117122580D02*
X167942420Y-116223420D01*
X167543640Y-117122580D02*
X167942420Y-117122580D01*
X168392000Y-117122580D02*
X168392000Y-116972720D01*
X168392000Y-116972720D02*
X168691720Y-116972720D01*
X168691720Y-117122580D02*
X168691720Y-116972720D01*
X168392000Y-117122580D02*
X168691720Y-117122580D01*
X168392000Y-116373280D02*
X168392000Y-116223420D01*
X168392000Y-116223420D02*
X168691720Y-116223420D01*
X168691720Y-116373280D02*
X168691720Y-116223420D01*
X168392000Y-116373280D02*
X168691720Y-116373280D01*
X168392000Y-116822860D02*
X168392000Y-116523140D01*
X168392000Y-116523140D02*
X168691720Y-116523140D01*
X168691720Y-116822860D02*
X168691720Y-116523140D01*
X168392000Y-116822860D02*
X168691720Y-116822860D01*
D15*
X168841580Y-117071780D02*
X167942420Y-117071780D01*
X168841580Y-116274220D02*
X167942420Y-116274220D01*
D14*
G04 #@! TO.C,D3*
X168841580Y-115722580D02*
X168841580Y-114823420D01*
X168841580Y-114823420D02*
X169240360Y-114823420D01*
X169240360Y-115722580D02*
X169240360Y-114823420D01*
X168841580Y-115722580D02*
X169240360Y-115722580D01*
X167543640Y-115722580D02*
X167543640Y-114823420D01*
X167543640Y-114823420D02*
X167942420Y-114823420D01*
X167942420Y-115722580D02*
X167942420Y-114823420D01*
X167543640Y-115722580D02*
X167942420Y-115722580D01*
X168392000Y-115722580D02*
X168392000Y-115572720D01*
X168392000Y-115572720D02*
X168691720Y-115572720D01*
X168691720Y-115722580D02*
X168691720Y-115572720D01*
X168392000Y-115722580D02*
X168691720Y-115722580D01*
X168392000Y-114973280D02*
X168392000Y-114823420D01*
X168392000Y-114823420D02*
X168691720Y-114823420D01*
X168691720Y-114973280D02*
X168691720Y-114823420D01*
X168392000Y-114973280D02*
X168691720Y-114973280D01*
X168392000Y-115422860D02*
X168392000Y-115123140D01*
X168392000Y-115123140D02*
X168691720Y-115123140D01*
X168691720Y-115422860D02*
X168691720Y-115123140D01*
X168392000Y-115422860D02*
X168691720Y-115422860D01*
D15*
X168841580Y-115671780D02*
X167942420Y-115671780D01*
X168841580Y-114874220D02*
X167942420Y-114874220D01*
D10*
G04 #@! TO.C,C9*
X174149000Y-107883000D02*
X176435000Y-107883000D01*
X176435000Y-107883000D02*
X176435000Y-109534000D01*
X174149000Y-111312000D02*
X174149000Y-112963000D01*
X174149000Y-112963000D02*
X176435000Y-112963000D01*
X176435000Y-112963000D02*
X176435000Y-111312000D01*
X174149000Y-109534000D02*
X174149000Y-107883000D01*
G04 #@! TO.C,C40*
X178689000Y-110871000D02*
X180975000Y-110871000D01*
X180975000Y-110871000D02*
X180975000Y-112522000D01*
X178689000Y-114300000D02*
X178689000Y-115951000D01*
X178689000Y-115951000D02*
X180975000Y-115951000D01*
X180975000Y-115951000D02*
X180975000Y-114300000D01*
X178689000Y-112522000D02*
X178689000Y-110871000D01*
G04 #@! TO.C,C43*
X178181000Y-97663000D02*
X180467000Y-97663000D01*
X180467000Y-97663000D02*
X180467000Y-99314000D01*
X178181000Y-101092000D02*
X178181000Y-102743000D01*
X178181000Y-102743000D02*
X180467000Y-102743000D01*
X180467000Y-102743000D02*
X180467000Y-101092000D01*
X178181000Y-99314000D02*
X178181000Y-97663000D01*
G04 #@! TO.C,C44*
X174244000Y-99822000D02*
X176530000Y-99822000D01*
X176530000Y-99822000D02*
X176530000Y-101473000D01*
X174244000Y-103251000D02*
X174244000Y-104902000D01*
X174244000Y-104902000D02*
X176530000Y-104902000D01*
X176530000Y-104902000D02*
X176530000Y-103251000D01*
X174244000Y-101473000D02*
X174244000Y-99822000D01*
G04 #@! TO.C,C49*
X171831000Y-99822000D02*
X174117000Y-99822000D01*
X174117000Y-99822000D02*
X174117000Y-101473000D01*
X171831000Y-103251000D02*
X171831000Y-104902000D01*
X171831000Y-104902000D02*
X174117000Y-104902000D01*
X174117000Y-104902000D02*
X174117000Y-103251000D01*
X171831000Y-101473000D02*
X171831000Y-99822000D01*
G04 #@! TO.C,R3*
X165992380Y-90724500D02*
X166698500Y-90724500D01*
X166698500Y-90724500D02*
X166698500Y-92121500D01*
X166698500Y-92121500D02*
X165992380Y-92121500D01*
X164285500Y-90724500D02*
X164991620Y-90724500D01*
X164285500Y-90724500D02*
X164285500Y-92121500D01*
X164285500Y-92121500D02*
X164991620Y-92121500D01*
G04 #@! TO.C,R4*
X162091620Y-92121500D02*
X161385500Y-92121500D01*
X161385500Y-92121500D02*
X161385500Y-90724500D01*
X161385500Y-90724500D02*
X162091620Y-90724500D01*
X163798500Y-92121500D02*
X163092380Y-92121500D01*
X163798500Y-92121500D02*
X163798500Y-90724500D01*
X163798500Y-90724500D02*
X163092380Y-90724500D01*
G04 #@! TO.C,R5*
X159758380Y-111950500D02*
X160464500Y-111950500D01*
X160464500Y-111950500D02*
X160464500Y-113347500D01*
X160464500Y-113347500D02*
X159758380Y-113347500D01*
X158051500Y-111950500D02*
X158757620Y-111950500D01*
X158051500Y-111950500D02*
X158051500Y-113347500D01*
X158051500Y-113347500D02*
X158757620Y-113347500D01*
G04 #@! TO.C,R6*
X162990500Y-86973380D02*
X162990500Y-87679500D01*
X162990500Y-87679500D02*
X161593500Y-87679500D01*
X161593500Y-87679500D02*
X161593500Y-86973380D01*
X162990500Y-85266500D02*
X162990500Y-85972620D01*
X162990500Y-85266500D02*
X161593500Y-85266500D01*
X161593500Y-85266500D02*
X161593500Y-85972620D01*
G04 #@! TO.C,R7*
X156725620Y-90233500D02*
X156019500Y-90233500D01*
X156019500Y-90233500D02*
X156019500Y-88836500D01*
X156019500Y-88836500D02*
X156725620Y-88836500D01*
X158432500Y-90233500D02*
X157726380Y-90233500D01*
X158432500Y-90233500D02*
X158432500Y-88836500D01*
X158432500Y-88836500D02*
X157726380Y-88836500D01*
G04 #@! TO.C,R8*
X156725620Y-93281500D02*
X156019500Y-93281500D01*
X156019500Y-93281500D02*
X156019500Y-91884500D01*
X156019500Y-91884500D02*
X156725620Y-91884500D01*
X158432500Y-93281500D02*
X157726380Y-93281500D01*
X158432500Y-93281500D02*
X158432500Y-91884500D01*
X158432500Y-91884500D02*
X157726380Y-91884500D01*
G04 #@! TO.C,R9*
X156725620Y-96329500D02*
X156019500Y-96329500D01*
X156019500Y-96329500D02*
X156019500Y-94932500D01*
X156019500Y-94932500D02*
X156725620Y-94932500D01*
X158432500Y-96329500D02*
X157726380Y-96329500D01*
X158432500Y-96329500D02*
X158432500Y-94932500D01*
X158432500Y-94932500D02*
X157726380Y-94932500D01*
G04 #@! TO.C,R10*
X156725620Y-99377500D02*
X156019500Y-99377500D01*
X156019500Y-99377500D02*
X156019500Y-97980500D01*
X156019500Y-97980500D02*
X156725620Y-97980500D01*
X158432500Y-99377500D02*
X157726380Y-99377500D01*
X158432500Y-99377500D02*
X158432500Y-97980500D01*
X158432500Y-97980500D02*
X157726380Y-97980500D01*
G04 #@! TO.C,R11*
X156725620Y-97853500D02*
X156019500Y-97853500D01*
X156019500Y-97853500D02*
X156019500Y-96456500D01*
X156019500Y-96456500D02*
X156725620Y-96456500D01*
X158432500Y-97853500D02*
X157726380Y-97853500D01*
X158432500Y-97853500D02*
X158432500Y-96456500D01*
X158432500Y-96456500D02*
X157726380Y-96456500D01*
G04 #@! TO.C,R12*
X156725620Y-94805500D02*
X156019500Y-94805500D01*
X156019500Y-94805500D02*
X156019500Y-93408500D01*
X156019500Y-93408500D02*
X156725620Y-93408500D01*
X158432500Y-94805500D02*
X157726380Y-94805500D01*
X158432500Y-94805500D02*
X158432500Y-93408500D01*
X158432500Y-93408500D02*
X157726380Y-93408500D01*
G04 #@! TO.C,R13*
X156725620Y-91757500D02*
X156019500Y-91757500D01*
X156019500Y-91757500D02*
X156019500Y-90360500D01*
X156019500Y-90360500D02*
X156725620Y-90360500D01*
X158432500Y-91757500D02*
X157726380Y-91757500D01*
X158432500Y-91757500D02*
X158432500Y-90360500D01*
X158432500Y-90360500D02*
X157726380Y-90360500D01*
G04 #@! TO.C,R21*
X169227500Y-99956620D02*
X169227500Y-99250500D01*
X169227500Y-99250500D02*
X170624500Y-99250500D01*
X170624500Y-99250500D02*
X170624500Y-99956620D01*
X169227500Y-101663500D02*
X169227500Y-100957380D01*
X169227500Y-101663500D02*
X170624500Y-101663500D01*
X170624500Y-101663500D02*
X170624500Y-100957380D01*
G04 #@! TO.C,R22*
X166092380Y-114624500D02*
X166798500Y-114624500D01*
X166798500Y-114624500D02*
X166798500Y-116021500D01*
X166798500Y-116021500D02*
X166092380Y-116021500D01*
X164385500Y-114624500D02*
X165091620Y-114624500D01*
X164385500Y-114624500D02*
X164385500Y-116021500D01*
X164385500Y-116021500D02*
X165091620Y-116021500D01*
G04 #@! TO.C,R23*
X162369500Y-93987620D02*
X162369500Y-93281500D01*
X162369500Y-93281500D02*
X163766500Y-93281500D01*
X163766500Y-93281500D02*
X163766500Y-93987620D01*
X162369500Y-95694500D02*
X162369500Y-94988380D01*
X162369500Y-95694500D02*
X163766500Y-95694500D01*
X163766500Y-95694500D02*
X163766500Y-94988380D01*
G04 #@! TO.C,R24*
X164240500Y-99423380D02*
X164240500Y-100129500D01*
X164240500Y-100129500D02*
X162843500Y-100129500D01*
X162843500Y-100129500D02*
X162843500Y-99423380D01*
X164240500Y-97716500D02*
X164240500Y-98422620D01*
X164240500Y-97716500D02*
X162843500Y-97716500D01*
X162843500Y-97716500D02*
X162843500Y-98422620D01*
G04 #@! TO.C,R26*
X163893500Y-93987620D02*
X163893500Y-93281500D01*
X163893500Y-93281500D02*
X165290500Y-93281500D01*
X165290500Y-93281500D02*
X165290500Y-93987620D01*
X163893500Y-95694500D02*
X163893500Y-94988380D01*
X163893500Y-95694500D02*
X165290500Y-95694500D01*
X165290500Y-95694500D02*
X165290500Y-94988380D01*
G04 #@! TO.C,R27*
X165740500Y-99423380D02*
X165740500Y-100129500D01*
X165740500Y-100129500D02*
X164343500Y-100129500D01*
X164343500Y-100129500D02*
X164343500Y-99423380D01*
X165740500Y-97716500D02*
X165740500Y-98422620D01*
X165740500Y-97716500D02*
X164343500Y-97716500D01*
X164343500Y-97716500D02*
X164343500Y-98422620D01*
G04 #@! TO.C,R32*
X165443500Y-93972620D02*
X165443500Y-93266500D01*
X165443500Y-93266500D02*
X166840500Y-93266500D01*
X166840500Y-93266500D02*
X166840500Y-93972620D01*
X165443500Y-95679500D02*
X165443500Y-94973380D01*
X165443500Y-95679500D02*
X166840500Y-95679500D01*
X166840500Y-95679500D02*
X166840500Y-94973380D01*
G04 #@! TO.C,R33*
X167240500Y-99423380D02*
X167240500Y-100129500D01*
X167240500Y-100129500D02*
X165843500Y-100129500D01*
X165843500Y-100129500D02*
X165843500Y-99423380D01*
X167240500Y-97716500D02*
X167240500Y-98422620D01*
X167240500Y-97716500D02*
X165843500Y-97716500D01*
X165843500Y-97716500D02*
X165843500Y-98422620D01*
G04 #@! TO.C,R37*
X166092380Y-117624500D02*
X166798500Y-117624500D01*
X166798500Y-117624500D02*
X166798500Y-119021500D01*
X166798500Y-119021500D02*
X166092380Y-119021500D01*
X164385500Y-117624500D02*
X165091620Y-117624500D01*
X164385500Y-117624500D02*
X164385500Y-119021500D01*
X164385500Y-119021500D02*
X165091620Y-119021500D01*
G04 #@! TO.C,R38*
X166092380Y-116124500D02*
X166798500Y-116124500D01*
X166798500Y-116124500D02*
X166798500Y-117521500D01*
X166798500Y-117521500D02*
X166092380Y-117521500D01*
X164385500Y-116124500D02*
X165091620Y-116124500D01*
X164385500Y-116124500D02*
X164385500Y-117521500D01*
X164385500Y-117521500D02*
X165091620Y-117521500D01*
G04 #@! TO.C,R402*
X159956500Y-89273380D02*
X159956500Y-89979500D01*
X159956500Y-89979500D02*
X158559500Y-89979500D01*
X158559500Y-89979500D02*
X158559500Y-89273380D01*
X159956500Y-87566500D02*
X159956500Y-88272620D01*
X159956500Y-87566500D02*
X158559500Y-87566500D01*
X158559500Y-87566500D02*
X158559500Y-88272620D01*
D16*
G04 #@! TO.C,U2*
X169672000Y-93599000D02*
X169672000Y-90551000D01*
X169672000Y-90551000D02*
X176784000Y-90551000D01*
X176784000Y-90551000D02*
X176784000Y-93599000D01*
X169672000Y-96647000D02*
X169672000Y-97409000D01*
X169672000Y-97409000D02*
X171196000Y-99695000D01*
X171196000Y-99695000D02*
X175260000Y-99695000D01*
X175260000Y-99695000D02*
X176784000Y-97409000D01*
X176784000Y-97409000D02*
X176784000Y-96647000D01*
D17*
G04 #@! TO.C,C26*
X172354240Y-107688380D02*
X172354240Y-108386880D01*
X172354240Y-106687620D02*
X172354240Y-105989120D01*
X171053760Y-107688380D02*
X171053760Y-108386880D01*
X171053760Y-105989120D02*
X171053760Y-106687620D01*
X171069000Y-108386880D02*
X172339000Y-108386880D01*
X172339000Y-105989120D02*
X171069000Y-105989120D01*
G04 #@! TO.C,C52*
X169283380Y-113014760D02*
X169981880Y-113014760D01*
X168282620Y-113014760D02*
X167584120Y-113014760D01*
X169283380Y-114315240D02*
X169981880Y-114315240D01*
X167584120Y-114315240D02*
X168282620Y-114315240D01*
X169981880Y-114300000D02*
X169981880Y-113030000D01*
X167584120Y-113030000D02*
X167584120Y-114300000D01*
G04 #@! TO.C,C38*
X160131760Y-106052620D02*
X160131760Y-105354120D01*
X160131760Y-107053380D02*
X160131760Y-107751880D01*
X161432240Y-106052620D02*
X161432240Y-105354120D01*
X161432240Y-107751880D02*
X161432240Y-107053380D01*
X161417000Y-105354120D02*
X160147000Y-105354120D01*
X160147000Y-107751880D02*
X161417000Y-107751880D01*
G04 #@! TO.C,C32*
X155178760Y-100210620D02*
X155178760Y-99512120D01*
X155178760Y-101211380D02*
X155178760Y-101909880D01*
X156479240Y-100210620D02*
X156479240Y-99512120D01*
X156479240Y-101909880D02*
X156479240Y-101211380D01*
X156464000Y-99512120D02*
X155194000Y-99512120D01*
X155194000Y-101909880D02*
X156464000Y-101909880D01*
G04 #@! TO.C,C31*
X158384240Y-110736380D02*
X158384240Y-111434880D01*
X158384240Y-109735620D02*
X158384240Y-109037120D01*
X157083760Y-110736380D02*
X157083760Y-111434880D01*
X157083760Y-109037120D02*
X157083760Y-109735620D01*
X157099000Y-111434880D02*
X158369000Y-111434880D01*
X158369000Y-109037120D02*
X157099000Y-109037120D01*
G04 #@! TO.C,C24*
X169156380Y-90662760D02*
X169854880Y-90662760D01*
X168155620Y-90662760D02*
X167457120Y-90662760D01*
X169156380Y-91963240D02*
X169854880Y-91963240D01*
X167457120Y-91963240D02*
X168155620Y-91963240D01*
X169854880Y-91948000D02*
X169854880Y-90678000D01*
X167457120Y-90678000D02*
X167457120Y-91948000D01*
G04 #@! TO.C,C20*
X169283380Y-111490760D02*
X169981880Y-111490760D01*
X168282620Y-111490760D02*
X167584120Y-111490760D01*
X169283380Y-112791240D02*
X169981880Y-112791240D01*
X167584120Y-112791240D02*
X168282620Y-112791240D01*
X169981880Y-112776000D02*
X169981880Y-111506000D01*
X167584120Y-111506000D02*
X167584120Y-112776000D01*
G04 #@! TO.C,C18*
X170957240Y-107688380D02*
X170957240Y-108386880D01*
X170957240Y-106687620D02*
X170957240Y-105989120D01*
X169656760Y-107688380D02*
X169656760Y-108386880D01*
X169656760Y-105989120D02*
X169656760Y-106687620D01*
X169672000Y-108386880D02*
X170942000Y-108386880D01*
X170942000Y-105989120D02*
X169672000Y-105989120D01*
G04 #@! TO.C,C17*
X167251380Y-103235760D02*
X167949880Y-103235760D01*
X166250620Y-103235760D02*
X165552120Y-103235760D01*
X167251380Y-104536240D02*
X167949880Y-104536240D01*
X165552120Y-104536240D02*
X166250620Y-104536240D01*
X167949880Y-104521000D02*
X167949880Y-103251000D01*
X165552120Y-103251000D02*
X165552120Y-104521000D01*
G04 #@! TO.C,C16*
X166092380Y-113172760D02*
X166790880Y-113172760D01*
X165091620Y-113172760D02*
X164393120Y-113172760D01*
X166092380Y-114473240D02*
X166790880Y-114473240D01*
X164393120Y-114473240D02*
X165091620Y-114473240D01*
X166790880Y-114458000D02*
X166790880Y-113188000D01*
X164393120Y-113188000D02*
X164393120Y-114458000D01*
G04 #@! TO.C,C15*
X161432240Y-104259380D02*
X161432240Y-104957880D01*
X161432240Y-103258620D02*
X161432240Y-102560120D01*
X160131760Y-104259380D02*
X160131760Y-104957880D01*
X160131760Y-102560120D02*
X160131760Y-103258620D01*
X160147000Y-104957880D02*
X161417000Y-104957880D01*
X161417000Y-102560120D02*
X160147000Y-102560120D01*
G04 #@! TO.C,C14*
X166250620Y-102885240D02*
X165552120Y-102885240D01*
X167251380Y-102885240D02*
X167949880Y-102885240D01*
X166250620Y-101584760D02*
X165552120Y-101584760D01*
X167949880Y-101584760D02*
X167251380Y-101584760D01*
X165552120Y-101600000D02*
X165552120Y-102870000D01*
X167949880Y-102870000D02*
X167949880Y-101600000D01*
G04 #@! TO.C,C7*
X160292380Y-91922760D02*
X160990880Y-91922760D01*
X159291620Y-91922760D02*
X158593120Y-91922760D01*
X160292380Y-93223240D02*
X160990880Y-93223240D01*
X158593120Y-93223240D02*
X159291620Y-93223240D01*
X160990880Y-93208000D02*
X160990880Y-91938000D01*
X158593120Y-91938000D02*
X158593120Y-93208000D01*
G04 #@! TO.C,C6*
X160292380Y-96472760D02*
X160990880Y-96472760D01*
X159291620Y-96472760D02*
X158593120Y-96472760D01*
X160292380Y-97773240D02*
X160990880Y-97773240D01*
X158593120Y-97773240D02*
X159291620Y-97773240D01*
X160990880Y-97758000D02*
X160990880Y-96488000D01*
X158593120Y-96488000D02*
X158593120Y-97758000D01*
G04 #@! TO.C,C5*
X160266380Y-98028760D02*
X160964880Y-98028760D01*
X159265620Y-98028760D02*
X158567120Y-98028760D01*
X160266380Y-99329240D02*
X160964880Y-99329240D01*
X158567120Y-99329240D02*
X159265620Y-99329240D01*
X160964880Y-99314000D02*
X160964880Y-98044000D01*
X158567120Y-98044000D02*
X158567120Y-99314000D01*
G04 #@! TO.C,C4*
X156725620Y-88661240D02*
X156027120Y-88661240D01*
X157726380Y-88661240D02*
X158424880Y-88661240D01*
X156725620Y-87360760D02*
X156027120Y-87360760D01*
X158424880Y-87360760D02*
X157726380Y-87360760D01*
X156027120Y-87376000D02*
X156027120Y-88646000D01*
X158424880Y-88646000D02*
X158424880Y-87376000D01*
G04 #@! TO.C,C3*
X161492389Y-118342967D02*
X160998475Y-117849053D01*
X162200033Y-119050611D02*
X162693947Y-119544525D01*
X162411967Y-117423389D02*
X161918053Y-116929475D01*
X163613525Y-118624947D02*
X163119611Y-118131033D01*
X161907277Y-116940251D02*
X161009251Y-117838277D01*
X162704723Y-119533749D02*
X163602749Y-118635723D01*
G04 #@! TO.C,C2*
X163329620Y-90566240D02*
X162631120Y-90566240D01*
X164330380Y-90566240D02*
X165028880Y-90566240D01*
X163329620Y-89265760D02*
X162631120Y-89265760D01*
X165028880Y-89265760D02*
X164330380Y-89265760D01*
X162631120Y-89281000D02*
X162631120Y-90551000D01*
X165028880Y-90551000D02*
X165028880Y-89281000D01*
G04 #@! TO.C,R30*
D18*
X232195914Y-94968362D02*
X232348314Y-94730086D01*
X232457171Y-94968362D02*
X232457171Y-94467982D01*
X232283000Y-94467982D01*
X232239457Y-94491810D01*
X232217685Y-94515637D01*
X232195914Y-94563292D01*
X232195914Y-94634775D01*
X232217685Y-94682430D01*
X232239457Y-94706258D01*
X232283000Y-94730086D01*
X232457171Y-94730086D01*
X232043514Y-94467982D02*
X231760485Y-94467982D01*
X231912885Y-94658603D01*
X231847571Y-94658603D01*
X231804028Y-94682430D01*
X231782257Y-94706258D01*
X231760485Y-94753913D01*
X231760485Y-94873051D01*
X231782257Y-94920707D01*
X231804028Y-94944534D01*
X231847571Y-94968362D01*
X231978200Y-94968362D01*
X232021742Y-94944534D01*
X232043514Y-94920707D01*
X231477457Y-94467982D02*
X231433914Y-94467982D01*
X231390371Y-94491810D01*
X231368600Y-94515637D01*
X231346828Y-94563292D01*
X231325057Y-94658603D01*
X231325057Y-94777741D01*
X231346828Y-94873051D01*
X231368600Y-94920707D01*
X231390371Y-94944534D01*
X231433914Y-94968362D01*
X231477457Y-94968362D01*
X231521000Y-94944534D01*
X231542771Y-94920707D01*
X231564542Y-94873051D01*
X231586314Y-94777741D01*
X231586314Y-94658603D01*
X231564542Y-94563292D01*
X231542771Y-94515637D01*
X231521000Y-94491810D01*
X231477457Y-94467982D01*
G04 #@! TO.C,R46*
X206197621Y-94997478D02*
X206350021Y-94759202D01*
X206458878Y-94997478D02*
X206458878Y-94497098D01*
X206284707Y-94497098D01*
X206241164Y-94520926D01*
X206219392Y-94544753D01*
X206197621Y-94592408D01*
X206197621Y-94663891D01*
X206219392Y-94711546D01*
X206241164Y-94735374D01*
X206284707Y-94759202D01*
X206458878Y-94759202D01*
X205805735Y-94663891D02*
X205805735Y-94997478D01*
X205914592Y-94473270D02*
X206023449Y-94830685D01*
X205740421Y-94830685D01*
X205370307Y-94497098D02*
X205457392Y-94497098D01*
X205500935Y-94520926D01*
X205522707Y-94544753D01*
X205566249Y-94616236D01*
X205588021Y-94711546D01*
X205588021Y-94902167D01*
X205566249Y-94949823D01*
X205544478Y-94973650D01*
X205500935Y-94997478D01*
X205413849Y-94997478D01*
X205370307Y-94973650D01*
X205348535Y-94949823D01*
X205326764Y-94902167D01*
X205326764Y-94783029D01*
X205348535Y-94735374D01*
X205370307Y-94711546D01*
X205413849Y-94687719D01*
X205500935Y-94687719D01*
X205544478Y-94711546D01*
X205566249Y-94735374D01*
X205588021Y-94783029D01*
G04 #@! TO.C,R43*
X207684914Y-93698362D02*
X207837314Y-93460086D01*
X207946171Y-93698362D02*
X207946171Y-93197982D01*
X207772000Y-93197982D01*
X207728457Y-93221810D01*
X207706685Y-93245637D01*
X207684914Y-93293292D01*
X207684914Y-93364775D01*
X207706685Y-93412430D01*
X207728457Y-93436258D01*
X207772000Y-93460086D01*
X207946171Y-93460086D01*
X207293028Y-93364775D02*
X207293028Y-93698362D01*
X207401885Y-93174154D02*
X207510742Y-93531569D01*
X207227714Y-93531569D01*
X207097085Y-93197982D02*
X206814057Y-93197982D01*
X206966457Y-93388603D01*
X206901142Y-93388603D01*
X206857600Y-93412430D01*
X206835828Y-93436258D01*
X206814057Y-93483913D01*
X206814057Y-93603051D01*
X206835828Y-93650707D01*
X206857600Y-93674534D01*
X206901142Y-93698362D01*
X207031771Y-93698362D01*
X207075314Y-93674534D01*
X207097085Y-93650707D01*
G04 #@! TO.C,R29*
X230671914Y-89888362D02*
X230824314Y-89650086D01*
X230933171Y-89888362D02*
X230933171Y-89387982D01*
X230759000Y-89387982D01*
X230715457Y-89411810D01*
X230693685Y-89435637D01*
X230671914Y-89483292D01*
X230671914Y-89554775D01*
X230693685Y-89602430D01*
X230715457Y-89626258D01*
X230759000Y-89650086D01*
X230933171Y-89650086D01*
X230497742Y-89435637D02*
X230475971Y-89411810D01*
X230432428Y-89387982D01*
X230323571Y-89387982D01*
X230280028Y-89411810D01*
X230258257Y-89435637D01*
X230236485Y-89483292D01*
X230236485Y-89530948D01*
X230258257Y-89602430D01*
X230519514Y-89888362D01*
X230236485Y-89888362D01*
X230018771Y-89888362D02*
X229931685Y-89888362D01*
X229888142Y-89864534D01*
X229866371Y-89840707D01*
X229822828Y-89769224D01*
X229801057Y-89673913D01*
X229801057Y-89483292D01*
X229822828Y-89435637D01*
X229844600Y-89411810D01*
X229888142Y-89387982D01*
X229975228Y-89387982D01*
X230018771Y-89411810D01*
X230040542Y-89435637D01*
X230062314Y-89483292D01*
X230062314Y-89602430D01*
X230040542Y-89650086D01*
X230018771Y-89673913D01*
X229975228Y-89697741D01*
X229888142Y-89697741D01*
X229844600Y-89673913D01*
X229822828Y-89650086D01*
X229801057Y-89602430D01*
G04 #@! TO.C,R35*
X224067914Y-93698362D02*
X224220314Y-93460086D01*
X224329171Y-93698362D02*
X224329171Y-93197982D01*
X224155000Y-93197982D01*
X224111457Y-93221810D01*
X224089685Y-93245637D01*
X224067914Y-93293292D01*
X224067914Y-93364775D01*
X224089685Y-93412430D01*
X224111457Y-93436258D01*
X224155000Y-93460086D01*
X224329171Y-93460086D01*
X223915514Y-93197982D02*
X223632485Y-93197982D01*
X223784885Y-93388603D01*
X223719571Y-93388603D01*
X223676028Y-93412430D01*
X223654257Y-93436258D01*
X223632485Y-93483913D01*
X223632485Y-93603051D01*
X223654257Y-93650707D01*
X223676028Y-93674534D01*
X223719571Y-93698362D01*
X223850200Y-93698362D01*
X223893742Y-93674534D01*
X223915514Y-93650707D01*
X223218828Y-93197982D02*
X223436542Y-93197982D01*
X223458314Y-93436258D01*
X223436542Y-93412430D01*
X223393000Y-93388603D01*
X223284142Y-93388603D01*
X223240600Y-93412430D01*
X223218828Y-93436258D01*
X223197057Y-93483913D01*
X223197057Y-93603051D01*
X223218828Y-93650707D01*
X223240600Y-93674534D01*
X223284142Y-93698362D01*
X223393000Y-93698362D01*
X223436542Y-93674534D01*
X223458314Y-93650707D01*
G04 #@! TO.C,R54*
D19*
X206973714Y-102035428D02*
X207481714Y-101309714D01*
X207844571Y-102035428D02*
X207844571Y-100511428D01*
X207264000Y-100511428D01*
X207118857Y-100584000D01*
X207046285Y-100656571D01*
X206973714Y-100801714D01*
X206973714Y-101019428D01*
X207046285Y-101164571D01*
X207118857Y-101237142D01*
X207264000Y-101309714D01*
X207844571Y-101309714D01*
X205594857Y-100511428D02*
X206320571Y-100511428D01*
X206393142Y-101237142D01*
X206320571Y-101164571D01*
X206175428Y-101092000D01*
X205812571Y-101092000D01*
X205667428Y-101164571D01*
X205594857Y-101237142D01*
X205522285Y-101382285D01*
X205522285Y-101745142D01*
X205594857Y-101890285D01*
X205667428Y-101962857D01*
X205812571Y-102035428D01*
X206175428Y-102035428D01*
X206320571Y-101962857D01*
X206393142Y-101890285D01*
X204216000Y-101019428D02*
X204216000Y-102035428D01*
X204578857Y-100438857D02*
X204941714Y-101527428D01*
X203998285Y-101527428D01*
G04 #@! TO.C,R53*
X222213714Y-102035428D02*
X222721714Y-101309714D01*
X223084571Y-102035428D02*
X223084571Y-100511428D01*
X222504000Y-100511428D01*
X222358857Y-100584000D01*
X222286285Y-100656571D01*
X222213714Y-100801714D01*
X222213714Y-101019428D01*
X222286285Y-101164571D01*
X222358857Y-101237142D01*
X222504000Y-101309714D01*
X223084571Y-101309714D01*
X220834857Y-100511428D02*
X221560571Y-100511428D01*
X221633142Y-101237142D01*
X221560571Y-101164571D01*
X221415428Y-101092000D01*
X221052571Y-101092000D01*
X220907428Y-101164571D01*
X220834857Y-101237142D01*
X220762285Y-101382285D01*
X220762285Y-101745142D01*
X220834857Y-101890285D01*
X220907428Y-101962857D01*
X221052571Y-102035428D01*
X221415428Y-102035428D01*
X221560571Y-101962857D01*
X221633142Y-101890285D01*
X220254285Y-100511428D02*
X219310857Y-100511428D01*
X219818857Y-101092000D01*
X219601142Y-101092000D01*
X219456000Y-101164571D01*
X219383428Y-101237142D01*
X219310857Y-101382285D01*
X219310857Y-101745142D01*
X219383428Y-101890285D01*
X219456000Y-101962857D01*
X219601142Y-102035428D01*
X220036571Y-102035428D01*
X220181714Y-101962857D01*
X220254285Y-101890285D01*
G04 #@! TO.C,R36*
D18*
X221019914Y-94968362D02*
X221172314Y-94730086D01*
X221281171Y-94968362D02*
X221281171Y-94467982D01*
X221107000Y-94467982D01*
X221063457Y-94491810D01*
X221041685Y-94515637D01*
X221019914Y-94563292D01*
X221019914Y-94634775D01*
X221041685Y-94682430D01*
X221063457Y-94706258D01*
X221107000Y-94730086D01*
X221281171Y-94730086D01*
X220867514Y-94467982D02*
X220584485Y-94467982D01*
X220736885Y-94658603D01*
X220671571Y-94658603D01*
X220628028Y-94682430D01*
X220606257Y-94706258D01*
X220584485Y-94753913D01*
X220584485Y-94873051D01*
X220606257Y-94920707D01*
X220628028Y-94944534D01*
X220671571Y-94968362D01*
X220802200Y-94968362D01*
X220845742Y-94944534D01*
X220867514Y-94920707D01*
X220192600Y-94467982D02*
X220279685Y-94467982D01*
X220323228Y-94491810D01*
X220345000Y-94515637D01*
X220388542Y-94587120D01*
X220410314Y-94682430D01*
X220410314Y-94873051D01*
X220388542Y-94920707D01*
X220366771Y-94944534D01*
X220323228Y-94968362D01*
X220236142Y-94968362D01*
X220192600Y-94944534D01*
X220170828Y-94920707D01*
X220149057Y-94873051D01*
X220149057Y-94753913D01*
X220170828Y-94706258D01*
X220192600Y-94682430D01*
X220236142Y-94658603D01*
X220323228Y-94658603D01*
X220366771Y-94682430D01*
X220388542Y-94706258D01*
X220410314Y-94753913D01*
G04 #@! TO.C,D4*
D12*
X181554380Y-90828904D02*
X180554380Y-90828904D01*
X180554380Y-91067000D01*
X180602000Y-91209857D01*
X180697238Y-91305095D01*
X180792476Y-91352714D01*
X180982952Y-91400333D01*
X181125809Y-91400333D01*
X181316285Y-91352714D01*
X181411523Y-91305095D01*
X181506761Y-91209857D01*
X181554380Y-91067000D01*
X181554380Y-90828904D01*
X180887714Y-92257476D02*
X181554380Y-92257476D01*
X180506761Y-92019380D02*
X181221047Y-91781285D01*
X181221047Y-92400333D01*
X181046380Y-95750095D02*
X180046380Y-95750095D01*
X181046380Y-96321523D02*
X180474952Y-95892952D01*
X180046380Y-96321523D02*
X180617809Y-95750095D01*
X179744666Y-88280904D02*
X179744666Y-88757095D01*
X180030380Y-88185666D02*
X179030380Y-88519000D01*
X180030380Y-88852333D01*
G04 #@! TO.C,D5*
D17*
X160690862Y-116216671D02*
X160190482Y-116216671D01*
X160190482Y-116335810D01*
X160214310Y-116407292D01*
X160261965Y-116454948D01*
X160309620Y-116478775D01*
X160404930Y-116502603D01*
X160476413Y-116502603D01*
X160571724Y-116478775D01*
X160619379Y-116454948D01*
X160667034Y-116407292D01*
X160690862Y-116335810D01*
X160690862Y-116216671D01*
X160190482Y-116955328D02*
X160190482Y-116717051D01*
X160428758Y-116693224D01*
X160404930Y-116717051D01*
X160381103Y-116764707D01*
X160381103Y-116883845D01*
X160404930Y-116931500D01*
X160428758Y-116955328D01*
X160476413Y-116979155D01*
X160595551Y-116979155D01*
X160643207Y-116955328D01*
X160667034Y-116931500D01*
X160690862Y-116883845D01*
X160690862Y-116764707D01*
X160667034Y-116717051D01*
X160643207Y-116693224D01*
G04 #@! TO.C,X2*
D20*
X155024714Y-106506142D02*
X155786714Y-107014142D01*
X155024714Y-107014142D02*
X155786714Y-106506142D01*
X155097285Y-107268142D02*
X155061000Y-107304428D01*
X155024714Y-107377000D01*
X155024714Y-107558428D01*
X155061000Y-107631000D01*
X155097285Y-107667285D01*
X155169857Y-107703571D01*
X155242428Y-107703571D01*
X155351285Y-107667285D01*
X155786714Y-107231857D01*
X155786714Y-107703571D01*
G04 #@! TO.C,C25*
D17*
X171247707Y-87689327D02*
X171271534Y-87665499D01*
X171295362Y-87594016D01*
X171295362Y-87546361D01*
X171271534Y-87474878D01*
X171223879Y-87427223D01*
X171176224Y-87403395D01*
X171080913Y-87379568D01*
X171009430Y-87379568D01*
X170914120Y-87403395D01*
X170866465Y-87427223D01*
X170818810Y-87474878D01*
X170794982Y-87546361D01*
X170794982Y-87594016D01*
X170818810Y-87665499D01*
X170842637Y-87689327D01*
X170842637Y-87879948D02*
X170818810Y-87903775D01*
X170794982Y-87951430D01*
X170794982Y-88070569D01*
X170818810Y-88118224D01*
X170842637Y-88142051D01*
X170890292Y-88165879D01*
X170937948Y-88165879D01*
X171009430Y-88142051D01*
X171295362Y-87856120D01*
X171295362Y-88165879D01*
X170794982Y-88618604D02*
X170794982Y-88380328D01*
X171033258Y-88356500D01*
X171009430Y-88380328D01*
X170985603Y-88427983D01*
X170985603Y-88547121D01*
X171009430Y-88594776D01*
X171033258Y-88618604D01*
X171080913Y-88642431D01*
X171200051Y-88642431D01*
X171247707Y-88618604D01*
X171271534Y-88594776D01*
X171295362Y-88547121D01*
X171295362Y-88427983D01*
X171271534Y-88380328D01*
X171247707Y-88356500D01*
G04 #@! TO.C,C33*
X177232672Y-88570707D02*
X177256500Y-88594534D01*
X177327983Y-88618362D01*
X177375638Y-88618362D01*
X177447121Y-88594534D01*
X177494776Y-88546879D01*
X177518604Y-88499224D01*
X177542431Y-88403913D01*
X177542431Y-88332430D01*
X177518604Y-88237120D01*
X177494776Y-88189465D01*
X177447121Y-88141810D01*
X177375638Y-88117982D01*
X177327983Y-88117982D01*
X177256500Y-88141810D01*
X177232672Y-88165637D01*
X177065879Y-88117982D02*
X176756120Y-88117982D01*
X176922913Y-88308603D01*
X176851430Y-88308603D01*
X176803775Y-88332430D01*
X176779948Y-88356258D01*
X176756120Y-88403913D01*
X176756120Y-88523051D01*
X176779948Y-88570707D01*
X176803775Y-88594534D01*
X176851430Y-88618362D01*
X176994396Y-88618362D01*
X177042051Y-88594534D01*
X177065879Y-88570707D01*
X176589327Y-88117982D02*
X176279568Y-88117982D01*
X176446361Y-88308603D01*
X176374878Y-88308603D01*
X176327223Y-88332430D01*
X176303395Y-88356258D01*
X176279568Y-88403913D01*
X176279568Y-88523051D01*
X176303395Y-88570707D01*
X176327223Y-88594534D01*
X176374878Y-88618362D01*
X176517844Y-88618362D01*
X176565499Y-88594534D01*
X176589327Y-88570707D01*
G04 #@! TO.C,C51*
X174913672Y-113901707D02*
X174937500Y-113925534D01*
X175008983Y-113949362D01*
X175056638Y-113949362D01*
X175128121Y-113925534D01*
X175175776Y-113877879D01*
X175199604Y-113830224D01*
X175223431Y-113734913D01*
X175223431Y-113663430D01*
X175199604Y-113568120D01*
X175175776Y-113520465D01*
X175128121Y-113472810D01*
X175056638Y-113448982D01*
X175008983Y-113448982D01*
X174937500Y-113472810D01*
X174913672Y-113496637D01*
X174460948Y-113448982D02*
X174699224Y-113448982D01*
X174723051Y-113687258D01*
X174699224Y-113663430D01*
X174651569Y-113639603D01*
X174532430Y-113639603D01*
X174484775Y-113663430D01*
X174460948Y-113687258D01*
X174437120Y-113734913D01*
X174437120Y-113854051D01*
X174460948Y-113901707D01*
X174484775Y-113925534D01*
X174532430Y-113949362D01*
X174651569Y-113949362D01*
X174699224Y-113925534D01*
X174723051Y-113901707D01*
X173960568Y-113949362D02*
X174246499Y-113949362D01*
X174103533Y-113949362D02*
X174103533Y-113448982D01*
X174151189Y-113520465D01*
X174198844Y-113568120D01*
X174246499Y-113591948D01*
G04 #@! TO.C,D1*
D10*
X170021809Y-117648047D02*
X169513809Y-117648047D01*
X169513809Y-117769000D01*
X169538000Y-117841571D01*
X169586380Y-117889952D01*
X169634761Y-117914142D01*
X169731523Y-117938333D01*
X169804095Y-117938333D01*
X169900857Y-117914142D01*
X169949238Y-117889952D01*
X169997619Y-117841571D01*
X170021809Y-117769000D01*
X170021809Y-117648047D01*
X170021809Y-118422142D02*
X170021809Y-118131857D01*
X170021809Y-118277000D02*
X169513809Y-118277000D01*
X169586380Y-118228619D01*
X169634761Y-118180238D01*
X169658952Y-118131857D01*
G04 #@! TO.C,D2*
X170011809Y-116335047D02*
X169503809Y-116335047D01*
X169503809Y-116456000D01*
X169528000Y-116528571D01*
X169576380Y-116576952D01*
X169624761Y-116601142D01*
X169721523Y-116625333D01*
X169794095Y-116625333D01*
X169890857Y-116601142D01*
X169939238Y-116576952D01*
X169987619Y-116528571D01*
X170011809Y-116456000D01*
X170011809Y-116335047D01*
X169552190Y-116818857D02*
X169528000Y-116843047D01*
X169503809Y-116891428D01*
X169503809Y-117012380D01*
X169528000Y-117060761D01*
X169552190Y-117084952D01*
X169600571Y-117109142D01*
X169648952Y-117109142D01*
X169721523Y-117084952D01*
X170011809Y-116794666D01*
X170011809Y-117109142D01*
G04 #@! TO.C,D3*
X170021809Y-114948047D02*
X169513809Y-114948047D01*
X169513809Y-115069000D01*
X169538000Y-115141571D01*
X169586380Y-115189952D01*
X169634761Y-115214142D01*
X169731523Y-115238333D01*
X169804095Y-115238333D01*
X169900857Y-115214142D01*
X169949238Y-115189952D01*
X169997619Y-115141571D01*
X170021809Y-115069000D01*
X170021809Y-114948047D01*
X169513809Y-115407666D02*
X169513809Y-115722142D01*
X169707333Y-115552809D01*
X169707333Y-115625380D01*
X169731523Y-115673761D01*
X169755714Y-115697952D01*
X169804095Y-115722142D01*
X169925047Y-115722142D01*
X169973428Y-115697952D01*
X169997619Y-115673761D01*
X170021809Y-115625380D01*
X170021809Y-115480238D01*
X169997619Y-115431857D01*
X169973428Y-115407666D01*
G04 #@! TO.C,C9*
X175659142Y-106680000D02*
X175695428Y-106643714D01*
X175731714Y-106534857D01*
X175731714Y-106462285D01*
X175695428Y-106353428D01*
X175622857Y-106280857D01*
X175550285Y-106244571D01*
X175405142Y-106208285D01*
X175296285Y-106208285D01*
X175151142Y-106244571D01*
X175078571Y-106280857D01*
X175006000Y-106353428D01*
X174969714Y-106462285D01*
X174969714Y-106534857D01*
X175006000Y-106643714D01*
X175042285Y-106680000D01*
X175731714Y-107042857D02*
X175731714Y-107188000D01*
X175695428Y-107260571D01*
X175659142Y-107296857D01*
X175550285Y-107369428D01*
X175405142Y-107405714D01*
X175114857Y-107405714D01*
X175042285Y-107369428D01*
X175006000Y-107333142D01*
X174969714Y-107260571D01*
X174969714Y-107115428D01*
X175006000Y-107042857D01*
X175042285Y-107006571D01*
X175114857Y-106970285D01*
X175296285Y-106970285D01*
X175368857Y-107006571D01*
X175405142Y-107042857D01*
X175441428Y-107115428D01*
X175441428Y-107260571D01*
X175405142Y-107333142D01*
X175368857Y-107369428D01*
X175296285Y-107405714D01*
G04 #@! TO.C,C40*
X180104142Y-109238142D02*
X180140428Y-109201857D01*
X180176714Y-109093000D01*
X180176714Y-109020428D01*
X180140428Y-108911571D01*
X180067857Y-108839000D01*
X179995285Y-108802714D01*
X179850142Y-108766428D01*
X179741285Y-108766428D01*
X179596142Y-108802714D01*
X179523571Y-108839000D01*
X179451000Y-108911571D01*
X179414714Y-109020428D01*
X179414714Y-109093000D01*
X179451000Y-109201857D01*
X179487285Y-109238142D01*
X179668714Y-109891285D02*
X180176714Y-109891285D01*
X179378428Y-109709857D02*
X179922714Y-109528428D01*
X179922714Y-110000142D01*
X179414714Y-110435571D02*
X179414714Y-110508142D01*
X179451000Y-110580714D01*
X179487285Y-110617000D01*
X179559857Y-110653285D01*
X179705000Y-110689571D01*
X179886428Y-110689571D01*
X180031571Y-110653285D01*
X180104142Y-110617000D01*
X180140428Y-110580714D01*
X180176714Y-110508142D01*
X180176714Y-110435571D01*
X180140428Y-110363000D01*
X180104142Y-110326714D01*
X180031571Y-110290428D01*
X179886428Y-110254142D01*
X179705000Y-110254142D01*
X179559857Y-110290428D01*
X179487285Y-110326714D01*
X179451000Y-110363000D01*
X179414714Y-110435571D01*
G04 #@! TO.C,C43*
X177818142Y-98697142D02*
X177854428Y-98660857D01*
X177890714Y-98552000D01*
X177890714Y-98479428D01*
X177854428Y-98370571D01*
X177781857Y-98298000D01*
X177709285Y-98261714D01*
X177564142Y-98225428D01*
X177455285Y-98225428D01*
X177310142Y-98261714D01*
X177237571Y-98298000D01*
X177165000Y-98370571D01*
X177128714Y-98479428D01*
X177128714Y-98552000D01*
X177165000Y-98660857D01*
X177201285Y-98697142D01*
X177382714Y-99350285D02*
X177890714Y-99350285D01*
X177092428Y-99168857D02*
X177636714Y-98987428D01*
X177636714Y-99459142D01*
X177128714Y-99676857D02*
X177128714Y-100148571D01*
X177419000Y-99894571D01*
X177419000Y-100003428D01*
X177455285Y-100076000D01*
X177491571Y-100112285D01*
X177564142Y-100148571D01*
X177745571Y-100148571D01*
X177818142Y-100112285D01*
X177854428Y-100076000D01*
X177890714Y-100003428D01*
X177890714Y-99785714D01*
X177854428Y-99713142D01*
X177818142Y-99676857D01*
G04 #@! TO.C,C44*
X177564142Y-104285142D02*
X177600428Y-104248857D01*
X177636714Y-104140000D01*
X177636714Y-104067428D01*
X177600428Y-103958571D01*
X177527857Y-103886000D01*
X177455285Y-103849714D01*
X177310142Y-103813428D01*
X177201285Y-103813428D01*
X177056142Y-103849714D01*
X176983571Y-103886000D01*
X176911000Y-103958571D01*
X176874714Y-104067428D01*
X176874714Y-104140000D01*
X176911000Y-104248857D01*
X176947285Y-104285142D01*
X177128714Y-104938285D02*
X177636714Y-104938285D01*
X176838428Y-104756857D02*
X177382714Y-104575428D01*
X177382714Y-105047142D01*
X177128714Y-105664000D02*
X177636714Y-105664000D01*
X176838428Y-105482571D02*
X177382714Y-105301142D01*
X177382714Y-105772857D01*
G04 #@! TO.C,C49*
X171341142Y-103777142D02*
X171377428Y-103740857D01*
X171413714Y-103632000D01*
X171413714Y-103559428D01*
X171377428Y-103450571D01*
X171304857Y-103378000D01*
X171232285Y-103341714D01*
X171087142Y-103305428D01*
X170978285Y-103305428D01*
X170833142Y-103341714D01*
X170760571Y-103378000D01*
X170688000Y-103450571D01*
X170651714Y-103559428D01*
X170651714Y-103632000D01*
X170688000Y-103740857D01*
X170724285Y-103777142D01*
X170905714Y-104430285D02*
X171413714Y-104430285D01*
X170615428Y-104248857D02*
X171159714Y-104067428D01*
X171159714Y-104539142D01*
X171413714Y-104865714D02*
X171413714Y-105010857D01*
X171377428Y-105083428D01*
X171341142Y-105119714D01*
X171232285Y-105192285D01*
X171087142Y-105228571D01*
X170796857Y-105228571D01*
X170724285Y-105192285D01*
X170688000Y-105156000D01*
X170651714Y-105083428D01*
X170651714Y-104938285D01*
X170688000Y-104865714D01*
X170724285Y-104829428D01*
X170796857Y-104793142D01*
X170978285Y-104793142D01*
X171050857Y-104829428D01*
X171087142Y-104865714D01*
X171123428Y-104938285D01*
X171123428Y-105083428D01*
X171087142Y-105156000D01*
X171050857Y-105192285D01*
X170978285Y-105228571D01*
G04 #@! TO.C,R3*
D18*
X164541200Y-92809362D02*
X164693600Y-92571086D01*
X164802457Y-92809362D02*
X164802457Y-92308982D01*
X164628285Y-92308982D01*
X164584742Y-92332810D01*
X164562971Y-92356637D01*
X164541200Y-92404292D01*
X164541200Y-92475775D01*
X164562971Y-92523430D01*
X164584742Y-92547258D01*
X164628285Y-92571086D01*
X164802457Y-92571086D01*
X164388800Y-92308982D02*
X164105771Y-92308982D01*
X164258171Y-92499603D01*
X164192857Y-92499603D01*
X164149314Y-92523430D01*
X164127542Y-92547258D01*
X164105771Y-92594913D01*
X164105771Y-92714051D01*
X164127542Y-92761707D01*
X164149314Y-92785534D01*
X164192857Y-92809362D01*
X164323485Y-92809362D01*
X164367028Y-92785534D01*
X164388800Y-92761707D01*
G04 #@! TO.C,R4*
X162128200Y-92809362D02*
X162280600Y-92571086D01*
X162389457Y-92809362D02*
X162389457Y-92308982D01*
X162215285Y-92308982D01*
X162171742Y-92332810D01*
X162149971Y-92356637D01*
X162128200Y-92404292D01*
X162128200Y-92475775D01*
X162149971Y-92523430D01*
X162171742Y-92547258D01*
X162215285Y-92571086D01*
X162389457Y-92571086D01*
X161736314Y-92475775D02*
X161736314Y-92809362D01*
X161845171Y-92285154D02*
X161954028Y-92642569D01*
X161671000Y-92642569D01*
G04 #@! TO.C,R5*
X157849362Y-112596800D02*
X157611086Y-112444400D01*
X157849362Y-112335542D02*
X157348982Y-112335542D01*
X157348982Y-112509714D01*
X157372810Y-112553257D01*
X157396637Y-112575028D01*
X157444292Y-112596800D01*
X157515775Y-112596800D01*
X157563430Y-112575028D01*
X157587258Y-112553257D01*
X157611086Y-112509714D01*
X157611086Y-112335542D01*
X157348982Y-113010457D02*
X157348982Y-112792742D01*
X157587258Y-112770971D01*
X157563430Y-112792742D01*
X157539603Y-112836285D01*
X157539603Y-112945142D01*
X157563430Y-112988685D01*
X157587258Y-113010457D01*
X157634913Y-113032228D01*
X157754051Y-113032228D01*
X157801707Y-113010457D01*
X157825534Y-112988685D01*
X157849362Y-112945142D01*
X157849362Y-112836285D01*
X157825534Y-112792742D01*
X157801707Y-112770971D01*
G04 #@! TO.C,R6*
X163802362Y-86918800D02*
X163564086Y-86766400D01*
X163802362Y-86657542D02*
X163301982Y-86657542D01*
X163301982Y-86831714D01*
X163325810Y-86875257D01*
X163349637Y-86897028D01*
X163397292Y-86918800D01*
X163468775Y-86918800D01*
X163516430Y-86897028D01*
X163540258Y-86875257D01*
X163564086Y-86831714D01*
X163564086Y-86657542D01*
X163301982Y-87310685D02*
X163301982Y-87223600D01*
X163325810Y-87180057D01*
X163349637Y-87158285D01*
X163421120Y-87114742D01*
X163516430Y-87092971D01*
X163707051Y-87092971D01*
X163754707Y-87114742D01*
X163778534Y-87136514D01*
X163802362Y-87180057D01*
X163802362Y-87267142D01*
X163778534Y-87310685D01*
X163754707Y-87332457D01*
X163707051Y-87354228D01*
X163587913Y-87354228D01*
X163540258Y-87332457D01*
X163516430Y-87310685D01*
X163492603Y-87267142D01*
X163492603Y-87180057D01*
X163516430Y-87136514D01*
X163540258Y-87114742D01*
X163587913Y-87092971D01*
G04 #@! TO.C,R7*
X155348637Y-89611200D02*
X155586913Y-89763600D01*
X155348637Y-89872457D02*
X155849017Y-89872457D01*
X155849017Y-89698285D01*
X155825190Y-89654742D01*
X155801362Y-89632971D01*
X155753707Y-89611200D01*
X155682224Y-89611200D01*
X155634569Y-89632971D01*
X155610741Y-89654742D01*
X155586913Y-89698285D01*
X155586913Y-89872457D01*
X155849017Y-89458800D02*
X155849017Y-89154000D01*
X155348637Y-89349942D01*
G04 #@! TO.C,R8*
X155348637Y-92659200D02*
X155586913Y-92811600D01*
X155348637Y-92920457D02*
X155849017Y-92920457D01*
X155849017Y-92746285D01*
X155825190Y-92702742D01*
X155801362Y-92680971D01*
X155753707Y-92659200D01*
X155682224Y-92659200D01*
X155634569Y-92680971D01*
X155610741Y-92702742D01*
X155586913Y-92746285D01*
X155586913Y-92920457D01*
X155634569Y-92397942D02*
X155658396Y-92441485D01*
X155682224Y-92463257D01*
X155729879Y-92485028D01*
X155753707Y-92485028D01*
X155801362Y-92463257D01*
X155825190Y-92441485D01*
X155849017Y-92397942D01*
X155849017Y-92310857D01*
X155825190Y-92267314D01*
X155801362Y-92245542D01*
X155753707Y-92223771D01*
X155729879Y-92223771D01*
X155682224Y-92245542D01*
X155658396Y-92267314D01*
X155634569Y-92310857D01*
X155634569Y-92397942D01*
X155610741Y-92441485D01*
X155586913Y-92463257D01*
X155539258Y-92485028D01*
X155443948Y-92485028D01*
X155396292Y-92463257D01*
X155372465Y-92441485D01*
X155348637Y-92397942D01*
X155348637Y-92310857D01*
X155372465Y-92267314D01*
X155396292Y-92245542D01*
X155443948Y-92223771D01*
X155539258Y-92223771D01*
X155586913Y-92245542D01*
X155610741Y-92267314D01*
X155634569Y-92310857D01*
G04 #@! TO.C,R9*
X155348637Y-95707200D02*
X155586913Y-95859600D01*
X155348637Y-95968457D02*
X155849017Y-95968457D01*
X155849017Y-95794285D01*
X155825190Y-95750742D01*
X155801362Y-95728971D01*
X155753707Y-95707200D01*
X155682224Y-95707200D01*
X155634569Y-95728971D01*
X155610741Y-95750742D01*
X155586913Y-95794285D01*
X155586913Y-95968457D01*
X155348637Y-95489485D02*
X155348637Y-95402400D01*
X155372465Y-95358857D01*
X155396292Y-95337085D01*
X155467775Y-95293542D01*
X155563086Y-95271771D01*
X155753707Y-95271771D01*
X155801362Y-95293542D01*
X155825190Y-95315314D01*
X155849017Y-95358857D01*
X155849017Y-95445942D01*
X155825190Y-95489485D01*
X155801362Y-95511257D01*
X155753707Y-95533028D01*
X155634569Y-95533028D01*
X155586913Y-95511257D01*
X155563086Y-95489485D01*
X155539258Y-95445942D01*
X155539258Y-95358857D01*
X155563086Y-95315314D01*
X155586913Y-95293542D01*
X155634569Y-95271771D01*
G04 #@! TO.C,R10*
X155348637Y-98972914D02*
X155586913Y-99125314D01*
X155348637Y-99234171D02*
X155849017Y-99234171D01*
X155849017Y-99060000D01*
X155825190Y-99016457D01*
X155801362Y-98994685D01*
X155753707Y-98972914D01*
X155682224Y-98972914D01*
X155634569Y-98994685D01*
X155610741Y-99016457D01*
X155586913Y-99060000D01*
X155586913Y-99234171D01*
X155348637Y-98537485D02*
X155348637Y-98798742D01*
X155348637Y-98668114D02*
X155849017Y-98668114D01*
X155777534Y-98711657D01*
X155729879Y-98755200D01*
X155706051Y-98798742D01*
X155849017Y-98254457D02*
X155849017Y-98210914D01*
X155825190Y-98167371D01*
X155801362Y-98145600D01*
X155753707Y-98123828D01*
X155658396Y-98102057D01*
X155539258Y-98102057D01*
X155443948Y-98123828D01*
X155396292Y-98145600D01*
X155372465Y-98167371D01*
X155348637Y-98210914D01*
X155348637Y-98254457D01*
X155372465Y-98298000D01*
X155396292Y-98319771D01*
X155443948Y-98341542D01*
X155539258Y-98363314D01*
X155658396Y-98363314D01*
X155753707Y-98341542D01*
X155801362Y-98319771D01*
X155825190Y-98298000D01*
X155849017Y-98254457D01*
G04 #@! TO.C,R11*
X155348637Y-97448914D02*
X155586913Y-97601314D01*
X155348637Y-97710171D02*
X155849017Y-97710171D01*
X155849017Y-97536000D01*
X155825190Y-97492457D01*
X155801362Y-97470685D01*
X155753707Y-97448914D01*
X155682224Y-97448914D01*
X155634569Y-97470685D01*
X155610741Y-97492457D01*
X155586913Y-97536000D01*
X155586913Y-97710171D01*
X155348637Y-97013485D02*
X155348637Y-97274742D01*
X155348637Y-97144114D02*
X155849017Y-97144114D01*
X155777534Y-97187657D01*
X155729879Y-97231200D01*
X155706051Y-97274742D01*
X155348637Y-96578057D02*
X155348637Y-96839314D01*
X155348637Y-96708685D02*
X155849017Y-96708685D01*
X155777534Y-96752228D01*
X155729879Y-96795771D01*
X155706051Y-96839314D01*
G04 #@! TO.C,R12*
X155348637Y-94400914D02*
X155586913Y-94553314D01*
X155348637Y-94662171D02*
X155849017Y-94662171D01*
X155849017Y-94488000D01*
X155825190Y-94444457D01*
X155801362Y-94422685D01*
X155753707Y-94400914D01*
X155682224Y-94400914D01*
X155634569Y-94422685D01*
X155610741Y-94444457D01*
X155586913Y-94488000D01*
X155586913Y-94662171D01*
X155348637Y-93965485D02*
X155348637Y-94226742D01*
X155348637Y-94096114D02*
X155849017Y-94096114D01*
X155777534Y-94139657D01*
X155729879Y-94183200D01*
X155706051Y-94226742D01*
X155801362Y-93791314D02*
X155825190Y-93769542D01*
X155849017Y-93726000D01*
X155849017Y-93617142D01*
X155825190Y-93573600D01*
X155801362Y-93551828D01*
X155753707Y-93530057D01*
X155706051Y-93530057D01*
X155634569Y-93551828D01*
X155348637Y-93813085D01*
X155348637Y-93530057D01*
G04 #@! TO.C,R13*
X155348637Y-91352914D02*
X155586913Y-91505314D01*
X155348637Y-91614171D02*
X155849017Y-91614171D01*
X155849017Y-91440000D01*
X155825190Y-91396457D01*
X155801362Y-91374685D01*
X155753707Y-91352914D01*
X155682224Y-91352914D01*
X155634569Y-91374685D01*
X155610741Y-91396457D01*
X155586913Y-91440000D01*
X155586913Y-91614171D01*
X155348637Y-90917485D02*
X155348637Y-91178742D01*
X155348637Y-91048114D02*
X155849017Y-91048114D01*
X155777534Y-91091657D01*
X155729879Y-91135200D01*
X155706051Y-91178742D01*
X155849017Y-90765085D02*
X155849017Y-90482057D01*
X155658396Y-90634457D01*
X155658396Y-90569142D01*
X155634569Y-90525600D01*
X155610741Y-90503828D01*
X155563086Y-90482057D01*
X155443948Y-90482057D01*
X155396292Y-90503828D01*
X155372465Y-90525600D01*
X155348637Y-90569142D01*
X155348637Y-90699771D01*
X155372465Y-90743314D01*
X155396292Y-90765085D01*
G04 #@! TO.C,R21*
X170243914Y-102318362D02*
X170396314Y-102080086D01*
X170505171Y-102318362D02*
X170505171Y-101817982D01*
X170331000Y-101817982D01*
X170287457Y-101841810D01*
X170265685Y-101865637D01*
X170243914Y-101913292D01*
X170243914Y-101984775D01*
X170265685Y-102032430D01*
X170287457Y-102056258D01*
X170331000Y-102080086D01*
X170505171Y-102080086D01*
X170069742Y-101865637D02*
X170047971Y-101841810D01*
X170004428Y-101817982D01*
X169895571Y-101817982D01*
X169852028Y-101841810D01*
X169830257Y-101865637D01*
X169808485Y-101913292D01*
X169808485Y-101960948D01*
X169830257Y-102032430D01*
X170091514Y-102318362D01*
X169808485Y-102318362D01*
X169373057Y-102318362D02*
X169634314Y-102318362D01*
X169503685Y-102318362D02*
X169503685Y-101817982D01*
X169547228Y-101889465D01*
X169590771Y-101937120D01*
X169634314Y-101960948D01*
G04 #@! TO.C,R22*
X163421362Y-115149085D02*
X163183086Y-114996685D01*
X163421362Y-114887828D02*
X162920982Y-114887828D01*
X162920982Y-115062000D01*
X162944810Y-115105542D01*
X162968637Y-115127314D01*
X163016292Y-115149085D01*
X163087775Y-115149085D01*
X163135430Y-115127314D01*
X163159258Y-115105542D01*
X163183086Y-115062000D01*
X163183086Y-114887828D01*
X162968637Y-115323257D02*
X162944810Y-115345028D01*
X162920982Y-115388571D01*
X162920982Y-115497428D01*
X162944810Y-115540971D01*
X162968637Y-115562742D01*
X163016292Y-115584514D01*
X163063948Y-115584514D01*
X163135430Y-115562742D01*
X163421362Y-115301485D01*
X163421362Y-115584514D01*
X162968637Y-115758685D02*
X162944810Y-115780457D01*
X162920982Y-115824000D01*
X162920982Y-115932857D01*
X162944810Y-115976400D01*
X162968637Y-115998171D01*
X163016292Y-116019942D01*
X163063948Y-116019942D01*
X163135430Y-115998171D01*
X163421362Y-115736914D01*
X163421362Y-116019942D01*
G04 #@! TO.C,R23*
X163385914Y-96349362D02*
X163538314Y-96111086D01*
X163647171Y-96349362D02*
X163647171Y-95848982D01*
X163473000Y-95848982D01*
X163429457Y-95872810D01*
X163407685Y-95896637D01*
X163385914Y-95944292D01*
X163385914Y-96015775D01*
X163407685Y-96063430D01*
X163429457Y-96087258D01*
X163473000Y-96111086D01*
X163647171Y-96111086D01*
X163211742Y-95896637D02*
X163189971Y-95872810D01*
X163146428Y-95848982D01*
X163037571Y-95848982D01*
X162994028Y-95872810D01*
X162972257Y-95896637D01*
X162950485Y-95944292D01*
X162950485Y-95991948D01*
X162972257Y-96063430D01*
X163233514Y-96349362D01*
X162950485Y-96349362D01*
X162798085Y-95848982D02*
X162515057Y-95848982D01*
X162667457Y-96039603D01*
X162602142Y-96039603D01*
X162558600Y-96063430D01*
X162536828Y-96087258D01*
X162515057Y-96134913D01*
X162515057Y-96254051D01*
X162536828Y-96301707D01*
X162558600Y-96325534D01*
X162602142Y-96349362D01*
X162732771Y-96349362D01*
X162776314Y-96325534D01*
X162798085Y-96301707D01*
G04 #@! TO.C,R24*
X163811914Y-97514362D02*
X163964314Y-97276086D01*
X164073171Y-97514362D02*
X164073171Y-97013982D01*
X163899000Y-97013982D01*
X163855457Y-97037810D01*
X163833685Y-97061637D01*
X163811914Y-97109292D01*
X163811914Y-97180775D01*
X163833685Y-97228430D01*
X163855457Y-97252258D01*
X163899000Y-97276086D01*
X164073171Y-97276086D01*
X163637742Y-97061637D02*
X163615971Y-97037810D01*
X163572428Y-97013982D01*
X163463571Y-97013982D01*
X163420028Y-97037810D01*
X163398257Y-97061637D01*
X163376485Y-97109292D01*
X163376485Y-97156948D01*
X163398257Y-97228430D01*
X163659514Y-97514362D01*
X163376485Y-97514362D01*
X162984600Y-97180775D02*
X162984600Y-97514362D01*
X163093457Y-96990154D02*
X163202314Y-97347569D01*
X162919285Y-97347569D01*
G04 #@! TO.C,R26*
X164909914Y-96349362D02*
X165062314Y-96111086D01*
X165171171Y-96349362D02*
X165171171Y-95848982D01*
X164997000Y-95848982D01*
X164953457Y-95872810D01*
X164931685Y-95896637D01*
X164909914Y-95944292D01*
X164909914Y-96015775D01*
X164931685Y-96063430D01*
X164953457Y-96087258D01*
X164997000Y-96111086D01*
X165171171Y-96111086D01*
X164735742Y-95896637D02*
X164713971Y-95872810D01*
X164670428Y-95848982D01*
X164561571Y-95848982D01*
X164518028Y-95872810D01*
X164496257Y-95896637D01*
X164474485Y-95944292D01*
X164474485Y-95991948D01*
X164496257Y-96063430D01*
X164757514Y-96349362D01*
X164474485Y-96349362D01*
X164082600Y-95848982D02*
X164169685Y-95848982D01*
X164213228Y-95872810D01*
X164235000Y-95896637D01*
X164278542Y-95968120D01*
X164300314Y-96063430D01*
X164300314Y-96254051D01*
X164278542Y-96301707D01*
X164256771Y-96325534D01*
X164213228Y-96349362D01*
X164126142Y-96349362D01*
X164082600Y-96325534D01*
X164060828Y-96301707D01*
X164039057Y-96254051D01*
X164039057Y-96134913D01*
X164060828Y-96087258D01*
X164082600Y-96063430D01*
X164126142Y-96039603D01*
X164213228Y-96039603D01*
X164256771Y-96063430D01*
X164278542Y-96087258D01*
X164300314Y-96134913D01*
G04 #@! TO.C,R27*
X165311914Y-97514362D02*
X165464314Y-97276086D01*
X165573171Y-97514362D02*
X165573171Y-97013982D01*
X165399000Y-97013982D01*
X165355457Y-97037810D01*
X165333685Y-97061637D01*
X165311914Y-97109292D01*
X165311914Y-97180775D01*
X165333685Y-97228430D01*
X165355457Y-97252258D01*
X165399000Y-97276086D01*
X165573171Y-97276086D01*
X165137742Y-97061637D02*
X165115971Y-97037810D01*
X165072428Y-97013982D01*
X164963571Y-97013982D01*
X164920028Y-97037810D01*
X164898257Y-97061637D01*
X164876485Y-97109292D01*
X164876485Y-97156948D01*
X164898257Y-97228430D01*
X165159514Y-97514362D01*
X164876485Y-97514362D01*
X164724085Y-97013982D02*
X164419285Y-97013982D01*
X164615228Y-97514362D01*
G04 #@! TO.C,R32*
X166459914Y-96334362D02*
X166612314Y-96096086D01*
X166721171Y-96334362D02*
X166721171Y-95833982D01*
X166547000Y-95833982D01*
X166503457Y-95857810D01*
X166481685Y-95881637D01*
X166459914Y-95929292D01*
X166459914Y-96000775D01*
X166481685Y-96048430D01*
X166503457Y-96072258D01*
X166547000Y-96096086D01*
X166721171Y-96096086D01*
X166307514Y-95833982D02*
X166024485Y-95833982D01*
X166176885Y-96024603D01*
X166111571Y-96024603D01*
X166068028Y-96048430D01*
X166046257Y-96072258D01*
X166024485Y-96119913D01*
X166024485Y-96239051D01*
X166046257Y-96286707D01*
X166068028Y-96310534D01*
X166111571Y-96334362D01*
X166242200Y-96334362D01*
X166285742Y-96310534D01*
X166307514Y-96286707D01*
X165850314Y-95881637D02*
X165828542Y-95857810D01*
X165785000Y-95833982D01*
X165676142Y-95833982D01*
X165632600Y-95857810D01*
X165610828Y-95881637D01*
X165589057Y-95929292D01*
X165589057Y-95976948D01*
X165610828Y-96048430D01*
X165872085Y-96334362D01*
X165589057Y-96334362D01*
G04 #@! TO.C,R33*
X166811914Y-97514362D02*
X166964314Y-97276086D01*
X167073171Y-97514362D02*
X167073171Y-97013982D01*
X166899000Y-97013982D01*
X166855457Y-97037810D01*
X166833685Y-97061637D01*
X166811914Y-97109292D01*
X166811914Y-97180775D01*
X166833685Y-97228430D01*
X166855457Y-97252258D01*
X166899000Y-97276086D01*
X167073171Y-97276086D01*
X166659514Y-97013982D02*
X166376485Y-97013982D01*
X166528885Y-97204603D01*
X166463571Y-97204603D01*
X166420028Y-97228430D01*
X166398257Y-97252258D01*
X166376485Y-97299913D01*
X166376485Y-97419051D01*
X166398257Y-97466707D01*
X166420028Y-97490534D01*
X166463571Y-97514362D01*
X166594200Y-97514362D01*
X166637742Y-97490534D01*
X166659514Y-97466707D01*
X166224085Y-97013982D02*
X165941057Y-97013982D01*
X166093457Y-97204603D01*
X166028142Y-97204603D01*
X165984600Y-97228430D01*
X165962828Y-97252258D01*
X165941057Y-97299913D01*
X165941057Y-97419051D01*
X165962828Y-97466707D01*
X165984600Y-97490534D01*
X166028142Y-97514362D01*
X166158771Y-97514362D01*
X166202314Y-97490534D01*
X166224085Y-97466707D01*
G04 #@! TO.C,R37*
X164183362Y-118053085D02*
X163945086Y-117900685D01*
X164183362Y-117791828D02*
X163682982Y-117791828D01*
X163682982Y-117966000D01*
X163706810Y-118009542D01*
X163730637Y-118031314D01*
X163778292Y-118053085D01*
X163849775Y-118053085D01*
X163897430Y-118031314D01*
X163921258Y-118009542D01*
X163945086Y-117966000D01*
X163945086Y-117791828D01*
X163682982Y-118205485D02*
X163682982Y-118488514D01*
X163873603Y-118336114D01*
X163873603Y-118401428D01*
X163897430Y-118444971D01*
X163921258Y-118466742D01*
X163968913Y-118488514D01*
X164088051Y-118488514D01*
X164135707Y-118466742D01*
X164159534Y-118444971D01*
X164183362Y-118401428D01*
X164183362Y-118270800D01*
X164159534Y-118227257D01*
X164135707Y-118205485D01*
X163682982Y-118640914D02*
X163682982Y-118945714D01*
X164183362Y-118749771D01*
G04 #@! TO.C,R38*
X164183362Y-116553085D02*
X163945086Y-116400685D01*
X164183362Y-116291828D02*
X163682982Y-116291828D01*
X163682982Y-116466000D01*
X163706810Y-116509542D01*
X163730637Y-116531314D01*
X163778292Y-116553085D01*
X163849775Y-116553085D01*
X163897430Y-116531314D01*
X163921258Y-116509542D01*
X163945086Y-116466000D01*
X163945086Y-116291828D01*
X163682982Y-116705485D02*
X163682982Y-116988514D01*
X163873603Y-116836114D01*
X163873603Y-116901428D01*
X163897430Y-116944971D01*
X163921258Y-116966742D01*
X163968913Y-116988514D01*
X164088051Y-116988514D01*
X164135707Y-116966742D01*
X164159534Y-116944971D01*
X164183362Y-116901428D01*
X164183362Y-116770800D01*
X164159534Y-116727257D01*
X164135707Y-116705485D01*
X163897430Y-117249771D02*
X163873603Y-117206228D01*
X163849775Y-117184457D01*
X163802120Y-117162685D01*
X163778292Y-117162685D01*
X163730637Y-117184457D01*
X163706810Y-117206228D01*
X163682982Y-117249771D01*
X163682982Y-117336857D01*
X163706810Y-117380400D01*
X163730637Y-117402171D01*
X163778292Y-117423942D01*
X163802120Y-117423942D01*
X163849775Y-117402171D01*
X163873603Y-117380400D01*
X163897430Y-117336857D01*
X163897430Y-117249771D01*
X163921258Y-117206228D01*
X163945086Y-117184457D01*
X163992741Y-117162685D01*
X164088051Y-117162685D01*
X164135707Y-117184457D01*
X164159534Y-117206228D01*
X164183362Y-117249771D01*
X164183362Y-117336857D01*
X164159534Y-117380400D01*
X164135707Y-117402171D01*
X164088051Y-117423942D01*
X163992741Y-117423942D01*
X163945086Y-117402171D01*
X163921258Y-117380400D01*
X163897430Y-117336857D01*
G04 #@! TO.C,R402*
X160150628Y-87221362D02*
X160303028Y-86983086D01*
X160411885Y-87221362D02*
X160411885Y-86720982D01*
X160237714Y-86720982D01*
X160194171Y-86744810D01*
X160172400Y-86768637D01*
X160150628Y-86816292D01*
X160150628Y-86887775D01*
X160172400Y-86935430D01*
X160194171Y-86959258D01*
X160237714Y-86983086D01*
X160411885Y-86983086D01*
X159758742Y-86887775D02*
X159758742Y-87221362D01*
X159867600Y-86697154D02*
X159976457Y-87054569D01*
X159693428Y-87054569D01*
X159432171Y-86720982D02*
X159388628Y-86720982D01*
X159345085Y-86744810D01*
X159323314Y-86768637D01*
X159301542Y-86816292D01*
X159279771Y-86911603D01*
X159279771Y-87030741D01*
X159301542Y-87126051D01*
X159323314Y-87173707D01*
X159345085Y-87197534D01*
X159388628Y-87221362D01*
X159432171Y-87221362D01*
X159475714Y-87197534D01*
X159497485Y-87173707D01*
X159519257Y-87126051D01*
X159541028Y-87030741D01*
X159541028Y-86911603D01*
X159519257Y-86816292D01*
X159497485Y-86768637D01*
X159475714Y-86744810D01*
X159432171Y-86720982D01*
X159105600Y-86768637D02*
X159083828Y-86744810D01*
X159040285Y-86720982D01*
X158931428Y-86720982D01*
X158887885Y-86744810D01*
X158866114Y-86768637D01*
X158844342Y-86816292D01*
X158844342Y-86863948D01*
X158866114Y-86935430D01*
X159127371Y-87221362D01*
X158844342Y-87221362D01*
G04 #@! TO.C,U2*
D16*
X170512619Y-94856904D02*
X171335095Y-94856904D01*
X171431857Y-94905285D01*
X171480238Y-94953666D01*
X171528619Y-95050428D01*
X171528619Y-95243952D01*
X171480238Y-95340714D01*
X171431857Y-95389095D01*
X171335095Y-95437476D01*
X170512619Y-95437476D01*
X170609380Y-95872904D02*
X170561000Y-95921285D01*
X170512619Y-96018047D01*
X170512619Y-96259952D01*
X170561000Y-96356714D01*
X170609380Y-96405095D01*
X170706142Y-96453476D01*
X170802904Y-96453476D01*
X170948047Y-96405095D01*
X171528619Y-95824523D01*
X171528619Y-96453476D01*
G04 #@! TO.C,C26*
D18*
X171873428Y-108929085D02*
X171897619Y-108907314D01*
X171921809Y-108842000D01*
X171921809Y-108798457D01*
X171897619Y-108733142D01*
X171849238Y-108689600D01*
X171800857Y-108667828D01*
X171704095Y-108646057D01*
X171631523Y-108646057D01*
X171534761Y-108667828D01*
X171486380Y-108689600D01*
X171438000Y-108733142D01*
X171413809Y-108798457D01*
X171413809Y-108842000D01*
X171438000Y-108907314D01*
X171462190Y-108929085D01*
X171462190Y-109103257D02*
X171438000Y-109125028D01*
X171413809Y-109168571D01*
X171413809Y-109277428D01*
X171438000Y-109320971D01*
X171462190Y-109342742D01*
X171510571Y-109364514D01*
X171558952Y-109364514D01*
X171631523Y-109342742D01*
X171921809Y-109081485D01*
X171921809Y-109364514D01*
X171413809Y-109756400D02*
X171413809Y-109669314D01*
X171438000Y-109625771D01*
X171462190Y-109604000D01*
X171534761Y-109560457D01*
X171631523Y-109538685D01*
X171825047Y-109538685D01*
X171873428Y-109560457D01*
X171897619Y-109582228D01*
X171921809Y-109625771D01*
X171921809Y-109712857D01*
X171897619Y-109756400D01*
X171873428Y-109778171D01*
X171825047Y-109799942D01*
X171704095Y-109799942D01*
X171655714Y-109778171D01*
X171631523Y-109756400D01*
X171607333Y-109712857D01*
X171607333Y-109625771D01*
X171631523Y-109582228D01*
X171655714Y-109560457D01*
X171704095Y-109538685D01*
G04 #@! TO.C,C52*
X170985914Y-113604428D02*
X171007685Y-113628619D01*
X171073000Y-113652809D01*
X171116542Y-113652809D01*
X171181857Y-113628619D01*
X171225400Y-113580238D01*
X171247171Y-113531857D01*
X171268942Y-113435095D01*
X171268942Y-113362523D01*
X171247171Y-113265761D01*
X171225400Y-113217380D01*
X171181857Y-113169000D01*
X171116542Y-113144809D01*
X171073000Y-113144809D01*
X171007685Y-113169000D01*
X170985914Y-113193190D01*
X170572257Y-113144809D02*
X170789971Y-113144809D01*
X170811742Y-113386714D01*
X170789971Y-113362523D01*
X170746428Y-113338333D01*
X170637571Y-113338333D01*
X170594028Y-113362523D01*
X170572257Y-113386714D01*
X170550485Y-113435095D01*
X170550485Y-113556047D01*
X170572257Y-113604428D01*
X170594028Y-113628619D01*
X170637571Y-113652809D01*
X170746428Y-113652809D01*
X170789971Y-113628619D01*
X170811742Y-113604428D01*
X170376314Y-113193190D02*
X170354542Y-113169000D01*
X170311000Y-113144809D01*
X170202142Y-113144809D01*
X170158600Y-113169000D01*
X170136828Y-113193190D01*
X170115057Y-113241571D01*
X170115057Y-113289952D01*
X170136828Y-113362523D01*
X170398085Y-113652809D01*
X170115057Y-113652809D01*
G04 #@! TO.C,C38*
X162106428Y-106259085D02*
X162130619Y-106237314D01*
X162154809Y-106172000D01*
X162154809Y-106128457D01*
X162130619Y-106063142D01*
X162082238Y-106019600D01*
X162033857Y-105997828D01*
X161937095Y-105976057D01*
X161864523Y-105976057D01*
X161767761Y-105997828D01*
X161719380Y-106019600D01*
X161671000Y-106063142D01*
X161646809Y-106128457D01*
X161646809Y-106172000D01*
X161671000Y-106237314D01*
X161695190Y-106259085D01*
X161646809Y-106411485D02*
X161646809Y-106694514D01*
X161840333Y-106542114D01*
X161840333Y-106607428D01*
X161864523Y-106650971D01*
X161888714Y-106672742D01*
X161937095Y-106694514D01*
X162058047Y-106694514D01*
X162106428Y-106672742D01*
X162130619Y-106650971D01*
X162154809Y-106607428D01*
X162154809Y-106476800D01*
X162130619Y-106433257D01*
X162106428Y-106411485D01*
X161864523Y-106955771D02*
X161840333Y-106912228D01*
X161816142Y-106890457D01*
X161767761Y-106868685D01*
X161743571Y-106868685D01*
X161695190Y-106890457D01*
X161671000Y-106912228D01*
X161646809Y-106955771D01*
X161646809Y-107042857D01*
X161671000Y-107086400D01*
X161695190Y-107108171D01*
X161743571Y-107129942D01*
X161767761Y-107129942D01*
X161816142Y-107108171D01*
X161840333Y-107086400D01*
X161864523Y-107042857D01*
X161864523Y-106955771D01*
X161888714Y-106912228D01*
X161912904Y-106890457D01*
X161961285Y-106868685D01*
X162058047Y-106868685D01*
X162106428Y-106890457D01*
X162130619Y-106912228D01*
X162154809Y-106955771D01*
X162154809Y-107042857D01*
X162130619Y-107086400D01*
X162106428Y-107108171D01*
X162058047Y-107129942D01*
X161961285Y-107129942D01*
X161912904Y-107108171D01*
X161888714Y-107086400D01*
X161864523Y-107042857D01*
G04 #@! TO.C,C32*
X157153428Y-100417085D02*
X157177619Y-100395314D01*
X157201809Y-100330000D01*
X157201809Y-100286457D01*
X157177619Y-100221142D01*
X157129238Y-100177600D01*
X157080857Y-100155828D01*
X156984095Y-100134057D01*
X156911523Y-100134057D01*
X156814761Y-100155828D01*
X156766380Y-100177600D01*
X156718000Y-100221142D01*
X156693809Y-100286457D01*
X156693809Y-100330000D01*
X156718000Y-100395314D01*
X156742190Y-100417085D01*
X156693809Y-100569485D02*
X156693809Y-100852514D01*
X156887333Y-100700114D01*
X156887333Y-100765428D01*
X156911523Y-100808971D01*
X156935714Y-100830742D01*
X156984095Y-100852514D01*
X157105047Y-100852514D01*
X157153428Y-100830742D01*
X157177619Y-100808971D01*
X157201809Y-100765428D01*
X157201809Y-100634800D01*
X157177619Y-100591257D01*
X157153428Y-100569485D01*
X156742190Y-101026685D02*
X156718000Y-101048457D01*
X156693809Y-101092000D01*
X156693809Y-101200857D01*
X156718000Y-101244400D01*
X156742190Y-101266171D01*
X156790571Y-101287942D01*
X156838952Y-101287942D01*
X156911523Y-101266171D01*
X157201809Y-101004914D01*
X157201809Y-101287942D01*
G04 #@! TO.C,C31*
X156772428Y-109942085D02*
X156796619Y-109920314D01*
X156820809Y-109855000D01*
X156820809Y-109811457D01*
X156796619Y-109746142D01*
X156748238Y-109702600D01*
X156699857Y-109680828D01*
X156603095Y-109659057D01*
X156530523Y-109659057D01*
X156433761Y-109680828D01*
X156385380Y-109702600D01*
X156337000Y-109746142D01*
X156312809Y-109811457D01*
X156312809Y-109855000D01*
X156337000Y-109920314D01*
X156361190Y-109942085D01*
X156312809Y-110094485D02*
X156312809Y-110377514D01*
X156506333Y-110225114D01*
X156506333Y-110290428D01*
X156530523Y-110333971D01*
X156554714Y-110355742D01*
X156603095Y-110377514D01*
X156724047Y-110377514D01*
X156772428Y-110355742D01*
X156796619Y-110333971D01*
X156820809Y-110290428D01*
X156820809Y-110159800D01*
X156796619Y-110116257D01*
X156772428Y-110094485D01*
X156820809Y-110812942D02*
X156820809Y-110551685D01*
X156820809Y-110682314D02*
X156312809Y-110682314D01*
X156385380Y-110638771D01*
X156433761Y-110595228D01*
X156457952Y-110551685D01*
G04 #@! TO.C,C24*
X168949914Y-92637428D02*
X168971685Y-92661619D01*
X169037000Y-92685809D01*
X169080542Y-92685809D01*
X169145857Y-92661619D01*
X169189400Y-92613238D01*
X169211171Y-92564857D01*
X169232942Y-92468095D01*
X169232942Y-92395523D01*
X169211171Y-92298761D01*
X169189400Y-92250380D01*
X169145857Y-92202000D01*
X169080542Y-92177809D01*
X169037000Y-92177809D01*
X168971685Y-92202000D01*
X168949914Y-92226190D01*
X168775742Y-92226190D02*
X168753971Y-92202000D01*
X168710428Y-92177809D01*
X168601571Y-92177809D01*
X168558028Y-92202000D01*
X168536257Y-92226190D01*
X168514485Y-92274571D01*
X168514485Y-92322952D01*
X168536257Y-92395523D01*
X168797514Y-92685809D01*
X168514485Y-92685809D01*
X168122600Y-92347142D02*
X168122600Y-92685809D01*
X168231457Y-92153619D02*
X168340314Y-92516476D01*
X168057285Y-92516476D01*
G04 #@! TO.C,C20*
X169085914Y-111204428D02*
X169107685Y-111228619D01*
X169173000Y-111252809D01*
X169216542Y-111252809D01*
X169281857Y-111228619D01*
X169325400Y-111180238D01*
X169347171Y-111131857D01*
X169368942Y-111035095D01*
X169368942Y-110962523D01*
X169347171Y-110865761D01*
X169325400Y-110817380D01*
X169281857Y-110769000D01*
X169216542Y-110744809D01*
X169173000Y-110744809D01*
X169107685Y-110769000D01*
X169085914Y-110793190D01*
X168911742Y-110793190D02*
X168889971Y-110769000D01*
X168846428Y-110744809D01*
X168737571Y-110744809D01*
X168694028Y-110769000D01*
X168672257Y-110793190D01*
X168650485Y-110841571D01*
X168650485Y-110889952D01*
X168672257Y-110962523D01*
X168933514Y-111252809D01*
X168650485Y-111252809D01*
X168367457Y-110744809D02*
X168323914Y-110744809D01*
X168280371Y-110769000D01*
X168258600Y-110793190D01*
X168236828Y-110841571D01*
X168215057Y-110938333D01*
X168215057Y-111059285D01*
X168236828Y-111156047D01*
X168258600Y-111204428D01*
X168280371Y-111228619D01*
X168323914Y-111252809D01*
X168367457Y-111252809D01*
X168411000Y-111228619D01*
X168432771Y-111204428D01*
X168454542Y-111156047D01*
X168476314Y-111059285D01*
X168476314Y-110938333D01*
X168454542Y-110841571D01*
X168432771Y-110793190D01*
X168411000Y-110769000D01*
X168367457Y-110744809D01*
G04 #@! TO.C,C18*
X169273428Y-107929085D02*
X169297619Y-107907314D01*
X169321809Y-107842000D01*
X169321809Y-107798457D01*
X169297619Y-107733142D01*
X169249238Y-107689600D01*
X169200857Y-107667828D01*
X169104095Y-107646057D01*
X169031523Y-107646057D01*
X168934761Y-107667828D01*
X168886380Y-107689600D01*
X168838000Y-107733142D01*
X168813809Y-107798457D01*
X168813809Y-107842000D01*
X168838000Y-107907314D01*
X168862190Y-107929085D01*
X169321809Y-108364514D02*
X169321809Y-108103257D01*
X169321809Y-108233885D02*
X168813809Y-108233885D01*
X168886380Y-108190342D01*
X168934761Y-108146800D01*
X168958952Y-108103257D01*
X169031523Y-108625771D02*
X169007333Y-108582228D01*
X168983142Y-108560457D01*
X168934761Y-108538685D01*
X168910571Y-108538685D01*
X168862190Y-108560457D01*
X168838000Y-108582228D01*
X168813809Y-108625771D01*
X168813809Y-108712857D01*
X168838000Y-108756400D01*
X168862190Y-108778171D01*
X168910571Y-108799942D01*
X168934761Y-108799942D01*
X168983142Y-108778171D01*
X169007333Y-108756400D01*
X169031523Y-108712857D01*
X169031523Y-108625771D01*
X169055714Y-108582228D01*
X169079904Y-108560457D01*
X169128285Y-108538685D01*
X169225047Y-108538685D01*
X169273428Y-108560457D01*
X169297619Y-108582228D01*
X169321809Y-108625771D01*
X169321809Y-108712857D01*
X169297619Y-108756400D01*
X169273428Y-108778171D01*
X169225047Y-108799942D01*
X169128285Y-108799942D01*
X169079904Y-108778171D01*
X169055714Y-108756400D01*
X169031523Y-108712857D01*
G04 #@! TO.C,C17*
X167044914Y-105210428D02*
X167066685Y-105234619D01*
X167132000Y-105258809D01*
X167175542Y-105258809D01*
X167240857Y-105234619D01*
X167284400Y-105186238D01*
X167306171Y-105137857D01*
X167327942Y-105041095D01*
X167327942Y-104968523D01*
X167306171Y-104871761D01*
X167284400Y-104823380D01*
X167240857Y-104775000D01*
X167175542Y-104750809D01*
X167132000Y-104750809D01*
X167066685Y-104775000D01*
X167044914Y-104799190D01*
X166609485Y-105258809D02*
X166870742Y-105258809D01*
X166740114Y-105258809D02*
X166740114Y-104750809D01*
X166783657Y-104823380D01*
X166827200Y-104871761D01*
X166870742Y-104895952D01*
X166457085Y-104750809D02*
X166152285Y-104750809D01*
X166348228Y-105258809D01*
G04 #@! TO.C,C16*
X165885914Y-115147428D02*
X165907685Y-115171619D01*
X165973000Y-115195809D01*
X166016542Y-115195809D01*
X166081857Y-115171619D01*
X166125400Y-115123238D01*
X166147171Y-115074857D01*
X166168942Y-114978095D01*
X166168942Y-114905523D01*
X166147171Y-114808761D01*
X166125400Y-114760380D01*
X166081857Y-114712000D01*
X166016542Y-114687809D01*
X165973000Y-114687809D01*
X165907685Y-114712000D01*
X165885914Y-114736190D01*
X165450485Y-115195809D02*
X165711742Y-115195809D01*
X165581114Y-115195809D02*
X165581114Y-114687809D01*
X165624657Y-114760380D01*
X165668200Y-114808761D01*
X165711742Y-114832952D01*
X165058600Y-114687809D02*
X165145685Y-114687809D01*
X165189228Y-114712000D01*
X165211000Y-114736190D01*
X165254542Y-114808761D01*
X165276314Y-114905523D01*
X165276314Y-115099047D01*
X165254542Y-115147428D01*
X165232771Y-115171619D01*
X165189228Y-115195809D01*
X165102142Y-115195809D01*
X165058600Y-115171619D01*
X165036828Y-115147428D01*
X165015057Y-115099047D01*
X165015057Y-114978095D01*
X165036828Y-114929714D01*
X165058600Y-114905523D01*
X165102142Y-114881333D01*
X165189228Y-114881333D01*
X165232771Y-114905523D01*
X165254542Y-114929714D01*
X165276314Y-114978095D01*
G04 #@! TO.C,C15*
X162073428Y-103429085D02*
X162097619Y-103407314D01*
X162121809Y-103342000D01*
X162121809Y-103298457D01*
X162097619Y-103233142D01*
X162049238Y-103189600D01*
X162000857Y-103167828D01*
X161904095Y-103146057D01*
X161831523Y-103146057D01*
X161734761Y-103167828D01*
X161686380Y-103189600D01*
X161638000Y-103233142D01*
X161613809Y-103298457D01*
X161613809Y-103342000D01*
X161638000Y-103407314D01*
X161662190Y-103429085D01*
X162121809Y-103864514D02*
X162121809Y-103603257D01*
X162121809Y-103733885D02*
X161613809Y-103733885D01*
X161686380Y-103690342D01*
X161734761Y-103646800D01*
X161758952Y-103603257D01*
X161613809Y-104278171D02*
X161613809Y-104060457D01*
X161855714Y-104038685D01*
X161831523Y-104060457D01*
X161807333Y-104104000D01*
X161807333Y-104212857D01*
X161831523Y-104256400D01*
X161855714Y-104278171D01*
X161904095Y-104299942D01*
X162025047Y-104299942D01*
X162073428Y-104278171D01*
X162097619Y-104256400D01*
X162121809Y-104212857D01*
X162121809Y-104104000D01*
X162097619Y-104060457D01*
X162073428Y-104038685D01*
G04 #@! TO.C,C14*
X167044914Y-101273428D02*
X167066685Y-101297619D01*
X167132000Y-101321809D01*
X167175542Y-101321809D01*
X167240857Y-101297619D01*
X167284400Y-101249238D01*
X167306171Y-101200857D01*
X167327942Y-101104095D01*
X167327942Y-101031523D01*
X167306171Y-100934761D01*
X167284400Y-100886380D01*
X167240857Y-100838000D01*
X167175542Y-100813809D01*
X167132000Y-100813809D01*
X167066685Y-100838000D01*
X167044914Y-100862190D01*
X166609485Y-101321809D02*
X166870742Y-101321809D01*
X166740114Y-101321809D02*
X166740114Y-100813809D01*
X166783657Y-100886380D01*
X166827200Y-100934761D01*
X166870742Y-100958952D01*
X166217600Y-100983142D02*
X166217600Y-101321809D01*
X166326457Y-100789619D02*
X166435314Y-101152476D01*
X166152285Y-101152476D01*
G04 #@! TO.C,C7*
X159868200Y-93897428D02*
X159889971Y-93921619D01*
X159955285Y-93945809D01*
X159998828Y-93945809D01*
X160064142Y-93921619D01*
X160107685Y-93873238D01*
X160129457Y-93824857D01*
X160151228Y-93728095D01*
X160151228Y-93655523D01*
X160129457Y-93558761D01*
X160107685Y-93510380D01*
X160064142Y-93462000D01*
X159998828Y-93437809D01*
X159955285Y-93437809D01*
X159889971Y-93462000D01*
X159868200Y-93486190D01*
X159715800Y-93437809D02*
X159411000Y-93437809D01*
X159606942Y-93945809D01*
G04 #@! TO.C,C6*
X161573428Y-97046800D02*
X161597619Y-97025028D01*
X161621809Y-96959714D01*
X161621809Y-96916171D01*
X161597619Y-96850857D01*
X161549238Y-96807314D01*
X161500857Y-96785542D01*
X161404095Y-96763771D01*
X161331523Y-96763771D01*
X161234761Y-96785542D01*
X161186380Y-96807314D01*
X161138000Y-96850857D01*
X161113809Y-96916171D01*
X161113809Y-96959714D01*
X161138000Y-97025028D01*
X161162190Y-97046800D01*
X161113809Y-97438685D02*
X161113809Y-97351600D01*
X161138000Y-97308057D01*
X161162190Y-97286285D01*
X161234761Y-97242742D01*
X161331523Y-97220971D01*
X161525047Y-97220971D01*
X161573428Y-97242742D01*
X161597619Y-97264514D01*
X161621809Y-97308057D01*
X161621809Y-97395142D01*
X161597619Y-97438685D01*
X161573428Y-97460457D01*
X161525047Y-97482228D01*
X161404095Y-97482228D01*
X161355714Y-97460457D01*
X161331523Y-97438685D01*
X161307333Y-97395142D01*
X161307333Y-97308057D01*
X161331523Y-97264514D01*
X161355714Y-97242742D01*
X161404095Y-97220971D01*
G04 #@! TO.C,C5*
X161573428Y-98646800D02*
X161597619Y-98625028D01*
X161621809Y-98559714D01*
X161621809Y-98516171D01*
X161597619Y-98450857D01*
X161549238Y-98407314D01*
X161500857Y-98385542D01*
X161404095Y-98363771D01*
X161331523Y-98363771D01*
X161234761Y-98385542D01*
X161186380Y-98407314D01*
X161138000Y-98450857D01*
X161113809Y-98516171D01*
X161113809Y-98559714D01*
X161138000Y-98625028D01*
X161162190Y-98646800D01*
X161113809Y-99060457D02*
X161113809Y-98842742D01*
X161355714Y-98820971D01*
X161331523Y-98842742D01*
X161307333Y-98886285D01*
X161307333Y-98995142D01*
X161331523Y-99038685D01*
X161355714Y-99060457D01*
X161404095Y-99082228D01*
X161525047Y-99082228D01*
X161573428Y-99060457D01*
X161597619Y-99038685D01*
X161621809Y-98995142D01*
X161621809Y-98886285D01*
X161597619Y-98842742D01*
X161573428Y-98820971D01*
G04 #@! TO.C,C4*
X155410571Y-88099200D02*
X155386380Y-88120971D01*
X155362190Y-88186285D01*
X155362190Y-88229828D01*
X155386380Y-88295142D01*
X155434761Y-88338685D01*
X155483142Y-88360457D01*
X155579904Y-88382228D01*
X155652476Y-88382228D01*
X155749238Y-88360457D01*
X155797619Y-88338685D01*
X155846000Y-88295142D01*
X155870190Y-88229828D01*
X155870190Y-88186285D01*
X155846000Y-88120971D01*
X155821809Y-88099200D01*
X155700857Y-87707314D02*
X155362190Y-87707314D01*
X155894380Y-87816171D02*
X155531523Y-87925028D01*
X155531523Y-87642000D01*
G04 #@! TO.C,C3*
X163039815Y-117610947D02*
X163038104Y-117643447D01*
X163067183Y-117706737D01*
X163097973Y-117737526D01*
X163161262Y-117766605D01*
X163226262Y-117763184D01*
X163275867Y-117744368D01*
X163359683Y-117691342D01*
X163410999Y-117640026D01*
X163464025Y-117556211D01*
X163482841Y-117506605D01*
X163486262Y-117441605D01*
X163457183Y-117378316D01*
X163426393Y-117347527D01*
X163363104Y-117318448D01*
X163330604Y-117320158D01*
X163257051Y-117178185D02*
X163056920Y-116978053D01*
X163027841Y-117222658D01*
X162981657Y-117176474D01*
X162933762Y-117162790D01*
X162901262Y-117164500D01*
X162851657Y-117183316D01*
X162766131Y-117268842D01*
X162747315Y-117318448D01*
X162745604Y-117350948D01*
X162759289Y-117398842D01*
X162851657Y-117491211D01*
X162899552Y-117504895D01*
X162932052Y-117503184D01*
G04 #@! TO.C,C2*
X164368200Y-89004428D02*
X164389971Y-89028619D01*
X164455285Y-89052809D01*
X164498828Y-89052809D01*
X164564142Y-89028619D01*
X164607685Y-88980238D01*
X164629457Y-88931857D01*
X164651228Y-88835095D01*
X164651228Y-88762523D01*
X164629457Y-88665761D01*
X164607685Y-88617380D01*
X164564142Y-88569000D01*
X164498828Y-88544809D01*
X164455285Y-88544809D01*
X164389971Y-88569000D01*
X164368200Y-88593190D01*
X164194028Y-88593190D02*
X164172257Y-88569000D01*
X164128714Y-88544809D01*
X164019857Y-88544809D01*
X163976314Y-88569000D01*
X163954542Y-88593190D01*
X163932771Y-88641571D01*
X163932771Y-88689952D01*
X163954542Y-88762523D01*
X164215800Y-89052809D01*
X163932771Y-89052809D01*
G04 #@! TD*
%LPC*%
D21*
G04 #@! TO.C,R30*
X231902000Y-92202000D03*
X231902000Y-93726000D03*
G04 #@! TD*
D22*
G04 #@! TO.C,1PIN*
X205994000Y-87630000D03*
G04 #@! TD*
G04 #@! TO.C,1PIN*
X221234000Y-87630000D03*
G04 #@! TD*
D21*
G04 #@! TO.C,R46*
X204343000Y-92202000D03*
X204343000Y-93726000D03*
G04 #@! TD*
D23*
G04 #@! TO.C,C46*
X225044000Y-114300000D03*
D24*
X232544000Y-114300000D03*
G04 #@! TD*
D25*
G04 #@! TO.C,R43*
X207518000Y-92202000D03*
X205994000Y-92202000D03*
G04 #@! TD*
D24*
G04 #@! TO.C,C45*
X217304000Y-114300000D03*
D23*
X209804000Y-114300000D03*
G04 #@! TD*
D21*
G04 #@! TO.C,R29*
X230378000Y-90678000D03*
X230378000Y-92202000D03*
G04 #@! TD*
D25*
G04 #@! TO.C,R35*
X223901000Y-92202000D03*
X222377000Y-92202000D03*
G04 #@! TD*
D24*
G04 #@! TO.C,C42*
X202064000Y-114300000D03*
D23*
X194564000Y-114300000D03*
G04 #@! TD*
D26*
G04 #@! TO.C,R54*
X202374500Y-103886000D03*
X202374500Y-98806000D03*
D27*
X206502000Y-103886000D03*
X206502000Y-98806000D03*
G04 #@! TD*
D26*
G04 #@! TO.C,R53*
X224853500Y-98806000D03*
X224853500Y-103886000D03*
D27*
X220726000Y-98806000D03*
X220726000Y-103886000D03*
G04 #@! TD*
D21*
G04 #@! TO.C,R36*
X220726000Y-92202000D03*
X220726000Y-93726000D03*
G04 #@! TD*
D28*
G04 #@! TO.C,D4*
X178562000Y-95717360D03*
X178562000Y-90718640D03*
G04 #@! TD*
D29*
G04 #@! TO.C,P1*
X154392000Y-92322240D03*
X154392000Y-94323760D03*
X154392000Y-96322740D03*
X154392000Y-98324260D03*
X154392000Y-90323260D03*
X154392000Y-88321740D03*
G04 #@! TD*
D30*
G04 #@! TO.C,P101*
X171863720Y-86673000D03*
D31*
X175866760Y-86673000D03*
X173865240Y-86673000D03*
X177865740Y-86673000D03*
G04 #@! TD*
D29*
G04 #@! TO.C,P2*
X165338760Y-120523000D03*
X163337240Y-120523000D03*
X161338260Y-120523000D03*
X159336740Y-120523000D03*
X167337740Y-120523000D03*
X169339260Y-120523000D03*
G04 #@! TD*
D32*
G04 #@! TO.C,D5*
X158496000Y-114856260D03*
X158496000Y-118315740D03*
G04 #@! TD*
D33*
G04 #@! TO.C,X2*
X156738320Y-103256080D03*
X159237680Y-103256080D03*
X159237680Y-107055920D03*
X156738320Y-107055920D03*
G04 #@! TD*
D34*
G04 #@! TO.C,K1*
X155194000Y-114935000D03*
X155194000Y-117475000D03*
X155194000Y-120015000D03*
G04 #@! TD*
D35*
G04 #@! TO.C,C25*
X169164000Y-89408000D03*
X169164000Y-86360000D03*
G04 #@! TD*
D36*
G04 #@! TO.C,C33*
X174816000Y-89223000D03*
X171768000Y-89223000D03*
G04 #@! TD*
D37*
G04 #@! TO.C,C51*
X171160440Y-116713000D03*
X176311560Y-116713000D03*
G04 #@! TD*
D38*
G04 #@! TO.C,D1*
X167652700Y-118110000D03*
X169151300Y-118110000D03*
G04 #@! TD*
G04 #@! TO.C,D2*
X167642700Y-116673000D03*
X169141300Y-116673000D03*
G04 #@! TD*
G04 #@! TO.C,D3*
X167642700Y-115273000D03*
X169141300Y-115273000D03*
G04 #@! TD*
D22*
G04 #@! TO.C,1PIN*
X149592000Y-120223000D03*
G04 #@! TD*
G04 #@! TO.C,1PIN*
X149592000Y-87723000D03*
G04 #@! TD*
D39*
G04 #@! TO.C,C9*
X175292000Y-108772000D03*
X175292000Y-112074000D03*
G04 #@! TD*
G04 #@! TO.C,C40*
X179832000Y-111760000D03*
X179832000Y-115062000D03*
G04 #@! TD*
G04 #@! TO.C,C43*
X179324000Y-98552000D03*
X179324000Y-101854000D03*
G04 #@! TD*
G04 #@! TO.C,C44*
X175387000Y-100711000D03*
X175387000Y-104013000D03*
G04 #@! TD*
G04 #@! TO.C,C49*
X172974000Y-100711000D03*
X172974000Y-104013000D03*
G04 #@! TD*
D25*
G04 #@! TO.C,R3*
X166254000Y-91423000D03*
X164730000Y-91423000D03*
G04 #@! TD*
G04 #@! TO.C,R4*
X161830000Y-91423000D03*
X163354000Y-91423000D03*
G04 #@! TD*
G04 #@! TO.C,R5*
X160020000Y-112649000D03*
X158496000Y-112649000D03*
G04 #@! TD*
D21*
G04 #@! TO.C,R6*
X162292000Y-87235000D03*
X162292000Y-85711000D03*
G04 #@! TD*
D25*
G04 #@! TO.C,R7*
X156464000Y-89535000D03*
X157988000Y-89535000D03*
G04 #@! TD*
G04 #@! TO.C,R8*
X156464000Y-92583000D03*
X157988000Y-92583000D03*
G04 #@! TD*
G04 #@! TO.C,R9*
X156464000Y-95631000D03*
X157988000Y-95631000D03*
G04 #@! TD*
G04 #@! TO.C,R10*
X156464000Y-98679000D03*
X157988000Y-98679000D03*
G04 #@! TD*
G04 #@! TO.C,R11*
X156464000Y-97155000D03*
X157988000Y-97155000D03*
G04 #@! TD*
G04 #@! TO.C,R12*
X156464000Y-94107000D03*
X157988000Y-94107000D03*
G04 #@! TD*
G04 #@! TO.C,R13*
X156464000Y-91059000D03*
X157988000Y-91059000D03*
G04 #@! TD*
D21*
G04 #@! TO.C,R21*
X169926000Y-99695000D03*
X169926000Y-101219000D03*
G04 #@! TD*
D25*
G04 #@! TO.C,R22*
X166354000Y-115323000D03*
X164830000Y-115323000D03*
G04 #@! TD*
D21*
G04 #@! TO.C,R23*
X163068000Y-93726000D03*
X163068000Y-95250000D03*
G04 #@! TD*
G04 #@! TO.C,R24*
X163542000Y-99685000D03*
X163542000Y-98161000D03*
G04 #@! TD*
G04 #@! TO.C,R26*
X164592000Y-93726000D03*
X164592000Y-95250000D03*
G04 #@! TD*
G04 #@! TO.C,R27*
X165042000Y-99685000D03*
X165042000Y-98161000D03*
G04 #@! TD*
G04 #@! TO.C,R32*
X166142000Y-93711000D03*
X166142000Y-95235000D03*
G04 #@! TD*
G04 #@! TO.C,R33*
X166542000Y-99685000D03*
X166542000Y-98161000D03*
G04 #@! TD*
D25*
G04 #@! TO.C,R37*
X166354000Y-118323000D03*
X164830000Y-118323000D03*
G04 #@! TD*
G04 #@! TO.C,R38*
X166354000Y-116823000D03*
X164830000Y-116823000D03*
G04 #@! TD*
D21*
G04 #@! TO.C,R402*
X159258000Y-89535000D03*
X159258000Y-88011000D03*
G04 #@! TD*
D40*
G04 #@! TO.C,U2*
X173228000Y-98425000D03*
D41*
X173228000Y-91821000D03*
X175514000Y-91821000D03*
X170942000Y-91821000D03*
G04 #@! TD*
D42*
G04 #@! TO.C,P3*
X173573440Y-120523000D03*
D43*
X177576480Y-120523000D03*
X175574960Y-120523000D03*
X179575460Y-120523000D03*
X181576980Y-120523000D03*
X183578500Y-120523000D03*
X185577480Y-120523000D03*
G04 #@! TD*
D21*
G04 #@! TO.C,C26*
X171704000Y-106426000D03*
X171704000Y-107950000D03*
G04 #@! TD*
D25*
G04 #@! TO.C,C52*
X168021000Y-113665000D03*
X169545000Y-113665000D03*
G04 #@! TD*
D21*
G04 #@! TO.C,C38*
X160782000Y-107315000D03*
X160782000Y-105791000D03*
G04 #@! TD*
G04 #@! TO.C,C32*
X155829000Y-101473000D03*
X155829000Y-99949000D03*
G04 #@! TD*
G04 #@! TO.C,C31*
X157734000Y-109474000D03*
X157734000Y-110998000D03*
G04 #@! TD*
D25*
G04 #@! TO.C,C24*
X167894000Y-91313000D03*
X169418000Y-91313000D03*
G04 #@! TD*
G04 #@! TO.C,C20*
X168021000Y-112141000D03*
X169545000Y-112141000D03*
G04 #@! TD*
D21*
G04 #@! TO.C,C18*
X170307000Y-106426000D03*
X170307000Y-107950000D03*
G04 #@! TD*
D25*
G04 #@! TO.C,C17*
X165989000Y-103886000D03*
X167513000Y-103886000D03*
G04 #@! TD*
G04 #@! TO.C,C16*
X164830000Y-113823000D03*
X166354000Y-113823000D03*
G04 #@! TD*
D21*
G04 #@! TO.C,C15*
X160782000Y-102997000D03*
X160782000Y-104521000D03*
G04 #@! TD*
D25*
G04 #@! TO.C,C14*
X167513000Y-102235000D03*
X165989000Y-102235000D03*
G04 #@! TD*
G04 #@! TO.C,C7*
X159030000Y-92573000D03*
X160554000Y-92573000D03*
G04 #@! TD*
G04 #@! TO.C,C6*
X159030000Y-97123000D03*
X160554000Y-97123000D03*
G04 #@! TD*
G04 #@! TO.C,C5*
X159004000Y-98679000D03*
X160528000Y-98679000D03*
G04 #@! TD*
G04 #@! TO.C,C4*
X157988000Y-88011000D03*
X156464000Y-88011000D03*
G04 #@! TD*
D44*
G04 #@! TO.C,C3*
X162844815Y-118775815D03*
D45*
G36*
X163473433Y-118596210D02*
X162665210Y-119404433D01*
X162216197Y-118955420D01*
X163024420Y-118147197D01*
X163473433Y-118596210D01*
X163473433Y-118596210D01*
G37*
D44*
X161767185Y-117698185D03*
D45*
G36*
X162395803Y-117518580D02*
X161587580Y-118326803D01*
X161138567Y-117877790D01*
X161946790Y-117069567D01*
X162395803Y-117518580D01*
X162395803Y-117518580D01*
G37*
G04 #@! TD*
D25*
G04 #@! TO.C,C2*
X164592000Y-89916000D03*
X163068000Y-89916000D03*
G04 #@! TD*
D46*
G04 #@! TO.C,X1*
X165957000Y-88900000D03*
X161957000Y-88900000D03*
G04 #@! TD*
M02*
