M48
;DRILL file {KiCad (5.0.0-3-g5ebb6b6)} date 2018 September 28, Friday 14:59:35
;FORMAT={3:3/ absolute / metric / suppress leading zeros}
FMAT,2
METRIC,TZ
T1C0.500
T2C0.800
T3C1.016
T4C1.200
T5C3.048
%
G90
G05
M71
T1
X153506Y-107823
X153506Y-109855
X154051Y-99695
X154305Y-113284
X154432Y-101854
X155449Y-112015
X155830Y-113424
X156005Y-104736
X157400Y-105598
X158242Y-103251
X158750Y-109093
X158861Y-105410
X158892Y-99828
X158915Y-95676
X158992Y-91123
X159004Y-110998
X159385Y-109855
X159893Y-94361
X159921Y-96478
X160274Y-118618
X160488Y-91151
X160655Y-109601
X160948Y-110534
X161036Y-115697
X161492Y-90123
X161940Y-94516
X161992Y-99073
X162179Y-102743
X162204Y-116072
X162222Y-100082
X163013Y-107696
X163039Y-99544
X163262Y-114510
X163292Y-88823
X163325Y-92723
X163342Y-97523
X163436Y-108712
X163449Y-104394
X163703Y-109855
X163792Y-85623
X163957Y-103124
X163957Y-106426
X164075Y-110866
X164107Y-115358
X164292Y-96423
X164942Y-105073
X164945Y-111314
X164973Y-106807
X164992Y-103573
X165100Y-97155
X165159Y-112268
X165192Y-102073
X165392Y-92523
X166333Y-111405
X166497Y-90123
X166497Y-92964
X166975Y-114040
X167005Y-97663
X167692Y-94323
X167992Y-97423
X168258Y-106355
X168529Y-103251
X168908Y-98046
X169037Y-107055
X169136Y-116005
X169291Y-104775
X170053Y-111760
X170180Y-109601
X171069Y-100838
X172192Y-97423
X172212Y-117094
X172792Y-95123
X173217Y-106728
X173228Y-108712
X173228Y-110109
X173228Y-111125
X173228Y-117094
X173355Y-107696
X173355Y-113284
X173542Y-102673
X173863Y-95123
X174117Y-105537
X174752Y-104775
X176403Y-109982
X176657Y-92202
X176657Y-97028
X176657Y-98171
X177546Y-102870
X178181Y-100203
X178181Y-117348
X178298Y-113274
X178308Y-105537
X178308Y-107696
X178347Y-108820
X178357Y-106665
X178370Y-109932
X180900Y-117273
X181102Y-106426
X181483Y-95377
X181864Y-96774
X182023Y-111606
X182499Y-108712
X184746Y-111514
X184804Y-110001
X185723Y-111487
X186817Y-114046
X186817Y-116078
X186817Y-117602
X189484Y-99060
X190373Y-97536
X192532Y-103124
X192532Y-107950
X194183Y-97917
X195834Y-92456
X195834Y-93472
X195834Y-94488
X195834Y-95504
X195834Y-96520
X196342Y-86106
X196342Y-87122
X196342Y-88138
X196342Y-89154
X196850Y-92456
X196850Y-93472
X196850Y-94488
X196850Y-95504
X196850Y-96520
X197358Y-86106
X197358Y-87122
X197358Y-88138
X197358Y-89154
X197866Y-92456
X197866Y-93472
X197866Y-94488
X197866Y-95504
X197866Y-96520
X198374Y-86106
X198374Y-87122
X198374Y-88138
X198374Y-89154
X198882Y-92456
X198882Y-93472
X198882Y-94488
X198882Y-95504
X198882Y-96520
X199390Y-86106
X199390Y-87122
X199390Y-88138
X199390Y-89154
X200406Y-86106
X200406Y-87122
X200406Y-88138
X200406Y-89154
X202438Y-92329
X202438Y-93726
X202438Y-94996
X202438Y-96266
X203708Y-106680
X203708Y-107696
X203708Y-108712
X203708Y-109728
X204724Y-106680
X204724Y-107696
X204724Y-108712
X204724Y-109728
X205740Y-106680
X205740Y-107696
X205740Y-108712
X205740Y-109728
X206756Y-106680
X206756Y-107696
X206756Y-108712
X206756Y-109728
X207772Y-106680
X207772Y-107696
X207772Y-108712
X207772Y-109728
X208661Y-92202
X211582Y-86106
X211582Y-87122
X211582Y-88138
X211582Y-89154
X211582Y-92202
X211582Y-93218
X211582Y-94234
X211582Y-95250
X211582Y-96266
X212598Y-86106
X212598Y-87122
X212598Y-88138
X212598Y-89154
X212598Y-92202
X212598Y-93218
X212598Y-94234
X212598Y-95250
X212598Y-96266
X213614Y-86106
X213614Y-87122
X213614Y-88138
X213614Y-89154
X213614Y-92202
X213614Y-93218
X213614Y-94234
X213614Y-95250
X213614Y-96266
X214630Y-86106
X214630Y-87122
X214630Y-88138
X214630Y-89154
X214630Y-92202
X214630Y-93218
X214630Y-94234
X214630Y-95250
X214630Y-96266
X215646Y-86106
X215646Y-87122
X215646Y-88138
X215646Y-89154
X218186Y-92329
X218186Y-93726
X218186Y-94996
X218186Y-96266
X218440Y-101162
X219456Y-106680
X219456Y-107696
X219456Y-108712
X219456Y-109728
X220472Y-106680
X220472Y-107696
X220472Y-108712
X220472Y-109728
X221488Y-106680
X221488Y-107696
X221488Y-108712
X221488Y-109728
X222504Y-106680
X222504Y-107696
X222504Y-108712
X222504Y-109728
X222685Y-100654
X222758Y-102038
X223520Y-106680
X223520Y-107696
X223520Y-108712
X223520Y-109728
X225029Y-92202
X226187Y-98171
X226314Y-92202
X226314Y-93218
X226314Y-94234
X226314Y-95250
X226314Y-96266
X226822Y-86106
X226822Y-87122
X226822Y-88138
X226822Y-89154
X227330Y-92202
X227330Y-93218
X227330Y-94234
X227330Y-95250
X227330Y-96266
X227838Y-86106
X227838Y-87122
X227838Y-88138
X227838Y-89154
X228346Y-92202
X228346Y-93218
X228346Y-94234
X228346Y-95250
X228346Y-96266
X228854Y-86106
X228854Y-87122
X228854Y-88138
X228854Y-89154
X229108Y-90678
X229362Y-93218
X229362Y-94234
X229362Y-95250
X229362Y-96266
X229870Y-86106
X229870Y-87122
X229870Y-88138
X229870Y-89154
X230886Y-86106
X230886Y-87122
X230886Y-88138
X230886Y-89154
X233172Y-92329
X233172Y-93726
X233172Y-94996
X233172Y-96266
T2
X171864Y-86673
X173865Y-86673
X175867Y-86673
X177866Y-86673
X154392Y-88322
X154392Y-90323
X154392Y-92322
X154392Y-94324
X154392Y-96323
X154392Y-98324
X173573Y-120523
X175575Y-120523
X177576Y-120523
X179575Y-120523
X181577Y-120523
X183579Y-120523
X185577Y-120523
X159337Y-120523
X161338Y-120523
X163337Y-120523
X165339Y-120523
X167338Y-120523
X169339Y-120523
T3
X155194Y-114935
X155194Y-117475
X155194Y-120015
T4
X209804Y-114300
X217304Y-114300
X194564Y-114300
X202064Y-114300
X225044Y-114300
X232544Y-114300
T5
X149592Y-120223
X221234Y-87630
X149592Y-87723
X205994Y-87630
T0
M30
