G04 #@! TF.GenerationSoftware,KiCad,Pcbnew,(5.0.0-3-g5ebb6b6)*
G04 #@! TF.CreationDate,2018-09-28T14:58:41+02:00*
G04 #@! TF.ProjectId,VESC-5,564553432D352E6B696361645F706362,A*
G04 #@! TF.SameCoordinates,Original*
G04 #@! TF.FileFunction,Legend,Top*
G04 #@! TF.FilePolarity,Positive*
%FSLAX46Y46*%
G04 Gerber Fmt 4.6, Leading zero omitted, Abs format (unit mm)*
G04 Created by KiCad (PCBNEW (5.0.0-3-g5ebb6b6)) date 2018 September 28, Friday 14:58:41*
%MOMM*%
%LPD*%
G01*
G04 APERTURE LIST*
%ADD10C,0.150000*%
%ADD11C,0.250000*%
%ADD12C,0.127000*%
%ADD13C,0.381000*%
%ADD14C,0.120000*%
%ADD15C,0.066040*%
%ADD16C,0.152400*%
%ADD17C,0.119380*%
%ADD18C,0.099060*%
%ADD19C,0.114300*%
%ADD20C,0.175000*%
%ADD21C,0.304800*%
%ADD22C,0.149860*%
%ADD23R,0.635000X1.143000*%
%ADD24C,4.064000*%
%ADD25R,2.400000X2.400000*%
%ADD26C,2.400000*%
%ADD27R,0.750000X1.000000*%
%ADD28R,5.550000X4.530000*%
%ADD29R,5.000000X4.000000*%
%ADD30R,4.530000X5.550000*%
%ADD31R,1.000000X0.750000*%
%ADD32C,1.300480*%
%ADD33R,1.198880X1.699260*%
%ADD34O,1.198880X1.699260*%
%ADD35O,3.048000X1.524000*%
%ADD36R,5.499100X1.849120*%
%ADD37R,7.498080X2.997200*%
%ADD38R,1.300480X0.300000*%
%ADD39R,0.300000X1.300480*%
%ADD40R,1.501140X0.299720*%
%ADD41R,3.599180X7.000240*%
%ADD42R,2.032000X1.524000*%
%ADD43R,1.524000X2.032000*%
%ADD44R,1.143000X0.635000*%
%ADD45R,0.599440X1.399540*%
%ADD46R,1.300000X1.300000*%
%ADD47C,1.300000*%
%ADD48C,0.635000*%
%ADD49C,0.100000*%
%ADD50R,0.500000X1.500000*%
%ADD51R,2.400000X2.200000*%
%ADD52R,2.000000X2.200000*%
%ADD53C,1.000000*%
%ADD54C,0.254000*%
G04 APERTURE END LIST*
D10*
X178477714Y-90551571D02*
X178763428Y-90551571D01*
X178792000Y-90265857D01*
X178763428Y-90294428D01*
X178706285Y-90323000D01*
X178563428Y-90323000D01*
X178506285Y-90294428D01*
X178477714Y-90265857D01*
X178449142Y-90208714D01*
X178449142Y-90065857D01*
X178477714Y-90008714D01*
X178506285Y-89980142D01*
X178563428Y-89951571D01*
X178706285Y-89951571D01*
X178763428Y-89980142D01*
X178792000Y-90008714D01*
X178249142Y-90351571D02*
X178106285Y-89951571D01*
X177963428Y-90351571D01*
X176892000Y-90008714D02*
X176920571Y-89980142D01*
X177006285Y-89951571D01*
X177063428Y-89951571D01*
X177149142Y-89980142D01*
X177206285Y-90037285D01*
X177234857Y-90094428D01*
X177263428Y-90208714D01*
X177263428Y-90294428D01*
X177234857Y-90408714D01*
X177206285Y-90465857D01*
X177149142Y-90523000D01*
X177063428Y-90551571D01*
X177006285Y-90551571D01*
X176920571Y-90523000D01*
X176892000Y-90494428D01*
X176663428Y-90123000D02*
X176377714Y-90123000D01*
X176720571Y-89951571D02*
X176520571Y-90551571D01*
X176320571Y-89951571D01*
X176120571Y-89951571D02*
X176120571Y-90551571D01*
X175777714Y-89951571D01*
X175777714Y-90551571D01*
X175492000Y-89951571D02*
X175492000Y-90551571D01*
X175492000Y-90265857D02*
X175149142Y-90265857D01*
X175149142Y-89951571D02*
X175149142Y-90551571D01*
X174020571Y-90008714D02*
X174049142Y-89980142D01*
X174134857Y-89951571D01*
X174192000Y-89951571D01*
X174277714Y-89980142D01*
X174334857Y-90037285D01*
X174363428Y-90094428D01*
X174392000Y-90208714D01*
X174392000Y-90294428D01*
X174363428Y-90408714D01*
X174334857Y-90465857D01*
X174277714Y-90523000D01*
X174192000Y-90551571D01*
X174134857Y-90551571D01*
X174049142Y-90523000D01*
X174020571Y-90494428D01*
X173792000Y-90123000D02*
X173506285Y-90123000D01*
X173849142Y-89951571D02*
X173649142Y-90551571D01*
X173449142Y-89951571D01*
X173249142Y-89951571D02*
X173249142Y-90551571D01*
X172906285Y-89951571D01*
X172906285Y-90551571D01*
X172334857Y-89951571D02*
X172620571Y-89951571D01*
X172620571Y-90551571D01*
X171549142Y-90523000D02*
X171606285Y-90551571D01*
X171692000Y-90551571D01*
X171777714Y-90523000D01*
X171834857Y-90465857D01*
X171863428Y-90408714D01*
X171892000Y-90294428D01*
X171892000Y-90208714D01*
X171863428Y-90094428D01*
X171834857Y-90037285D01*
X171777714Y-89980142D01*
X171692000Y-89951571D01*
X171634857Y-89951571D01*
X171549142Y-89980142D01*
X171520571Y-90008714D01*
X171520571Y-90208714D01*
X171634857Y-90208714D01*
X171263428Y-89951571D02*
X171263428Y-90551571D01*
X170920571Y-89951571D01*
X170920571Y-90551571D01*
X170634857Y-89951571D02*
X170634857Y-90551571D01*
X170492000Y-90551571D01*
X170406285Y-90523000D01*
X170349142Y-90465857D01*
X170320571Y-90408714D01*
X170292000Y-90294428D01*
X170292000Y-90208714D01*
X170320571Y-90094428D01*
X170349142Y-90037285D01*
X170406285Y-89980142D01*
X170492000Y-89951571D01*
X170634857Y-89951571D01*
D11*
X153666000Y-120911095D02*
X153713619Y-120815857D01*
X153713619Y-120673000D01*
X153666000Y-120530142D01*
X153570761Y-120434904D01*
X153475523Y-120387285D01*
X153285047Y-120339666D01*
X153142190Y-120339666D01*
X152951714Y-120387285D01*
X152856476Y-120434904D01*
X152761238Y-120530142D01*
X152713619Y-120673000D01*
X152713619Y-120768238D01*
X152761238Y-120911095D01*
X152808857Y-120958714D01*
X153142190Y-120958714D01*
X153142190Y-120768238D01*
X152713619Y-121387285D02*
X153713619Y-121387285D01*
X152713619Y-121958714D01*
X153713619Y-121958714D01*
X152713619Y-122434904D02*
X153713619Y-122434904D01*
X153713619Y-122673000D01*
X153666000Y-122815857D01*
X153570761Y-122911095D01*
X153475523Y-122958714D01*
X153285047Y-123006333D01*
X153142190Y-123006333D01*
X152951714Y-122958714D01*
X152856476Y-122911095D01*
X152761238Y-122815857D01*
X152713619Y-122673000D01*
X152713619Y-122434904D01*
D10*
X160040561Y-116260571D02*
X160134904Y-116308190D01*
X160166352Y-116355809D01*
X160197800Y-116451047D01*
X160197800Y-116593904D01*
X160166352Y-116689142D01*
X160134904Y-116736761D01*
X160072009Y-116784380D01*
X159820428Y-116784380D01*
X159820428Y-115784380D01*
X160040561Y-115784380D01*
X160103457Y-115832000D01*
X160134904Y-115879619D01*
X160166352Y-115974857D01*
X160166352Y-116070095D01*
X160134904Y-116165333D01*
X160103457Y-116212952D01*
X160040561Y-116260571D01*
X159820428Y-116260571D01*
X160732409Y-116736761D02*
X160669514Y-116784380D01*
X160543723Y-116784380D01*
X160480828Y-116736761D01*
X160449380Y-116641523D01*
X160449380Y-116260571D01*
X160480828Y-116165333D01*
X160543723Y-116117714D01*
X160669514Y-116117714D01*
X160732409Y-116165333D01*
X160763857Y-116260571D01*
X160763857Y-116355809D01*
X160449380Y-116451047D01*
X161046885Y-116117714D02*
X161046885Y-116784380D01*
X161046885Y-116212952D02*
X161078333Y-116165333D01*
X161141228Y-116117714D01*
X161235571Y-116117714D01*
X161298466Y-116165333D01*
X161329914Y-116260571D01*
X161329914Y-116784380D01*
X161644390Y-116117714D02*
X161644390Y-116974857D01*
X161612942Y-117070095D01*
X161550047Y-117117714D01*
X161518600Y-117117714D01*
X161644390Y-115784380D02*
X161612942Y-115832000D01*
X161644390Y-115879619D01*
X161675838Y-115832000D01*
X161644390Y-115784380D01*
X161644390Y-115879619D01*
X162241895Y-116784380D02*
X162241895Y-116260571D01*
X162210447Y-116165333D01*
X162147552Y-116117714D01*
X162021761Y-116117714D01*
X161958866Y-116165333D01*
X162241895Y-116736761D02*
X162179000Y-116784380D01*
X162021761Y-116784380D01*
X161958866Y-116736761D01*
X161927419Y-116641523D01*
X161927419Y-116546285D01*
X161958866Y-116451047D01*
X162021761Y-116403428D01*
X162179000Y-116403428D01*
X162241895Y-116355809D01*
X162556371Y-116784380D02*
X162556371Y-116117714D01*
X162556371Y-116212952D02*
X162587819Y-116165333D01*
X162650714Y-116117714D01*
X162745057Y-116117714D01*
X162807952Y-116165333D01*
X162839400Y-116260571D01*
X162839400Y-116784380D01*
X162839400Y-116260571D02*
X162870847Y-116165333D01*
X162933742Y-116117714D01*
X163028085Y-116117714D01*
X163090980Y-116165333D01*
X163122428Y-116260571D01*
X163122428Y-116784380D01*
X163436904Y-116784380D02*
X163436904Y-116117714D01*
X163436904Y-115784380D02*
X163405457Y-115832000D01*
X163436904Y-115879619D01*
X163468352Y-115832000D01*
X163436904Y-115784380D01*
X163436904Y-115879619D01*
X163751380Y-116117714D02*
X163751380Y-116784380D01*
X163751380Y-116212952D02*
X163782828Y-116165333D01*
X163845723Y-116117714D01*
X163940066Y-116117714D01*
X164002961Y-116165333D01*
X164034409Y-116260571D01*
X164034409Y-116784380D01*
X164757704Y-115784380D02*
X164977838Y-116784380D01*
X165197971Y-115784380D01*
X165669685Y-116736761D02*
X165606790Y-116784380D01*
X165481000Y-116784380D01*
X165418104Y-116736761D01*
X165386657Y-116641523D01*
X165386657Y-116260571D01*
X165418104Y-116165333D01*
X165481000Y-116117714D01*
X165606790Y-116117714D01*
X165669685Y-116165333D01*
X165701133Y-116260571D01*
X165701133Y-116355809D01*
X165386657Y-116451047D01*
X166267190Y-116784380D02*
X166267190Y-115784380D01*
X166267190Y-116736761D02*
X166204295Y-116784380D01*
X166078504Y-116784380D01*
X166015609Y-116736761D01*
X165984161Y-116689142D01*
X165952714Y-116593904D01*
X165952714Y-116308190D01*
X165984161Y-116212952D01*
X166015609Y-116165333D01*
X166078504Y-116117714D01*
X166204295Y-116117714D01*
X166267190Y-116165333D01*
X166864695Y-116784380D02*
X166864695Y-115784380D01*
X166864695Y-116736761D02*
X166801800Y-116784380D01*
X166676009Y-116784380D01*
X166613114Y-116736761D01*
X166581666Y-116689142D01*
X166550219Y-116593904D01*
X166550219Y-116308190D01*
X166581666Y-116212952D01*
X166613114Y-116165333D01*
X166676009Y-116117714D01*
X166801800Y-116117714D01*
X166864695Y-116165333D01*
X167430752Y-116736761D02*
X167367857Y-116784380D01*
X167242066Y-116784380D01*
X167179171Y-116736761D01*
X167147723Y-116641523D01*
X167147723Y-116260571D01*
X167179171Y-116165333D01*
X167242066Y-116117714D01*
X167367857Y-116117714D01*
X167430752Y-116165333D01*
X167462200Y-116260571D01*
X167462200Y-116355809D01*
X167147723Y-116451047D01*
X167745228Y-116784380D02*
X167745228Y-116117714D01*
X167745228Y-116308190D02*
X167776676Y-116212952D01*
X167808123Y-116165333D01*
X167871019Y-116117714D01*
X167933914Y-116117714D01*
X156845380Y-114260380D02*
X157112047Y-115260380D01*
X157378714Y-114260380D01*
X157645380Y-114736571D02*
X157912047Y-114736571D01*
X158026333Y-115260380D02*
X157645380Y-115260380D01*
X157645380Y-114260380D01*
X158026333Y-114260380D01*
X158331095Y-115212761D02*
X158445380Y-115260380D01*
X158635857Y-115260380D01*
X158712047Y-115212761D01*
X158750142Y-115165142D01*
X158788238Y-115069904D01*
X158788238Y-114974666D01*
X158750142Y-114879428D01*
X158712047Y-114831809D01*
X158635857Y-114784190D01*
X158483476Y-114736571D01*
X158407285Y-114688952D01*
X158369190Y-114641333D01*
X158331095Y-114546095D01*
X158331095Y-114450857D01*
X158369190Y-114355619D01*
X158407285Y-114308000D01*
X158483476Y-114260380D01*
X158673952Y-114260380D01*
X158788238Y-114308000D01*
X159588238Y-115165142D02*
X159550142Y-115212761D01*
X159435857Y-115260380D01*
X159359666Y-115260380D01*
X159245380Y-115212761D01*
X159169190Y-115117523D01*
X159131095Y-115022285D01*
X159093000Y-114831809D01*
X159093000Y-114688952D01*
X159131095Y-114498476D01*
X159169190Y-114403238D01*
X159245380Y-114308000D01*
X159359666Y-114260380D01*
X159435857Y-114260380D01*
X159550142Y-114308000D01*
X159588238Y-114355619D01*
X160883476Y-114593714D02*
X160883476Y-115260380D01*
X160693000Y-114212761D02*
X160502523Y-114927047D01*
X160997761Y-114927047D01*
X161302523Y-115165142D02*
X161340619Y-115212761D01*
X161302523Y-115260380D01*
X161264428Y-115212761D01*
X161302523Y-115165142D01*
X161302523Y-115260380D01*
X162102523Y-115260380D02*
X161645380Y-115260380D01*
X161873952Y-115260380D02*
X161873952Y-114260380D01*
X161797761Y-114403238D01*
X161721571Y-114498476D01*
X161645380Y-114546095D01*
X162407285Y-114355619D02*
X162445380Y-114308000D01*
X162521571Y-114260380D01*
X162712047Y-114260380D01*
X162788238Y-114308000D01*
X162826333Y-114355619D01*
X162864428Y-114450857D01*
X162864428Y-114546095D01*
X162826333Y-114688952D01*
X162369190Y-115260380D01*
X162864428Y-115260380D01*
D12*
G04 #@! TO.C,R34*
X190944500Y-99885500D02*
X191650620Y-99885500D01*
X190944500Y-101282500D02*
X190944500Y-99885500D01*
X190944500Y-101282500D02*
X191650620Y-101282500D01*
X193357500Y-99885500D02*
X192651380Y-99885500D01*
X193357500Y-101282500D02*
X193357500Y-99885500D01*
X192651380Y-101282500D02*
X193357500Y-101282500D01*
G04 #@! TO.C,R28*
X190944500Y-96837500D02*
X191650620Y-96837500D01*
X190944500Y-98234500D02*
X190944500Y-96837500D01*
X190944500Y-98234500D02*
X191650620Y-98234500D01*
X193357500Y-96837500D02*
X192651380Y-96837500D01*
X193357500Y-98234500D02*
X193357500Y-96837500D01*
X192651380Y-98234500D02*
X193357500Y-98234500D01*
D13*
G04 #@! TO.C,1PIN*
X208280000Y-87630000D02*
G75*
G03X208280000Y-87630000I-2286000J0D01*
G01*
X223520000Y-87630000D02*
G75*
G03X223520000Y-87630000I-2286000J0D01*
G01*
D12*
G04 #@! TO.C,R42*
X190817500Y-98361500D02*
X191523620Y-98361500D01*
X190817500Y-99758500D02*
X190817500Y-98361500D01*
X190817500Y-99758500D02*
X191523620Y-99758500D01*
X193230500Y-98361500D02*
X192524380Y-98361500D01*
X193230500Y-99758500D02*
X193230500Y-98361500D01*
X192524380Y-99758500D02*
X193230500Y-99758500D01*
D14*
G04 #@! TO.C,C46*
X235164000Y-114300000D02*
G75*
G03X235164000Y-114300000I-6370000J0D01*
G01*
X228794000Y-107970000D02*
X228794000Y-120630000D01*
X228834000Y-107970000D02*
X228834000Y-120630000D01*
X228874000Y-107970000D02*
X228874000Y-120630000D01*
X228914000Y-107971000D02*
X228914000Y-120629000D01*
X228954000Y-107972000D02*
X228954000Y-120628000D01*
X228994000Y-107973000D02*
X228994000Y-120627000D01*
X229034000Y-107974000D02*
X229034000Y-120626000D01*
X229074000Y-107976000D02*
X229074000Y-120624000D01*
X229114000Y-107978000D02*
X229114000Y-120622000D01*
X229154000Y-107980000D02*
X229154000Y-120620000D01*
X229194000Y-107982000D02*
X229194000Y-120618000D01*
X229234000Y-107985000D02*
X229234000Y-120615000D01*
X229274000Y-107988000D02*
X229274000Y-120612000D01*
X229314000Y-107991000D02*
X229314000Y-120609000D01*
X229354000Y-107994000D02*
X229354000Y-120606000D01*
X229394000Y-107998000D02*
X229394000Y-120602000D01*
X229434000Y-108002000D02*
X229434000Y-120598000D01*
X229474000Y-108006000D02*
X229474000Y-120594000D01*
X229515000Y-108010000D02*
X229515000Y-120590000D01*
X229555000Y-108015000D02*
X229555000Y-120585000D01*
X229595000Y-108020000D02*
X229595000Y-120580000D01*
X229635000Y-108025000D02*
X229635000Y-120575000D01*
X229675000Y-108031000D02*
X229675000Y-120569000D01*
X229715000Y-108036000D02*
X229715000Y-120564000D01*
X229755000Y-108042000D02*
X229755000Y-120558000D01*
X229795000Y-108048000D02*
X229795000Y-120552000D01*
X229835000Y-108055000D02*
X229835000Y-120545000D01*
X229875000Y-108062000D02*
X229875000Y-120538000D01*
X229915000Y-108069000D02*
X229915000Y-120531000D01*
X229955000Y-108076000D02*
X229955000Y-120524000D01*
X229995000Y-108084000D02*
X229995000Y-120516000D01*
X230035000Y-108091000D02*
X230035000Y-120509000D01*
X230075000Y-108099000D02*
X230075000Y-120501000D01*
X230115000Y-108108000D02*
X230115000Y-120492000D01*
X230155000Y-108116000D02*
X230155000Y-120484000D01*
X230195000Y-108125000D02*
X230195000Y-120475000D01*
X230235000Y-108134000D02*
X230235000Y-120466000D01*
X230275000Y-108144000D02*
X230275000Y-120456000D01*
X230315000Y-108154000D02*
X230315000Y-120446000D01*
X230355000Y-108163000D02*
X230355000Y-120437000D01*
X230395000Y-108174000D02*
X230395000Y-120426000D01*
X230435000Y-108184000D02*
X230435000Y-120416000D01*
X230475000Y-108195000D02*
X230475000Y-120405000D01*
X230515000Y-108206000D02*
X230515000Y-120394000D01*
X230555000Y-108217000D02*
X230555000Y-120383000D01*
X230595000Y-108229000D02*
X230595000Y-120371000D01*
X230635000Y-108241000D02*
X230635000Y-120359000D01*
X230675000Y-108253000D02*
X230675000Y-120347000D01*
X230715000Y-108266000D02*
X230715000Y-120334000D01*
X230755000Y-108279000D02*
X230755000Y-120321000D01*
X230795000Y-108292000D02*
X230795000Y-120308000D01*
X230835000Y-108305000D02*
X230835000Y-120295000D01*
X230875000Y-108319000D02*
X230875000Y-120281000D01*
X230915000Y-108333000D02*
X230915000Y-120267000D01*
X230955000Y-108347000D02*
X230955000Y-120253000D01*
X230995000Y-108361000D02*
X230995000Y-120239000D01*
X231035000Y-108376000D02*
X231035000Y-120224000D01*
X231075000Y-108392000D02*
X231075000Y-120208000D01*
X231115000Y-108407000D02*
X231115000Y-112860000D01*
X231115000Y-115740000D02*
X231115000Y-120193000D01*
X231155000Y-108423000D02*
X231155000Y-112860000D01*
X231155000Y-115740000D02*
X231155000Y-120177000D01*
X231195000Y-108439000D02*
X231195000Y-112860000D01*
X231195000Y-115740000D02*
X231195000Y-120161000D01*
X231235000Y-108455000D02*
X231235000Y-112860000D01*
X231235000Y-115740000D02*
X231235000Y-120145000D01*
X231275000Y-108472000D02*
X231275000Y-112860000D01*
X231275000Y-115740000D02*
X231275000Y-120128000D01*
X231315000Y-108489000D02*
X231315000Y-112860000D01*
X231315000Y-115740000D02*
X231315000Y-120111000D01*
X231355000Y-108507000D02*
X231355000Y-112860000D01*
X231355000Y-115740000D02*
X231355000Y-120093000D01*
X231395000Y-108524000D02*
X231395000Y-112860000D01*
X231395000Y-115740000D02*
X231395000Y-120076000D01*
X231435000Y-108542000D02*
X231435000Y-112860000D01*
X231435000Y-115740000D02*
X231435000Y-120058000D01*
X231475000Y-108561000D02*
X231475000Y-112860000D01*
X231475000Y-115740000D02*
X231475000Y-120039000D01*
X231515000Y-108579000D02*
X231515000Y-112860000D01*
X231515000Y-115740000D02*
X231515000Y-120021000D01*
X231555000Y-108598000D02*
X231555000Y-112860000D01*
X231555000Y-115740000D02*
X231555000Y-120002000D01*
X231595000Y-108618000D02*
X231595000Y-112860000D01*
X231595000Y-115740000D02*
X231595000Y-119982000D01*
X231635000Y-108638000D02*
X231635000Y-112860000D01*
X231635000Y-115740000D02*
X231635000Y-119962000D01*
X231675000Y-108658000D02*
X231675000Y-112860000D01*
X231675000Y-115740000D02*
X231675000Y-119942000D01*
X231715000Y-108678000D02*
X231715000Y-112860000D01*
X231715000Y-115740000D02*
X231715000Y-119922000D01*
X231755000Y-108699000D02*
X231755000Y-112860000D01*
X231755000Y-115740000D02*
X231755000Y-119901000D01*
X231795000Y-108720000D02*
X231795000Y-112860000D01*
X231795000Y-115740000D02*
X231795000Y-119880000D01*
X231835000Y-108742000D02*
X231835000Y-112860000D01*
X231835000Y-115740000D02*
X231835000Y-119858000D01*
X231875000Y-108764000D02*
X231875000Y-112860000D01*
X231875000Y-115740000D02*
X231875000Y-119836000D01*
X231915000Y-108786000D02*
X231915000Y-112860000D01*
X231915000Y-115740000D02*
X231915000Y-119814000D01*
X231955000Y-108809000D02*
X231955000Y-112860000D01*
X231955000Y-115740000D02*
X231955000Y-119791000D01*
X231995000Y-108832000D02*
X231995000Y-112860000D01*
X231995000Y-115740000D02*
X231995000Y-119768000D01*
X232035000Y-108855000D02*
X232035000Y-112860000D01*
X232035000Y-115740000D02*
X232035000Y-119745000D01*
X232075000Y-108879000D02*
X232075000Y-112860000D01*
X232075000Y-115740000D02*
X232075000Y-119721000D01*
X232115000Y-108903000D02*
X232115000Y-112860000D01*
X232115000Y-115740000D02*
X232115000Y-119697000D01*
X232155000Y-108928000D02*
X232155000Y-112860000D01*
X232155000Y-115740000D02*
X232155000Y-119672000D01*
X232195000Y-108953000D02*
X232195000Y-112860000D01*
X232195000Y-115740000D02*
X232195000Y-119647000D01*
X232235000Y-108978000D02*
X232235000Y-112860000D01*
X232235000Y-115740000D02*
X232235000Y-119622000D01*
X232275000Y-109004000D02*
X232275000Y-112860000D01*
X232275000Y-115740000D02*
X232275000Y-119596000D01*
X232315000Y-109030000D02*
X232315000Y-112860000D01*
X232315000Y-115740000D02*
X232315000Y-119570000D01*
X232355000Y-109057000D02*
X232355000Y-112860000D01*
X232355000Y-115740000D02*
X232355000Y-119543000D01*
X232395000Y-109084000D02*
X232395000Y-112860000D01*
X232395000Y-115740000D02*
X232395000Y-119516000D01*
X232435000Y-109112000D02*
X232435000Y-112860000D01*
X232435000Y-115740000D02*
X232435000Y-119488000D01*
X232475000Y-109140000D02*
X232475000Y-112860000D01*
X232475000Y-115740000D02*
X232475000Y-119460000D01*
X232515000Y-109169000D02*
X232515000Y-112860000D01*
X232515000Y-115740000D02*
X232515000Y-119431000D01*
X232555000Y-109198000D02*
X232555000Y-112860000D01*
X232555000Y-115740000D02*
X232555000Y-119402000D01*
X232595000Y-109227000D02*
X232595000Y-112860000D01*
X232595000Y-115740000D02*
X232595000Y-119373000D01*
X232635000Y-109257000D02*
X232635000Y-112860000D01*
X232635000Y-115740000D02*
X232635000Y-119343000D01*
X232675000Y-109288000D02*
X232675000Y-112860000D01*
X232675000Y-115740000D02*
X232675000Y-119312000D01*
X232715000Y-109318000D02*
X232715000Y-112860000D01*
X232715000Y-115740000D02*
X232715000Y-119282000D01*
X232755000Y-109350000D02*
X232755000Y-112860000D01*
X232755000Y-115740000D02*
X232755000Y-119250000D01*
X232795000Y-109382000D02*
X232795000Y-112860000D01*
X232795000Y-115740000D02*
X232795000Y-119218000D01*
X232835000Y-109415000D02*
X232835000Y-112860000D01*
X232835000Y-115740000D02*
X232835000Y-119185000D01*
X232875000Y-109448000D02*
X232875000Y-112860000D01*
X232875000Y-115740000D02*
X232875000Y-119152000D01*
X232915000Y-109481000D02*
X232915000Y-112860000D01*
X232915000Y-115740000D02*
X232915000Y-119119000D01*
X232955000Y-109515000D02*
X232955000Y-112860000D01*
X232955000Y-115740000D02*
X232955000Y-119085000D01*
X232995000Y-109550000D02*
X232995000Y-112860000D01*
X232995000Y-115740000D02*
X232995000Y-119050000D01*
X233035000Y-109586000D02*
X233035000Y-112860000D01*
X233035000Y-115740000D02*
X233035000Y-119014000D01*
X233075000Y-109622000D02*
X233075000Y-112860000D01*
X233075000Y-115740000D02*
X233075000Y-118978000D01*
X233115000Y-109658000D02*
X233115000Y-112860000D01*
X233115000Y-115740000D02*
X233115000Y-118942000D01*
X233155000Y-109695000D02*
X233155000Y-112860000D01*
X233155000Y-115740000D02*
X233155000Y-118905000D01*
X233195000Y-109733000D02*
X233195000Y-112860000D01*
X233195000Y-115740000D02*
X233195000Y-118867000D01*
X233235000Y-109772000D02*
X233235000Y-112860000D01*
X233235000Y-115740000D02*
X233235000Y-118828000D01*
X233275000Y-109811000D02*
X233275000Y-112860000D01*
X233275000Y-115740000D02*
X233275000Y-118789000D01*
X233315000Y-109851000D02*
X233315000Y-112860000D01*
X233315000Y-115740000D02*
X233315000Y-118749000D01*
X233355000Y-109892000D02*
X233355000Y-112860000D01*
X233355000Y-115740000D02*
X233355000Y-118708000D01*
X233395000Y-109933000D02*
X233395000Y-112860000D01*
X233395000Y-115740000D02*
X233395000Y-118667000D01*
X233435000Y-109975000D02*
X233435000Y-112860000D01*
X233435000Y-115740000D02*
X233435000Y-118625000D01*
X233475000Y-110018000D02*
X233475000Y-112860000D01*
X233475000Y-115740000D02*
X233475000Y-118582000D01*
X233515000Y-110062000D02*
X233515000Y-112860000D01*
X233515000Y-115740000D02*
X233515000Y-118538000D01*
X233555000Y-110106000D02*
X233555000Y-112860000D01*
X233555000Y-115740000D02*
X233555000Y-118494000D01*
X233595000Y-110152000D02*
X233595000Y-112860000D01*
X233595000Y-115740000D02*
X233595000Y-118448000D01*
X233635000Y-110198000D02*
X233635000Y-112860000D01*
X233635000Y-115740000D02*
X233635000Y-118402000D01*
X233675000Y-110245000D02*
X233675000Y-112860000D01*
X233675000Y-115740000D02*
X233675000Y-118355000D01*
X233715000Y-110293000D02*
X233715000Y-112860000D01*
X233715000Y-115740000D02*
X233715000Y-118307000D01*
X233755000Y-110343000D02*
X233755000Y-112860000D01*
X233755000Y-115740000D02*
X233755000Y-118257000D01*
X233795000Y-110393000D02*
X233795000Y-112860000D01*
X233795000Y-115740000D02*
X233795000Y-118207000D01*
X233835000Y-110444000D02*
X233835000Y-112860000D01*
X233835000Y-115740000D02*
X233835000Y-118156000D01*
X233875000Y-110496000D02*
X233875000Y-112860000D01*
X233875000Y-115740000D02*
X233875000Y-118104000D01*
X233915000Y-110550000D02*
X233915000Y-112860000D01*
X233915000Y-115740000D02*
X233915000Y-118050000D01*
X233955000Y-110604000D02*
X233955000Y-112860000D01*
X233955000Y-115740000D02*
X233955000Y-117996000D01*
X233995000Y-110660000D02*
X233995000Y-117940000D01*
X234035000Y-110717000D02*
X234035000Y-117883000D01*
X234075000Y-110776000D02*
X234075000Y-117824000D01*
X234115000Y-110836000D02*
X234115000Y-117764000D01*
X234155000Y-110898000D02*
X234155000Y-117702000D01*
X234195000Y-110961000D02*
X234195000Y-117639000D01*
X234235000Y-111025000D02*
X234235000Y-117575000D01*
X234275000Y-111092000D02*
X234275000Y-117508000D01*
X234315000Y-111160000D02*
X234315000Y-117440000D01*
X234355000Y-111231000D02*
X234355000Y-117369000D01*
X234395000Y-111304000D02*
X234395000Y-117296000D01*
X234435000Y-111379000D02*
X234435000Y-117221000D01*
X234475000Y-111456000D02*
X234475000Y-117144000D01*
X234515000Y-111536000D02*
X234515000Y-117064000D01*
X234555000Y-111619000D02*
X234555000Y-116981000D01*
X234595000Y-111706000D02*
X234595000Y-116894000D01*
X234635000Y-111796000D02*
X234635000Y-116804000D01*
X234675000Y-111890000D02*
X234675000Y-116710000D01*
X234715000Y-111988000D02*
X234715000Y-116612000D01*
X234755000Y-112091000D02*
X234755000Y-116509000D01*
X234795000Y-112200000D02*
X234795000Y-116400000D01*
X234835000Y-112316000D02*
X234835000Y-116284000D01*
X234875000Y-112439000D02*
X234875000Y-116161000D01*
X234915000Y-112572000D02*
X234915000Y-116028000D01*
X234955000Y-112717000D02*
X234955000Y-115883000D01*
X234995000Y-112878000D02*
X234995000Y-115722000D01*
X235035000Y-113059000D02*
X235035000Y-115541000D01*
X235075000Y-113272000D02*
X235075000Y-115328000D01*
X235115000Y-113543000D02*
X235115000Y-115057000D01*
X235155000Y-113983000D02*
X235155000Y-114617000D01*
X221976918Y-110725000D02*
X223226918Y-110725000D01*
X222601918Y-110100000D02*
X222601918Y-111350000D01*
G04 #@! TO.C,C45*
X207361918Y-110100000D02*
X207361918Y-111350000D01*
X206736918Y-110725000D02*
X207986918Y-110725000D01*
X219915000Y-113983000D02*
X219915000Y-114617000D01*
X219875000Y-113543000D02*
X219875000Y-115057000D01*
X219835000Y-113272000D02*
X219835000Y-115328000D01*
X219795000Y-113059000D02*
X219795000Y-115541000D01*
X219755000Y-112878000D02*
X219755000Y-115722000D01*
X219715000Y-112717000D02*
X219715000Y-115883000D01*
X219675000Y-112572000D02*
X219675000Y-116028000D01*
X219635000Y-112439000D02*
X219635000Y-116161000D01*
X219595000Y-112316000D02*
X219595000Y-116284000D01*
X219555000Y-112200000D02*
X219555000Y-116400000D01*
X219515000Y-112091000D02*
X219515000Y-116509000D01*
X219475000Y-111988000D02*
X219475000Y-116612000D01*
X219435000Y-111890000D02*
X219435000Y-116710000D01*
X219395000Y-111796000D02*
X219395000Y-116804000D01*
X219355000Y-111706000D02*
X219355000Y-116894000D01*
X219315000Y-111619000D02*
X219315000Y-116981000D01*
X219275000Y-111536000D02*
X219275000Y-117064000D01*
X219235000Y-111456000D02*
X219235000Y-117144000D01*
X219195000Y-111379000D02*
X219195000Y-117221000D01*
X219155000Y-111304000D02*
X219155000Y-117296000D01*
X219115000Y-111231000D02*
X219115000Y-117369000D01*
X219075000Y-111160000D02*
X219075000Y-117440000D01*
X219035000Y-111092000D02*
X219035000Y-117508000D01*
X218995000Y-111025000D02*
X218995000Y-117575000D01*
X218955000Y-110961000D02*
X218955000Y-117639000D01*
X218915000Y-110898000D02*
X218915000Y-117702000D01*
X218875000Y-110836000D02*
X218875000Y-117764000D01*
X218835000Y-110776000D02*
X218835000Y-117824000D01*
X218795000Y-110717000D02*
X218795000Y-117883000D01*
X218755000Y-110660000D02*
X218755000Y-117940000D01*
X218715000Y-115740000D02*
X218715000Y-117996000D01*
X218715000Y-110604000D02*
X218715000Y-112860000D01*
X218675000Y-115740000D02*
X218675000Y-118050000D01*
X218675000Y-110550000D02*
X218675000Y-112860000D01*
X218635000Y-115740000D02*
X218635000Y-118104000D01*
X218635000Y-110496000D02*
X218635000Y-112860000D01*
X218595000Y-115740000D02*
X218595000Y-118156000D01*
X218595000Y-110444000D02*
X218595000Y-112860000D01*
X218555000Y-115740000D02*
X218555000Y-118207000D01*
X218555000Y-110393000D02*
X218555000Y-112860000D01*
X218515000Y-115740000D02*
X218515000Y-118257000D01*
X218515000Y-110343000D02*
X218515000Y-112860000D01*
X218475000Y-115740000D02*
X218475000Y-118307000D01*
X218475000Y-110293000D02*
X218475000Y-112860000D01*
X218435000Y-115740000D02*
X218435000Y-118355000D01*
X218435000Y-110245000D02*
X218435000Y-112860000D01*
X218395000Y-115740000D02*
X218395000Y-118402000D01*
X218395000Y-110198000D02*
X218395000Y-112860000D01*
X218355000Y-115740000D02*
X218355000Y-118448000D01*
X218355000Y-110152000D02*
X218355000Y-112860000D01*
X218315000Y-115740000D02*
X218315000Y-118494000D01*
X218315000Y-110106000D02*
X218315000Y-112860000D01*
X218275000Y-115740000D02*
X218275000Y-118538000D01*
X218275000Y-110062000D02*
X218275000Y-112860000D01*
X218235000Y-115740000D02*
X218235000Y-118582000D01*
X218235000Y-110018000D02*
X218235000Y-112860000D01*
X218195000Y-115740000D02*
X218195000Y-118625000D01*
X218195000Y-109975000D02*
X218195000Y-112860000D01*
X218155000Y-115740000D02*
X218155000Y-118667000D01*
X218155000Y-109933000D02*
X218155000Y-112860000D01*
X218115000Y-115740000D02*
X218115000Y-118708000D01*
X218115000Y-109892000D02*
X218115000Y-112860000D01*
X218075000Y-115740000D02*
X218075000Y-118749000D01*
X218075000Y-109851000D02*
X218075000Y-112860000D01*
X218035000Y-115740000D02*
X218035000Y-118789000D01*
X218035000Y-109811000D02*
X218035000Y-112860000D01*
X217995000Y-115740000D02*
X217995000Y-118828000D01*
X217995000Y-109772000D02*
X217995000Y-112860000D01*
X217955000Y-115740000D02*
X217955000Y-118867000D01*
X217955000Y-109733000D02*
X217955000Y-112860000D01*
X217915000Y-115740000D02*
X217915000Y-118905000D01*
X217915000Y-109695000D02*
X217915000Y-112860000D01*
X217875000Y-115740000D02*
X217875000Y-118942000D01*
X217875000Y-109658000D02*
X217875000Y-112860000D01*
X217835000Y-115740000D02*
X217835000Y-118978000D01*
X217835000Y-109622000D02*
X217835000Y-112860000D01*
X217795000Y-115740000D02*
X217795000Y-119014000D01*
X217795000Y-109586000D02*
X217795000Y-112860000D01*
X217755000Y-115740000D02*
X217755000Y-119050000D01*
X217755000Y-109550000D02*
X217755000Y-112860000D01*
X217715000Y-115740000D02*
X217715000Y-119085000D01*
X217715000Y-109515000D02*
X217715000Y-112860000D01*
X217675000Y-115740000D02*
X217675000Y-119119000D01*
X217675000Y-109481000D02*
X217675000Y-112860000D01*
X217635000Y-115740000D02*
X217635000Y-119152000D01*
X217635000Y-109448000D02*
X217635000Y-112860000D01*
X217595000Y-115740000D02*
X217595000Y-119185000D01*
X217595000Y-109415000D02*
X217595000Y-112860000D01*
X217555000Y-115740000D02*
X217555000Y-119218000D01*
X217555000Y-109382000D02*
X217555000Y-112860000D01*
X217515000Y-115740000D02*
X217515000Y-119250000D01*
X217515000Y-109350000D02*
X217515000Y-112860000D01*
X217475000Y-115740000D02*
X217475000Y-119282000D01*
X217475000Y-109318000D02*
X217475000Y-112860000D01*
X217435000Y-115740000D02*
X217435000Y-119312000D01*
X217435000Y-109288000D02*
X217435000Y-112860000D01*
X217395000Y-115740000D02*
X217395000Y-119343000D01*
X217395000Y-109257000D02*
X217395000Y-112860000D01*
X217355000Y-115740000D02*
X217355000Y-119373000D01*
X217355000Y-109227000D02*
X217355000Y-112860000D01*
X217315000Y-115740000D02*
X217315000Y-119402000D01*
X217315000Y-109198000D02*
X217315000Y-112860000D01*
X217275000Y-115740000D02*
X217275000Y-119431000D01*
X217275000Y-109169000D02*
X217275000Y-112860000D01*
X217235000Y-115740000D02*
X217235000Y-119460000D01*
X217235000Y-109140000D02*
X217235000Y-112860000D01*
X217195000Y-115740000D02*
X217195000Y-119488000D01*
X217195000Y-109112000D02*
X217195000Y-112860000D01*
X217155000Y-115740000D02*
X217155000Y-119516000D01*
X217155000Y-109084000D02*
X217155000Y-112860000D01*
X217115000Y-115740000D02*
X217115000Y-119543000D01*
X217115000Y-109057000D02*
X217115000Y-112860000D01*
X217075000Y-115740000D02*
X217075000Y-119570000D01*
X217075000Y-109030000D02*
X217075000Y-112860000D01*
X217035000Y-115740000D02*
X217035000Y-119596000D01*
X217035000Y-109004000D02*
X217035000Y-112860000D01*
X216995000Y-115740000D02*
X216995000Y-119622000D01*
X216995000Y-108978000D02*
X216995000Y-112860000D01*
X216955000Y-115740000D02*
X216955000Y-119647000D01*
X216955000Y-108953000D02*
X216955000Y-112860000D01*
X216915000Y-115740000D02*
X216915000Y-119672000D01*
X216915000Y-108928000D02*
X216915000Y-112860000D01*
X216875000Y-115740000D02*
X216875000Y-119697000D01*
X216875000Y-108903000D02*
X216875000Y-112860000D01*
X216835000Y-115740000D02*
X216835000Y-119721000D01*
X216835000Y-108879000D02*
X216835000Y-112860000D01*
X216795000Y-115740000D02*
X216795000Y-119745000D01*
X216795000Y-108855000D02*
X216795000Y-112860000D01*
X216755000Y-115740000D02*
X216755000Y-119768000D01*
X216755000Y-108832000D02*
X216755000Y-112860000D01*
X216715000Y-115740000D02*
X216715000Y-119791000D01*
X216715000Y-108809000D02*
X216715000Y-112860000D01*
X216675000Y-115740000D02*
X216675000Y-119814000D01*
X216675000Y-108786000D02*
X216675000Y-112860000D01*
X216635000Y-115740000D02*
X216635000Y-119836000D01*
X216635000Y-108764000D02*
X216635000Y-112860000D01*
X216595000Y-115740000D02*
X216595000Y-119858000D01*
X216595000Y-108742000D02*
X216595000Y-112860000D01*
X216555000Y-115740000D02*
X216555000Y-119880000D01*
X216555000Y-108720000D02*
X216555000Y-112860000D01*
X216515000Y-115740000D02*
X216515000Y-119901000D01*
X216515000Y-108699000D02*
X216515000Y-112860000D01*
X216475000Y-115740000D02*
X216475000Y-119922000D01*
X216475000Y-108678000D02*
X216475000Y-112860000D01*
X216435000Y-115740000D02*
X216435000Y-119942000D01*
X216435000Y-108658000D02*
X216435000Y-112860000D01*
X216395000Y-115740000D02*
X216395000Y-119962000D01*
X216395000Y-108638000D02*
X216395000Y-112860000D01*
X216355000Y-115740000D02*
X216355000Y-119982000D01*
X216355000Y-108618000D02*
X216355000Y-112860000D01*
X216315000Y-115740000D02*
X216315000Y-120002000D01*
X216315000Y-108598000D02*
X216315000Y-112860000D01*
X216275000Y-115740000D02*
X216275000Y-120021000D01*
X216275000Y-108579000D02*
X216275000Y-112860000D01*
X216235000Y-115740000D02*
X216235000Y-120039000D01*
X216235000Y-108561000D02*
X216235000Y-112860000D01*
X216195000Y-115740000D02*
X216195000Y-120058000D01*
X216195000Y-108542000D02*
X216195000Y-112860000D01*
X216155000Y-115740000D02*
X216155000Y-120076000D01*
X216155000Y-108524000D02*
X216155000Y-112860000D01*
X216115000Y-115740000D02*
X216115000Y-120093000D01*
X216115000Y-108507000D02*
X216115000Y-112860000D01*
X216075000Y-115740000D02*
X216075000Y-120111000D01*
X216075000Y-108489000D02*
X216075000Y-112860000D01*
X216035000Y-115740000D02*
X216035000Y-120128000D01*
X216035000Y-108472000D02*
X216035000Y-112860000D01*
X215995000Y-115740000D02*
X215995000Y-120145000D01*
X215995000Y-108455000D02*
X215995000Y-112860000D01*
X215955000Y-115740000D02*
X215955000Y-120161000D01*
X215955000Y-108439000D02*
X215955000Y-112860000D01*
X215915000Y-115740000D02*
X215915000Y-120177000D01*
X215915000Y-108423000D02*
X215915000Y-112860000D01*
X215875000Y-115740000D02*
X215875000Y-120193000D01*
X215875000Y-108407000D02*
X215875000Y-112860000D01*
X215835000Y-108392000D02*
X215835000Y-120208000D01*
X215795000Y-108376000D02*
X215795000Y-120224000D01*
X215755000Y-108361000D02*
X215755000Y-120239000D01*
X215715000Y-108347000D02*
X215715000Y-120253000D01*
X215675000Y-108333000D02*
X215675000Y-120267000D01*
X215635000Y-108319000D02*
X215635000Y-120281000D01*
X215595000Y-108305000D02*
X215595000Y-120295000D01*
X215555000Y-108292000D02*
X215555000Y-120308000D01*
X215515000Y-108279000D02*
X215515000Y-120321000D01*
X215475000Y-108266000D02*
X215475000Y-120334000D01*
X215435000Y-108253000D02*
X215435000Y-120347000D01*
X215395000Y-108241000D02*
X215395000Y-120359000D01*
X215355000Y-108229000D02*
X215355000Y-120371000D01*
X215315000Y-108217000D02*
X215315000Y-120383000D01*
X215275000Y-108206000D02*
X215275000Y-120394000D01*
X215235000Y-108195000D02*
X215235000Y-120405000D01*
X215195000Y-108184000D02*
X215195000Y-120416000D01*
X215155000Y-108174000D02*
X215155000Y-120426000D01*
X215115000Y-108163000D02*
X215115000Y-120437000D01*
X215075000Y-108154000D02*
X215075000Y-120446000D01*
X215035000Y-108144000D02*
X215035000Y-120456000D01*
X214995000Y-108134000D02*
X214995000Y-120466000D01*
X214955000Y-108125000D02*
X214955000Y-120475000D01*
X214915000Y-108116000D02*
X214915000Y-120484000D01*
X214875000Y-108108000D02*
X214875000Y-120492000D01*
X214835000Y-108099000D02*
X214835000Y-120501000D01*
X214795000Y-108091000D02*
X214795000Y-120509000D01*
X214755000Y-108084000D02*
X214755000Y-120516000D01*
X214715000Y-108076000D02*
X214715000Y-120524000D01*
X214675000Y-108069000D02*
X214675000Y-120531000D01*
X214635000Y-108062000D02*
X214635000Y-120538000D01*
X214595000Y-108055000D02*
X214595000Y-120545000D01*
X214555000Y-108048000D02*
X214555000Y-120552000D01*
X214515000Y-108042000D02*
X214515000Y-120558000D01*
X214475000Y-108036000D02*
X214475000Y-120564000D01*
X214435000Y-108031000D02*
X214435000Y-120569000D01*
X214395000Y-108025000D02*
X214395000Y-120575000D01*
X214355000Y-108020000D02*
X214355000Y-120580000D01*
X214315000Y-108015000D02*
X214315000Y-120585000D01*
X214275000Y-108010000D02*
X214275000Y-120590000D01*
X214234000Y-108006000D02*
X214234000Y-120594000D01*
X214194000Y-108002000D02*
X214194000Y-120598000D01*
X214154000Y-107998000D02*
X214154000Y-120602000D01*
X214114000Y-107994000D02*
X214114000Y-120606000D01*
X214074000Y-107991000D02*
X214074000Y-120609000D01*
X214034000Y-107988000D02*
X214034000Y-120612000D01*
X213994000Y-107985000D02*
X213994000Y-120615000D01*
X213954000Y-107982000D02*
X213954000Y-120618000D01*
X213914000Y-107980000D02*
X213914000Y-120620000D01*
X213874000Y-107978000D02*
X213874000Y-120622000D01*
X213834000Y-107976000D02*
X213834000Y-120624000D01*
X213794000Y-107974000D02*
X213794000Y-120626000D01*
X213754000Y-107973000D02*
X213754000Y-120627000D01*
X213714000Y-107972000D02*
X213714000Y-120628000D01*
X213674000Y-107971000D02*
X213674000Y-120629000D01*
X213634000Y-107970000D02*
X213634000Y-120630000D01*
X213594000Y-107970000D02*
X213594000Y-120630000D01*
X213554000Y-107970000D02*
X213554000Y-120630000D01*
X219924000Y-114300000D02*
G75*
G03X219924000Y-114300000I-6370000J0D01*
G01*
D10*
G04 #@! TO.C,Q1*
X231304000Y-104804000D02*
X231304000Y-98904000D01*
X231304000Y-98904000D02*
X226404000Y-98904000D01*
X226404000Y-98904000D02*
X226404000Y-104804000D01*
X226404000Y-104804000D02*
X231304000Y-104804000D01*
X231013000Y-99568000D02*
G75*
G03X231013000Y-99568000I-254000J0D01*
G01*
G04 #@! TO.C,P7*
X216414000Y-89930000D02*
X210814000Y-89930000D01*
X216414000Y-85330000D02*
X216414000Y-89930000D01*
X210814000Y-85330000D02*
X216414000Y-85330000D01*
X210814000Y-89930000D02*
X210814000Y-85330000D01*
G04 #@! TO.C,P9*
X231654000Y-89930000D02*
X226054000Y-89930000D01*
X231654000Y-85330000D02*
X231654000Y-89930000D01*
X226054000Y-85330000D02*
X231654000Y-85330000D01*
X226054000Y-89930000D02*
X226054000Y-85330000D01*
G04 #@! TO.C,P6*
X201174000Y-89930000D02*
X195574000Y-89930000D01*
X201174000Y-85330000D02*
X201174000Y-89930000D01*
X195574000Y-85330000D02*
X201174000Y-85330000D01*
X195574000Y-89930000D02*
X195574000Y-85330000D01*
G04 #@! TO.C,Q2*
X231346500Y-96187000D02*
G75*
G03X231346500Y-96187000I-254000J0D01*
G01*
X225856500Y-91832000D02*
X225856500Y-96732000D01*
X231756500Y-91832000D02*
X225856500Y-91832000D01*
X231756500Y-96732000D02*
X231756500Y-91832000D01*
X225856500Y-96732000D02*
X231756500Y-96732000D01*
G04 #@! TO.C,Q3*
X215773000Y-99568000D02*
G75*
G03X215773000Y-99568000I-254000J0D01*
G01*
X211164000Y-104804000D02*
X216064000Y-104804000D01*
X211164000Y-98904000D02*
X211164000Y-104804000D01*
X216064000Y-98904000D02*
X211164000Y-98904000D01*
X216064000Y-104804000D02*
X216064000Y-98904000D01*
D14*
G04 #@! TO.C,C42*
X192121918Y-110100000D02*
X192121918Y-111350000D01*
X191496918Y-110725000D02*
X192746918Y-110725000D01*
X204675000Y-113983000D02*
X204675000Y-114617000D01*
X204635000Y-113543000D02*
X204635000Y-115057000D01*
X204595000Y-113272000D02*
X204595000Y-115328000D01*
X204555000Y-113059000D02*
X204555000Y-115541000D01*
X204515000Y-112878000D02*
X204515000Y-115722000D01*
X204475000Y-112717000D02*
X204475000Y-115883000D01*
X204435000Y-112572000D02*
X204435000Y-116028000D01*
X204395000Y-112439000D02*
X204395000Y-116161000D01*
X204355000Y-112316000D02*
X204355000Y-116284000D01*
X204315000Y-112200000D02*
X204315000Y-116400000D01*
X204275000Y-112091000D02*
X204275000Y-116509000D01*
X204235000Y-111988000D02*
X204235000Y-116612000D01*
X204195000Y-111890000D02*
X204195000Y-116710000D01*
X204155000Y-111796000D02*
X204155000Y-116804000D01*
X204115000Y-111706000D02*
X204115000Y-116894000D01*
X204075000Y-111619000D02*
X204075000Y-116981000D01*
X204035000Y-111536000D02*
X204035000Y-117064000D01*
X203995000Y-111456000D02*
X203995000Y-117144000D01*
X203955000Y-111379000D02*
X203955000Y-117221000D01*
X203915000Y-111304000D02*
X203915000Y-117296000D01*
X203875000Y-111231000D02*
X203875000Y-117369000D01*
X203835000Y-111160000D02*
X203835000Y-117440000D01*
X203795000Y-111092000D02*
X203795000Y-117508000D01*
X203755000Y-111025000D02*
X203755000Y-117575000D01*
X203715000Y-110961000D02*
X203715000Y-117639000D01*
X203675000Y-110898000D02*
X203675000Y-117702000D01*
X203635000Y-110836000D02*
X203635000Y-117764000D01*
X203595000Y-110776000D02*
X203595000Y-117824000D01*
X203555000Y-110717000D02*
X203555000Y-117883000D01*
X203515000Y-110660000D02*
X203515000Y-117940000D01*
X203475000Y-115740000D02*
X203475000Y-117996000D01*
X203475000Y-110604000D02*
X203475000Y-112860000D01*
X203435000Y-115740000D02*
X203435000Y-118050000D01*
X203435000Y-110550000D02*
X203435000Y-112860000D01*
X203395000Y-115740000D02*
X203395000Y-118104000D01*
X203395000Y-110496000D02*
X203395000Y-112860000D01*
X203355000Y-115740000D02*
X203355000Y-118156000D01*
X203355000Y-110444000D02*
X203355000Y-112860000D01*
X203315000Y-115740000D02*
X203315000Y-118207000D01*
X203315000Y-110393000D02*
X203315000Y-112860000D01*
X203275000Y-115740000D02*
X203275000Y-118257000D01*
X203275000Y-110343000D02*
X203275000Y-112860000D01*
X203235000Y-115740000D02*
X203235000Y-118307000D01*
X203235000Y-110293000D02*
X203235000Y-112860000D01*
X203195000Y-115740000D02*
X203195000Y-118355000D01*
X203195000Y-110245000D02*
X203195000Y-112860000D01*
X203155000Y-115740000D02*
X203155000Y-118402000D01*
X203155000Y-110198000D02*
X203155000Y-112860000D01*
X203115000Y-115740000D02*
X203115000Y-118448000D01*
X203115000Y-110152000D02*
X203115000Y-112860000D01*
X203075000Y-115740000D02*
X203075000Y-118494000D01*
X203075000Y-110106000D02*
X203075000Y-112860000D01*
X203035000Y-115740000D02*
X203035000Y-118538000D01*
X203035000Y-110062000D02*
X203035000Y-112860000D01*
X202995000Y-115740000D02*
X202995000Y-118582000D01*
X202995000Y-110018000D02*
X202995000Y-112860000D01*
X202955000Y-115740000D02*
X202955000Y-118625000D01*
X202955000Y-109975000D02*
X202955000Y-112860000D01*
X202915000Y-115740000D02*
X202915000Y-118667000D01*
X202915000Y-109933000D02*
X202915000Y-112860000D01*
X202875000Y-115740000D02*
X202875000Y-118708000D01*
X202875000Y-109892000D02*
X202875000Y-112860000D01*
X202835000Y-115740000D02*
X202835000Y-118749000D01*
X202835000Y-109851000D02*
X202835000Y-112860000D01*
X202795000Y-115740000D02*
X202795000Y-118789000D01*
X202795000Y-109811000D02*
X202795000Y-112860000D01*
X202755000Y-115740000D02*
X202755000Y-118828000D01*
X202755000Y-109772000D02*
X202755000Y-112860000D01*
X202715000Y-115740000D02*
X202715000Y-118867000D01*
X202715000Y-109733000D02*
X202715000Y-112860000D01*
X202675000Y-115740000D02*
X202675000Y-118905000D01*
X202675000Y-109695000D02*
X202675000Y-112860000D01*
X202635000Y-115740000D02*
X202635000Y-118942000D01*
X202635000Y-109658000D02*
X202635000Y-112860000D01*
X202595000Y-115740000D02*
X202595000Y-118978000D01*
X202595000Y-109622000D02*
X202595000Y-112860000D01*
X202555000Y-115740000D02*
X202555000Y-119014000D01*
X202555000Y-109586000D02*
X202555000Y-112860000D01*
X202515000Y-115740000D02*
X202515000Y-119050000D01*
X202515000Y-109550000D02*
X202515000Y-112860000D01*
X202475000Y-115740000D02*
X202475000Y-119085000D01*
X202475000Y-109515000D02*
X202475000Y-112860000D01*
X202435000Y-115740000D02*
X202435000Y-119119000D01*
X202435000Y-109481000D02*
X202435000Y-112860000D01*
X202395000Y-115740000D02*
X202395000Y-119152000D01*
X202395000Y-109448000D02*
X202395000Y-112860000D01*
X202355000Y-115740000D02*
X202355000Y-119185000D01*
X202355000Y-109415000D02*
X202355000Y-112860000D01*
X202315000Y-115740000D02*
X202315000Y-119218000D01*
X202315000Y-109382000D02*
X202315000Y-112860000D01*
X202275000Y-115740000D02*
X202275000Y-119250000D01*
X202275000Y-109350000D02*
X202275000Y-112860000D01*
X202235000Y-115740000D02*
X202235000Y-119282000D01*
X202235000Y-109318000D02*
X202235000Y-112860000D01*
X202195000Y-115740000D02*
X202195000Y-119312000D01*
X202195000Y-109288000D02*
X202195000Y-112860000D01*
X202155000Y-115740000D02*
X202155000Y-119343000D01*
X202155000Y-109257000D02*
X202155000Y-112860000D01*
X202115000Y-115740000D02*
X202115000Y-119373000D01*
X202115000Y-109227000D02*
X202115000Y-112860000D01*
X202075000Y-115740000D02*
X202075000Y-119402000D01*
X202075000Y-109198000D02*
X202075000Y-112860000D01*
X202035000Y-115740000D02*
X202035000Y-119431000D01*
X202035000Y-109169000D02*
X202035000Y-112860000D01*
X201995000Y-115740000D02*
X201995000Y-119460000D01*
X201995000Y-109140000D02*
X201995000Y-112860000D01*
X201955000Y-115740000D02*
X201955000Y-119488000D01*
X201955000Y-109112000D02*
X201955000Y-112860000D01*
X201915000Y-115740000D02*
X201915000Y-119516000D01*
X201915000Y-109084000D02*
X201915000Y-112860000D01*
X201875000Y-115740000D02*
X201875000Y-119543000D01*
X201875000Y-109057000D02*
X201875000Y-112860000D01*
X201835000Y-115740000D02*
X201835000Y-119570000D01*
X201835000Y-109030000D02*
X201835000Y-112860000D01*
X201795000Y-115740000D02*
X201795000Y-119596000D01*
X201795000Y-109004000D02*
X201795000Y-112860000D01*
X201755000Y-115740000D02*
X201755000Y-119622000D01*
X201755000Y-108978000D02*
X201755000Y-112860000D01*
X201715000Y-115740000D02*
X201715000Y-119647000D01*
X201715000Y-108953000D02*
X201715000Y-112860000D01*
X201675000Y-115740000D02*
X201675000Y-119672000D01*
X201675000Y-108928000D02*
X201675000Y-112860000D01*
X201635000Y-115740000D02*
X201635000Y-119697000D01*
X201635000Y-108903000D02*
X201635000Y-112860000D01*
X201595000Y-115740000D02*
X201595000Y-119721000D01*
X201595000Y-108879000D02*
X201595000Y-112860000D01*
X201555000Y-115740000D02*
X201555000Y-119745000D01*
X201555000Y-108855000D02*
X201555000Y-112860000D01*
X201515000Y-115740000D02*
X201515000Y-119768000D01*
X201515000Y-108832000D02*
X201515000Y-112860000D01*
X201475000Y-115740000D02*
X201475000Y-119791000D01*
X201475000Y-108809000D02*
X201475000Y-112860000D01*
X201435000Y-115740000D02*
X201435000Y-119814000D01*
X201435000Y-108786000D02*
X201435000Y-112860000D01*
X201395000Y-115740000D02*
X201395000Y-119836000D01*
X201395000Y-108764000D02*
X201395000Y-112860000D01*
X201355000Y-115740000D02*
X201355000Y-119858000D01*
X201355000Y-108742000D02*
X201355000Y-112860000D01*
X201315000Y-115740000D02*
X201315000Y-119880000D01*
X201315000Y-108720000D02*
X201315000Y-112860000D01*
X201275000Y-115740000D02*
X201275000Y-119901000D01*
X201275000Y-108699000D02*
X201275000Y-112860000D01*
X201235000Y-115740000D02*
X201235000Y-119922000D01*
X201235000Y-108678000D02*
X201235000Y-112860000D01*
X201195000Y-115740000D02*
X201195000Y-119942000D01*
X201195000Y-108658000D02*
X201195000Y-112860000D01*
X201155000Y-115740000D02*
X201155000Y-119962000D01*
X201155000Y-108638000D02*
X201155000Y-112860000D01*
X201115000Y-115740000D02*
X201115000Y-119982000D01*
X201115000Y-108618000D02*
X201115000Y-112860000D01*
X201075000Y-115740000D02*
X201075000Y-120002000D01*
X201075000Y-108598000D02*
X201075000Y-112860000D01*
X201035000Y-115740000D02*
X201035000Y-120021000D01*
X201035000Y-108579000D02*
X201035000Y-112860000D01*
X200995000Y-115740000D02*
X200995000Y-120039000D01*
X200995000Y-108561000D02*
X200995000Y-112860000D01*
X200955000Y-115740000D02*
X200955000Y-120058000D01*
X200955000Y-108542000D02*
X200955000Y-112860000D01*
X200915000Y-115740000D02*
X200915000Y-120076000D01*
X200915000Y-108524000D02*
X200915000Y-112860000D01*
X200875000Y-115740000D02*
X200875000Y-120093000D01*
X200875000Y-108507000D02*
X200875000Y-112860000D01*
X200835000Y-115740000D02*
X200835000Y-120111000D01*
X200835000Y-108489000D02*
X200835000Y-112860000D01*
X200795000Y-115740000D02*
X200795000Y-120128000D01*
X200795000Y-108472000D02*
X200795000Y-112860000D01*
X200755000Y-115740000D02*
X200755000Y-120145000D01*
X200755000Y-108455000D02*
X200755000Y-112860000D01*
X200715000Y-115740000D02*
X200715000Y-120161000D01*
X200715000Y-108439000D02*
X200715000Y-112860000D01*
X200675000Y-115740000D02*
X200675000Y-120177000D01*
X200675000Y-108423000D02*
X200675000Y-112860000D01*
X200635000Y-115740000D02*
X200635000Y-120193000D01*
X200635000Y-108407000D02*
X200635000Y-112860000D01*
X200595000Y-108392000D02*
X200595000Y-120208000D01*
X200555000Y-108376000D02*
X200555000Y-120224000D01*
X200515000Y-108361000D02*
X200515000Y-120239000D01*
X200475000Y-108347000D02*
X200475000Y-120253000D01*
X200435000Y-108333000D02*
X200435000Y-120267000D01*
X200395000Y-108319000D02*
X200395000Y-120281000D01*
X200355000Y-108305000D02*
X200355000Y-120295000D01*
X200315000Y-108292000D02*
X200315000Y-120308000D01*
X200275000Y-108279000D02*
X200275000Y-120321000D01*
X200235000Y-108266000D02*
X200235000Y-120334000D01*
X200195000Y-108253000D02*
X200195000Y-120347000D01*
X200155000Y-108241000D02*
X200155000Y-120359000D01*
X200115000Y-108229000D02*
X200115000Y-120371000D01*
X200075000Y-108217000D02*
X200075000Y-120383000D01*
X200035000Y-108206000D02*
X200035000Y-120394000D01*
X199995000Y-108195000D02*
X199995000Y-120405000D01*
X199955000Y-108184000D02*
X199955000Y-120416000D01*
X199915000Y-108174000D02*
X199915000Y-120426000D01*
X199875000Y-108163000D02*
X199875000Y-120437000D01*
X199835000Y-108154000D02*
X199835000Y-120446000D01*
X199795000Y-108144000D02*
X199795000Y-120456000D01*
X199755000Y-108134000D02*
X199755000Y-120466000D01*
X199715000Y-108125000D02*
X199715000Y-120475000D01*
X199675000Y-108116000D02*
X199675000Y-120484000D01*
X199635000Y-108108000D02*
X199635000Y-120492000D01*
X199595000Y-108099000D02*
X199595000Y-120501000D01*
X199555000Y-108091000D02*
X199555000Y-120509000D01*
X199515000Y-108084000D02*
X199515000Y-120516000D01*
X199475000Y-108076000D02*
X199475000Y-120524000D01*
X199435000Y-108069000D02*
X199435000Y-120531000D01*
X199395000Y-108062000D02*
X199395000Y-120538000D01*
X199355000Y-108055000D02*
X199355000Y-120545000D01*
X199315000Y-108048000D02*
X199315000Y-120552000D01*
X199275000Y-108042000D02*
X199275000Y-120558000D01*
X199235000Y-108036000D02*
X199235000Y-120564000D01*
X199195000Y-108031000D02*
X199195000Y-120569000D01*
X199155000Y-108025000D02*
X199155000Y-120575000D01*
X199115000Y-108020000D02*
X199115000Y-120580000D01*
X199075000Y-108015000D02*
X199075000Y-120585000D01*
X199035000Y-108010000D02*
X199035000Y-120590000D01*
X198994000Y-108006000D02*
X198994000Y-120594000D01*
X198954000Y-108002000D02*
X198954000Y-120598000D01*
X198914000Y-107998000D02*
X198914000Y-120602000D01*
X198874000Y-107994000D02*
X198874000Y-120606000D01*
X198834000Y-107991000D02*
X198834000Y-120609000D01*
X198794000Y-107988000D02*
X198794000Y-120612000D01*
X198754000Y-107985000D02*
X198754000Y-120615000D01*
X198714000Y-107982000D02*
X198714000Y-120618000D01*
X198674000Y-107980000D02*
X198674000Y-120620000D01*
X198634000Y-107978000D02*
X198634000Y-120622000D01*
X198594000Y-107976000D02*
X198594000Y-120624000D01*
X198554000Y-107974000D02*
X198554000Y-120626000D01*
X198514000Y-107973000D02*
X198514000Y-120627000D01*
X198474000Y-107972000D02*
X198474000Y-120628000D01*
X198434000Y-107971000D02*
X198434000Y-120629000D01*
X198394000Y-107970000D02*
X198394000Y-120630000D01*
X198354000Y-107970000D02*
X198354000Y-120630000D01*
X198314000Y-107970000D02*
X198314000Y-120630000D01*
X204684000Y-114300000D02*
G75*
G03X204684000Y-114300000I-6370000J0D01*
G01*
D10*
G04 #@! TO.C,Q6*
X195376500Y-96732000D02*
X201276500Y-96732000D01*
X201276500Y-96732000D02*
X201276500Y-91832000D01*
X201276500Y-91832000D02*
X195376500Y-91832000D01*
X195376500Y-91832000D02*
X195376500Y-96732000D01*
X200866500Y-96187000D02*
G75*
G03X200866500Y-96187000I-254000J0D01*
G01*
G04 #@! TO.C,Q4*
X211172000Y-96732000D02*
X217072000Y-96732000D01*
X217072000Y-96732000D02*
X217072000Y-91832000D01*
X217072000Y-91832000D02*
X211172000Y-91832000D01*
X211172000Y-91832000D02*
X211172000Y-96732000D01*
X216662000Y-96187000D02*
G75*
G03X216662000Y-96187000I-254000J0D01*
G01*
G04 #@! TO.C,Q5*
X200533000Y-99568000D02*
G75*
G03X200533000Y-99568000I-254000J0D01*
G01*
X195924000Y-104804000D02*
X200824000Y-104804000D01*
X195924000Y-98904000D02*
X195924000Y-104804000D01*
X200824000Y-98904000D02*
X195924000Y-98904000D01*
X200824000Y-104804000D02*
X200824000Y-98904000D01*
D13*
G04 #@! TO.C,P1*
X152890860Y-100122580D02*
X153993220Y-100122580D01*
X157191080Y-100122580D02*
X154790780Y-100122580D01*
X152890860Y-86523420D02*
X153993220Y-86523420D01*
X157191080Y-86523420D02*
X154790780Y-86523420D01*
X152890860Y-89322500D02*
X152890860Y-86523420D01*
X157191080Y-86523420D02*
X157191080Y-100122580D01*
X152890860Y-100122580D02*
X152890860Y-97323500D01*
G04 #@! TO.C,P101*
X174965060Y-88473860D02*
X174965060Y-88974240D01*
X174766940Y-88473860D02*
X174965060Y-88473860D01*
X174766940Y-88974240D02*
X174766940Y-88473860D01*
X169864740Y-89472080D02*
X179867260Y-89472080D01*
X179366880Y-88974240D02*
X170365120Y-88974240D01*
X169864740Y-84973740D02*
X179867260Y-84973740D01*
X172963540Y-88473860D02*
X172963540Y-88974240D01*
X172765420Y-88473860D02*
X172963540Y-88473860D01*
X172765420Y-88974240D02*
X172765420Y-88473860D01*
X176765920Y-88974240D02*
X176765920Y-88473860D01*
X176765920Y-88473860D02*
X176964040Y-88473860D01*
X176964040Y-88473860D02*
X176964040Y-88974240D01*
X179867260Y-86172620D02*
X179366880Y-86172620D01*
X179366880Y-87473100D02*
X179867260Y-87473100D01*
X170365120Y-87473100D02*
X169864740Y-87473100D01*
X170365120Y-86172620D02*
X169864740Y-86172620D01*
X172364100Y-84973740D02*
X172364100Y-85474120D01*
X172364100Y-85474120D02*
X170365120Y-85474120D01*
X170365120Y-85474120D02*
X170365120Y-88974240D01*
X179366880Y-88974240D02*
X179366880Y-85474120D01*
X179366880Y-85474120D02*
X177367900Y-85474120D01*
X177367900Y-85474120D02*
X177367900Y-84973740D01*
X169864740Y-84973740D02*
X169864740Y-89472080D01*
X179867260Y-84973740D02*
X179867260Y-89472080D01*
X171564000Y-84973740D02*
X171564000Y-84773080D01*
X171564000Y-84773080D02*
X171264280Y-84773080D01*
X171264280Y-84773080D02*
X171264280Y-84973740D01*
G04 #@! TO.C,P2*
X157538420Y-119021860D02*
X157538420Y-120124220D01*
X157538420Y-123322080D02*
X157538420Y-120921780D01*
X171137580Y-119021860D02*
X171137580Y-120124220D01*
X171137580Y-123322080D02*
X171137580Y-120921780D01*
X168338500Y-119021860D02*
X171137580Y-119021860D01*
X171137580Y-123322080D02*
X157538420Y-123322080D01*
X157538420Y-119021860D02*
X160337500Y-119021860D01*
D15*
G04 #@! TO.C,K1*
X154940000Y-117221000D02*
X154940000Y-117729000D01*
X154940000Y-117729000D02*
X155448000Y-117729000D01*
X155448000Y-117221000D02*
X155448000Y-117729000D01*
X154940000Y-117221000D02*
X155448000Y-117221000D01*
X154940000Y-114681000D02*
X154940000Y-115189000D01*
X154940000Y-115189000D02*
X155448000Y-115189000D01*
X155448000Y-114681000D02*
X155448000Y-115189000D01*
X154940000Y-114681000D02*
X155448000Y-114681000D01*
X154940000Y-119761000D02*
X154940000Y-120269000D01*
X154940000Y-120269000D02*
X155448000Y-120269000D01*
X155448000Y-119761000D02*
X155448000Y-120269000D01*
X154940000Y-119761000D02*
X155448000Y-119761000D01*
D16*
X156464000Y-114300000D02*
X156464000Y-115570000D01*
X156464000Y-115570000D02*
X155829000Y-116205000D01*
X155829000Y-116205000D02*
X154559000Y-116205000D01*
X154559000Y-116205000D02*
X153924000Y-115570000D01*
X155829000Y-116205000D02*
X156464000Y-116840000D01*
X156464000Y-116840000D02*
X156464000Y-118110000D01*
X156464000Y-118110000D02*
X155829000Y-118745000D01*
X155829000Y-118745000D02*
X154559000Y-118745000D01*
X154559000Y-118745000D02*
X153924000Y-118110000D01*
X153924000Y-118110000D02*
X153924000Y-116840000D01*
X153924000Y-116840000D02*
X154559000Y-116205000D01*
X155829000Y-113665000D02*
X154559000Y-113665000D01*
X156464000Y-114300000D02*
X155829000Y-113665000D01*
X154559000Y-113665000D02*
X153924000Y-114300000D01*
X153924000Y-115570000D02*
X153924000Y-114300000D01*
X155829000Y-118745000D02*
X156464000Y-119380000D01*
X156464000Y-119380000D02*
X156464000Y-120650000D01*
X156464000Y-120650000D02*
X155829000Y-121285000D01*
X155829000Y-121285000D02*
X154559000Y-121285000D01*
X154559000Y-121285000D02*
X153924000Y-120650000D01*
X153924000Y-120650000D02*
X153924000Y-119380000D01*
X153924000Y-119380000D02*
X154559000Y-118745000D01*
D12*
G04 #@! TO.C,C37*
X187452000Y-86141560D02*
X192532000Y-86141560D01*
X187452000Y-90459560D02*
X192532000Y-90459560D01*
X187452000Y-91094560D02*
X187452000Y-85506560D01*
X187452000Y-85506560D02*
X192532000Y-85506560D01*
X192532000Y-85506560D02*
X192532000Y-91094560D01*
X192532000Y-91094560D02*
X187452000Y-91094560D01*
D13*
G04 #@! TO.C,L1*
X179529740Y-95123000D02*
G75*
G03X179529740Y-95123000I-2999740J0D01*
G01*
X179730400Y-92821760D02*
X173329600Y-92821760D01*
X173329600Y-97424240D02*
X179730400Y-97424240D01*
X180530500Y-95123000D02*
G75*
G03X180530500Y-95123000I-4000500J0D01*
G01*
D10*
G04 #@! TO.C,P5*
X218688000Y-110504000D02*
X218688000Y-105904000D01*
X218688000Y-105904000D02*
X224288000Y-105904000D01*
X224288000Y-105904000D02*
X224288000Y-110504000D01*
X224288000Y-110504000D02*
X218688000Y-110504000D01*
D12*
G04 #@! TO.C,U1*
X155524200Y-111556800D02*
X155524200Y-102565200D01*
X156032200Y-112064800D02*
X165023800Y-112064800D01*
X165531800Y-102565200D02*
X165531800Y-111556800D01*
X156032200Y-102057200D02*
X165023800Y-102057200D01*
X156921200Y-103073200D02*
G75*
G03X156921200Y-103073200I-381000J0D01*
G01*
X155524200Y-102565200D02*
X156032200Y-102057200D01*
X156032200Y-112064800D02*
X155524200Y-111556800D01*
X165531800Y-111556800D02*
X165023800Y-112064800D01*
X165023800Y-102057200D02*
X165531800Y-102565200D01*
G04 #@! TO.C,U3*
X172768260Y-100680520D02*
X172768260Y-115679220D01*
X178767740Y-115679220D02*
X178767740Y-100680520D01*
X178767740Y-115679220D02*
X172768260Y-115679220D01*
X172768260Y-100680520D02*
X178767740Y-100680520D01*
X173817478Y-101196140D02*
G75*
G03X173817478Y-101196140I-406598J0D01*
G01*
D13*
G04 #@! TO.C,1PIN*
X151878000Y-120223000D02*
G75*
G03X151878000Y-120223000I-2286000J0D01*
G01*
X151878000Y-87723000D02*
G75*
G03X151878000Y-87723000I-2286000J0D01*
G01*
D12*
G04 #@! TO.C,C1*
X186817000Y-84836000D02*
X184531000Y-84836000D01*
X184531000Y-84836000D02*
X184531000Y-86487000D01*
X186817000Y-88265000D02*
X186817000Y-89916000D01*
X186817000Y-89916000D02*
X184531000Y-89916000D01*
X184531000Y-89916000D02*
X184531000Y-88265000D01*
X186817000Y-86487000D02*
X186817000Y-84836000D01*
G04 #@! TO.C,C8*
X184277000Y-84836000D02*
X181991000Y-84836000D01*
X181991000Y-84836000D02*
X181991000Y-86487000D01*
X184277000Y-88265000D02*
X184277000Y-89916000D01*
X184277000Y-89916000D02*
X181991000Y-89916000D01*
X181991000Y-89916000D02*
X181991000Y-88265000D01*
X184277000Y-86487000D02*
X184277000Y-84836000D01*
G04 #@! TO.C,C39*
X173355000Y-116078000D02*
X173355000Y-118364000D01*
X173355000Y-118364000D02*
X175006000Y-118364000D01*
X176784000Y-116078000D02*
X178435000Y-116078000D01*
X178435000Y-116078000D02*
X178435000Y-118364000D01*
X178435000Y-118364000D02*
X176784000Y-118364000D01*
X175006000Y-116078000D02*
X173355000Y-116078000D01*
G04 #@! TO.C,R1*
X189420500Y-120784620D02*
X189420500Y-120078500D01*
X189420500Y-120078500D02*
X188023500Y-120078500D01*
X188023500Y-120078500D02*
X188023500Y-120784620D01*
X189420500Y-122491500D02*
X189420500Y-121785380D01*
X189420500Y-122491500D02*
X188023500Y-122491500D01*
X188023500Y-122491500D02*
X188023500Y-121785380D01*
G04 #@! TO.C,R2*
X162059620Y-117284500D02*
X161353500Y-117284500D01*
X161353500Y-117284500D02*
X161353500Y-118681500D01*
X161353500Y-118681500D02*
X162059620Y-118681500D01*
X163766500Y-117284500D02*
X163060380Y-117284500D01*
X163766500Y-117284500D02*
X163766500Y-118681500D01*
X163766500Y-118681500D02*
X163060380Y-118681500D01*
G04 #@! TO.C,R17*
X171894500Y-92844620D02*
X171894500Y-92138500D01*
X171894500Y-92138500D02*
X170497500Y-92138500D01*
X170497500Y-92138500D02*
X170497500Y-92844620D01*
X171894500Y-94551500D02*
X171894500Y-93845380D01*
X171894500Y-94551500D02*
X170497500Y-94551500D01*
X170497500Y-94551500D02*
X170497500Y-93845380D01*
G04 #@! TO.C,R18*
X171894500Y-95384620D02*
X171894500Y-94678500D01*
X171894500Y-94678500D02*
X170497500Y-94678500D01*
X170497500Y-94678500D02*
X170497500Y-95384620D01*
X171894500Y-97091500D02*
X171894500Y-96385380D01*
X171894500Y-97091500D02*
X170497500Y-97091500D01*
X170497500Y-97091500D02*
X170497500Y-96385380D01*
G04 #@! TO.C,R19*
X168592500Y-100718620D02*
X168592500Y-100012500D01*
X168592500Y-100012500D02*
X167195500Y-100012500D01*
X167195500Y-100012500D02*
X167195500Y-100718620D01*
X168592500Y-102425500D02*
X168592500Y-101719380D01*
X168592500Y-102425500D02*
X167195500Y-102425500D01*
X167195500Y-102425500D02*
X167195500Y-101719380D01*
G04 #@! TO.C,R20*
X169410380Y-103949500D02*
X170116500Y-103949500D01*
X170116500Y-103949500D02*
X170116500Y-102552500D01*
X170116500Y-102552500D02*
X169410380Y-102552500D01*
X167703500Y-103949500D02*
X168409620Y-103949500D01*
X167703500Y-103949500D02*
X167703500Y-102552500D01*
X167703500Y-102552500D02*
X168409620Y-102552500D01*
G04 #@! TO.C,R25*
X182054500Y-98813620D02*
X182054500Y-98107500D01*
X182054500Y-98107500D02*
X180657500Y-98107500D01*
X180657500Y-98107500D02*
X180657500Y-98813620D01*
X182054500Y-100520500D02*
X182054500Y-99814380D01*
X182054500Y-100520500D02*
X180657500Y-100520500D01*
X180657500Y-100520500D02*
X180657500Y-99814380D01*
G04 #@! TO.C,R48*
X185412380Y-113728500D02*
X186118500Y-113728500D01*
X186118500Y-113728500D02*
X186118500Y-112331500D01*
X186118500Y-112331500D02*
X185412380Y-112331500D01*
X183705500Y-113728500D02*
X184411620Y-113728500D01*
X183705500Y-113728500D02*
X183705500Y-112331500D01*
X183705500Y-112331500D02*
X184411620Y-112331500D01*
G04 #@! TO.C,R49*
X185412380Y-115252500D02*
X186118500Y-115252500D01*
X186118500Y-115252500D02*
X186118500Y-113855500D01*
X186118500Y-113855500D02*
X185412380Y-113855500D01*
X183705500Y-115252500D02*
X184411620Y-115252500D01*
X183705500Y-115252500D02*
X183705500Y-113855500D01*
X183705500Y-113855500D02*
X184411620Y-113855500D01*
G04 #@! TO.C,R50*
X185412380Y-116776500D02*
X186118500Y-116776500D01*
X186118500Y-116776500D02*
X186118500Y-115379500D01*
X186118500Y-115379500D02*
X185412380Y-115379500D01*
X183705500Y-116776500D02*
X184411620Y-116776500D01*
X183705500Y-116776500D02*
X183705500Y-115379500D01*
X183705500Y-115379500D02*
X184411620Y-115379500D01*
G04 #@! TO.C,R51*
X185412380Y-118300500D02*
X186118500Y-118300500D01*
X186118500Y-118300500D02*
X186118500Y-116903500D01*
X186118500Y-116903500D02*
X185412380Y-116903500D01*
X183705500Y-118300500D02*
X184411620Y-118300500D01*
X183705500Y-118300500D02*
X183705500Y-116903500D01*
X183705500Y-116903500D02*
X184411620Y-116903500D01*
G04 #@! TO.C,R103*
X163343500Y-95123380D02*
X163343500Y-95829500D01*
X163343500Y-95829500D02*
X164740500Y-95829500D01*
X164740500Y-95829500D02*
X164740500Y-95123380D01*
X163343500Y-93416500D02*
X163343500Y-94122620D01*
X163343500Y-93416500D02*
X164740500Y-93416500D01*
X164740500Y-93416500D02*
X164740500Y-94122620D01*
G04 #@! TO.C,R104*
X164893500Y-95123380D02*
X164893500Y-95829500D01*
X164893500Y-95829500D02*
X166290500Y-95829500D01*
X166290500Y-95829500D02*
X166290500Y-95123380D01*
X164893500Y-93416500D02*
X164893500Y-94122620D01*
X164893500Y-93416500D02*
X166290500Y-93416500D01*
X166290500Y-93416500D02*
X166290500Y-94122620D01*
G04 #@! TO.C,R401*
X168393500Y-92723380D02*
X168393500Y-93429500D01*
X168393500Y-93429500D02*
X169790500Y-93429500D01*
X169790500Y-93429500D02*
X169790500Y-92723380D01*
X168393500Y-91016500D02*
X168393500Y-91722620D01*
X168393500Y-91016500D02*
X169790500Y-91016500D01*
X169790500Y-91016500D02*
X169790500Y-91722620D01*
G04 #@! TO.C,U401*
X157875000Y-96801000D02*
X157875000Y-96928000D01*
X157875000Y-96928000D02*
X163209000Y-96928000D01*
X163209000Y-93118000D02*
X157875000Y-93118000D01*
X157875000Y-93118000D02*
X157875000Y-96801000D01*
X157875000Y-94515000D02*
X158383000Y-94515000D01*
X158383000Y-94515000D02*
X158383000Y-95531000D01*
X158383000Y-95531000D02*
X157875000Y-95531000D01*
X163209000Y-93118000D02*
X163209000Y-96928000D01*
D13*
G04 #@! TO.C,P3*
X171577000Y-118823740D02*
X187579000Y-118823740D01*
X187078620Y-122824240D02*
X172077380Y-122824240D01*
X171577000Y-123322080D02*
X187579000Y-123322080D01*
X184475120Y-122824240D02*
X184475120Y-122323860D01*
X184475120Y-122323860D02*
X184673240Y-122323860D01*
X184673240Y-122323860D02*
X184673240Y-122824240D01*
X180474620Y-122824240D02*
X180474620Y-122323860D01*
X180474620Y-122323860D02*
X180672740Y-122323860D01*
X180672740Y-122323860D02*
X180672740Y-122824240D01*
X182674260Y-122323860D02*
X182674260Y-122824240D01*
X182476140Y-122323860D02*
X182674260Y-122323860D01*
X182476140Y-122824240D02*
X182476140Y-122323860D01*
X176674780Y-122323860D02*
X176674780Y-122824240D01*
X176476660Y-122323860D02*
X176674780Y-122323860D01*
X176476660Y-122824240D02*
X176476660Y-122323860D01*
X174673260Y-122323860D02*
X174673260Y-122824240D01*
X174475140Y-122323860D02*
X174673260Y-122323860D01*
X174475140Y-122824240D02*
X174475140Y-122323860D01*
X178475640Y-122824240D02*
X178475640Y-122323860D01*
X178475640Y-122323860D02*
X178673760Y-122323860D01*
X178673760Y-122323860D02*
X178673760Y-122824240D01*
X187576460Y-120022620D02*
X187076080Y-120022620D01*
X187076080Y-121323100D02*
X187576460Y-121323100D01*
X172074840Y-121323100D02*
X171574460Y-121323100D01*
X172074840Y-120022620D02*
X171574460Y-120022620D01*
X174073820Y-118823740D02*
X174073820Y-119324120D01*
X174073820Y-119324120D02*
X172074840Y-119324120D01*
X172074840Y-119324120D02*
X172074840Y-122824240D01*
X187076080Y-122824240D02*
X187076080Y-119324120D01*
X187076080Y-119324120D02*
X185077100Y-119324120D01*
X185077100Y-119324120D02*
X185077100Y-118823740D01*
X171574460Y-118823740D02*
X171574460Y-123322080D01*
X187576460Y-118823740D02*
X187576460Y-123322080D01*
X173273720Y-118823740D02*
X173273720Y-118623080D01*
X173273720Y-118623080D02*
X172974000Y-118623080D01*
X172974000Y-118623080D02*
X172974000Y-118823740D01*
D17*
G04 #@! TO.C,C401*
X160141620Y-98572760D02*
X159443120Y-98572760D01*
X161142380Y-98572760D02*
X161840880Y-98572760D01*
X160141620Y-99873240D02*
X159443120Y-99873240D01*
X161840880Y-99873240D02*
X161142380Y-99873240D01*
X159443120Y-99858000D02*
X159443120Y-98588000D01*
X161840880Y-98588000D02*
X161840880Y-99858000D01*
G04 #@! TO.C,C41*
X164599620Y-117332760D02*
X163901120Y-117332760D01*
X165600380Y-117332760D02*
X166298880Y-117332760D01*
X164599620Y-118633240D02*
X163901120Y-118633240D01*
X166298880Y-118633240D02*
X165600380Y-118633240D01*
X163901120Y-118618000D02*
X163901120Y-117348000D01*
X166298880Y-117348000D02*
X166298880Y-118618000D01*
G04 #@! TO.C,C36*
X182229760Y-117213380D02*
X182229760Y-117911880D01*
X182229760Y-116212620D02*
X182229760Y-115514120D01*
X183530240Y-117213380D02*
X183530240Y-117911880D01*
X183530240Y-115514120D02*
X183530240Y-116212620D01*
X183515000Y-117911880D02*
X182245000Y-117911880D01*
X182245000Y-115514120D02*
X183515000Y-115514120D01*
G04 #@! TO.C,C35*
X153781760Y-102100380D02*
X153781760Y-102798880D01*
X153781760Y-101099620D02*
X153781760Y-100401120D01*
X155082240Y-102100380D02*
X155082240Y-102798880D01*
X155082240Y-100401120D02*
X155082240Y-101099620D01*
X155067000Y-102798880D02*
X153797000Y-102798880D01*
X153797000Y-100401120D02*
X155067000Y-100401120D01*
G04 #@! TO.C,C34*
X182229760Y-114419380D02*
X182229760Y-115117880D01*
X182229760Y-113418620D02*
X182229760Y-112720120D01*
X183530240Y-114419380D02*
X183530240Y-115117880D01*
X183530240Y-112720120D02*
X183530240Y-113418620D01*
X183515000Y-115117880D02*
X182245000Y-115117880D01*
X182245000Y-112720120D02*
X183515000Y-112720120D01*
G04 #@! TO.C,C30*
X184165240Y-109862620D02*
X184165240Y-109164120D01*
X184165240Y-110863380D02*
X184165240Y-111561880D01*
X182864760Y-109862620D02*
X182864760Y-109164120D01*
X182864760Y-111561880D02*
X182864760Y-110863380D01*
X182880000Y-109164120D02*
X184150000Y-109164120D01*
X184150000Y-111561880D02*
X182880000Y-111561880D01*
G04 #@! TO.C,C29*
X186832240Y-107449620D02*
X186832240Y-106751120D01*
X186832240Y-108450380D02*
X186832240Y-109148880D01*
X185531760Y-107449620D02*
X185531760Y-106751120D01*
X185531760Y-109148880D02*
X185531760Y-108450380D01*
X185547000Y-106751120D02*
X186817000Y-106751120D01*
X186817000Y-109148880D02*
X185547000Y-109148880D01*
G04 #@! TO.C,C28*
X184038240Y-105163620D02*
X184038240Y-104465120D01*
X184038240Y-106164380D02*
X184038240Y-106862880D01*
X182737760Y-105163620D02*
X182737760Y-104465120D01*
X182737760Y-106862880D02*
X182737760Y-106164380D01*
X182753000Y-104465120D02*
X184023000Y-104465120D01*
X184023000Y-106862880D02*
X182753000Y-106862880D01*
G04 #@! TO.C,C27*
X182768240Y-102115620D02*
X182768240Y-101417120D01*
X182768240Y-103116380D02*
X182768240Y-103814880D01*
X181467760Y-102115620D02*
X181467760Y-101417120D01*
X181467760Y-103814880D02*
X181467760Y-103116380D01*
X181483000Y-101417120D02*
X182753000Y-101417120D01*
X182753000Y-103814880D02*
X181483000Y-103814880D01*
G04 #@! TO.C,C23*
X170322240Y-115323620D02*
X170322240Y-114625120D01*
X170322240Y-116324380D02*
X170322240Y-117022880D01*
X169021760Y-115323620D02*
X169021760Y-114625120D01*
X169021760Y-117022880D02*
X169021760Y-116324380D01*
X169037000Y-114625120D02*
X170307000Y-114625120D01*
X170307000Y-117022880D02*
X169037000Y-117022880D01*
G04 #@! TO.C,C22*
X168259760Y-109212380D02*
X168259760Y-109910880D01*
X168259760Y-108211620D02*
X168259760Y-107513120D01*
X169560240Y-109212380D02*
X169560240Y-109910880D01*
X169560240Y-107513120D02*
X169560240Y-108211620D01*
X169545000Y-109910880D02*
X168275000Y-109910880D01*
X168275000Y-107513120D02*
X169545000Y-107513120D01*
G04 #@! TO.C,C21*
X168155620Y-98536760D02*
X167457120Y-98536760D01*
X169156380Y-98536760D02*
X169854880Y-98536760D01*
X168155620Y-99837240D02*
X167457120Y-99837240D01*
X169854880Y-99837240D02*
X169156380Y-99837240D01*
X167457120Y-99822000D02*
X167457120Y-98552000D01*
X169854880Y-98552000D02*
X169854880Y-99822000D01*
G04 #@! TO.C,C19*
X168767760Y-101719380D02*
X168767760Y-102417880D01*
X168767760Y-100718620D02*
X168767760Y-100020120D01*
X170068240Y-101719380D02*
X170068240Y-102417880D01*
X170068240Y-100020120D02*
X170068240Y-100718620D01*
X170053000Y-102417880D02*
X168783000Y-102417880D01*
X168783000Y-100020120D02*
X170053000Y-100020120D01*
G04 #@! TO.C,C13*
X164838380Y-99964240D02*
X165536880Y-99964240D01*
X163837620Y-99964240D02*
X163139120Y-99964240D01*
X164838380Y-98663760D02*
X165536880Y-98663760D01*
X163139120Y-98663760D02*
X163837620Y-98663760D01*
X165536880Y-98679000D02*
X165536880Y-99949000D01*
X163139120Y-99949000D02*
X163139120Y-98679000D01*
G04 #@! TO.C,C12*
X169410380Y-105425240D02*
X170108880Y-105425240D01*
X168409620Y-105425240D02*
X167711120Y-105425240D01*
X169410380Y-104124760D02*
X170108880Y-104124760D01*
X167711120Y-104124760D02*
X168409620Y-104124760D01*
X170108880Y-104140000D02*
X170108880Y-105410000D01*
X167711120Y-105410000D02*
X167711120Y-104140000D01*
G04 #@! TO.C,C11*
X158898033Y-118161611D02*
X159391947Y-118655525D01*
X158190389Y-117453967D02*
X157696475Y-116960053D01*
X159817611Y-117242033D02*
X160311525Y-117735947D01*
X158616053Y-116040475D02*
X159109967Y-116534389D01*
X160300749Y-117746723D02*
X159402723Y-118644749D01*
X157707251Y-116949277D02*
X158605277Y-116051251D01*
G04 #@! TO.C,C10*
X164980620Y-113903760D02*
X164282120Y-113903760D01*
X165981380Y-113903760D02*
X166679880Y-113903760D01*
X164980620Y-115204240D02*
X164282120Y-115204240D01*
X166679880Y-115204240D02*
X165981380Y-115204240D01*
X164282120Y-115189000D02*
X164282120Y-113919000D01*
X166679880Y-113919000D02*
X166679880Y-115189000D01*
D18*
G04 #@! TO.C,X1*
X167957000Y-84650000D02*
X159957000Y-84650000D01*
D10*
G04 #@! TO.C,P4*
X202940000Y-110504000D02*
X202940000Y-105904000D01*
X202940000Y-105904000D02*
X208540000Y-105904000D01*
X208540000Y-105904000D02*
X208540000Y-110504000D01*
X208540000Y-110504000D02*
X202940000Y-110504000D01*
G04 #@! TO.C,R34*
D19*
X193702637Y-100290085D02*
X193940913Y-100137685D01*
X193702637Y-100028828D02*
X194203017Y-100028828D01*
X194203017Y-100203000D01*
X194179190Y-100246542D01*
X194155362Y-100268314D01*
X194107707Y-100290085D01*
X194036224Y-100290085D01*
X193988569Y-100268314D01*
X193964741Y-100246542D01*
X193940913Y-100203000D01*
X193940913Y-100028828D01*
X194203017Y-100442485D02*
X194203017Y-100725514D01*
X194012396Y-100573114D01*
X194012396Y-100638428D01*
X193988569Y-100681971D01*
X193964741Y-100703742D01*
X193917086Y-100725514D01*
X193797948Y-100725514D01*
X193750292Y-100703742D01*
X193726465Y-100681971D01*
X193702637Y-100638428D01*
X193702637Y-100507800D01*
X193726465Y-100464257D01*
X193750292Y-100442485D01*
X194036224Y-101117400D02*
X193702637Y-101117400D01*
X194226845Y-101008542D02*
X193869430Y-100899685D01*
X193869430Y-101182714D01*
G04 #@! TO.C,R28*
X191730085Y-96492362D02*
X191577685Y-96254086D01*
X191468828Y-96492362D02*
X191468828Y-95991982D01*
X191643000Y-95991982D01*
X191686542Y-96015810D01*
X191708314Y-96039637D01*
X191730085Y-96087292D01*
X191730085Y-96158775D01*
X191708314Y-96206430D01*
X191686542Y-96230258D01*
X191643000Y-96254086D01*
X191468828Y-96254086D01*
X191904257Y-96039637D02*
X191926028Y-96015810D01*
X191969571Y-95991982D01*
X192078428Y-95991982D01*
X192121971Y-96015810D01*
X192143742Y-96039637D01*
X192165514Y-96087292D01*
X192165514Y-96134948D01*
X192143742Y-96206430D01*
X191882485Y-96492362D01*
X192165514Y-96492362D01*
X192426771Y-96206430D02*
X192383228Y-96182603D01*
X192361457Y-96158775D01*
X192339685Y-96111120D01*
X192339685Y-96087292D01*
X192361457Y-96039637D01*
X192383228Y-96015810D01*
X192426771Y-95991982D01*
X192513857Y-95991982D01*
X192557400Y-96015810D01*
X192579171Y-96039637D01*
X192600942Y-96087292D01*
X192600942Y-96111120D01*
X192579171Y-96158775D01*
X192557400Y-96182603D01*
X192513857Y-96206430D01*
X192426771Y-96206430D01*
X192383228Y-96230258D01*
X192361457Y-96254086D01*
X192339685Y-96301741D01*
X192339685Y-96397051D01*
X192361457Y-96444707D01*
X192383228Y-96468534D01*
X192426771Y-96492362D01*
X192513857Y-96492362D01*
X192557400Y-96468534D01*
X192579171Y-96444707D01*
X192600942Y-96397051D01*
X192600942Y-96301741D01*
X192579171Y-96254086D01*
X192557400Y-96230258D01*
X192513857Y-96206430D01*
G04 #@! TO.C,R42*
X193702637Y-97623085D02*
X193940913Y-97470685D01*
X193702637Y-97361828D02*
X194203017Y-97361828D01*
X194203017Y-97536000D01*
X194179190Y-97579542D01*
X194155362Y-97601314D01*
X194107707Y-97623085D01*
X194036224Y-97623085D01*
X193988569Y-97601314D01*
X193964741Y-97579542D01*
X193940913Y-97536000D01*
X193940913Y-97361828D01*
X194036224Y-98014971D02*
X193702637Y-98014971D01*
X194226845Y-97906114D02*
X193869430Y-97797257D01*
X193869430Y-98080285D01*
X194155362Y-98232685D02*
X194179190Y-98254457D01*
X194203017Y-98298000D01*
X194203017Y-98406857D01*
X194179190Y-98450400D01*
X194155362Y-98472171D01*
X194107707Y-98493942D01*
X194060051Y-98493942D01*
X193988569Y-98472171D01*
X193702637Y-98210914D01*
X193702637Y-98493942D01*
G04 #@! TO.C,C46*
D10*
X228151142Y-107157142D02*
X228103523Y-107204761D01*
X227960666Y-107252380D01*
X227865428Y-107252380D01*
X227722571Y-107204761D01*
X227627333Y-107109523D01*
X227579714Y-107014285D01*
X227532095Y-106823809D01*
X227532095Y-106680952D01*
X227579714Y-106490476D01*
X227627333Y-106395238D01*
X227722571Y-106300000D01*
X227865428Y-106252380D01*
X227960666Y-106252380D01*
X228103523Y-106300000D01*
X228151142Y-106347619D01*
X229008285Y-106585714D02*
X229008285Y-107252380D01*
X228770190Y-106204761D02*
X228532095Y-106919047D01*
X229151142Y-106919047D01*
X229960666Y-106252380D02*
X229770190Y-106252380D01*
X229674952Y-106300000D01*
X229627333Y-106347619D01*
X229532095Y-106490476D01*
X229484476Y-106680952D01*
X229484476Y-107061904D01*
X229532095Y-107157142D01*
X229579714Y-107204761D01*
X229674952Y-107252380D01*
X229865428Y-107252380D01*
X229960666Y-107204761D01*
X230008285Y-107157142D01*
X230055904Y-107061904D01*
X230055904Y-106823809D01*
X230008285Y-106728571D01*
X229960666Y-106680952D01*
X229865428Y-106633333D01*
X229674952Y-106633333D01*
X229579714Y-106680952D01*
X229532095Y-106728571D01*
X229484476Y-106823809D01*
G04 #@! TO.C,C45*
X212911142Y-107157142D02*
X212863523Y-107204761D01*
X212720666Y-107252380D01*
X212625428Y-107252380D01*
X212482571Y-107204761D01*
X212387333Y-107109523D01*
X212339714Y-107014285D01*
X212292095Y-106823809D01*
X212292095Y-106680952D01*
X212339714Y-106490476D01*
X212387333Y-106395238D01*
X212482571Y-106300000D01*
X212625428Y-106252380D01*
X212720666Y-106252380D01*
X212863523Y-106300000D01*
X212911142Y-106347619D01*
X213768285Y-106585714D02*
X213768285Y-107252380D01*
X213530190Y-106204761D02*
X213292095Y-106919047D01*
X213911142Y-106919047D01*
X214768285Y-106252380D02*
X214292095Y-106252380D01*
X214244476Y-106728571D01*
X214292095Y-106680952D01*
X214387333Y-106633333D01*
X214625428Y-106633333D01*
X214720666Y-106680952D01*
X214768285Y-106728571D01*
X214815904Y-106823809D01*
X214815904Y-107061904D01*
X214768285Y-107157142D01*
X214720666Y-107204761D01*
X214625428Y-107252380D01*
X214387333Y-107252380D01*
X214292095Y-107204761D01*
X214244476Y-107157142D01*
G04 #@! TO.C,Q1*
X232703619Y-104235238D02*
X232656000Y-104330476D01*
X232560761Y-104425714D01*
X232417904Y-104568571D01*
X232370285Y-104663809D01*
X232370285Y-104759047D01*
X232608380Y-104711428D02*
X232560761Y-104806666D01*
X232465523Y-104901904D01*
X232275047Y-104949523D01*
X231941714Y-104949523D01*
X231751238Y-104901904D01*
X231656000Y-104806666D01*
X231608380Y-104711428D01*
X231608380Y-104520952D01*
X231656000Y-104425714D01*
X231751238Y-104330476D01*
X231941714Y-104282857D01*
X232275047Y-104282857D01*
X232465523Y-104330476D01*
X232560761Y-104425714D01*
X232608380Y-104520952D01*
X232608380Y-104711428D01*
X232608380Y-103330476D02*
X232608380Y-103901904D01*
X232608380Y-103616190D02*
X231608380Y-103616190D01*
X231751238Y-103711428D01*
X231846476Y-103806666D01*
X231894095Y-103901904D01*
G04 #@! TO.C,P7*
X208811904Y-86558380D02*
X208811904Y-85558380D01*
X209192857Y-85558380D01*
X209288095Y-85606000D01*
X209335714Y-85653619D01*
X209383333Y-85748857D01*
X209383333Y-85891714D01*
X209335714Y-85986952D01*
X209288095Y-86034571D01*
X209192857Y-86082190D01*
X208811904Y-86082190D01*
X209716666Y-85558380D02*
X210383333Y-85558380D01*
X209954761Y-86558380D01*
G04 #@! TO.C,P9*
X232179904Y-86304380D02*
X232179904Y-85304380D01*
X232560857Y-85304380D01*
X232656095Y-85352000D01*
X232703714Y-85399619D01*
X232751333Y-85494857D01*
X232751333Y-85637714D01*
X232703714Y-85732952D01*
X232656095Y-85780571D01*
X232560857Y-85828190D01*
X232179904Y-85828190D01*
X233227523Y-86304380D02*
X233418000Y-86304380D01*
X233513238Y-86256761D01*
X233560857Y-86209142D01*
X233656095Y-86066285D01*
X233703714Y-85875809D01*
X233703714Y-85494857D01*
X233656095Y-85399619D01*
X233608476Y-85352000D01*
X233513238Y-85304380D01*
X233322761Y-85304380D01*
X233227523Y-85352000D01*
X233179904Y-85399619D01*
X233132285Y-85494857D01*
X233132285Y-85732952D01*
X233179904Y-85828190D01*
X233227523Y-85875809D01*
X233322761Y-85923428D01*
X233513238Y-85923428D01*
X233608476Y-85875809D01*
X233656095Y-85828190D01*
X233703714Y-85732952D01*
G04 #@! TO.C,P6*
X193571904Y-86304380D02*
X193571904Y-85304380D01*
X193952857Y-85304380D01*
X194048095Y-85352000D01*
X194095714Y-85399619D01*
X194143333Y-85494857D01*
X194143333Y-85637714D01*
X194095714Y-85732952D01*
X194048095Y-85780571D01*
X193952857Y-85828190D01*
X193571904Y-85828190D01*
X195000476Y-85304380D02*
X194810000Y-85304380D01*
X194714761Y-85352000D01*
X194667142Y-85399619D01*
X194571904Y-85542476D01*
X194524285Y-85732952D01*
X194524285Y-86113904D01*
X194571904Y-86209142D01*
X194619523Y-86256761D01*
X194714761Y-86304380D01*
X194905238Y-86304380D01*
X195000476Y-86256761D01*
X195048095Y-86209142D01*
X195095714Y-86113904D01*
X195095714Y-85875809D01*
X195048095Y-85780571D01*
X195000476Y-85732952D01*
X194905238Y-85685333D01*
X194714761Y-85685333D01*
X194619523Y-85732952D01*
X194571904Y-85780571D01*
X194524285Y-85875809D01*
G04 #@! TO.C,Q2*
X232822761Y-93003619D02*
X232727523Y-92956000D01*
X232632285Y-92860761D01*
X232489428Y-92717904D01*
X232394190Y-92670285D01*
X232298952Y-92670285D01*
X232346571Y-92908380D02*
X232251333Y-92860761D01*
X232156095Y-92765523D01*
X232108476Y-92575047D01*
X232108476Y-92241714D01*
X232156095Y-92051238D01*
X232251333Y-91956000D01*
X232346571Y-91908380D01*
X232537047Y-91908380D01*
X232632285Y-91956000D01*
X232727523Y-92051238D01*
X232775142Y-92241714D01*
X232775142Y-92575047D01*
X232727523Y-92765523D01*
X232632285Y-92860761D01*
X232537047Y-92908380D01*
X232346571Y-92908380D01*
X233156095Y-92003619D02*
X233203714Y-91956000D01*
X233298952Y-91908380D01*
X233537047Y-91908380D01*
X233632285Y-91956000D01*
X233679904Y-92003619D01*
X233727523Y-92098857D01*
X233727523Y-92194095D01*
X233679904Y-92336952D01*
X233108476Y-92908380D01*
X233727523Y-92908380D01*
G04 #@! TO.C,Q3*
X210859619Y-104235238D02*
X210812000Y-104330476D01*
X210716761Y-104425714D01*
X210573904Y-104568571D01*
X210526285Y-104663809D01*
X210526285Y-104759047D01*
X210764380Y-104711428D02*
X210716761Y-104806666D01*
X210621523Y-104901904D01*
X210431047Y-104949523D01*
X210097714Y-104949523D01*
X209907238Y-104901904D01*
X209812000Y-104806666D01*
X209764380Y-104711428D01*
X209764380Y-104520952D01*
X209812000Y-104425714D01*
X209907238Y-104330476D01*
X210097714Y-104282857D01*
X210431047Y-104282857D01*
X210621523Y-104330476D01*
X210716761Y-104425714D01*
X210764380Y-104520952D01*
X210764380Y-104711428D01*
X209764380Y-103949523D02*
X209764380Y-103330476D01*
X210145333Y-103663809D01*
X210145333Y-103520952D01*
X210192952Y-103425714D01*
X210240571Y-103378095D01*
X210335809Y-103330476D01*
X210573904Y-103330476D01*
X210669142Y-103378095D01*
X210716761Y-103425714D01*
X210764380Y-103520952D01*
X210764380Y-103806666D01*
X210716761Y-103901904D01*
X210669142Y-103949523D01*
G04 #@! TO.C,C42*
X197671142Y-107157142D02*
X197623523Y-107204761D01*
X197480666Y-107252380D01*
X197385428Y-107252380D01*
X197242571Y-107204761D01*
X197147333Y-107109523D01*
X197099714Y-107014285D01*
X197052095Y-106823809D01*
X197052095Y-106680952D01*
X197099714Y-106490476D01*
X197147333Y-106395238D01*
X197242571Y-106300000D01*
X197385428Y-106252380D01*
X197480666Y-106252380D01*
X197623523Y-106300000D01*
X197671142Y-106347619D01*
X198528285Y-106585714D02*
X198528285Y-107252380D01*
X198290190Y-106204761D02*
X198052095Y-106919047D01*
X198671142Y-106919047D01*
X199004476Y-106347619D02*
X199052095Y-106300000D01*
X199147333Y-106252380D01*
X199385428Y-106252380D01*
X199480666Y-106300000D01*
X199528285Y-106347619D01*
X199575904Y-106442857D01*
X199575904Y-106538095D01*
X199528285Y-106680952D01*
X198956857Y-107252380D01*
X199575904Y-107252380D01*
G04 #@! TO.C,Q6*
X193960761Y-93003619D02*
X193865523Y-92956000D01*
X193770285Y-92860761D01*
X193627428Y-92717904D01*
X193532190Y-92670285D01*
X193436952Y-92670285D01*
X193484571Y-92908380D02*
X193389333Y-92860761D01*
X193294095Y-92765523D01*
X193246476Y-92575047D01*
X193246476Y-92241714D01*
X193294095Y-92051238D01*
X193389333Y-91956000D01*
X193484571Y-91908380D01*
X193675047Y-91908380D01*
X193770285Y-91956000D01*
X193865523Y-92051238D01*
X193913142Y-92241714D01*
X193913142Y-92575047D01*
X193865523Y-92765523D01*
X193770285Y-92860761D01*
X193675047Y-92908380D01*
X193484571Y-92908380D01*
X194770285Y-91908380D02*
X194579809Y-91908380D01*
X194484571Y-91956000D01*
X194436952Y-92003619D01*
X194341714Y-92146476D01*
X194294095Y-92336952D01*
X194294095Y-92717904D01*
X194341714Y-92813142D01*
X194389333Y-92860761D01*
X194484571Y-92908380D01*
X194675047Y-92908380D01*
X194770285Y-92860761D01*
X194817904Y-92813142D01*
X194865523Y-92717904D01*
X194865523Y-92479809D01*
X194817904Y-92384571D01*
X194770285Y-92336952D01*
X194675047Y-92289333D01*
X194484571Y-92289333D01*
X194389333Y-92336952D01*
X194341714Y-92384571D01*
X194294095Y-92479809D01*
G04 #@! TO.C,Q4*
X209708761Y-93003619D02*
X209613523Y-92956000D01*
X209518285Y-92860761D01*
X209375428Y-92717904D01*
X209280190Y-92670285D01*
X209184952Y-92670285D01*
X209232571Y-92908380D02*
X209137333Y-92860761D01*
X209042095Y-92765523D01*
X208994476Y-92575047D01*
X208994476Y-92241714D01*
X209042095Y-92051238D01*
X209137333Y-91956000D01*
X209232571Y-91908380D01*
X209423047Y-91908380D01*
X209518285Y-91956000D01*
X209613523Y-92051238D01*
X209661142Y-92241714D01*
X209661142Y-92575047D01*
X209613523Y-92765523D01*
X209518285Y-92860761D01*
X209423047Y-92908380D01*
X209232571Y-92908380D01*
X210518285Y-92241714D02*
X210518285Y-92908380D01*
X210280190Y-91860761D02*
X210042095Y-92575047D01*
X210661142Y-92575047D01*
G04 #@! TO.C,Q5*
X195619619Y-103981238D02*
X195572000Y-104076476D01*
X195476761Y-104171714D01*
X195333904Y-104314571D01*
X195286285Y-104409809D01*
X195286285Y-104505047D01*
X195524380Y-104457428D02*
X195476761Y-104552666D01*
X195381523Y-104647904D01*
X195191047Y-104695523D01*
X194857714Y-104695523D01*
X194667238Y-104647904D01*
X194572000Y-104552666D01*
X194524380Y-104457428D01*
X194524380Y-104266952D01*
X194572000Y-104171714D01*
X194667238Y-104076476D01*
X194857714Y-104028857D01*
X195191047Y-104028857D01*
X195381523Y-104076476D01*
X195476761Y-104171714D01*
X195524380Y-104266952D01*
X195524380Y-104457428D01*
X194524380Y-103124095D02*
X194524380Y-103600285D01*
X195000571Y-103647904D01*
X194952952Y-103600285D01*
X194905333Y-103505047D01*
X194905333Y-103266952D01*
X194952952Y-103171714D01*
X195000571Y-103124095D01*
X195095809Y-103076476D01*
X195333904Y-103076476D01*
X195429142Y-103124095D01*
X195476761Y-103171714D01*
X195524380Y-103266952D01*
X195524380Y-103505047D01*
X195476761Y-103600285D01*
X195429142Y-103647904D01*
G04 #@! TO.C,P1*
D11*
X154153904Y-85975380D02*
X154153904Y-84975380D01*
X154534857Y-84975380D01*
X154630095Y-85023000D01*
X154677714Y-85070619D01*
X154725333Y-85165857D01*
X154725333Y-85308714D01*
X154677714Y-85403952D01*
X154630095Y-85451571D01*
X154534857Y-85499190D01*
X154153904Y-85499190D01*
X155677714Y-85975380D02*
X155106285Y-85975380D01*
X155392000Y-85975380D02*
X155392000Y-84975380D01*
X155296761Y-85118238D01*
X155201523Y-85213476D01*
X155106285Y-85261095D01*
G04 #@! TO.C,P101*
D20*
X180208666Y-85539666D02*
X180208666Y-84839666D01*
X180475333Y-84839666D01*
X180542000Y-84873000D01*
X180575333Y-84906333D01*
X180608666Y-84973000D01*
X180608666Y-85073000D01*
X180575333Y-85139666D01*
X180542000Y-85173000D01*
X180475333Y-85206333D01*
X180208666Y-85206333D01*
X181275333Y-85539666D02*
X180875333Y-85539666D01*
X181075333Y-85539666D02*
X181075333Y-84839666D01*
X181008666Y-84939666D01*
X180942000Y-85006333D01*
X180875333Y-85039666D01*
X181708666Y-84839666D02*
X181775333Y-84839666D01*
X181842000Y-84873000D01*
X181875333Y-84906333D01*
X181908666Y-84973000D01*
X181942000Y-85106333D01*
X181942000Y-85273000D01*
X181908666Y-85406333D01*
X181875333Y-85473000D01*
X181842000Y-85506333D01*
X181775333Y-85539666D01*
X181708666Y-85539666D01*
X181642000Y-85506333D01*
X181608666Y-85473000D01*
X181575333Y-85406333D01*
X181542000Y-85273000D01*
X181542000Y-85106333D01*
X181575333Y-84973000D01*
X181608666Y-84906333D01*
X181642000Y-84873000D01*
X181708666Y-84839666D01*
X182608666Y-85539666D02*
X182208666Y-85539666D01*
X182408666Y-85539666D02*
X182408666Y-84839666D01*
X182342000Y-84939666D01*
X182275333Y-85006333D01*
X182208666Y-85039666D01*
G04 #@! TO.C,P2*
D11*
X155653904Y-122975380D02*
X155653904Y-121975380D01*
X156034857Y-121975380D01*
X156130095Y-122023000D01*
X156177714Y-122070619D01*
X156225333Y-122165857D01*
X156225333Y-122308714D01*
X156177714Y-122403952D01*
X156130095Y-122451571D01*
X156034857Y-122499190D01*
X155653904Y-122499190D01*
X156606285Y-122070619D02*
X156653904Y-122023000D01*
X156749142Y-121975380D01*
X156987238Y-121975380D01*
X157082476Y-122023000D01*
X157130095Y-122070619D01*
X157177714Y-122165857D01*
X157177714Y-122261095D01*
X157130095Y-122403952D01*
X156558666Y-122975380D01*
X157177714Y-122975380D01*
G04 #@! TO.C,K1*
D20*
X153605666Y-114054666D02*
X152905666Y-114054666D01*
X153605666Y-113654666D02*
X153205666Y-113954666D01*
X152905666Y-113654666D02*
X153305666Y-114054666D01*
X153605666Y-112988000D02*
X153605666Y-113388000D01*
X153605666Y-113188000D02*
X152905666Y-113188000D01*
X153005666Y-113254666D01*
X153072333Y-113321333D01*
X153105666Y-113388000D01*
G04 #@! TO.C,C37*
D17*
X186868707Y-89257232D02*
X186892534Y-89281060D01*
X186916362Y-89352543D01*
X186916362Y-89400198D01*
X186892534Y-89471681D01*
X186844879Y-89519336D01*
X186797224Y-89543164D01*
X186701913Y-89566991D01*
X186630430Y-89566991D01*
X186535120Y-89543164D01*
X186487465Y-89519336D01*
X186439810Y-89471681D01*
X186415982Y-89400198D01*
X186415982Y-89352543D01*
X186439810Y-89281060D01*
X186463637Y-89257232D01*
X186415982Y-89090439D02*
X186415982Y-88780680D01*
X186606603Y-88947473D01*
X186606603Y-88875990D01*
X186630430Y-88828335D01*
X186654258Y-88804508D01*
X186701913Y-88780680D01*
X186821051Y-88780680D01*
X186868707Y-88804508D01*
X186892534Y-88828335D01*
X186916362Y-88875990D01*
X186916362Y-89018956D01*
X186892534Y-89066611D01*
X186868707Y-89090439D01*
X186415982Y-88613887D02*
X186415982Y-88280300D01*
X186916362Y-88494749D01*
G04 #@! TO.C,L1*
D21*
X182181428Y-92977000D02*
X182181428Y-93702714D01*
X180657428Y-93702714D01*
X182181428Y-91670714D02*
X182181428Y-92541571D01*
X182181428Y-92106142D02*
X180657428Y-92106142D01*
X180875142Y-92251285D01*
X181020285Y-92396428D01*
X181092857Y-92541571D01*
G04 #@! TO.C,P5*
D11*
X218130380Y-108942095D02*
X217130380Y-108942095D01*
X217130380Y-108561142D01*
X217178000Y-108465904D01*
X217225619Y-108418285D01*
X217320857Y-108370666D01*
X217463714Y-108370666D01*
X217558952Y-108418285D01*
X217606571Y-108465904D01*
X217654190Y-108561142D01*
X217654190Y-108942095D01*
X217130380Y-107465904D02*
X217130380Y-107942095D01*
X217606571Y-107989714D01*
X217558952Y-107942095D01*
X217511333Y-107846857D01*
X217511333Y-107608761D01*
X217558952Y-107513523D01*
X217606571Y-107465904D01*
X217701809Y-107418285D01*
X217939904Y-107418285D01*
X218035142Y-107465904D01*
X218082761Y-107513523D01*
X218130380Y-107608761D01*
X218130380Y-107846857D01*
X218082761Y-107942095D01*
X218035142Y-107989714D01*
G04 #@! TO.C,U1*
D22*
X154021669Y-112584895D02*
X154628245Y-112584895D01*
X154699607Y-112549214D01*
X154735288Y-112513533D01*
X154770969Y-112442171D01*
X154770969Y-112299447D01*
X154735288Y-112228085D01*
X154699607Y-112192404D01*
X154628245Y-112156723D01*
X154021669Y-112156723D01*
X154770969Y-111407423D02*
X154770969Y-111835595D01*
X154770969Y-111621509D02*
X154021669Y-111621509D01*
X154128711Y-111692871D01*
X154200073Y-111764233D01*
X154235754Y-111835595D01*
G04 #@! TO.C,U3*
X174087669Y-108647895D02*
X174694245Y-108647895D01*
X174765607Y-108612214D01*
X174801288Y-108576533D01*
X174836969Y-108505171D01*
X174836969Y-108362447D01*
X174801288Y-108291085D01*
X174765607Y-108255404D01*
X174694245Y-108219723D01*
X174087669Y-108219723D01*
X174087669Y-107934276D02*
X174087669Y-107470423D01*
X174373116Y-107720190D01*
X174373116Y-107613147D01*
X174408797Y-107541785D01*
X174444478Y-107506104D01*
X174515840Y-107470423D01*
X174694245Y-107470423D01*
X174765607Y-107506104D01*
X174801288Y-107541785D01*
X174836969Y-107613147D01*
X174836969Y-107827233D01*
X174801288Y-107898595D01*
X174765607Y-107934276D01*
G04 #@! TO.C,C1*
D12*
X184295142Y-87376000D02*
X184331428Y-87412285D01*
X184367714Y-87521142D01*
X184367714Y-87593714D01*
X184331428Y-87702571D01*
X184258857Y-87775142D01*
X184186285Y-87811428D01*
X184041142Y-87847714D01*
X183932285Y-87847714D01*
X183787142Y-87811428D01*
X183714571Y-87775142D01*
X183642000Y-87702571D01*
X183605714Y-87593714D01*
X183605714Y-87521142D01*
X183642000Y-87412285D01*
X183678285Y-87376000D01*
X184367714Y-86650285D02*
X184367714Y-87085714D01*
X184367714Y-86868000D02*
X183605714Y-86868000D01*
X183714571Y-86940571D01*
X183787142Y-87013142D01*
X183823428Y-87085714D01*
G04 #@! TO.C,C8*
X183787142Y-91059000D02*
X183823428Y-91095285D01*
X183859714Y-91204142D01*
X183859714Y-91276714D01*
X183823428Y-91385571D01*
X183750857Y-91458142D01*
X183678285Y-91494428D01*
X183533142Y-91530714D01*
X183424285Y-91530714D01*
X183279142Y-91494428D01*
X183206571Y-91458142D01*
X183134000Y-91385571D01*
X183097714Y-91276714D01*
X183097714Y-91204142D01*
X183134000Y-91095285D01*
X183170285Y-91059000D01*
X183424285Y-90623571D02*
X183388000Y-90696142D01*
X183351714Y-90732428D01*
X183279142Y-90768714D01*
X183242857Y-90768714D01*
X183170285Y-90732428D01*
X183134000Y-90696142D01*
X183097714Y-90623571D01*
X183097714Y-90478428D01*
X183134000Y-90405857D01*
X183170285Y-90369571D01*
X183242857Y-90333285D01*
X183279142Y-90333285D01*
X183351714Y-90369571D01*
X183388000Y-90405857D01*
X183424285Y-90478428D01*
X183424285Y-90623571D01*
X183460571Y-90696142D01*
X183496857Y-90732428D01*
X183569428Y-90768714D01*
X183714571Y-90768714D01*
X183787142Y-90732428D01*
X183823428Y-90696142D01*
X183859714Y-90623571D01*
X183859714Y-90478428D01*
X183823428Y-90405857D01*
X183787142Y-90369571D01*
X183714571Y-90333285D01*
X183569428Y-90333285D01*
X183496857Y-90369571D01*
X183460571Y-90405857D01*
X183424285Y-90478428D01*
G04 #@! TO.C,C39*
X171595142Y-118382142D02*
X171558857Y-118418428D01*
X171450000Y-118454714D01*
X171377428Y-118454714D01*
X171268571Y-118418428D01*
X171196000Y-118345857D01*
X171159714Y-118273285D01*
X171123428Y-118128142D01*
X171123428Y-118019285D01*
X171159714Y-117874142D01*
X171196000Y-117801571D01*
X171268571Y-117729000D01*
X171377428Y-117692714D01*
X171450000Y-117692714D01*
X171558857Y-117729000D01*
X171595142Y-117765285D01*
X171849142Y-117692714D02*
X172320857Y-117692714D01*
X172066857Y-117983000D01*
X172175714Y-117983000D01*
X172248285Y-118019285D01*
X172284571Y-118055571D01*
X172320857Y-118128142D01*
X172320857Y-118309571D01*
X172284571Y-118382142D01*
X172248285Y-118418428D01*
X172175714Y-118454714D01*
X171958000Y-118454714D01*
X171885428Y-118418428D01*
X171849142Y-118382142D01*
X172683714Y-118454714D02*
X172828857Y-118454714D01*
X172901428Y-118418428D01*
X172937714Y-118382142D01*
X173010285Y-118273285D01*
X173046571Y-118128142D01*
X173046571Y-117837857D01*
X173010285Y-117765285D01*
X172974000Y-117729000D01*
X172901428Y-117692714D01*
X172756285Y-117692714D01*
X172683714Y-117729000D01*
X172647428Y-117765285D01*
X172611142Y-117837857D01*
X172611142Y-118019285D01*
X172647428Y-118091857D01*
X172683714Y-118128142D01*
X172756285Y-118164428D01*
X172901428Y-118164428D01*
X172974000Y-118128142D01*
X173010285Y-118091857D01*
X173046571Y-118019285D01*
G04 #@! TO.C,R1*
D19*
X188772800Y-119733362D02*
X188620400Y-119495086D01*
X188511542Y-119733362D02*
X188511542Y-119232982D01*
X188685714Y-119232982D01*
X188729257Y-119256810D01*
X188751028Y-119280637D01*
X188772800Y-119328292D01*
X188772800Y-119399775D01*
X188751028Y-119447430D01*
X188729257Y-119471258D01*
X188685714Y-119495086D01*
X188511542Y-119495086D01*
X189208228Y-119733362D02*
X188946971Y-119733362D01*
X189077600Y-119733362D02*
X189077600Y-119232982D01*
X189034057Y-119304465D01*
X188990514Y-119352120D01*
X188946971Y-119375948D01*
G04 #@! TO.C,R2*
X161008362Y-118059200D02*
X160770086Y-118211600D01*
X161008362Y-118320457D02*
X160507982Y-118320457D01*
X160507982Y-118146285D01*
X160531810Y-118102742D01*
X160555637Y-118080971D01*
X160603292Y-118059200D01*
X160674775Y-118059200D01*
X160722430Y-118080971D01*
X160746258Y-118102742D01*
X160770086Y-118146285D01*
X160770086Y-118320457D01*
X160555637Y-117885028D02*
X160531810Y-117863257D01*
X160507982Y-117819714D01*
X160507982Y-117710857D01*
X160531810Y-117667314D01*
X160555637Y-117645542D01*
X160603292Y-117623771D01*
X160650948Y-117623771D01*
X160722430Y-117645542D01*
X161008362Y-117906800D01*
X161008362Y-117623771D01*
G04 #@! TO.C,R17*
X170878085Y-95206362D02*
X170725685Y-94968086D01*
X170616828Y-95206362D02*
X170616828Y-94705982D01*
X170791000Y-94705982D01*
X170834542Y-94729810D01*
X170856314Y-94753637D01*
X170878085Y-94801292D01*
X170878085Y-94872775D01*
X170856314Y-94920430D01*
X170834542Y-94944258D01*
X170791000Y-94968086D01*
X170616828Y-94968086D01*
X171313514Y-95206362D02*
X171052257Y-95206362D01*
X171182885Y-95206362D02*
X171182885Y-94705982D01*
X171139342Y-94777465D01*
X171095800Y-94825120D01*
X171052257Y-94848948D01*
X171465914Y-94705982D02*
X171770714Y-94705982D01*
X171574771Y-95206362D01*
G04 #@! TO.C,R18*
X170878085Y-97746362D02*
X170725685Y-97508086D01*
X170616828Y-97746362D02*
X170616828Y-97245982D01*
X170791000Y-97245982D01*
X170834542Y-97269810D01*
X170856314Y-97293637D01*
X170878085Y-97341292D01*
X170878085Y-97412775D01*
X170856314Y-97460430D01*
X170834542Y-97484258D01*
X170791000Y-97508086D01*
X170616828Y-97508086D01*
X171313514Y-97746362D02*
X171052257Y-97746362D01*
X171182885Y-97746362D02*
X171182885Y-97245982D01*
X171139342Y-97317465D01*
X171095800Y-97365120D01*
X171052257Y-97388948D01*
X171574771Y-97460430D02*
X171531228Y-97436603D01*
X171509457Y-97412775D01*
X171487685Y-97365120D01*
X171487685Y-97341292D01*
X171509457Y-97293637D01*
X171531228Y-97269810D01*
X171574771Y-97245982D01*
X171661857Y-97245982D01*
X171705400Y-97269810D01*
X171727171Y-97293637D01*
X171748942Y-97341292D01*
X171748942Y-97365120D01*
X171727171Y-97412775D01*
X171705400Y-97436603D01*
X171661857Y-97460430D01*
X171574771Y-97460430D01*
X171531228Y-97484258D01*
X171509457Y-97508086D01*
X171487685Y-97555741D01*
X171487685Y-97651051D01*
X171509457Y-97698707D01*
X171531228Y-97722534D01*
X171574771Y-97746362D01*
X171661857Y-97746362D01*
X171705400Y-97722534D01*
X171727171Y-97698707D01*
X171748942Y-97651051D01*
X171748942Y-97555741D01*
X171727171Y-97508086D01*
X171705400Y-97484258D01*
X171661857Y-97460430D01*
G04 #@! TO.C,R19*
X166850362Y-101131914D02*
X166612086Y-101284314D01*
X166850362Y-101393171D02*
X166349982Y-101393171D01*
X166349982Y-101219000D01*
X166373810Y-101175457D01*
X166397637Y-101153685D01*
X166445292Y-101131914D01*
X166516775Y-101131914D01*
X166564430Y-101153685D01*
X166588258Y-101175457D01*
X166612086Y-101219000D01*
X166612086Y-101393171D01*
X166850362Y-100696485D02*
X166850362Y-100957742D01*
X166850362Y-100827114D02*
X166349982Y-100827114D01*
X166421465Y-100870657D01*
X166469120Y-100914200D01*
X166492948Y-100957742D01*
X166850362Y-100478771D02*
X166850362Y-100391685D01*
X166826534Y-100348142D01*
X166802707Y-100326371D01*
X166731224Y-100282828D01*
X166635913Y-100261057D01*
X166445292Y-100261057D01*
X166397637Y-100282828D01*
X166373810Y-100304600D01*
X166349982Y-100348142D01*
X166349982Y-100435228D01*
X166373810Y-100478771D01*
X166397637Y-100500542D01*
X166445292Y-100522314D01*
X166564430Y-100522314D01*
X166612086Y-100500542D01*
X166635913Y-100478771D01*
X166659741Y-100435228D01*
X166659741Y-100348142D01*
X166635913Y-100304600D01*
X166612086Y-100282828D01*
X166564430Y-100261057D01*
G04 #@! TO.C,R20*
X170334637Y-102830085D02*
X170572913Y-102677685D01*
X170334637Y-102568828D02*
X170835017Y-102568828D01*
X170835017Y-102743000D01*
X170811190Y-102786542D01*
X170787362Y-102808314D01*
X170739707Y-102830085D01*
X170668224Y-102830085D01*
X170620569Y-102808314D01*
X170596741Y-102786542D01*
X170572913Y-102743000D01*
X170572913Y-102568828D01*
X170787362Y-103004257D02*
X170811190Y-103026028D01*
X170835017Y-103069571D01*
X170835017Y-103178428D01*
X170811190Y-103221971D01*
X170787362Y-103243742D01*
X170739707Y-103265514D01*
X170692051Y-103265514D01*
X170620569Y-103243742D01*
X170334637Y-102982485D01*
X170334637Y-103265514D01*
X170835017Y-103548542D02*
X170835017Y-103592085D01*
X170811190Y-103635628D01*
X170787362Y-103657400D01*
X170739707Y-103679171D01*
X170644396Y-103700942D01*
X170525258Y-103700942D01*
X170429948Y-103679171D01*
X170382292Y-103657400D01*
X170358465Y-103635628D01*
X170334637Y-103592085D01*
X170334637Y-103548542D01*
X170358465Y-103505000D01*
X170382292Y-103483228D01*
X170429948Y-103461457D01*
X170525258Y-103439685D01*
X170644396Y-103439685D01*
X170739707Y-103461457D01*
X170787362Y-103483228D01*
X170811190Y-103505000D01*
X170835017Y-103548542D01*
G04 #@! TO.C,R25*
X180312362Y-100623914D02*
X180074086Y-100776314D01*
X180312362Y-100885171D02*
X179811982Y-100885171D01*
X179811982Y-100711000D01*
X179835810Y-100667457D01*
X179859637Y-100645685D01*
X179907292Y-100623914D01*
X179978775Y-100623914D01*
X180026430Y-100645685D01*
X180050258Y-100667457D01*
X180074086Y-100711000D01*
X180074086Y-100885171D01*
X179859637Y-100449742D02*
X179835810Y-100427971D01*
X179811982Y-100384428D01*
X179811982Y-100275571D01*
X179835810Y-100232028D01*
X179859637Y-100210257D01*
X179907292Y-100188485D01*
X179954948Y-100188485D01*
X180026430Y-100210257D01*
X180312362Y-100471514D01*
X180312362Y-100188485D01*
X179811982Y-99774828D02*
X179811982Y-99992542D01*
X180050258Y-100014314D01*
X180026430Y-99992542D01*
X180002603Y-99949000D01*
X180002603Y-99840142D01*
X180026430Y-99796600D01*
X180050258Y-99774828D01*
X180097913Y-99753057D01*
X180217051Y-99753057D01*
X180264707Y-99774828D01*
X180288534Y-99796600D01*
X180312362Y-99840142D01*
X180312362Y-99949000D01*
X180288534Y-99992542D01*
X180264707Y-100014314D01*
G04 #@! TO.C,R48*
X186336637Y-112736085D02*
X186574913Y-112583685D01*
X186336637Y-112474828D02*
X186837017Y-112474828D01*
X186837017Y-112649000D01*
X186813190Y-112692542D01*
X186789362Y-112714314D01*
X186741707Y-112736085D01*
X186670224Y-112736085D01*
X186622569Y-112714314D01*
X186598741Y-112692542D01*
X186574913Y-112649000D01*
X186574913Y-112474828D01*
X186670224Y-113127971D02*
X186336637Y-113127971D01*
X186860845Y-113019114D02*
X186503430Y-112910257D01*
X186503430Y-113193285D01*
X186622569Y-113432771D02*
X186646396Y-113389228D01*
X186670224Y-113367457D01*
X186717879Y-113345685D01*
X186741707Y-113345685D01*
X186789362Y-113367457D01*
X186813190Y-113389228D01*
X186837017Y-113432771D01*
X186837017Y-113519857D01*
X186813190Y-113563400D01*
X186789362Y-113585171D01*
X186741707Y-113606942D01*
X186717879Y-113606942D01*
X186670224Y-113585171D01*
X186646396Y-113563400D01*
X186622569Y-113519857D01*
X186622569Y-113432771D01*
X186598741Y-113389228D01*
X186574913Y-113367457D01*
X186527258Y-113345685D01*
X186431948Y-113345685D01*
X186384292Y-113367457D01*
X186360465Y-113389228D01*
X186336637Y-113432771D01*
X186336637Y-113519857D01*
X186360465Y-113563400D01*
X186384292Y-113585171D01*
X186431948Y-113606942D01*
X186527258Y-113606942D01*
X186574913Y-113585171D01*
X186598741Y-113563400D01*
X186622569Y-113519857D01*
G04 #@! TO.C,R49*
X187352637Y-114260085D02*
X187590913Y-114107685D01*
X187352637Y-113998828D02*
X187853017Y-113998828D01*
X187853017Y-114173000D01*
X187829190Y-114216542D01*
X187805362Y-114238314D01*
X187757707Y-114260085D01*
X187686224Y-114260085D01*
X187638569Y-114238314D01*
X187614741Y-114216542D01*
X187590913Y-114173000D01*
X187590913Y-113998828D01*
X187686224Y-114651971D02*
X187352637Y-114651971D01*
X187876845Y-114543114D02*
X187519430Y-114434257D01*
X187519430Y-114717285D01*
X187352637Y-114913228D02*
X187352637Y-115000314D01*
X187376465Y-115043857D01*
X187400292Y-115065628D01*
X187471775Y-115109171D01*
X187567086Y-115130942D01*
X187757707Y-115130942D01*
X187805362Y-115109171D01*
X187829190Y-115087400D01*
X187853017Y-115043857D01*
X187853017Y-114956771D01*
X187829190Y-114913228D01*
X187805362Y-114891457D01*
X187757707Y-114869685D01*
X187638569Y-114869685D01*
X187590913Y-114891457D01*
X187567086Y-114913228D01*
X187543258Y-114956771D01*
X187543258Y-115043857D01*
X187567086Y-115087400D01*
X187590913Y-115109171D01*
X187638569Y-115130942D01*
G04 #@! TO.C,R50*
X186336637Y-115911085D02*
X186574913Y-115758685D01*
X186336637Y-115649828D02*
X186837017Y-115649828D01*
X186837017Y-115824000D01*
X186813190Y-115867542D01*
X186789362Y-115889314D01*
X186741707Y-115911085D01*
X186670224Y-115911085D01*
X186622569Y-115889314D01*
X186598741Y-115867542D01*
X186574913Y-115824000D01*
X186574913Y-115649828D01*
X186837017Y-116324742D02*
X186837017Y-116107028D01*
X186598741Y-116085257D01*
X186622569Y-116107028D01*
X186646396Y-116150571D01*
X186646396Y-116259428D01*
X186622569Y-116302971D01*
X186598741Y-116324742D01*
X186551086Y-116346514D01*
X186431948Y-116346514D01*
X186384292Y-116324742D01*
X186360465Y-116302971D01*
X186336637Y-116259428D01*
X186336637Y-116150571D01*
X186360465Y-116107028D01*
X186384292Y-116085257D01*
X186837017Y-116629542D02*
X186837017Y-116673085D01*
X186813190Y-116716628D01*
X186789362Y-116738400D01*
X186741707Y-116760171D01*
X186646396Y-116781942D01*
X186527258Y-116781942D01*
X186431948Y-116760171D01*
X186384292Y-116738400D01*
X186360465Y-116716628D01*
X186336637Y-116673085D01*
X186336637Y-116629542D01*
X186360465Y-116586000D01*
X186384292Y-116564228D01*
X186431948Y-116542457D01*
X186527258Y-116520685D01*
X186646396Y-116520685D01*
X186741707Y-116542457D01*
X186789362Y-116564228D01*
X186813190Y-116586000D01*
X186837017Y-116629542D01*
G04 #@! TO.C,R51*
X187352637Y-117308085D02*
X187590913Y-117155685D01*
X187352637Y-117046828D02*
X187853017Y-117046828D01*
X187853017Y-117221000D01*
X187829190Y-117264542D01*
X187805362Y-117286314D01*
X187757707Y-117308085D01*
X187686224Y-117308085D01*
X187638569Y-117286314D01*
X187614741Y-117264542D01*
X187590913Y-117221000D01*
X187590913Y-117046828D01*
X187853017Y-117721742D02*
X187853017Y-117504028D01*
X187614741Y-117482257D01*
X187638569Y-117504028D01*
X187662396Y-117547571D01*
X187662396Y-117656428D01*
X187638569Y-117699971D01*
X187614741Y-117721742D01*
X187567086Y-117743514D01*
X187447948Y-117743514D01*
X187400292Y-117721742D01*
X187376465Y-117699971D01*
X187352637Y-117656428D01*
X187352637Y-117547571D01*
X187376465Y-117504028D01*
X187400292Y-117482257D01*
X187352637Y-118178942D02*
X187352637Y-117917685D01*
X187352637Y-118048314D02*
X187853017Y-118048314D01*
X187781534Y-118004771D01*
X187733879Y-117961228D01*
X187710051Y-117917685D01*
G04 #@! TO.C,R103*
X163857637Y-91817371D02*
X164095913Y-91664971D01*
X163857637Y-91556114D02*
X164358017Y-91556114D01*
X164358017Y-91730285D01*
X164334190Y-91773828D01*
X164310362Y-91795600D01*
X164262707Y-91817371D01*
X164191224Y-91817371D01*
X164143569Y-91795600D01*
X164119741Y-91773828D01*
X164095913Y-91730285D01*
X164095913Y-91556114D01*
X163857637Y-92252800D02*
X163857637Y-91991542D01*
X163857637Y-92122171D02*
X164358017Y-92122171D01*
X164286534Y-92078628D01*
X164238879Y-92035085D01*
X164215051Y-91991542D01*
X164358017Y-92535828D02*
X164358017Y-92579371D01*
X164334190Y-92622914D01*
X164310362Y-92644685D01*
X164262707Y-92666457D01*
X164167396Y-92688228D01*
X164048258Y-92688228D01*
X163952948Y-92666457D01*
X163905292Y-92644685D01*
X163881465Y-92622914D01*
X163857637Y-92579371D01*
X163857637Y-92535828D01*
X163881465Y-92492285D01*
X163905292Y-92470514D01*
X163952948Y-92448742D01*
X164048258Y-92426971D01*
X164167396Y-92426971D01*
X164262707Y-92448742D01*
X164310362Y-92470514D01*
X164334190Y-92492285D01*
X164358017Y-92535828D01*
X164358017Y-92840628D02*
X164358017Y-93123657D01*
X164167396Y-92971257D01*
X164167396Y-93036571D01*
X164143569Y-93080114D01*
X164119741Y-93101885D01*
X164072086Y-93123657D01*
X163952948Y-93123657D01*
X163905292Y-93101885D01*
X163881465Y-93080114D01*
X163857637Y-93036571D01*
X163857637Y-92905942D01*
X163881465Y-92862400D01*
X163905292Y-92840628D01*
G04 #@! TO.C,R104*
X166651637Y-94103371D02*
X166889913Y-93950971D01*
X166651637Y-93842114D02*
X167152017Y-93842114D01*
X167152017Y-94016285D01*
X167128190Y-94059828D01*
X167104362Y-94081600D01*
X167056707Y-94103371D01*
X166985224Y-94103371D01*
X166937569Y-94081600D01*
X166913741Y-94059828D01*
X166889913Y-94016285D01*
X166889913Y-93842114D01*
X166651637Y-94538800D02*
X166651637Y-94277542D01*
X166651637Y-94408171D02*
X167152017Y-94408171D01*
X167080534Y-94364628D01*
X167032879Y-94321085D01*
X167009051Y-94277542D01*
X167152017Y-94821828D02*
X167152017Y-94865371D01*
X167128190Y-94908914D01*
X167104362Y-94930685D01*
X167056707Y-94952457D01*
X166961396Y-94974228D01*
X166842258Y-94974228D01*
X166746948Y-94952457D01*
X166699292Y-94930685D01*
X166675465Y-94908914D01*
X166651637Y-94865371D01*
X166651637Y-94821828D01*
X166675465Y-94778285D01*
X166699292Y-94756514D01*
X166746948Y-94734742D01*
X166842258Y-94712971D01*
X166961396Y-94712971D01*
X167056707Y-94734742D01*
X167104362Y-94756514D01*
X167128190Y-94778285D01*
X167152017Y-94821828D01*
X166985224Y-95366114D02*
X166651637Y-95366114D01*
X167175845Y-95257257D02*
X166818430Y-95148400D01*
X166818430Y-95431428D01*
G04 #@! TO.C,R401*
X168779371Y-94206362D02*
X168626971Y-93968086D01*
X168518114Y-94206362D02*
X168518114Y-93705982D01*
X168692285Y-93705982D01*
X168735828Y-93729810D01*
X168757600Y-93753637D01*
X168779371Y-93801292D01*
X168779371Y-93872775D01*
X168757600Y-93920430D01*
X168735828Y-93944258D01*
X168692285Y-93968086D01*
X168518114Y-93968086D01*
X169171257Y-93872775D02*
X169171257Y-94206362D01*
X169062400Y-93682154D02*
X168953542Y-94039569D01*
X169236571Y-94039569D01*
X169497828Y-93705982D02*
X169541371Y-93705982D01*
X169584914Y-93729810D01*
X169606685Y-93753637D01*
X169628457Y-93801292D01*
X169650228Y-93896603D01*
X169650228Y-94015741D01*
X169628457Y-94111051D01*
X169606685Y-94158707D01*
X169584914Y-94182534D01*
X169541371Y-94206362D01*
X169497828Y-94206362D01*
X169454285Y-94182534D01*
X169432514Y-94158707D01*
X169410742Y-94111051D01*
X169388971Y-94015741D01*
X169388971Y-93896603D01*
X169410742Y-93801292D01*
X169432514Y-93753637D01*
X169454285Y-93729810D01*
X169497828Y-93705982D01*
X170085657Y-94206362D02*
X169824400Y-94206362D01*
X169955028Y-94206362D02*
X169955028Y-93705982D01*
X169911485Y-93777465D01*
X169867942Y-93825120D01*
X169824400Y-93848948D01*
G04 #@! TO.C,U401*
D16*
X157408666Y-93023000D02*
X157975333Y-93023000D01*
X158042000Y-92989666D01*
X158075333Y-92956333D01*
X158108666Y-92889666D01*
X158108666Y-92756333D01*
X158075333Y-92689666D01*
X158042000Y-92656333D01*
X157975333Y-92623000D01*
X157408666Y-92623000D01*
X157642000Y-91989666D02*
X158108666Y-91989666D01*
X157375333Y-92156333D02*
X157875333Y-92323000D01*
X157875333Y-91889666D01*
X157408666Y-91489666D02*
X157408666Y-91423000D01*
X157442000Y-91356333D01*
X157475333Y-91323000D01*
X157542000Y-91289666D01*
X157675333Y-91256333D01*
X157842000Y-91256333D01*
X157975333Y-91289666D01*
X158042000Y-91323000D01*
X158075333Y-91356333D01*
X158108666Y-91423000D01*
X158108666Y-91489666D01*
X158075333Y-91556333D01*
X158042000Y-91589666D01*
X157975333Y-91623000D01*
X157842000Y-91656333D01*
X157675333Y-91656333D01*
X157542000Y-91623000D01*
X157475333Y-91589666D01*
X157442000Y-91556333D01*
X157408666Y-91489666D01*
X158108666Y-90589666D02*
X158108666Y-90989666D01*
X158108666Y-90789666D02*
X157408666Y-90789666D01*
X157508666Y-90856333D01*
X157575333Y-90923000D01*
X157608666Y-90989666D01*
G04 #@! TO.C,P3*
D21*
X178834142Y-118418428D02*
X178834142Y-116894428D01*
X179414714Y-116894428D01*
X179559857Y-116967000D01*
X179632428Y-117039571D01*
X179705000Y-117184714D01*
X179705000Y-117402428D01*
X179632428Y-117547571D01*
X179559857Y-117620142D01*
X179414714Y-117692714D01*
X178834142Y-117692714D01*
X180213000Y-116894428D02*
X181156428Y-116894428D01*
X180648428Y-117475000D01*
X180866142Y-117475000D01*
X181011285Y-117547571D01*
X181083857Y-117620142D01*
X181156428Y-117765285D01*
X181156428Y-118128142D01*
X181083857Y-118273285D01*
X181011285Y-118345857D01*
X180866142Y-118418428D01*
X180430714Y-118418428D01*
X180285571Y-118345857D01*
X180213000Y-118273285D01*
G04 #@! TO.C,C401*
D19*
X157980371Y-99204428D02*
X157958600Y-99228619D01*
X157893285Y-99252809D01*
X157849742Y-99252809D01*
X157784428Y-99228619D01*
X157740885Y-99180238D01*
X157719114Y-99131857D01*
X157697342Y-99035095D01*
X157697342Y-98962523D01*
X157719114Y-98865761D01*
X157740885Y-98817380D01*
X157784428Y-98769000D01*
X157849742Y-98744809D01*
X157893285Y-98744809D01*
X157958600Y-98769000D01*
X157980371Y-98793190D01*
X158372257Y-98914142D02*
X158372257Y-99252809D01*
X158263400Y-98720619D02*
X158154542Y-99083476D01*
X158437571Y-99083476D01*
X158698828Y-98744809D02*
X158742371Y-98744809D01*
X158785914Y-98769000D01*
X158807685Y-98793190D01*
X158829457Y-98841571D01*
X158851228Y-98938333D01*
X158851228Y-99059285D01*
X158829457Y-99156047D01*
X158807685Y-99204428D01*
X158785914Y-99228619D01*
X158742371Y-99252809D01*
X158698828Y-99252809D01*
X158655285Y-99228619D01*
X158633514Y-99204428D01*
X158611742Y-99156047D01*
X158589971Y-99059285D01*
X158589971Y-98938333D01*
X158611742Y-98841571D01*
X158633514Y-98793190D01*
X158655285Y-98769000D01*
X158698828Y-98744809D01*
X159286657Y-99252809D02*
X159025400Y-99252809D01*
X159156028Y-99252809D02*
X159156028Y-98744809D01*
X159112485Y-98817380D01*
X159068942Y-98865761D01*
X159025400Y-98889952D01*
G04 #@! TO.C,C41*
X164806085Y-119307428D02*
X164784314Y-119331619D01*
X164719000Y-119355809D01*
X164675457Y-119355809D01*
X164610142Y-119331619D01*
X164566600Y-119283238D01*
X164544828Y-119234857D01*
X164523057Y-119138095D01*
X164523057Y-119065523D01*
X164544828Y-118968761D01*
X164566600Y-118920380D01*
X164610142Y-118872000D01*
X164675457Y-118847809D01*
X164719000Y-118847809D01*
X164784314Y-118872000D01*
X164806085Y-118896190D01*
X165197971Y-119017142D02*
X165197971Y-119355809D01*
X165089114Y-118823619D02*
X164980257Y-119186476D01*
X165263285Y-119186476D01*
X165676942Y-119355809D02*
X165415685Y-119355809D01*
X165546314Y-119355809D02*
X165546314Y-118847809D01*
X165502771Y-118920380D01*
X165459228Y-118968761D01*
X165415685Y-118992952D01*
G04 #@! TO.C,C36*
X181873428Y-117016914D02*
X181897619Y-117038685D01*
X181921809Y-117104000D01*
X181921809Y-117147542D01*
X181897619Y-117212857D01*
X181849238Y-117256400D01*
X181800857Y-117278171D01*
X181704095Y-117299942D01*
X181631523Y-117299942D01*
X181534761Y-117278171D01*
X181486380Y-117256400D01*
X181438000Y-117212857D01*
X181413809Y-117147542D01*
X181413809Y-117104000D01*
X181438000Y-117038685D01*
X181462190Y-117016914D01*
X181413809Y-116864514D02*
X181413809Y-116581485D01*
X181607333Y-116733885D01*
X181607333Y-116668571D01*
X181631523Y-116625028D01*
X181655714Y-116603257D01*
X181704095Y-116581485D01*
X181825047Y-116581485D01*
X181873428Y-116603257D01*
X181897619Y-116625028D01*
X181921809Y-116668571D01*
X181921809Y-116799200D01*
X181897619Y-116842742D01*
X181873428Y-116864514D01*
X181413809Y-116189600D02*
X181413809Y-116276685D01*
X181438000Y-116320228D01*
X181462190Y-116342000D01*
X181534761Y-116385542D01*
X181631523Y-116407314D01*
X181825047Y-116407314D01*
X181873428Y-116385542D01*
X181897619Y-116363771D01*
X181921809Y-116320228D01*
X181921809Y-116233142D01*
X181897619Y-116189600D01*
X181873428Y-116167828D01*
X181825047Y-116146057D01*
X181704095Y-116146057D01*
X181655714Y-116167828D01*
X181631523Y-116189600D01*
X181607333Y-116233142D01*
X181607333Y-116320228D01*
X181631523Y-116363771D01*
X181655714Y-116385542D01*
X181704095Y-116407314D01*
G04 #@! TO.C,C35*
X153373428Y-101916914D02*
X153397619Y-101938685D01*
X153421809Y-102004000D01*
X153421809Y-102047542D01*
X153397619Y-102112857D01*
X153349238Y-102156400D01*
X153300857Y-102178171D01*
X153204095Y-102199942D01*
X153131523Y-102199942D01*
X153034761Y-102178171D01*
X152986380Y-102156400D01*
X152938000Y-102112857D01*
X152913809Y-102047542D01*
X152913809Y-102004000D01*
X152938000Y-101938685D01*
X152962190Y-101916914D01*
X152913809Y-101764514D02*
X152913809Y-101481485D01*
X153107333Y-101633885D01*
X153107333Y-101568571D01*
X153131523Y-101525028D01*
X153155714Y-101503257D01*
X153204095Y-101481485D01*
X153325047Y-101481485D01*
X153373428Y-101503257D01*
X153397619Y-101525028D01*
X153421809Y-101568571D01*
X153421809Y-101699200D01*
X153397619Y-101742742D01*
X153373428Y-101764514D01*
X152913809Y-101067828D02*
X152913809Y-101285542D01*
X153155714Y-101307314D01*
X153131523Y-101285542D01*
X153107333Y-101242000D01*
X153107333Y-101133142D01*
X153131523Y-101089600D01*
X153155714Y-101067828D01*
X153204095Y-101046057D01*
X153325047Y-101046057D01*
X153373428Y-101067828D01*
X153397619Y-101089600D01*
X153421809Y-101133142D01*
X153421809Y-101242000D01*
X153397619Y-101285542D01*
X153373428Y-101307314D01*
G04 #@! TO.C,C34*
X181973428Y-114216914D02*
X181997619Y-114238685D01*
X182021809Y-114304000D01*
X182021809Y-114347542D01*
X181997619Y-114412857D01*
X181949238Y-114456400D01*
X181900857Y-114478171D01*
X181804095Y-114499942D01*
X181731523Y-114499942D01*
X181634761Y-114478171D01*
X181586380Y-114456400D01*
X181538000Y-114412857D01*
X181513809Y-114347542D01*
X181513809Y-114304000D01*
X181538000Y-114238685D01*
X181562190Y-114216914D01*
X181513809Y-114064514D02*
X181513809Y-113781485D01*
X181707333Y-113933885D01*
X181707333Y-113868571D01*
X181731523Y-113825028D01*
X181755714Y-113803257D01*
X181804095Y-113781485D01*
X181925047Y-113781485D01*
X181973428Y-113803257D01*
X181997619Y-113825028D01*
X182021809Y-113868571D01*
X182021809Y-113999200D01*
X181997619Y-114042742D01*
X181973428Y-114064514D01*
X181683142Y-113389600D02*
X182021809Y-113389600D01*
X181489619Y-113498457D02*
X181852476Y-113607314D01*
X181852476Y-113324285D01*
G04 #@! TO.C,C30*
X182553428Y-110656914D02*
X182577619Y-110678685D01*
X182601809Y-110744000D01*
X182601809Y-110787542D01*
X182577619Y-110852857D01*
X182529238Y-110896400D01*
X182480857Y-110918171D01*
X182384095Y-110939942D01*
X182311523Y-110939942D01*
X182214761Y-110918171D01*
X182166380Y-110896400D01*
X182118000Y-110852857D01*
X182093809Y-110787542D01*
X182093809Y-110744000D01*
X182118000Y-110678685D01*
X182142190Y-110656914D01*
X182093809Y-110504514D02*
X182093809Y-110221485D01*
X182287333Y-110373885D01*
X182287333Y-110308571D01*
X182311523Y-110265028D01*
X182335714Y-110243257D01*
X182384095Y-110221485D01*
X182505047Y-110221485D01*
X182553428Y-110243257D01*
X182577619Y-110265028D01*
X182601809Y-110308571D01*
X182601809Y-110439200D01*
X182577619Y-110482742D01*
X182553428Y-110504514D01*
X182093809Y-109938457D02*
X182093809Y-109894914D01*
X182118000Y-109851371D01*
X182142190Y-109829600D01*
X182190571Y-109807828D01*
X182287333Y-109786057D01*
X182408285Y-109786057D01*
X182505047Y-109807828D01*
X182553428Y-109829600D01*
X182577619Y-109851371D01*
X182601809Y-109894914D01*
X182601809Y-109938457D01*
X182577619Y-109982000D01*
X182553428Y-110003771D01*
X182505047Y-110025542D01*
X182408285Y-110047314D01*
X182287333Y-110047314D01*
X182190571Y-110025542D01*
X182142190Y-110003771D01*
X182118000Y-109982000D01*
X182093809Y-109938457D01*
G04 #@! TO.C,C29*
X185220428Y-108243914D02*
X185244619Y-108265685D01*
X185268809Y-108331000D01*
X185268809Y-108374542D01*
X185244619Y-108439857D01*
X185196238Y-108483400D01*
X185147857Y-108505171D01*
X185051095Y-108526942D01*
X184978523Y-108526942D01*
X184881761Y-108505171D01*
X184833380Y-108483400D01*
X184785000Y-108439857D01*
X184760809Y-108374542D01*
X184760809Y-108331000D01*
X184785000Y-108265685D01*
X184809190Y-108243914D01*
X184809190Y-108069742D02*
X184785000Y-108047971D01*
X184760809Y-108004428D01*
X184760809Y-107895571D01*
X184785000Y-107852028D01*
X184809190Y-107830257D01*
X184857571Y-107808485D01*
X184905952Y-107808485D01*
X184978523Y-107830257D01*
X185268809Y-108091514D01*
X185268809Y-107808485D01*
X185268809Y-107590771D02*
X185268809Y-107503685D01*
X185244619Y-107460142D01*
X185220428Y-107438371D01*
X185147857Y-107394828D01*
X185051095Y-107373057D01*
X184857571Y-107373057D01*
X184809190Y-107394828D01*
X184785000Y-107416600D01*
X184760809Y-107460142D01*
X184760809Y-107547228D01*
X184785000Y-107590771D01*
X184809190Y-107612542D01*
X184857571Y-107634314D01*
X184978523Y-107634314D01*
X185026904Y-107612542D01*
X185051095Y-107590771D01*
X185075285Y-107547228D01*
X185075285Y-107460142D01*
X185051095Y-107416600D01*
X185026904Y-107394828D01*
X184978523Y-107373057D01*
G04 #@! TO.C,C28*
X182426428Y-105957914D02*
X182450619Y-105979685D01*
X182474809Y-106045000D01*
X182474809Y-106088542D01*
X182450619Y-106153857D01*
X182402238Y-106197400D01*
X182353857Y-106219171D01*
X182257095Y-106240942D01*
X182184523Y-106240942D01*
X182087761Y-106219171D01*
X182039380Y-106197400D01*
X181991000Y-106153857D01*
X181966809Y-106088542D01*
X181966809Y-106045000D01*
X181991000Y-105979685D01*
X182015190Y-105957914D01*
X182015190Y-105783742D02*
X181991000Y-105761971D01*
X181966809Y-105718428D01*
X181966809Y-105609571D01*
X181991000Y-105566028D01*
X182015190Y-105544257D01*
X182063571Y-105522485D01*
X182111952Y-105522485D01*
X182184523Y-105544257D01*
X182474809Y-105805514D01*
X182474809Y-105522485D01*
X182184523Y-105261228D02*
X182160333Y-105304771D01*
X182136142Y-105326542D01*
X182087761Y-105348314D01*
X182063571Y-105348314D01*
X182015190Y-105326542D01*
X181991000Y-105304771D01*
X181966809Y-105261228D01*
X181966809Y-105174142D01*
X181991000Y-105130600D01*
X182015190Y-105108828D01*
X182063571Y-105087057D01*
X182087761Y-105087057D01*
X182136142Y-105108828D01*
X182160333Y-105130600D01*
X182184523Y-105174142D01*
X182184523Y-105261228D01*
X182208714Y-105304771D01*
X182232904Y-105326542D01*
X182281285Y-105348314D01*
X182378047Y-105348314D01*
X182426428Y-105326542D01*
X182450619Y-105304771D01*
X182474809Y-105261228D01*
X182474809Y-105174142D01*
X182450619Y-105130600D01*
X182426428Y-105108828D01*
X182378047Y-105087057D01*
X182281285Y-105087057D01*
X182232904Y-105108828D01*
X182208714Y-105130600D01*
X182184523Y-105174142D01*
G04 #@! TO.C,C27*
X181156428Y-102909914D02*
X181180619Y-102931685D01*
X181204809Y-102997000D01*
X181204809Y-103040542D01*
X181180619Y-103105857D01*
X181132238Y-103149400D01*
X181083857Y-103171171D01*
X180987095Y-103192942D01*
X180914523Y-103192942D01*
X180817761Y-103171171D01*
X180769380Y-103149400D01*
X180721000Y-103105857D01*
X180696809Y-103040542D01*
X180696809Y-102997000D01*
X180721000Y-102931685D01*
X180745190Y-102909914D01*
X180745190Y-102735742D02*
X180721000Y-102713971D01*
X180696809Y-102670428D01*
X180696809Y-102561571D01*
X180721000Y-102518028D01*
X180745190Y-102496257D01*
X180793571Y-102474485D01*
X180841952Y-102474485D01*
X180914523Y-102496257D01*
X181204809Y-102757514D01*
X181204809Y-102474485D01*
X180696809Y-102322085D02*
X180696809Y-102017285D01*
X181204809Y-102213228D01*
G04 #@! TO.C,C23*
X170610571Y-115529085D02*
X170586380Y-115507314D01*
X170562190Y-115442000D01*
X170562190Y-115398457D01*
X170586380Y-115333142D01*
X170634761Y-115289600D01*
X170683142Y-115267828D01*
X170779904Y-115246057D01*
X170852476Y-115246057D01*
X170949238Y-115267828D01*
X170997619Y-115289600D01*
X171046000Y-115333142D01*
X171070190Y-115398457D01*
X171070190Y-115442000D01*
X171046000Y-115507314D01*
X171021809Y-115529085D01*
X171021809Y-115703257D02*
X171046000Y-115725028D01*
X171070190Y-115768571D01*
X171070190Y-115877428D01*
X171046000Y-115920971D01*
X171021809Y-115942742D01*
X170973428Y-115964514D01*
X170925047Y-115964514D01*
X170852476Y-115942742D01*
X170562190Y-115681485D01*
X170562190Y-115964514D01*
X171070190Y-116116914D02*
X171070190Y-116399942D01*
X170876666Y-116247542D01*
X170876666Y-116312857D01*
X170852476Y-116356400D01*
X170828285Y-116378171D01*
X170779904Y-116399942D01*
X170658952Y-116399942D01*
X170610571Y-116378171D01*
X170586380Y-116356400D01*
X170562190Y-116312857D01*
X170562190Y-116182228D01*
X170586380Y-116138685D01*
X170610571Y-116116914D01*
G04 #@! TO.C,C22*
X170273428Y-108716914D02*
X170297619Y-108738685D01*
X170321809Y-108804000D01*
X170321809Y-108847542D01*
X170297619Y-108912857D01*
X170249238Y-108956400D01*
X170200857Y-108978171D01*
X170104095Y-108999942D01*
X170031523Y-108999942D01*
X169934761Y-108978171D01*
X169886380Y-108956400D01*
X169838000Y-108912857D01*
X169813809Y-108847542D01*
X169813809Y-108804000D01*
X169838000Y-108738685D01*
X169862190Y-108716914D01*
X169862190Y-108542742D02*
X169838000Y-108520971D01*
X169813809Y-108477428D01*
X169813809Y-108368571D01*
X169838000Y-108325028D01*
X169862190Y-108303257D01*
X169910571Y-108281485D01*
X169958952Y-108281485D01*
X170031523Y-108303257D01*
X170321809Y-108564514D01*
X170321809Y-108281485D01*
X169862190Y-108107314D02*
X169838000Y-108085542D01*
X169813809Y-108042000D01*
X169813809Y-107933142D01*
X169838000Y-107889600D01*
X169862190Y-107867828D01*
X169910571Y-107846057D01*
X169958952Y-107846057D01*
X170031523Y-107867828D01*
X170321809Y-108129085D01*
X170321809Y-107846057D01*
G04 #@! TO.C,C21*
X170110571Y-98829085D02*
X170086380Y-98807314D01*
X170062190Y-98742000D01*
X170062190Y-98698457D01*
X170086380Y-98633142D01*
X170134761Y-98589600D01*
X170183142Y-98567828D01*
X170279904Y-98546057D01*
X170352476Y-98546057D01*
X170449238Y-98567828D01*
X170497619Y-98589600D01*
X170546000Y-98633142D01*
X170570190Y-98698457D01*
X170570190Y-98742000D01*
X170546000Y-98807314D01*
X170521809Y-98829085D01*
X170521809Y-99003257D02*
X170546000Y-99025028D01*
X170570190Y-99068571D01*
X170570190Y-99177428D01*
X170546000Y-99220971D01*
X170521809Y-99242742D01*
X170473428Y-99264514D01*
X170425047Y-99264514D01*
X170352476Y-99242742D01*
X170062190Y-98981485D01*
X170062190Y-99264514D01*
X170062190Y-99699942D02*
X170062190Y-99438685D01*
X170062190Y-99569314D02*
X170570190Y-99569314D01*
X170497619Y-99525771D01*
X170449238Y-99482228D01*
X170425047Y-99438685D01*
G04 #@! TO.C,C19*
X170673428Y-101816914D02*
X170697619Y-101838685D01*
X170721809Y-101904000D01*
X170721809Y-101947542D01*
X170697619Y-102012857D01*
X170649238Y-102056400D01*
X170600857Y-102078171D01*
X170504095Y-102099942D01*
X170431523Y-102099942D01*
X170334761Y-102078171D01*
X170286380Y-102056400D01*
X170238000Y-102012857D01*
X170213809Y-101947542D01*
X170213809Y-101904000D01*
X170238000Y-101838685D01*
X170262190Y-101816914D01*
X170721809Y-101381485D02*
X170721809Y-101642742D01*
X170721809Y-101512114D02*
X170213809Y-101512114D01*
X170286380Y-101555657D01*
X170334761Y-101599200D01*
X170358952Y-101642742D01*
X170721809Y-101163771D02*
X170721809Y-101076685D01*
X170697619Y-101033142D01*
X170673428Y-101011371D01*
X170600857Y-100967828D01*
X170504095Y-100946057D01*
X170310571Y-100946057D01*
X170262190Y-100967828D01*
X170238000Y-100989600D01*
X170213809Y-101033142D01*
X170213809Y-101120228D01*
X170238000Y-101163771D01*
X170262190Y-101185542D01*
X170310571Y-101207314D01*
X170431523Y-101207314D01*
X170479904Y-101185542D01*
X170504095Y-101163771D01*
X170528285Y-101120228D01*
X170528285Y-101033142D01*
X170504095Y-100989600D01*
X170479904Y-100967828D01*
X170431523Y-100946057D01*
G04 #@! TO.C,C13*
X164044085Y-98352428D02*
X164022314Y-98376619D01*
X163957000Y-98400809D01*
X163913457Y-98400809D01*
X163848142Y-98376619D01*
X163804600Y-98328238D01*
X163782828Y-98279857D01*
X163761057Y-98183095D01*
X163761057Y-98110523D01*
X163782828Y-98013761D01*
X163804600Y-97965380D01*
X163848142Y-97917000D01*
X163913457Y-97892809D01*
X163957000Y-97892809D01*
X164022314Y-97917000D01*
X164044085Y-97941190D01*
X164479514Y-98400809D02*
X164218257Y-98400809D01*
X164348885Y-98400809D02*
X164348885Y-97892809D01*
X164305342Y-97965380D01*
X164261800Y-98013761D01*
X164218257Y-98037952D01*
X164631914Y-97892809D02*
X164914942Y-97892809D01*
X164762542Y-98086333D01*
X164827857Y-98086333D01*
X164871400Y-98110523D01*
X164893171Y-98134714D01*
X164914942Y-98183095D01*
X164914942Y-98304047D01*
X164893171Y-98352428D01*
X164871400Y-98376619D01*
X164827857Y-98400809D01*
X164697228Y-98400809D01*
X164653685Y-98376619D01*
X164631914Y-98352428D01*
G04 #@! TO.C,C12*
X170773428Y-105016914D02*
X170797619Y-105038685D01*
X170821809Y-105104000D01*
X170821809Y-105147542D01*
X170797619Y-105212857D01*
X170749238Y-105256400D01*
X170700857Y-105278171D01*
X170604095Y-105299942D01*
X170531523Y-105299942D01*
X170434761Y-105278171D01*
X170386380Y-105256400D01*
X170338000Y-105212857D01*
X170313809Y-105147542D01*
X170313809Y-105104000D01*
X170338000Y-105038685D01*
X170362190Y-105016914D01*
X170821809Y-104581485D02*
X170821809Y-104842742D01*
X170821809Y-104712114D02*
X170313809Y-104712114D01*
X170386380Y-104755657D01*
X170434761Y-104799200D01*
X170458952Y-104842742D01*
X170362190Y-104407314D02*
X170338000Y-104385542D01*
X170313809Y-104342000D01*
X170313809Y-104233142D01*
X170338000Y-104189600D01*
X170362190Y-104167828D01*
X170410571Y-104146057D01*
X170458952Y-104146057D01*
X170531523Y-104167828D01*
X170821809Y-104429085D01*
X170821809Y-104146057D01*
G04 #@! TO.C,C11*
X157555881Y-117843460D02*
X157523381Y-117845171D01*
X157460092Y-117816092D01*
X157429302Y-117785302D01*
X157400224Y-117722013D01*
X157403645Y-117657013D01*
X157422460Y-117607408D01*
X157475487Y-117523592D01*
X157526802Y-117472276D01*
X157610618Y-117419250D01*
X157660223Y-117400434D01*
X157725223Y-117397013D01*
X157788513Y-117426092D01*
X157819302Y-117456881D01*
X157848381Y-117520171D01*
X157846671Y-117552671D01*
X157829565Y-118185565D02*
X157644829Y-118000828D01*
X157737197Y-118093197D02*
X158096407Y-117733986D01*
X158014302Y-117754513D01*
X157949302Y-117757934D01*
X157901407Y-117744250D01*
X158137460Y-118493460D02*
X157952723Y-118308723D01*
X158045091Y-118401091D02*
X158404302Y-118041881D01*
X158322197Y-118062407D01*
X158257197Y-118065828D01*
X158209302Y-118052144D01*
G04 #@! TO.C,C10*
X165198085Y-113604428D02*
X165176314Y-113628619D01*
X165111000Y-113652809D01*
X165067457Y-113652809D01*
X165002142Y-113628619D01*
X164958600Y-113580238D01*
X164936828Y-113531857D01*
X164915057Y-113435095D01*
X164915057Y-113362523D01*
X164936828Y-113265761D01*
X164958600Y-113217380D01*
X165002142Y-113169000D01*
X165067457Y-113144809D01*
X165111000Y-113144809D01*
X165176314Y-113169000D01*
X165198085Y-113193190D01*
X165633514Y-113652809D02*
X165372257Y-113652809D01*
X165502885Y-113652809D02*
X165502885Y-113144809D01*
X165459342Y-113217380D01*
X165415800Y-113265761D01*
X165372257Y-113289952D01*
X165916542Y-113144809D02*
X165960085Y-113144809D01*
X166003628Y-113169000D01*
X166025400Y-113193190D01*
X166047171Y-113241571D01*
X166068942Y-113338333D01*
X166068942Y-113459285D01*
X166047171Y-113556047D01*
X166025400Y-113604428D01*
X166003628Y-113628619D01*
X165960085Y-113652809D01*
X165916542Y-113652809D01*
X165873000Y-113628619D01*
X165851228Y-113604428D01*
X165829457Y-113556047D01*
X165807685Y-113459285D01*
X165807685Y-113338333D01*
X165829457Y-113241571D01*
X165851228Y-113193190D01*
X165873000Y-113169000D01*
X165916542Y-113144809D01*
G04 #@! TO.C,X1*
D20*
X158440333Y-85033333D02*
X157740333Y-85500000D01*
X158440333Y-85500000D02*
X157740333Y-85033333D01*
X157740333Y-86133333D02*
X157740333Y-85733333D01*
X157740333Y-85933333D02*
X158440333Y-85933333D01*
X158340333Y-85866666D01*
X158273666Y-85800000D01*
X158240333Y-85733333D01*
G04 #@! TO.C,P4*
D21*
X200315142Y-108893428D02*
X200315142Y-107369428D01*
X200895714Y-107369428D01*
X201040857Y-107442000D01*
X201113428Y-107514571D01*
X201186000Y-107659714D01*
X201186000Y-107877428D01*
X201113428Y-108022571D01*
X201040857Y-108095142D01*
X200895714Y-108167714D01*
X200315142Y-108167714D01*
X202492285Y-107877428D02*
X202492285Y-108893428D01*
X202129428Y-107296857D02*
X201766571Y-108385428D01*
X202710000Y-108385428D01*
G04 #@! TD*
%LPC*%
D23*
G04 #@! TO.C,R34*
X191389000Y-100584000D03*
X192913000Y-100584000D03*
G04 #@! TD*
G04 #@! TO.C,R28*
X191389000Y-97536000D03*
X192913000Y-97536000D03*
G04 #@! TD*
D24*
G04 #@! TO.C,1PIN*
X205994000Y-87630000D03*
G04 #@! TD*
G04 #@! TO.C,1PIN*
X221234000Y-87630000D03*
G04 #@! TD*
D23*
G04 #@! TO.C,R42*
X191291116Y-99060000D03*
X192913000Y-99060000D03*
G04 #@! TD*
D25*
G04 #@! TO.C,C46*
X225044000Y-114300000D03*
D26*
X232544000Y-114300000D03*
G04 #@! TD*
G04 #@! TO.C,C45*
X217304000Y-114300000D03*
D25*
X209804000Y-114300000D03*
G04 #@! TD*
D27*
G04 #@! TO.C,Q1*
X226949000Y-99059000D03*
X228219000Y-99059000D03*
X229489000Y-99059000D03*
X230759000Y-99059000D03*
D28*
X228854000Y-102789000D03*
G04 #@! TD*
D29*
G04 #@! TO.C,P7*
X213614000Y-87630000D03*
G04 #@! TD*
G04 #@! TO.C,P9*
X228854000Y-87630000D03*
G04 #@! TD*
G04 #@! TO.C,P6*
X198374000Y-87630000D03*
G04 #@! TD*
D30*
G04 #@! TO.C,Q2*
X227871500Y-94282000D03*
D31*
X231601500Y-96187000D03*
X231601500Y-94917000D03*
X231601500Y-93647000D03*
X231601500Y-92377000D03*
G04 #@! TD*
D28*
G04 #@! TO.C,Q3*
X213614000Y-102789000D03*
D27*
X215519000Y-99059000D03*
X214249000Y-99059000D03*
X212979000Y-99059000D03*
X211709000Y-99059000D03*
G04 #@! TD*
D26*
G04 #@! TO.C,C42*
X202064000Y-114300000D03*
D25*
X194564000Y-114300000D03*
G04 #@! TD*
D31*
G04 #@! TO.C,Q6*
X201121500Y-92377000D03*
X201121500Y-93647000D03*
X201121500Y-94917000D03*
X201121500Y-96187000D03*
D30*
X197391500Y-94282000D03*
G04 #@! TD*
D31*
G04 #@! TO.C,Q4*
X216917000Y-92377000D03*
X216917000Y-93647000D03*
X216917000Y-94917000D03*
X216917000Y-96187000D03*
D30*
X213187000Y-94282000D03*
G04 #@! TD*
D28*
G04 #@! TO.C,Q5*
X198374000Y-102789000D03*
D27*
X200279000Y-99059000D03*
X199009000Y-99059000D03*
X197739000Y-99059000D03*
X196469000Y-99059000D03*
G04 #@! TD*
D32*
G04 #@! TO.C,P1*
X154392000Y-92322240D03*
X154392000Y-94323760D03*
X154392000Y-96322740D03*
X154392000Y-98324260D03*
X154392000Y-90323260D03*
X154392000Y-88321740D03*
G04 #@! TD*
D33*
G04 #@! TO.C,P101*
X171863720Y-86673000D03*
D34*
X175866760Y-86673000D03*
X173865240Y-86673000D03*
X177865740Y-86673000D03*
G04 #@! TD*
D32*
G04 #@! TO.C,P2*
X165338760Y-120523000D03*
X163337240Y-120523000D03*
X161338260Y-120523000D03*
X159336740Y-120523000D03*
X167337740Y-120523000D03*
X169339260Y-120523000D03*
G04 #@! TD*
D35*
G04 #@! TO.C,K1*
X155194000Y-114935000D03*
X155194000Y-117475000D03*
X155194000Y-120015000D03*
G04 #@! TD*
D36*
G04 #@! TO.C,C37*
X189992000Y-85725000D03*
X189992000Y-90876120D03*
G04 #@! TD*
D37*
G04 #@! TO.C,L1*
X176530000Y-97622360D03*
X176530000Y-92623640D03*
G04 #@! TD*
D29*
G04 #@! TO.C,P5*
X221488000Y-108204000D03*
G04 #@! TD*
D38*
G04 #@! TO.C,U1*
X154777440Y-104810560D03*
X154777440Y-105310940D03*
X154777440Y-105811320D03*
X154777440Y-106311700D03*
X154777440Y-106812080D03*
X154777440Y-103311960D03*
X154777440Y-103809800D03*
X154777440Y-104310180D03*
D39*
X156778960Y-112811560D03*
X157276800Y-112811560D03*
X157777180Y-112811560D03*
X158277560Y-112811560D03*
X158777940Y-112811560D03*
X159278320Y-112811560D03*
X159778700Y-112811560D03*
X160279080Y-112811560D03*
D38*
X166278560Y-110810040D03*
X166278560Y-110312200D03*
X166278560Y-109811820D03*
X166278560Y-109311440D03*
X166278560Y-108811060D03*
X166278560Y-108310680D03*
X166278560Y-107810300D03*
X166278560Y-107309920D03*
D39*
X164277040Y-101310440D03*
X163779200Y-101310440D03*
X163278820Y-101310440D03*
X162778440Y-101310440D03*
X162278060Y-101310440D03*
X161777680Y-101310440D03*
X161277300Y-101310440D03*
X160776920Y-101310440D03*
D38*
X154777440Y-107309920D03*
X154777440Y-107810300D03*
X154777440Y-108310680D03*
D39*
X160776920Y-112811560D03*
X161277300Y-112811560D03*
X161777680Y-112811560D03*
D38*
X166278560Y-106812080D03*
X166278560Y-106311700D03*
X166278560Y-105811320D03*
D39*
X160279080Y-101310440D03*
X159778700Y-101310440D03*
X159278320Y-101310440D03*
D38*
X154777440Y-108811060D03*
X154777440Y-109311440D03*
X154777440Y-109811820D03*
X154777440Y-110312200D03*
X154777440Y-110810040D03*
D39*
X162278060Y-112811560D03*
X162778440Y-112811560D03*
X163278820Y-112811560D03*
X163779200Y-112811560D03*
X164277040Y-112811560D03*
D38*
X166278560Y-105310940D03*
X166278560Y-104810560D03*
X166278560Y-104310180D03*
X166278560Y-103809800D03*
X166278560Y-103311960D03*
D39*
X158777940Y-101310440D03*
X158277560Y-101310440D03*
X157777180Y-101310440D03*
X157276800Y-101310440D03*
X156778960Y-101310440D03*
G04 #@! TD*
D40*
G04 #@! TO.C,U3*
X179768500Y-110380780D03*
X179768500Y-109880400D03*
X179768500Y-109380020D03*
X179768500Y-108879640D03*
X179768500Y-108379260D03*
X179768500Y-107881420D03*
X179768500Y-107381040D03*
X179768500Y-106880660D03*
X179768500Y-106380280D03*
X179768500Y-105879900D03*
X179768500Y-105379520D03*
X179768500Y-114879120D03*
X179768500Y-114381280D03*
X179768500Y-113880900D03*
X171767500Y-109380020D03*
X179768500Y-112880140D03*
X179768500Y-112379760D03*
X179768500Y-111879380D03*
X179768500Y-111381540D03*
X179768500Y-110881160D03*
X171767500Y-106880660D03*
X171767500Y-107381040D03*
X171767500Y-107881420D03*
X171767500Y-108379260D03*
X171767500Y-108879640D03*
X179768500Y-113380520D03*
X171767500Y-109880400D03*
X171767500Y-110380780D03*
X171767500Y-110881160D03*
X171767500Y-111381540D03*
X171767500Y-111879380D03*
X171767500Y-112379760D03*
X171767500Y-112880140D03*
X171767500Y-101381560D03*
X171767500Y-101879400D03*
X171767500Y-102379780D03*
X171767500Y-102880160D03*
X171767500Y-103380540D03*
X171767500Y-103880920D03*
X171767500Y-104381300D03*
X171767500Y-104879140D03*
X171767500Y-105379520D03*
X171767500Y-105879900D03*
X171767500Y-106380280D03*
X171767500Y-113380520D03*
X171767500Y-113880900D03*
X171767500Y-114381280D03*
X171767500Y-114879120D03*
X179768500Y-104879140D03*
X179768500Y-104381300D03*
X179768500Y-103880920D03*
X179768500Y-103380540D03*
X179768500Y-102880160D03*
X179768500Y-102379780D03*
X179768500Y-101879400D03*
X179768500Y-101381560D03*
D41*
X175768000Y-108077000D03*
G04 #@! TD*
D24*
G04 #@! TO.C,1PIN*
X149592000Y-120223000D03*
G04 #@! TD*
G04 #@! TO.C,1PIN*
X149592000Y-87723000D03*
G04 #@! TD*
D42*
G04 #@! TO.C,C1*
X185674000Y-85725000D03*
X185674000Y-89027000D03*
G04 #@! TD*
G04 #@! TO.C,C8*
X183134000Y-85725000D03*
X183134000Y-89027000D03*
G04 #@! TD*
D43*
G04 #@! TO.C,C39*
X174244000Y-117221000D03*
X177546000Y-117221000D03*
G04 #@! TD*
D44*
G04 #@! TO.C,R1*
X188722000Y-120523000D03*
X188722000Y-122047000D03*
G04 #@! TD*
D23*
G04 #@! TO.C,R2*
X161798000Y-117983000D03*
X163322000Y-117983000D03*
G04 #@! TD*
D44*
G04 #@! TO.C,R17*
X171196000Y-92583000D03*
X171196000Y-94107000D03*
G04 #@! TD*
G04 #@! TO.C,R18*
X171196000Y-95123000D03*
X171196000Y-96647000D03*
G04 #@! TD*
G04 #@! TO.C,R19*
X167894000Y-100457000D03*
X167894000Y-101981000D03*
G04 #@! TD*
D23*
G04 #@! TO.C,R20*
X169672000Y-103251000D03*
X168148000Y-103251000D03*
G04 #@! TD*
D44*
G04 #@! TO.C,R25*
X181356000Y-98552000D03*
X181356000Y-100076000D03*
G04 #@! TD*
D23*
G04 #@! TO.C,R48*
X185674000Y-113030000D03*
X184150000Y-113030000D03*
G04 #@! TD*
G04 #@! TO.C,R49*
X185674000Y-114554000D03*
X184150000Y-114554000D03*
G04 #@! TD*
G04 #@! TO.C,R50*
X185674000Y-116078000D03*
X184150000Y-116078000D03*
G04 #@! TD*
G04 #@! TO.C,R51*
X185674000Y-117602000D03*
X184150000Y-117602000D03*
G04 #@! TD*
D44*
G04 #@! TO.C,R103*
X164042000Y-95385000D03*
X164042000Y-93861000D03*
G04 #@! TD*
G04 #@! TO.C,R104*
X165592000Y-95385000D03*
X165592000Y-93861000D03*
G04 #@! TD*
G04 #@! TO.C,R401*
X169092000Y-92985000D03*
X169092000Y-91461000D03*
G04 #@! TD*
D45*
G04 #@! TO.C,U401*
X158637000Y-92356000D03*
X158637000Y-97690000D03*
X159907000Y-92356000D03*
X161177000Y-92356000D03*
X162447000Y-92356000D03*
X159907000Y-97690000D03*
X161177000Y-97690000D03*
X162447000Y-97690000D03*
G04 #@! TD*
D46*
G04 #@! TO.C,P3*
X173573440Y-120523000D03*
D47*
X177576480Y-120523000D03*
X175574960Y-120523000D03*
X179575460Y-120523000D03*
X181576980Y-120523000D03*
X183578500Y-120523000D03*
X185577480Y-120523000D03*
G04 #@! TD*
D23*
G04 #@! TO.C,C401*
X161404000Y-99223000D03*
X159880000Y-99223000D03*
G04 #@! TD*
G04 #@! TO.C,C41*
X165862000Y-117983000D03*
X164338000Y-117983000D03*
G04 #@! TD*
D44*
G04 #@! TO.C,C36*
X182880000Y-115951000D03*
X182880000Y-117475000D03*
G04 #@! TD*
G04 #@! TO.C,C35*
X154432000Y-100838000D03*
X154432000Y-102362000D03*
G04 #@! TD*
G04 #@! TO.C,C34*
X182880000Y-113157000D03*
X182880000Y-114681000D03*
G04 #@! TD*
G04 #@! TO.C,C30*
X183515000Y-111125000D03*
X183515000Y-109601000D03*
G04 #@! TD*
G04 #@! TO.C,C29*
X186182000Y-108712000D03*
X186182000Y-107188000D03*
G04 #@! TD*
G04 #@! TO.C,C28*
X183388000Y-106426000D03*
X183388000Y-104902000D03*
G04 #@! TD*
G04 #@! TO.C,C27*
X182118000Y-103378000D03*
X182118000Y-101854000D03*
G04 #@! TD*
G04 #@! TO.C,C23*
X169672000Y-116586000D03*
X169672000Y-115062000D03*
G04 #@! TD*
G04 #@! TO.C,C22*
X168910000Y-107950000D03*
X168910000Y-109474000D03*
G04 #@! TD*
D23*
G04 #@! TO.C,C21*
X169418000Y-99187000D03*
X167894000Y-99187000D03*
G04 #@! TD*
D44*
G04 #@! TO.C,C19*
X169418000Y-100457000D03*
X169418000Y-101981000D03*
G04 #@! TD*
D23*
G04 #@! TO.C,C13*
X163576000Y-99314000D03*
X165100000Y-99314000D03*
G04 #@! TD*
G04 #@! TO.C,C12*
X168148000Y-104775000D03*
X169672000Y-104775000D03*
G04 #@! TD*
D48*
G04 #@! TO.C,C11*
X158465185Y-116809185D03*
D49*
G36*
X157836567Y-116988790D02*
X158644790Y-116180567D01*
X159093803Y-116629580D01*
X158285580Y-117437803D01*
X157836567Y-116988790D01*
X157836567Y-116988790D01*
G37*
D48*
X159542815Y-117886815D03*
D49*
G36*
X158914197Y-118066420D02*
X159722420Y-117258197D01*
X160171433Y-117707210D01*
X159363210Y-118515433D01*
X158914197Y-118066420D01*
X158914197Y-118066420D01*
G37*
G04 #@! TD*
D23*
G04 #@! TO.C,C10*
X166243000Y-114554000D03*
X164719000Y-114554000D03*
G04 #@! TD*
D50*
G04 #@! TO.C,X1*
X162357000Y-90400000D03*
X163157000Y-90400000D03*
X163957000Y-90400000D03*
X164757000Y-90400000D03*
X165557000Y-90400000D03*
D51*
X168507000Y-89200000D03*
X159407000Y-89200000D03*
D52*
X168307000Y-86125000D03*
X159607000Y-86125000D03*
D53*
X165957000Y-88900000D03*
X161957000Y-88900000D03*
G04 #@! TD*
D29*
G04 #@! TO.C,P4*
X205740000Y-108204000D03*
G04 #@! TD*
D54*
G36*
X210947000Y-115443000D02*
X201041000Y-115443000D01*
X201041000Y-105791000D01*
X210947000Y-105791000D01*
X210947000Y-115443000D01*
X210947000Y-115443000D01*
G37*
X210947000Y-115443000D02*
X201041000Y-115443000D01*
X201041000Y-105791000D01*
X210947000Y-105791000D01*
X210947000Y-115443000D01*
G36*
X226187000Y-115443000D02*
X216281000Y-115443000D01*
X216281000Y-105791000D01*
X226187000Y-105791000D01*
X226187000Y-115443000D01*
X226187000Y-115443000D01*
G37*
X226187000Y-115443000D02*
X216281000Y-115443000D01*
X216281000Y-105791000D01*
X226187000Y-105791000D01*
X226187000Y-115443000D01*
M02*
